<svg width="366" height="337" viewBox="0 0 366 337" fill="none" xmlns="http://www.w3.org/2000/svg">
<path d="M201.095 62.3844C195.676 69.9338 197.844 69.9338 189.173 77.4832C176.699 88.3442 161.157 93.1623 149.07 96.4819C144.884 97.6316 141.113 98.6016 138.027 99.5806C137.725 99.7 137.432 99.7956 137.148 99.866C135.45 100.432 133.987 100.6 132.812 100.849C130.739 101.288 129.561 101.974 129.561 105.524C129.561 111.085 130.462 143.085 146.488 164.84C150.188 169.864 154.254 174.341 159.229 177.821C166.132 182.648 174.787 185.554 186.651 185.331C196.108 185.154 204.108 182.37 210.85 177.821C214.01 175.688 216.894 173.167 219.521 170.345C231.366 157.621 238 138.765 241.279 121.701C243.237 111.513 243.999 101.963 243.961 94.7388C243.935 89.9016 244.034 90.2291 241.279 90.5284C240.019 90.6652 238.163 90.7962 235.425 90.4249C219.521 88.268 216.269 79.6401 201.095 62.3844Z" fill="#FFF0E1"/>
<path d="M189.173 77.4832C197.844 69.9338 195.676 69.9338 201.095 62.3844C216.269 79.6401 219.521 88.268 235.425 90.4249C238.163 90.7962 240.019 90.6652 241.279 90.5284C244.034 90.2291 243.935 89.9016 243.961 94.7388C247.375 91.8628 255.071 87.8365 258.54 94.7388C262.875 103.367 257.945 123.858 250.953 124.936C243.961 126.015 244.611 124.936 241.279 121.701C238 138.765 231.366 157.621 219.521 170.345C239.392 168.51 280.867 163.33 287.804 157.291C284.552 155.134 266.127 152.977 278.049 128.172C277.1 133.564 277.981 144.996 289.09 147.584C280.249 140.271 282.768 136.349 284.552 114.152C284.701 112.303 284.665 110.505 284.467 108.759C282.359 90.1299 261.854 77.4422 250.953 73.1692C252.037 72.0907 253.752 65.2014 248.785 47.2857C240.114 16.0099 212.368 11.4803 201.095 10.6175C189.823 9.75476 176.167 13.853 170.748 16.0099C158.103 14.2125 126.96 20.1082 103.548 58.0706C91.9588 74.9845 93.5881 85.3216 94.6941 92.2076C94.6965 92.2225 94.6989 92.2375 94.7012 92.2524C95.1434 95.005 95.4967 97.2048 94.8776 99.0528C92.7099 105.524 92.7099 114.152 79.7036 121.701C76.9344 123.308 74.8203 125.461 73.2223 127.869C75.709 124.607 90.6747 119.379 94.8776 114.152C99.2131 108.759 99.213 96.8959 99.213 88.268C99.213 81.3658 100.658 76.7643 101.381 75.3263C100.627 76.8263 101.446 80.9341 102.561 86.0176C104.654 95.554 107.79 108.524 103.548 114.152C66.6974 142.192 73.2005 156.212 68.8651 159.448C64.5297 162.683 86.2068 164.84 90.5422 164.84C94.0105 164.84 91.9873 156.931 90.5422 152.977C91.9874 151.179 94.8776 148.663 94.8776 152.977C94.8776 157.291 97.7679 162.683 99.213 164.84H113.303H146.488C130.462 143.085 129.561 111.085 129.561 105.524C129.561 101.974 130.739 101.288 132.812 100.849C133.987 100.6 135.45 100.432 137.148 99.866C137.434 99.7707 137.727 99.6756 138.027 99.5806C141.113 98.6016 144.884 97.6316 149.07 96.4819C161.157 93.1623 176.699 88.3442 189.173 77.4832Z" fill="#FEDC97"/>
<path d="M258.54 94.7388C255.071 87.8365 247.375 91.8628 243.961 94.7388C243.999 101.963 243.237 111.513 241.279 121.701C244.611 124.936 243.961 126.015 250.953 124.936C257.945 123.858 262.875 103.367 258.54 94.7388Z" fill="#FFF0E1"/>
<path d="M146.488 209.058C151.235 210.346 154.559 205.104 156.627 198.273C153.136 200.287 144.774 202.441 135.261 205.706C127.061 208.52 118.005 212.159 110.475 217.245C109.589 217.844 108.724 218.462 107.884 219.102C105.952 221.505 104.038 224.209 102.154 227.149C101.165 228.693 100.184 230.301 99.213 231.966C97.5854 234.757 95.9858 237.705 94.4225 240.767C91.519 246.453 88.7406 252.53 86.1394 258.718C79.1133 275.432 73.3809 292.955 69.9738 305.762C69.5712 307.275 69.201 308.722 68.8651 310.095C107.532 322.474 207.187 339.806 296.475 310.095C290.739 289.283 285.93 273.749 281.615 261.813C275.268 244.252 269.99 234.481 264.403 227.149C261.59 223.457 258.698 220.383 255.551 217.245C251.509 213.214 245.966 210.228 240.05 207.837C236.177 206.272 232.144 204.962 228.269 203.781C221.703 201.78 215.589 200.148 211.466 198.273C212.681 204.075 215.099 208.658 219.521 209.058C191.909 253.922 159.327 227.751 146.488 209.058Z" fill="#033F63"/>
<path d="M240.05 207.837C245.966 210.228 251.509 213.214 255.551 217.245C258.698 220.383 261.59 223.457 264.403 227.149C270.347 226.117 283.347 223.064 287.804 219.102L286.554 203.781L296.475 210.436C298.078 204.499 302.17 195.556 309.044 189.39C309.59 188.9 310.154 188.428 310.736 187.976C316.043 183.851 322.826 181.429 331.198 182.914C323.578 178.058 315.81 175.479 309.044 174.333C303.588 173.409 298.783 173.417 295.235 173.915C268.448 175.401 247.284 197.149 240.05 207.837Z" fill="#7C9885"/>
<path d="M256.372 167.106C237.683 172.107 229.85 193.64 228.269 203.781C232.144 204.962 236.177 206.272 240.05 207.837C247.284 197.149 268.448 175.401 295.235 173.915C286.554 167.106 274.773 163.392 256.372 167.106Z" fill="#B5B682"/>
<path d="M356 211.674C349.269 197.841 340.34 188.739 331.198 182.914C322.826 181.429 316.043 183.851 310.736 187.976C317.143 188.034 335.166 192.857 356 211.674Z" fill="#28666E"/>
<path fill-rule="evenodd" clip-rule="evenodd" d="M102.154 227.149C99.7284 227.562 95.7447 225.787 99.213 215.388C103.421 202.771 117.65 158.077 58.3741 163.39C56.5819 163.551 54.7226 163.757 52.7937 164.011C54.0157 165.773 55.3984 167.963 56.7189 170.345C61.4284 178.84 65.3476 189.778 58.3741 192.485C57.9386 192.654 57.5256 192.785 57.1341 192.879C47.4932 195.205 50.8125 175.635 47.8332 170.345C44.733 164.84 24.2712 156.202 25.5113 141.108C25.4909 141.14 25.4704 141.172 25.4499 141.204C19.8705 150.034 24.25 185.695 86.1394 258.718C88.7406 252.53 91.519 246.453 94.4225 240.767C93.129 241.592 90.5422 242.376 90.5422 238.91C90.5422 234.577 94.8776 231.212 99.213 231.966C100.184 230.301 101.165 228.693 102.154 227.149ZM83.1763 200.532C85.9545 191.619 76.8933 188.447 72.0154 187.976C74.057 193.989 72.0154 199.294 69.9738 207.837C67.9321 216.38 79.7036 211.674 83.1763 200.532ZM69.9738 215.388C67.5207 216.42 63.8646 219.597 68.8651 224.054C75.1156 229.625 72.8926 215.388 69.9738 215.388Z" fill="#7C9885"/>
<path fill-rule="evenodd" clip-rule="evenodd" d="M13.1103 189.39C19.9309 207.837 43.4928 204.865 49.0733 215.388C54.6538 225.911 31.7118 220.34 24.2712 210.436C16.8305 200.532 12.4902 201.151 11.8701 214.15C11.25 227.149 5.04951 232.101 19.3107 235.815C33.572 239.529 55.894 237.672 61.4745 246.338C67.0549 255.004 31.0917 250.671 24.2712 245.1C17.4506 239.529 6.90987 239.529 13.1103 250.671C19.3107 261.813 24.2712 271.717 37.9124 272.955C51.5536 274.193 71.329 268.622 73.2223 275.431C75.1156 282.24 50.3135 282.859 41.6327 278.526C32.952 274.193 30.4718 280.383 34.1921 287.192C37.9124 294.001 45.9731 305.762 61.4745 305.762H69.9738C73.3809 292.955 79.1133 275.432 86.1394 258.718C24.25 185.695 19.8705 150.034 25.4499 141.204C19.0313 151.204 7.67123 174.68 13.1103 189.39ZM61.4745 255.004C52.234 253.518 48.5301 258.099 47.8332 260.575C45.353 264.065 56.514 267.384 61.4745 266.765C66.4349 266.146 75.1156 263.67 75.1156 260.575C75.1156 257.48 73.0251 256.861 61.4745 255.004ZM54.0338 230.863C49.2801 232.926 39.4005 235.072 37.9124 227.149C36.0523 217.245 54.0338 228.387 54.0338 230.863Z" fill="#B5B682"/>
<path d="M135.261 205.706C132.781 201.62 126.084 192.637 119.139 189.39C110.459 185.331 117.402 207.341 110.475 217.245C118.005 212.159 127.061 208.52 135.261 205.706Z" fill="#7C9885"/>
<path d="M210.85 177.821C204.108 182.37 196.108 185.154 186.651 185.331C174.787 185.554 166.132 182.648 159.229 177.821C159.524 182.87 158.715 191.38 156.627 198.273C154.559 205.104 151.235 210.346 146.488 209.058C159.327 227.751 191.909 253.922 219.521 209.058C215.099 208.658 212.681 204.075 211.466 198.273C210.062 191.559 210.269 183.213 210.85 177.821Z" fill="#FFEFE1"/>
<path d="M287.804 157.291C280.867 163.33 239.392 168.51 219.521 170.345C216.894 173.167 214.01 175.688 210.85 177.821C210.269 183.213 210.062 191.559 211.466 198.273C215.589 200.148 221.703 201.78 228.269 203.781C229.85 193.64 237.683 172.107 256.372 167.106C274.773 163.392 286.554 167.106 295.235 173.915C298.783 173.417 303.588 173.409 309.044 174.333C308.63 160.674 303.136 128.438 284.467 108.759C284.665 110.505 284.701 112.303 284.552 114.152C282.768 136.349 280.249 140.271 289.09 147.584C277.981 144.996 277.1 133.564 278.049 128.172C266.127 152.977 284.552 155.134 287.804 157.291Z" fill="white"/>
<path d="M79.7036 121.701C92.7099 114.152 92.7099 105.524 94.8776 99.0528C95.4967 97.2048 95.1434 95.005 94.7012 92.2524L94.6941 92.2076C66.8005 121.919 58.8585 152.042 58.3741 163.39C117.65 158.077 103.421 202.771 99.213 215.388C95.7447 225.787 99.7284 227.562 102.154 227.149C104.038 224.209 105.952 221.505 107.884 219.102C108.724 218.462 109.589 217.844 110.475 217.245C117.402 207.341 110.459 185.331 119.139 189.39C126.084 192.637 132.781 201.62 135.261 205.706C144.774 202.441 153.136 200.287 156.627 198.273C158.715 191.38 159.524 182.87 159.229 177.821C154.254 174.341 150.188 169.864 146.488 164.84H113.303H99.213C97.7679 162.683 94.8776 157.291 94.8776 152.977C94.8776 148.663 91.9874 151.179 90.5422 152.977C91.9873 156.931 94.0105 164.84 90.5422 164.84C86.2068 164.84 64.5297 162.683 68.8651 159.448C73.2005 156.212 66.6974 142.192 103.548 114.152C107.79 108.524 104.654 95.554 102.561 86.0176L99.213 88.268C99.213 96.8959 99.2131 108.759 94.8776 114.152C90.6747 119.379 75.709 124.607 73.2223 127.869C73.1557 127.97 73.0899 128.07 73.0251 128.172C73.0779 128.073 73.1439 127.972 73.2223 127.869C74.8203 125.461 76.9344 123.308 79.7036 121.701Z" fill="white"/>
<path d="M72.0154 187.976C76.8933 188.447 85.9545 191.619 83.1763 200.532C79.7036 211.674 67.9321 216.38 69.9738 207.837C72.0154 199.294 74.057 193.989 72.0154 187.976Z" fill="white"/>
<path d="M57.1341 192.879C57.5256 192.785 57.9386 192.654 58.3741 192.485C65.3476 189.778 61.4284 178.84 56.7189 170.345C55.3948 179.063 56.444 189 57.1341 192.879Z" fill="white"/>
<path d="M69.9738 215.388C67.5207 216.42 63.8646 219.597 68.8651 224.054C75.1156 229.625 72.8926 215.388 69.9738 215.388Z" fill="white"/>
<path d="M90.5422 238.91C90.5422 242.376 93.129 241.592 94.4225 240.767C95.9858 237.705 97.5854 234.757 99.213 231.966C94.8776 231.212 90.5422 234.577 90.5422 238.91Z" fill="white"/>
<path d="M287.804 219.102C283.347 223.064 270.347 226.117 264.403 227.149C269.99 234.481 275.268 244.252 281.615 261.813C289.781 254.385 306.698 229.501 309.044 189.39C302.17 195.556 298.078 204.499 296.475 210.436L286.554 203.781L287.804 219.102Z" fill="white"/>
<path d="M201.095 62.3844L201.283 62.2193L201.076 61.9833L200.892 62.2386L201.095 62.3844ZM189.173 77.4832L189.337 77.6718L189.173 77.4832ZM186.651 185.331L186.647 185.081L186.651 185.331ZM235.425 90.4249L235.391 90.6726L235.425 90.4249ZM170.748 16.0099L170.712 16.2575L170.778 16.2668L170.84 16.2422L170.748 16.0099ZM103.548 58.0706L103.755 58.2121L103.761 58.2019L103.548 58.0706ZM94.8776 99.0528L94.6406 98.9734L94.8776 99.0528ZM79.7036 121.701L79.8291 121.917L79.7036 121.701ZM99.213 164.84L99.0053 164.979L99.0796 165.09H99.213V164.84ZM90.5422 152.977L90.3474 152.82L90.259 152.93L90.3074 153.063L90.5422 152.977ZM103.548 114.152L103.7 114.35L103.727 114.33L103.748 114.302L103.548 114.152ZM101.381 75.3263L101.604 75.4385L101.157 75.214L101.381 75.3263ZM94.8776 114.152L95.0725 114.308L94.8776 114.152ZM73.0251 128.172L73.2356 128.307L73.2356 128.307L73.0251 128.172ZM248.785 47.2857L248.544 47.3525L248.785 47.2857ZM250.953 73.1692L250.776 72.992L250.505 73.2622L250.862 73.402L250.953 73.1692ZM284.552 114.152L284.303 114.132L284.552 114.152ZM243.961 94.7388L243.711 94.7401L243.961 94.7388ZM258.54 94.7388L258.316 94.851L258.54 94.7388ZM287.804 157.291L287.968 157.479L288.216 157.264L287.942 157.082L287.804 157.291ZM278.049 128.172L278.295 128.215L277.824 128.063L278.049 128.172ZM137.148 99.866L137.069 99.6288L137.148 99.866ZM268.295 114.152L268.538 114.209L268.295 114.152ZM132.812 100.849L132.864 101.094L132.812 100.849ZM124.142 128.172L123.913 128.274L124.142 128.172ZM210.85 177.821L210.71 177.613L210.85 177.821ZM219.521 209.058L219.734 209.189L219.945 208.845L219.544 208.809L219.521 209.058ZM146.488 209.058L146.553 208.816L145.896 208.638L146.281 209.199L146.488 209.058ZM159.229 177.821L159.372 177.616L159.229 177.821ZM107.884 219.102L107.732 218.903L107.708 218.922L107.689 218.945L107.884 219.102ZM211.466 198.273L211.222 198.324L211.466 198.273ZM255.551 217.245L255.375 217.422L255.551 217.245ZM68.8651 310.095L68.6222 310.035L68.5668 310.262L68.7888 310.333L68.8651 310.095ZM296.475 310.095L296.554 310.332L296.779 310.257L296.716 310.028L296.475 310.095ZM256.372 167.106L256.323 166.861L256.315 166.863L256.307 166.865L256.372 167.106ZM295.235 173.915L295.249 174.165L295.259 174.164L295.269 174.163L295.235 173.915ZM240.05 207.837L239.956 208.069L240.05 207.837ZM356 211.674L355.832 211.86L356.225 211.565L356 211.674ZM287.804 219.102L287.97 219.289L288.063 219.206L288.053 219.082L287.804 219.102ZM286.554 203.781L286.693 203.573L286.263 203.284L286.305 203.801L286.554 203.781ZM296.475 210.436L296.336 210.644L296.625 210.838L296.716 210.501L296.475 210.436ZM331.198 182.914L331.332 182.703L331.198 182.914ZM310.736 187.976L310.583 187.778L310.736 187.976ZM119.139 189.39L119.245 189.164L119.139 189.39ZM99.213 215.388L99.4502 215.467L99.213 215.388ZM52.7937 164.011L52.761 163.763L52.3547 163.817L52.5882 164.154L52.7937 164.011ZM58.3741 192.485L58.2837 192.252L58.3741 192.485ZM47.8332 170.345L47.6154 170.468L47.8332 170.345ZM25.5113 141.108L25.7604 141.129L25.3011 140.973L25.5113 141.108ZM13.1103 189.39L13.3448 189.303L13.1103 189.39ZM72.0154 187.976L72.0394 187.727L71.6542 187.69L71.7786 188.056L72.0154 187.976ZM83.1763 200.532L82.9377 200.458L83.1763 200.532ZM47.8332 260.575L48.037 260.72L48.0621 260.684L48.0739 260.643L47.8332 260.575ZM61.4745 255.004L61.4348 255.251L61.4745 255.004ZM69.9738 215.388V215.138H69.9233L69.8768 215.158L69.9738 215.388ZM68.8651 224.054L69.0314 223.867L68.8651 224.054ZM54.0338 230.863L54.1334 231.092L54.2838 231.027V230.863H54.0338ZM37.9124 227.149L37.6667 227.195L37.9124 227.149ZM309.044 189.39L308.877 189.204L309.044 189.39ZM284.467 108.759L284.219 108.787L284.467 108.759ZM57.1341 192.879L57.1927 193.122L57.1341 192.879ZM94.6941 92.2076L94.9409 92.168L94.6941 92.2076ZM102.561 86.0176L102.805 85.9641L102.561 86.0176ZM200.892 62.2386C198.185 66.0104 197.337 67.9508 196.144 69.7981C194.943 71.6567 193.337 73.5262 189.009 77.2947L189.337 77.6718C193.68 73.8909 195.326 71.9856 196.564 70.0695C197.809 68.1421 198.587 66.3078 201.299 62.5302L200.892 62.2386ZM235.459 90.1771C227.562 89.1063 222.822 86.4357 218.161 81.8878C215.823 79.6068 213.505 76.8533 210.818 73.5834C208.132 70.316 205.08 66.5372 201.283 62.2193L200.908 62.5495C204.698 66.8595 207.743 70.6301 210.431 73.9009C213.118 77.1693 215.452 79.943 217.812 82.2456C222.546 86.8648 227.384 89.5866 235.391 90.6726L235.459 90.1771ZM170.783 15.7624C158.033 13.9501 126.796 19.8975 103.336 57.9394L103.761 58.2019C127.124 20.3188 158.172 14.4748 170.712 16.2575L170.783 15.7624ZM94.6406 98.9734C94.0959 100.599 93.6843 102.371 93.1802 104.193C92.6738 106.024 92.0689 107.928 91.1302 109.863C89.2565 113.725 86.0409 117.733 79.5781 121.485L79.8291 121.917C86.3727 118.119 89.6602 114.039 91.58 110.082C92.538 108.107 93.1524 106.169 93.6621 104.327C94.1742 102.475 94.5754 100.742 95.1147 99.1322L94.6406 98.9734ZM129.311 105.524C129.311 108.315 129.537 117.722 131.769 129.157C134.001 140.589 138.242 154.069 146.286 164.988L146.689 164.692C138.707 153.857 134.485 140.459 132.26 129.062C130.036 117.667 129.811 108.294 129.811 105.524H129.311ZM99.4207 164.701C98.7067 163.635 97.6306 161.762 96.734 159.621C95.8358 157.476 95.1276 155.085 95.1276 152.977H94.6276C94.6276 155.182 95.3646 157.645 96.2728 159.814C97.1826 161.986 98.2743 163.888 99.0053 164.979L99.4207 164.701ZM95.1276 152.977C95.1276 151.887 94.9486 151.156 94.5933 150.741C94.4088 150.526 94.1811 150.402 93.9269 150.36C93.6786 150.32 93.4205 150.362 93.1696 150.449C92.6718 150.622 92.1458 150.996 91.6632 151.425C91.1765 151.857 90.7154 152.362 90.3474 152.82L90.737 153.133C91.0915 152.693 91.5337 152.209 91.9953 151.799C92.4612 151.385 92.9287 151.062 93.3341 150.921C93.5347 150.851 93.7057 150.831 93.8469 150.854C93.9822 150.876 94.1045 150.939 94.2136 151.067C94.4454 151.337 94.6276 151.909 94.6276 152.977H95.1276ZM90.3074 153.063C91.0266 155.031 91.8861 157.974 92.1361 160.417C92.2615 161.643 92.2296 162.711 91.9721 163.461C91.8446 163.833 91.6666 164.113 91.439 164.299C91.2149 164.482 90.9249 164.59 90.5422 164.59V165.09C91.0266 165.09 91.4321 164.951 91.7556 164.686C92.0755 164.424 92.2972 164.055 92.4451 163.624C92.7386 162.768 92.7609 161.612 92.6335 160.366C92.3776 157.865 91.5029 154.877 90.777 152.891L90.3074 153.063ZM90.5422 164.59C88.3925 164.59 81.9042 164.053 76.495 163.111C73.7862 162.639 71.3742 162.07 69.9143 161.426C69.5511 161.266 69.2545 161.105 69.0298 160.944C68.8028 160.781 68.6648 160.63 68.5971 160.496C68.5345 160.372 68.5285 160.258 68.5782 160.135C68.6326 160.001 68.7624 159.836 69.0146 159.648L68.7155 159.247C68.4258 159.464 68.2169 159.695 68.1147 159.948C68.0077 160.212 68.0271 160.476 68.1508 160.721C68.2694 160.956 68.4785 161.164 68.7384 161.35C69.0007 161.538 69.3307 161.716 69.7126 161.884C71.2333 162.555 73.6987 163.131 76.4092 163.603C81.8385 164.549 88.3565 165.09 90.5422 165.09V164.59ZM69.0146 159.648C69.6061 159.207 70.0012 158.589 70.3197 157.818C70.6366 157.051 70.8863 156.111 71.1731 155.011C71.7484 152.806 72.4888 149.893 74.2392 146.209C77.7397 138.841 85.2954 128.355 103.7 114.35L103.397 113.953C84.9505 127.989 77.3322 138.533 73.7876 145.994C72.0155 149.724 71.2655 152.676 70.6893 154.885C70.4002 155.993 70.1588 156.898 69.8576 157.627C69.558 158.352 69.2079 158.88 68.7155 159.247L69.0146 159.648ZM101.157 75.214C100.413 76.6954 98.963 81.3376 98.963 88.268H99.463C99.463 81.3939 100.903 76.8332 101.604 75.4385L101.157 75.214ZM98.963 88.268C98.963 92.5846 98.9628 97.6929 98.4228 102.395C97.8816 107.107 96.8029 111.358 94.6828 113.995L95.0725 114.308C97.2878 111.553 98.3769 107.176 98.9195 102.452C99.4633 97.7166 99.463 92.5793 99.463 88.268H98.963ZM72.8145 128.037C68.5495 134.7 68.0905 143.163 68.6168 147.614L69.1133 147.555C68.5951 143.172 69.0543 134.839 73.2356 128.307L72.8145 128.037ZM170.84 16.2422C176.246 14.0906 189.86 10.0083 201.076 10.8668L201.114 10.3683C189.786 9.5012 176.088 13.6154 170.655 15.7777L170.84 16.2422ZM201.076 10.8668C212.33 11.7282 239.919 16.2418 248.544 47.3525L249.026 47.2189C240.309 15.778 212.405 11.2325 201.114 10.3683L201.076 10.8668ZM248.544 47.3525C251.024 56.2967 251.832 62.4759 251.888 66.5449C251.916 68.5795 251.756 70.0818 251.526 71.1359C251.292 72.2035 250.994 72.7756 250.776 72.992L251.129 73.3464C251.454 73.0235 251.776 72.3301 252.014 71.2427C252.255 70.1419 252.416 68.5999 252.388 66.538C252.331 62.4137 251.513 56.1904 249.026 47.2189L248.544 47.3525ZM244.122 94.93C245.811 93.5072 248.549 91.8106 251.275 91.318C252.633 91.0724 253.974 91.1286 255.179 91.6518C256.381 92.1734 257.472 93.1699 258.316 94.851L258.763 94.6265C257.874 92.8566 256.702 91.768 255.378 91.1931C254.058 90.6199 252.611 90.5682 251.186 90.8259C248.342 91.3399 245.525 93.0945 243.799 94.5476L244.122 94.93ZM258.316 94.851C259.376 96.9606 259.879 99.8165 259.917 102.948C259.955 106.076 259.529 109.459 258.751 112.609C257.973 115.76 256.845 118.665 255.486 120.844C254.119 123.034 252.552 124.437 250.915 124.689L250.991 125.183C252.85 124.897 254.521 123.334 255.91 121.109C257.306 118.872 258.45 115.913 259.237 112.728C260.024 109.542 260.455 106.117 260.417 102.942C260.378 99.7718 259.871 96.8308 258.763 94.6265L258.316 94.851ZM241.524 121.748C243.485 111.545 244.249 101.979 244.211 94.7375L243.711 94.7401C243.749 101.948 242.988 111.481 241.033 121.654L241.524 121.748ZM250.915 124.689C247.406 125.23 245.899 125.212 244.851 124.711C244.33 124.461 243.906 124.084 243.394 123.55C242.888 123.023 242.289 122.334 241.453 121.522L241.105 121.88C241.935 122.686 242.505 123.345 243.033 123.896C243.554 124.44 244.029 124.872 244.636 125.162C245.844 125.739 247.507 125.721 250.991 125.183L250.915 124.689ZM247.857 102.484C248.738 101.783 249.967 101.331 250.954 101.96C251.454 102.278 251.934 102.894 252.29 103.983C252.646 105.073 252.871 106.617 252.871 108.759H253.371C253.371 106.587 253.144 104.986 252.765 103.828C252.387 102.671 251.852 101.939 251.223 101.538C249.952 100.729 248.471 101.356 247.546 102.093L247.857 102.484ZM252.871 108.759C252.871 113.058 251.967 115.114 250.928 115.982C249.912 116.831 248.682 116.603 247.829 116.094L247.573 116.523C248.527 117.093 250.007 117.403 251.249 116.365C252.468 115.346 253.371 113.088 253.371 108.759H252.871ZM219.704 170.515C231.595 157.741 238.241 138.831 241.524 121.748L241.033 121.654C237.758 138.699 231.136 157.501 219.338 170.175L219.704 170.515ZM219.544 170.594C229.483 169.676 244.826 167.922 258.554 165.641C265.417 164.501 271.881 163.228 277.066 161.862C279.659 161.179 281.936 160.471 283.785 159.743C285.629 159.017 287.068 158.263 287.968 157.479L287.64 157.102C286.806 157.828 285.431 158.557 283.602 159.278C281.777 159.996 279.521 160.698 276.939 161.378C271.775 162.739 265.328 164.009 258.472 165.148C244.76 167.426 229.429 169.179 219.498 170.096L219.544 170.594ZM287.942 157.082C287.51 156.795 286.84 156.516 286.054 156.205C285.259 155.89 284.326 155.534 283.333 155.091C281.348 154.204 279.149 152.974 277.422 151.057C275.7 149.146 274.436 146.54 274.336 142.876C274.236 139.205 275.304 134.46 278.275 128.28L277.824 128.063C274.833 134.286 273.733 139.112 273.836 142.89C273.94 146.674 275.25 149.393 277.051 151.392C278.846 153.384 281.118 154.648 283.129 155.547C284.135 155.997 285.082 156.358 285.87 156.67C286.668 156.986 287.285 157.247 287.666 157.499L287.942 157.082ZM284.303 114.132C283.857 119.678 283.366 124.08 283.016 127.687C282.667 131.29 282.46 134.107 282.587 136.463C282.714 138.825 283.18 140.735 284.182 142.519C285.183 144.3 286.709 145.939 288.931 147.777L289.25 147.392C287.051 145.573 285.576 143.979 284.618 142.274C283.662 140.573 283.211 138.743 283.086 136.436C282.961 134.123 283.165 131.34 283.514 127.736C283.863 124.136 284.355 119.723 284.802 114.172L284.303 114.132ZM288.931 147.777C290.839 149.355 293.268 151.086 296.334 153.183L296.616 152.77C293.552 150.674 291.138 148.954 289.25 147.392L288.931 147.777ZM277.803 128.128C277.323 130.858 277.304 135.112 278.815 139.02C280.33 142.94 283.386 146.512 289.034 147.828L289.147 147.341C283.685 146.068 280.746 142.631 279.281 138.84C277.811 135.036 277.827 130.878 278.295 128.215L277.803 128.128ZM189.009 77.2947C176.581 88.1151 161.089 92.9217 149.004 96.2408L149.137 96.723C161.225 93.4029 176.817 88.5733 189.337 77.6718L189.009 77.2947ZM181.342 34.4001C184.578 48.4346 182.637 80.4618 148.964 96.2556L149.176 96.7082C183.137 80.7796 185.097 48.461 181.83 34.2878L181.342 34.4001ZM244.211 94.7375C244.204 93.5332 244.206 92.6371 244.168 91.9837C244.131 91.3441 244.055 90.8751 243.851 90.569C243.622 90.2243 243.271 90.1329 242.859 90.1298C242.461 90.1269 241.922 90.2071 241.252 90.2799L241.306 90.777C242.013 90.7001 242.496 90.6272 242.855 90.6298C243.2 90.6323 243.342 90.7053 243.435 90.8459C243.554 91.0252 243.631 91.3626 243.669 92.0126C243.705 92.6489 243.704 93.5258 243.711 94.7401L244.211 94.7375ZM241.252 90.2799C240.006 90.4152 238.171 90.545 235.459 90.1771L235.391 90.6726C238.154 91.0473 240.032 90.9153 241.306 90.777L241.252 90.2799ZM204.101 39.7784C205.216 46.3117 208.406 56.6875 214.351 66.612C220.297 76.5367 229.013 86.0308 241.188 90.7614L241.37 90.2954C229.332 85.6183 220.692 76.2217 214.78 66.355C208.869 56.4881 205.699 46.1718 204.593 39.6943L204.101 39.7784ZM256.267 88.4948C261.625 90.983 271.482 99.586 268.051 114.094L268.538 114.209C272.044 99.3826 261.958 90.586 256.477 88.0413L256.267 88.4948ZM268.051 114.094C265.901 123.185 261.913 124.994 258.619 128.955C255.305 132.939 252.87 138.951 253.955 156.228L254.454 156.196C253.371 138.962 255.813 133.11 259.003 129.275C262.211 125.418 266.352 123.452 268.538 114.209L268.051 114.094ZM137.069 99.6288C135.388 100.189 133.963 100.35 132.761 100.604L132.864 101.094C134.012 100.851 135.511 100.675 137.227 100.103L137.069 99.6288ZM132.761 100.604C131.717 100.825 130.829 101.12 130.217 101.86C129.607 102.599 129.311 103.731 129.311 105.524H129.811C129.811 103.767 130.105 102.781 130.602 102.179C131.097 101.579 131.834 101.311 132.864 101.094L132.761 100.604ZM136.915 79.5486C135.829 82.3115 134.307 86.6895 133.274 90.8487C132.758 92.9279 132.362 94.9592 132.204 96.7101C132.048 98.4492 132.122 99.9553 132.586 100.954L133.039 100.744C132.635 99.8728 132.547 98.4818 132.702 96.7548C132.857 95.0396 133.246 93.0358 133.76 90.9692C134.786 86.8367 136.3 82.4801 137.381 79.7316L136.915 79.5486ZM123.911 88.1706C121.006 95.0356 116.938 112.656 123.913 128.274L124.37 128.07C117.472 112.627 121.496 95.1613 124.372 88.3655L123.911 88.1706ZM123.913 128.274C126.06 133.079 126.116 137.057 125.023 140.171C123.929 143.289 121.673 145.57 119.144 146.961C116.61 148.354 113.825 148.842 111.694 148.401C110.631 148.181 109.742 147.734 109.121 147.066C108.503 146.403 108.134 145.505 108.134 144.349H107.634C107.634 145.62 108.043 146.643 108.755 147.407C109.463 148.168 110.455 148.656 111.593 148.891C113.865 149.36 116.77 148.837 119.385 147.399C122.004 145.959 124.354 143.589 125.495 140.337C126.638 137.081 126.559 132.97 124.37 128.07L123.913 128.274ZM146.488 164.59H113.303V165.09H146.488V164.59ZM113.303 164.59H99.213V165.09H113.303V164.59ZM113.343 164.593C109.991 164.05 105.288 161.491 102.171 155.54C99.0542 149.589 97.5143 140.225 100.541 126.067L100.052 125.962C97.0096 140.194 98.5406 149.686 101.728 155.772C104.916 161.858 109.751 164.517 113.263 165.087L113.343 164.593ZM186.656 185.581C196.162 185.403 204.209 182.604 210.99 178.028L210.71 177.613C204.008 182.137 196.054 184.905 186.647 185.081L186.656 185.581ZM210.99 178.028C214.167 175.884 217.065 173.35 219.704 170.515L219.338 170.175C216.722 172.985 213.853 175.493 210.71 177.613L210.99 178.028ZM146.286 164.988C149.996 170.025 154.08 174.525 159.086 178.026L159.372 177.616C154.427 174.158 150.38 169.703 146.689 164.692L146.286 164.988ZM159.086 178.026C166.036 182.886 174.744 185.805 186.656 185.581L186.647 185.081C174.83 185.303 166.228 182.41 159.372 177.616L159.086 178.026ZM158.979 177.835C159.273 182.855 158.467 191.336 156.388 198.2L156.867 198.345C158.963 191.424 159.775 182.884 159.478 177.806L158.979 177.835ZM156.388 198.2C155.357 201.604 154.021 204.584 152.371 206.549C150.727 208.506 148.802 209.427 146.553 208.816L146.422 209.299C148.921 209.977 151.032 208.92 152.753 206.871C154.468 204.829 155.829 201.773 156.867 198.345L156.388 198.2ZM210.602 177.794C210.019 183.199 209.809 191.575 211.222 198.324L211.711 198.222C210.314 191.544 210.519 183.227 211.099 177.847L210.602 177.794ZM211.222 198.324C211.832 201.24 212.749 203.873 214.084 205.832C215.423 207.797 217.194 209.098 219.498 209.307L219.544 208.809C217.426 208.617 215.777 207.427 214.497 205.55C213.214 203.668 212.315 201.108 211.711 198.222L211.222 198.324ZM94.6828 113.995C93.6592 115.268 91.9653 116.557 89.9376 117.83C87.9143 119.1 85.58 120.341 83.2915 121.525C81.0072 122.707 78.7646 123.833 76.9407 124.867C76.0281 125.384 75.2149 125.881 74.5497 126.353C73.8875 126.824 73.3573 127.28 73.0235 127.717L73.4212 128.021C73.709 127.643 74.1904 127.222 74.8391 126.761C75.4847 126.303 76.2815 125.815 77.1873 125.302C79.0002 124.275 81.228 123.156 83.5213 121.969C85.8104 120.785 88.161 119.535 90.2035 118.253C92.2417 116.974 93.9946 115.649 95.0725 114.308L94.6828 113.995ZM73.014 127.731C72.9466 127.832 72.8801 127.935 72.8145 128.037L73.2356 128.307C73.2998 128.206 73.3648 128.107 73.4306 128.007L73.014 127.731ZM73.2456 128.29C73.2911 128.204 73.3494 128.115 73.4212 128.021L73.0235 127.717C72.9384 127.829 72.8648 127.941 72.8046 128.054L73.2456 128.29ZM73.4306 128.007C75.01 125.627 77.0971 123.503 79.8291 121.917L79.5781 121.485C76.7717 123.114 74.6305 125.294 73.014 127.731L73.4306 128.007ZM149.004 96.2408C144.824 97.3888 141.043 98.3613 137.951 99.3423L138.102 99.8189C141.182 98.8419 144.944 97.8744 149.137 96.723L149.004 96.2408ZM137.935 99.3481C137.642 99.464 137.359 99.556 137.088 99.6234L137.208 100.109C137.504 100.035 137.808 99.936 138.118 99.8131L137.935 99.3481ZM166.201 66.5644C163.071 71.4965 157.981 78.9181 152.675 85.4997C150.022 88.7907 147.319 91.8675 144.782 94.3171C142.24 96.7722 139.887 98.5762 137.935 99.3481L138.118 99.8131C140.167 99.0033 142.579 97.1406 145.13 94.6768C147.687 92.2074 150.404 89.1132 153.064 85.8135C158.385 79.2138 163.486 71.7761 166.623 66.8323L166.201 66.5644ZM137.951 99.3423C137.65 99.4376 137.356 99.5331 137.069 99.6288L137.227 100.103C137.512 100.008 137.804 99.9136 138.102 99.8189L137.951 99.3423ZM146.281 209.199C152.717 218.568 164.117 229.842 177.404 233.135C184.057 234.783 191.181 234.43 198.378 230.837C205.57 227.247 212.815 220.431 219.734 209.189L219.308 208.927C212.421 220.116 205.239 226.853 198.154 230.39C191.074 233.924 184.073 234.272 177.524 232.649C164.408 229.399 153.098 218.24 146.694 208.916L146.281 209.199ZM68.7888 310.333C107.485 322.722 207.198 340.066 296.554 310.332L296.396 309.857C207.176 339.547 107.579 322.227 68.9413 309.856L68.7888 310.333ZM211.363 198.5C215.505 200.385 221.647 202.024 228.196 204.02L228.342 203.542C221.759 201.535 215.672 199.912 211.57 198.045L211.363 198.5ZM228.516 203.819C229.302 198.777 231.645 190.891 236.118 183.647C240.589 176.404 247.175 169.826 256.437 167.348L256.307 166.865C246.881 169.387 240.204 176.076 235.692 183.384C231.18 190.692 228.817 198.643 228.022 203.742L228.516 203.819ZM256.422 167.351C274.761 163.65 286.465 167.354 295.08 174.112L295.389 173.718C286.643 166.858 274.785 163.135 256.323 166.861L256.422 167.351ZM228.196 204.02C232.069 205.2 236.093 206.508 239.956 208.069L240.144 207.605C236.26 206.036 232.219 204.723 228.342 203.542L228.196 204.02ZM239.956 208.069C245.859 210.454 251.367 213.425 255.375 217.422L255.728 217.068C251.651 213.002 246.072 210.001 240.144 207.605L239.956 208.069ZM240.257 207.977C243.858 202.656 250.938 194.568 260.457 187.627C269.977 180.686 281.919 174.904 295.249 174.165L295.221 173.666C281.764 174.412 269.731 180.247 260.163 187.223C250.595 194.2 243.475 202.33 239.843 207.697L240.257 207.977ZM255.375 217.422C258.518 220.556 261.401 223.621 264.204 227.3L264.602 226.997C261.779 223.292 258.878 220.21 255.728 217.068L255.375 217.422ZM264.446 227.395C267.426 226.878 272.172 225.854 276.734 224.463C279.015 223.768 281.254 222.979 283.205 222.114C285.152 221.251 286.827 220.305 287.97 219.289L287.638 218.915C286.552 219.88 284.932 220.801 283.002 221.657C281.076 222.511 278.857 223.293 276.588 223.985C272.05 225.369 267.324 226.388 264.36 226.903L264.446 227.395ZM286.305 203.801L287.555 219.122L288.053 219.082L286.803 203.76L286.305 203.801ZM286.415 203.988L296.336 210.644L296.614 210.228L286.693 203.573L286.415 203.988ZM331.064 183.125C340.167 188.925 349.065 197.991 355.775 211.783L356.225 211.565C349.474 197.69 340.513 188.553 331.332 182.703L331.064 183.125ZM310.889 188.173C316.148 184.086 322.861 181.689 331.154 183.16L331.241 182.668C322.791 181.169 315.938 183.616 310.583 187.778L310.889 188.173ZM310.734 188.226C317.063 188.284 335.029 193.07 355.832 211.86L356.168 211.488C335.303 192.643 317.224 187.785 310.738 187.726L310.734 188.226ZM156.502 198.056C154.784 199.047 151.848 200.082 148.126 201.282C144.415 202.479 139.939 203.836 135.18 205.469L135.342 205.942C140.096 204.311 144.557 202.958 148.279 201.758C151.989 200.562 154.979 199.512 156.752 198.489L156.502 198.056ZM135.475 205.576C134.227 203.521 131.923 200.241 129.06 197.066C126.2 193.895 122.763 190.808 119.245 189.164L119.034 189.617C122.461 191.219 125.844 194.248 128.689 197.401C131.53 200.551 133.815 203.805 135.047 205.836L135.475 205.576ZM135.18 205.469C126.974 208.286 117.893 211.933 110.335 217.038L110.615 217.452C118.117 212.385 127.148 208.754 135.342 205.942L135.18 205.469ZM110.335 217.038C109.445 217.639 108.576 218.26 107.732 218.903L108.035 219.301C108.871 218.664 109.733 218.048 110.615 217.452L110.335 217.038ZM119.245 189.164C118.133 188.644 117.219 188.515 116.475 188.78C115.727 189.046 115.219 189.685 114.866 190.542C114.514 191.399 114.301 192.508 114.161 193.781C114.021 195.057 113.954 196.514 113.9 198.073C113.792 201.197 113.739 204.733 113.283 208.11C112.826 211.488 111.968 214.674 110.27 217.102L110.68 217.388C112.446 214.864 113.318 211.585 113.778 208.177C114.239 204.769 114.292 201.199 114.399 198.09C114.453 196.532 114.52 195.091 114.658 193.836C114.796 192.577 115.003 191.523 115.329 190.732C115.654 189.942 116.082 189.45 116.643 189.251C117.208 189.05 117.975 189.122 119.034 189.617L119.245 189.164ZM102.364 227.284C104.245 224.349 106.153 221.653 108.079 219.259L107.689 218.945C105.75 221.357 103.831 224.068 101.943 227.014L102.364 227.284ZM102.112 226.902C100.975 227.096 99.4982 226.777 98.6958 225.209C97.878 223.61 97.7212 220.651 99.4502 215.467L98.9759 215.309C97.2365 220.524 97.3374 223.652 98.2507 225.437C99.1795 227.252 100.908 227.615 102.196 227.395L102.112 226.902ZM48.0511 170.222C47.6443 169.5 46.9629 168.742 46.1032 167.944C45.2411 167.144 44.1852 166.29 43.0168 165.38C40.6748 163.554 37.8765 161.496 35.2103 159.135C29.872 154.409 25.1508 148.549 25.7604 141.129L25.2621 141.088C24.6317 148.761 29.5213 154.767 34.8789 159.51C37.5607 161.884 40.3816 163.96 42.7094 165.774C43.8759 166.683 44.9176 167.526 45.763 168.311C46.6109 169.098 47.247 169.814 47.6154 170.468L48.0511 170.222ZM12.8758 189.477C16.3261 198.808 24.015 202.711 31.4667 205.594C35.2064 207.04 38.8619 208.222 41.9507 209.706C45.0338 211.187 47.4947 212.945 48.8525 215.505L49.2942 215.271C47.8617 212.57 45.2847 210.753 42.1672 209.255C39.0556 207.76 35.3479 206.559 31.6471 205.127C24.2175 202.253 16.7151 198.419 13.3448 189.303L12.8758 189.477ZM48.8525 215.505C49.5386 216.799 49.7654 217.808 49.6671 218.571C49.5709 219.316 49.1595 219.858 48.4795 220.227C47.7885 220.601 46.8195 220.794 45.6373 220.807C44.4587 220.82 43.088 220.654 41.609 220.328C38.6509 219.676 35.283 218.389 32.1929 216.65C29.1011 214.91 26.3035 212.725 24.4711 210.286L24.0713 210.586C25.9592 213.099 28.8196 215.325 31.9477 217.086C35.0775 218.847 38.4914 220.153 41.5014 220.816C43.0064 221.148 44.4162 221.32 45.6428 221.307C46.8657 221.293 47.9264 221.095 48.7177 220.666C49.52 220.232 50.0436 219.56 50.1629 218.635C50.2802 217.726 50.0032 216.608 49.2942 215.271L48.8525 215.505ZM24.4711 210.286C22.6055 207.803 20.9234 205.964 19.4346 204.812C17.9546 203.668 16.6125 203.162 15.4503 203.462C14.2812 203.765 13.4067 204.853 12.7872 206.61C12.165 208.375 11.7758 210.879 11.6204 214.138L12.1198 214.162C12.2744 210.921 12.6603 208.474 13.2588 206.776C13.8601 205.071 14.6519 204.186 15.5756 203.946C16.506 203.706 17.6829 204.09 19.1287 205.208C20.5658 206.319 22.2165 208.117 24.0713 210.586L24.4711 210.286ZM11.6204 214.138C11.4663 217.369 10.9655 220.101 10.52 222.45C10.0767 224.788 9.68101 226.776 9.76021 228.476C9.84048 230.199 10.4082 231.641 11.8836 232.882C13.3418 234.109 15.6727 235.126 19.2477 236.057L19.3737 235.573C15.8182 234.647 13.5762 233.652 12.2054 232.5C10.8518 231.361 10.3344 230.057 10.2597 228.453C10.1839 226.825 10.5633 224.906 11.0113 222.543C11.4571 220.192 11.9639 217.43 12.1198 214.162L11.6204 214.138ZM19.2477 236.057C22.8308 236.99 26.9144 237.572 31.1018 238.056C35.2972 238.54 39.586 238.926 43.6146 239.467C47.6405 240.008 51.3787 240.702 54.4538 241.796C57.5315 242.89 59.9125 244.374 61.2643 246.473L61.6846 246.202C60.2462 243.969 57.7442 242.435 54.6214 241.324C51.4959 240.213 47.716 239.514 43.6812 238.972C39.649 238.43 35.3346 238.041 31.1592 237.559C26.9759 237.076 22.9213 236.497 19.3737 235.573L19.2477 236.057ZM61.2643 246.473C61.9312 247.509 61.9371 248.276 61.5493 248.863C61.1394 249.484 60.243 249.983 58.9098 250.342C56.2593 251.056 52.1093 251.156 47.5422 250.808C42.9827 250.461 38.0361 249.67 33.8066 248.62C31.692 248.094 29.7603 247.505 28.1478 246.875C26.5314 246.244 25.2519 245.578 24.4293 244.906L24.113 245.293C24.9956 246.014 26.332 246.703 27.9659 247.341C29.6039 247.981 31.5573 248.576 33.6861 249.105C37.9436 250.163 42.9179 250.958 47.5042 251.307C52.0829 251.656 56.3036 251.562 59.0399 250.825C60.4001 250.459 61.4511 249.919 61.9664 249.139C62.5038 248.326 62.4129 247.333 61.6846 246.202L61.2643 246.473ZM24.4293 244.906C22.7009 243.494 20.7363 242.435 18.8561 241.816C16.9809 241.198 15.1656 241.011 13.7457 241.376C13.0328 241.559 12.4126 241.883 11.9395 242.368C11.4649 242.855 11.1505 243.492 11.032 244.279C10.7969 245.841 11.3324 247.99 12.8919 250.792L13.3288 250.549C11.788 247.781 11.316 245.751 11.5265 244.354C11.6308 243.661 11.9026 243.123 12.2975 242.717C12.6939 242.311 13.2266 242.025 13.87 241.86C15.1629 241.528 16.8741 241.69 18.6997 242.291C20.5205 242.89 22.4312 243.92 24.113 245.293L24.4293 244.906ZM12.8919 250.792C19.0769 261.907 24.0959 271.952 37.8898 273.204L37.935 272.706C24.4466 271.482 19.5446 261.719 13.3288 250.549L12.8919 250.792ZM37.8898 273.204C44.7347 273.825 53.1307 272.738 59.9868 272.353C63.4288 272.16 66.477 272.143 68.7769 272.591C71.0844 273.04 72.5477 273.938 72.9815 275.498L73.4632 275.364C72.9503 273.519 71.2317 272.56 68.8725 272.1C66.5057 271.639 63.4024 271.661 59.9588 271.854C53.0436 272.243 44.7313 273.323 37.935 272.706L37.8898 273.204ZM72.9815 275.498C73.1956 276.268 73.0357 276.941 72.5673 277.543C72.09 278.156 71.2858 278.701 70.2068 279.167C68.0508 280.098 64.8898 280.676 61.3764 280.907C57.8679 281.138 54.029 281.022 50.5284 280.58C47.0232 280.136 43.8777 279.367 41.7444 278.302L41.5211 278.749C43.7281 279.851 46.9382 280.629 50.4657 281.076C53.9978 281.523 57.8688 281.639 61.4092 281.406C64.9447 281.173 68.1719 280.59 70.405 279.626C71.5206 279.144 72.4113 278.557 72.9619 277.85C73.5214 277.131 73.7223 276.296 73.4632 275.364L72.9815 275.498ZM41.7444 278.302C39.5526 277.208 37.7253 276.764 36.2709 276.845C34.807 276.926 33.723 277.54 33.0541 278.542C32.3914 279.534 32.1569 280.875 32.3158 282.382C32.475 283.891 33.0302 285.586 33.9727 287.312L34.4115 287.072C33.4939 285.392 32.964 283.76 32.8131 282.33C32.6619 280.896 32.8925 279.684 33.4699 278.819C34.0412 277.964 34.9723 277.417 36.2986 277.344C37.6345 277.27 39.3725 277.677 41.5211 278.749L41.7444 278.302ZM33.9727 287.312C37.7 294.133 45.8245 306.012 61.4745 306.012V305.512C46.1217 305.512 38.1248 293.868 34.4115 287.072L33.9727 287.312ZM69.1079 310.154C69.4434 308.783 69.8131 307.338 70.2153 305.826L69.7322 305.697C69.3292 307.212 68.9586 308.661 68.6222 310.035L69.1079 310.154ZM61.4745 306.012C61.4987 306.012 61.5228 306.012 61.547 306.012C61.5711 306.012 61.5951 306.012 61.6191 306.012C61.6432 306.012 61.6671 306.012 61.691 306.012C61.7149 306.012 61.7388 306.012 61.7626 306.012C61.7864 306.012 61.8101 306.012 61.8338 306.012C61.8575 306.012 61.8811 306.012 61.9047 306.012C61.9283 306.012 61.9518 306.012 61.9753 306.012C61.9988 306.012 62.0222 306.012 62.0456 306.012C62.069 306.012 62.0923 306.012 62.1155 306.012C62.1388 306.012 62.162 306.012 62.1852 306.012C62.2084 306.012 62.2315 306.012 62.2545 306.012C62.2776 306.012 62.3006 306.012 62.3236 306.012C62.3465 306.012 62.3694 306.012 62.3923 306.012C62.4151 306.012 62.4379 306.012 62.4607 306.012C62.4834 306.012 62.5061 306.012 62.5288 306.012C62.5514 306.012 62.574 306.012 62.5965 306.012C62.6191 306.012 62.6416 306.012 62.664 306.012C62.6864 306.012 62.7088 306.012 62.7312 306.012C62.7535 306.012 62.7758 306.012 62.798 306.012C62.8202 306.012 62.8424 306.012 62.8646 306.012C62.8867 306.012 62.9088 306.012 62.9308 306.012C62.9528 306.012 62.9748 306.012 62.9967 306.012C63.0186 306.012 63.0405 306.012 63.0623 306.012C63.0841 306.012 63.1059 306.012 63.1276 306.012C63.1494 306.012 63.171 306.012 63.1926 306.012C63.2143 306.012 63.2358 306.012 63.2573 306.012C63.2789 306.012 63.3003 306.012 63.3217 306.012C63.3432 306.012 63.3645 306.012 63.3858 306.012C63.4072 306.012 63.4284 306.012 63.4496 306.012C63.4708 306.012 63.492 306.012 63.5131 306.012C63.5342 306.012 63.5553 306.012 63.5763 306.012C63.5973 306.012 63.6183 306.012 63.6392 306.012C63.6601 306.012 63.681 306.012 63.7018 306.012C63.7226 306.012 63.7433 306.012 63.7641 306.012C63.7848 306.012 63.8054 306.012 63.826 306.012C63.8466 306.012 63.8672 306.012 63.8877 306.012C63.9082 306.012 63.9287 306.012 63.9491 306.012C63.9695 306.012 63.9899 306.012 64.0102 306.012C64.0305 306.012 64.0508 306.012 64.071 306.012C64.0912 306.012 64.1114 306.012 64.1315 306.012C64.1516 306.012 64.1717 306.012 64.1917 306.012C64.2117 306.012 64.2317 306.012 64.2516 306.012C64.2715 306.012 64.2914 306.012 64.3112 306.012C64.331 306.012 64.3508 306.012 64.3705 306.012C64.3902 306.012 64.4099 306.012 64.4295 306.012C64.4491 306.012 64.4687 306.012 64.4882 306.012C64.5078 306.012 64.5272 306.012 64.5467 306.012C64.5661 306.012 64.5855 306.012 64.6048 306.012C64.6242 306.012 64.6434 306.012 64.6627 306.012C64.6819 306.012 64.7011 306.012 64.7202 306.012C64.7394 306.012 64.7585 306.012 64.7775 306.012C64.7965 306.012 64.8155 306.012 64.8345 306.012C64.8534 306.012 64.8723 306.012 64.8912 306.012C64.91 306.012 64.9288 306.012 64.9476 306.012C64.9663 306.012 64.985 306.012 65.0037 306.012C65.0223 306.012 65.041 306.012 65.0595 306.012C65.0781 306.012 65.0966 306.012 65.1151 306.012C65.1335 306.012 65.1519 306.012 65.1703 306.012C65.1887 306.012 65.207 306.012 65.2253 306.012C65.2436 306.012 65.2618 306.012 65.28 306.012C65.2981 306.012 65.3163 306.012 65.3344 306.012C65.3524 306.012 65.3705 306.012 65.3885 306.012C65.4065 306.012 65.4244 306.012 65.4423 306.012C65.4602 306.012 65.4781 306.012 65.4959 306.012C65.5137 306.012 65.5314 306.012 65.5491 306.012C65.5668 306.012 65.5845 306.012 65.6021 306.012C65.6197 306.012 65.6373 306.012 65.6548 306.012C65.6723 306.012 65.6898 306.012 65.7072 306.012C65.7247 306.012 65.7421 306.012 65.7594 306.012C65.7767 306.012 65.794 306.012 65.8113 306.012C65.8285 306.012 65.8457 306.012 65.8629 306.012C65.88 306.012 65.8971 306.012 65.9142 306.012C65.9312 306.012 65.9482 306.012 65.9652 306.012C65.9822 306.012 65.9991 306.012 66.016 306.012C66.0328 306.012 66.0497 306.012 66.0664 306.012C66.0832 306.012 66.0999 306.012 66.1166 306.012C66.1333 306.012 66.15 306.012 66.1666 306.012C66.1832 306.012 66.1997 306.012 66.2162 306.012C66.2327 306.012 66.2492 306.012 66.2656 306.012C66.282 306.012 66.2984 306.012 66.3147 306.012C66.331 306.012 66.3473 306.012 66.3636 306.012C66.3798 306.012 66.396 306.012 66.4121 306.012C66.4283 306.012 66.4444 306.012 66.4604 306.012C66.4765 306.012 66.4925 306.012 66.5084 306.012C66.5244 306.012 66.5403 306.012 66.5562 306.012C66.5721 306.012 66.5879 306.012 66.6037 306.012C66.6195 306.012 66.6352 306.012 66.6509 306.012C66.6666 306.012 66.6822 306.012 66.6978 306.012C66.7134 306.012 66.729 306.012 66.7445 306.012C66.76 306.012 66.7755 306.012 66.7909 306.012C66.8064 306.012 66.8217 306.012 66.8371 306.012C66.8524 306.012 66.8677 306.012 66.8829 306.012C66.8982 306.012 66.9134 306.012 66.9286 306.012C66.9437 306.012 66.9588 306.012 66.9739 306.012C66.989 306.012 67.004 306.012 67.019 306.012C67.034 306.012 67.0489 306.012 67.0638 306.012C67.0787 306.012 67.0936 306.012 67.1084 306.012C67.1232 306.012 67.1379 306.012 67.1527 306.012C67.1674 306.012 67.1821 306.012 67.1967 306.012C67.2113 306.012 67.2259 306.012 67.2405 306.012C67.255 306.012 67.2695 306.012 67.284 306.012C67.2984 306.012 67.3129 306.012 67.3272 306.012C67.3416 306.012 67.3559 306.012 67.3702 306.012C67.3845 306.012 67.3988 306.012 67.413 306.012C67.4272 306.012 67.4413 306.012 67.4554 306.012C67.4696 306.012 67.4836 306.012 67.4977 306.012C67.5117 306.012 67.5257 306.012 67.5396 306.012C67.5536 306.012 67.5675 306.012 67.5813 306.012C67.5952 306.012 67.609 306.012 67.6228 306.012C67.6365 306.012 67.6503 306.012 67.664 306.012C67.6776 306.012 67.6913 306.012 67.7049 306.012C67.7185 306.012 67.7321 306.012 67.7456 306.012C67.7591 306.012 67.7726 306.012 67.786 306.012C67.7994 306.012 67.8128 306.012 67.8262 306.012C67.8395 306.012 67.8528 306.012 67.8661 306.012C67.8794 306.012 67.8926 306.012 67.9058 306.012C67.919 306.012 67.9321 306.012 67.9452 306.012C67.9583 306.012 67.9713 306.012 67.9844 306.012C67.9974 306.012 68.0103 306.012 68.0233 306.012C68.0362 306.012 68.0491 306.012 68.062 306.012C68.0748 306.012 68.0876 306.012 68.1004 306.012C68.1131 306.012 68.1259 306.012 68.1385 306.012C68.1512 306.012 68.1639 306.012 68.1765 306.012C68.1891 306.012 68.2016 306.012 68.2141 306.012C68.2267 306.012 68.2391 306.012 68.2516 306.012C68.264 306.012 68.2764 306.012 68.2888 306.012C68.3011 306.012 68.3134 306.012 68.3257 306.012C68.338 306.012 68.3502 306.012 68.3624 306.012C68.3746 306.012 68.3867 306.012 68.3988 306.012C68.411 306.012 68.423 306.012 68.4351 306.012C68.4471 306.012 68.4591 306.012 68.471 306.012C68.483 306.012 68.4949 306.012 68.5067 306.012C68.5186 306.012 68.5304 306.012 68.5422 306.012C68.554 306.012 68.5658 306.012 68.5775 306.012C68.5892 306.012 68.6008 306.012 68.6125 306.012C68.6241 306.012 68.6357 306.012 68.6472 306.012C68.6588 306.012 68.6703 306.012 68.6817 306.012C68.6932 306.012 68.7046 306.012 68.716 306.012C68.7274 306.012 68.7388 306.012 68.7501 306.012C68.7614 306.012 68.7726 306.012 68.7839 306.012C68.7951 306.012 68.8063 306.012 68.8174 306.012C68.8286 306.012 68.8397 306.012 68.8508 306.012C68.8618 306.012 68.8729 306.012 68.8839 306.012C68.8949 306.012 68.9058 306.012 68.9167 306.012C68.9276 306.012 68.9385 306.012 68.9493 306.012C68.9602 306.012 68.971 306.012 68.9817 306.012C68.9925 306.012 69.0032 306.012 69.0139 306.012C69.0246 306.012 69.0352 306.012 69.0458 306.012C69.0564 306.012 69.067 306.012 69.0775 306.012C69.088 306.012 69.0985 306.012 69.109 306.012C69.1194 306.012 69.1298 306.012 69.1402 306.012C69.1506 306.012 69.1609 306.012 69.1712 306.012C69.1815 306.012 69.1917 306.012 69.202 306.012C69.2122 306.012 69.2224 306.012 69.2325 306.012C69.2426 306.012 69.2527 306.012 69.2628 306.012C69.2729 306.012 69.2829 306.012 69.2929 306.012C69.3029 306.012 69.3128 306.012 69.3227 306.012C69.3327 306.012 69.3425 306.012 69.3524 306.012C69.3622 306.012 69.372 306.012 69.3818 306.012C69.3915 306.012 69.4013 306.012 69.4109 306.012C69.4206 306.012 69.4303 306.012 69.4399 306.012C69.4495 306.012 69.4591 306.012 69.4686 306.012C69.4782 306.012 69.4877 306.012 69.4971 306.012C69.5066 306.012 69.516 306.012 69.5254 306.012C69.5348 306.012 69.5441 306.012 69.5534 306.012C69.5628 306.012 69.572 306.012 69.5813 306.012C69.5905 306.012 69.5997 306.012 69.6089 306.012C69.6181 306.012 69.6272 306.012 69.6363 306.012C69.6454 306.012 69.6544 306.012 69.6634 306.012C69.6725 306.012 69.6814 306.012 69.6904 306.012C69.6993 306.012 69.7083 306.012 69.7171 306.012C69.726 306.012 69.7348 306.012 69.7436 306.012C69.7524 306.012 69.7612 306.012 69.7699 306.012C69.7787 306.012 69.7873 306.012 69.796 306.012C69.8047 306.012 69.8133 306.012 69.8219 306.012C69.8304 306.012 69.839 306.012 69.8475 306.012C69.856 306.012 69.8645 306.012 69.8729 306.012C69.8814 306.012 69.8898 306.012 69.8981 306.012C69.9065 306.012 69.9148 306.012 69.9231 306.012C69.9314 306.012 69.9397 306.012 69.9479 306.012C69.9561 306.012 69.9643 306.012 69.9725 306.012C69.9806 306.012 69.9887 306.012 69.9968 306.012C70.0049 306.012 70.013 306.012 70.021 306.012C70.029 306.012 70.037 306.012 70.0449 306.012C70.0528 306.012 70.0607 306.012 70.0686 306.012C70.0765 306.012 70.0843 306.012 70.0921 306.012C70.0999 306.012 70.1077 306.012 70.1154 306.012C70.1232 306.012 70.1309 306.012 70.1385 306.012C70.1462 306.012 70.1538 306.012 70.1614 306.012C70.169 306.012 70.1765 306.012 70.1841 306.012C70.1916 306.012 70.1991 306.012 70.2065 306.012C70.214 306.012 70.2214 306.012 70.2288 306.012C70.2362 306.012 70.2435 306.012 70.2508 306.012C70.2582 306.012 70.2654 306.012 70.2727 306.012C70.2799 306.012 70.2872 306.012 70.2943 306.012C70.3015 306.012 70.3087 306.012 70.3158 306.012C70.3229 306.012 70.33 306.012 70.337 306.012C70.344 306.012 70.3511 306.012 70.358 306.012C70.365 306.012 70.3719 306.012 70.3789 306.012C70.3858 306.012 70.3926 306.012 70.3995 306.012C70.4063 306.012 70.4131 306.012 70.4199 306.012C70.4267 306.012 70.4334 306.012 70.4401 306.012C70.4468 306.012 70.4535 306.012 70.4601 306.012C70.4668 306.012 70.4734 306.012 70.48 306.012C70.4865 306.012 70.4931 306.012 70.4996 306.012C70.5061 306.012 70.5126 306.012 70.519 306.012C70.5254 306.012 70.5319 306.012 70.5382 306.012C70.5446 306.012 70.5509 306.012 70.5573 306.012C70.5636 306.012 70.5698 306.012 70.5761 306.012C70.5823 306.012 70.5885 306.012 70.5947 306.012C70.6009 306.012 70.607 306.012 70.6132 306.012C70.6193 306.012 70.6253 306.012 70.6314 306.012C70.6374 306.012 70.6435 306.012 70.6494 306.012C70.6554 306.012 70.6614 306.012 70.6673 306.012C70.6732 306.012 70.6791 306.012 70.685 306.012C70.6908 306.012 70.6966 306.012 70.7024 306.012C70.7082 306.012 70.714 306.012 70.7197 306.012C70.7254 306.012 70.7311 306.012 70.7368 306.012C70.7424 306.012 70.7481 306.012 70.7537 306.012C70.7593 306.012 70.7648 306.012 70.7704 306.012C70.7759 306.012 70.7814 306.012 70.7869 306.012C70.7924 306.012 70.7978 306.012 70.8032 306.012C70.8086 306.012 70.814 306.012 70.8193 306.012C70.8247 306.012 70.83 306.012 70.8353 306.012C70.8406 306.012 70.8458 306.012 70.851 306.012C70.8563 306.012 70.8615 306.012 70.8666 306.012C70.8718 306.012 70.8769 306.012 70.882 306.012C70.8871 306.012 70.8922 306.012 70.8972 306.012C70.9022 306.012 70.9072 306.012 70.9122 306.012C70.9172 306.012 70.9221 306.012 70.927 306.012C70.932 306.012 70.9368 306.012 70.9417 306.012C70.9465 306.012 70.9514 306.012 70.9562 306.012C70.9609 306.012 70.9657 306.012 70.9704 306.012C70.9752 306.012 70.9799 306.012 70.9845 306.012C70.9892 306.012 70.9938 306.012 70.9984 306.012C71.0031 306.012 71.0076 306.012 71.0122 306.012C71.0167 306.012 71.0212 306.012 71.0257 306.012C71.0302 306.012 71.0347 306.012 71.0391 306.012C71.0435 306.012 71.0479 306.012 71.0523 306.012C71.0567 306.012 71.061 306.012 71.0653 306.012C71.0696 306.012 71.0739 306.012 71.0782 306.012C71.0824 306.012 71.0866 306.012 71.0908 306.012C71.095 306.012 71.0992 306.012 71.1033 306.012C71.1074 306.012 71.1115 306.012 71.1156 306.012C71.1197 306.012 71.1237 306.012 71.1277 306.012C71.1318 306.012 71.1357 306.012 71.1397 306.012C71.1437 306.012 71.1476 306.012 71.1515 306.012C71.1554 306.012 71.1592 306.012 71.1631 306.012C71.1669 306.012 71.1707 306.012 71.1745 306.012C71.1783 306.012 71.1821 306.012 71.1858 306.012C71.1895 306.012 71.1932 306.012 71.1969 306.012C71.2005 306.012 71.2042 306.012 71.2078 306.012C71.2114 306.012 71.215 306.012 71.2185 306.012C71.2221 306.012 71.2256 306.012 71.2291 306.012C71.2326 306.012 71.2361 306.012 71.2395 306.012C71.243 306.012 71.2464 306.012 71.2498 306.012C71.2532 306.012 71.2565 306.012 71.2598 306.012C71.2632 306.012 71.2665 306.012 71.2697 306.012C71.273 306.012 71.2763 306.012 71.2795 306.012C71.2827 306.012 71.2859 306.012 71.289 306.012C71.2922 306.012 71.2953 306.012 71.2984 306.012C71.3015 306.012 71.3046 306.012 71.3077 306.012C71.3107 306.012 71.3137 306.012 71.3167 306.012C71.3197 306.012 71.3227 306.012 71.3256 306.012C71.3286 306.012 71.3315 306.012 71.3344 306.012C71.3373 306.012 71.3401 306.012 71.343 306.012C71.3458 306.012 71.3486 306.012 71.3514 306.012C71.3542 306.012 71.3569 306.012 71.3596 306.012C71.3624 306.012 71.3651 306.012 71.3677 306.012C71.3704 306.012 71.373 306.012 71.3757 306.012C71.3783 306.012 71.3809 306.012 71.3834 306.012C71.386 306.012 71.3885 306.012 71.391 306.012C71.3936 306.012 71.396 306.012 71.3985 306.012C71.401 306.012 71.4034 306.012 71.4058 306.012C71.4082 306.012 71.4106 306.012 71.4129 306.012C71.4153 306.012 71.4176 306.012 71.4199 306.012C71.4222 306.012 71.4245 306.012 71.4267 306.012C71.429 306.012 71.4312 306.012 71.4334 306.012C71.4356 306.012 71.4377 306.012 71.4399 306.012C71.442 306.012 71.4442 306.012 71.4462 306.012C71.4483 306.012 71.4504 306.012 71.4524 306.012C71.4545 306.012 71.4565 306.012 71.4585 306.012C71.4605 306.012 71.4624 306.012 71.4644 306.012C71.4663 306.012 71.4682 306.012 71.4701 306.012C71.472 306.012 71.4739 306.012 71.4757 306.012C71.4775 306.012 71.4794 306.012 71.4811 306.012C71.4829 306.012 71.4847 306.012 71.4864 306.012C71.4882 306.012 71.4899 306.012 71.4916 306.012C71.4933 306.012 71.4949 306.012 71.4966 306.012C71.4982 306.012 71.4998 306.012 71.5014 306.012C71.503 306.012 71.5045 306.012 71.5061 306.012C71.5076 306.012 71.5091 306.012 71.5106 306.012C71.5121 306.012 71.5136 306.012 71.515 306.012C71.5164 306.012 71.5179 306.012 71.5192 306.012C71.5206 306.012 71.522 306.012 71.5233 306.012C71.5247 306.012 71.526 306.012 71.5273 306.012C71.5286 306.012 71.5299 306.012 71.5311 306.012C71.5324 306.012 71.5336 306.012 71.5348 306.012C71.536 306.012 71.5371 306.012 71.5383 306.012C71.5394 306.012 71.5406 306.012 71.5417 306.012C71.5428 306.012 71.5438 306.012 71.5449 306.012C71.546 306.012 71.547 306.012 71.548 306.012C71.549 306.012 71.55 306.012 71.5509 306.012C71.5519 306.012 71.5528 306.012 71.5538 306.012C71.5547 306.012 71.5556 306.012 71.5564 306.012C71.5573 306.012 71.5581 306.012 71.559 306.012C71.5598 306.012 71.5606 306.012 71.5613 306.012C71.5621 306.012 71.5629 306.012 71.5636 306.012C71.5643 306.012 71.565 306.012 71.5657 306.012C71.5664 306.012 71.5671 306.012 71.5677 306.012C71.5683 306.012 71.5689 306.012 71.5695 306.012C71.5701 306.012 71.5707 306.012 71.5712 306.012C71.5718 306.012 71.5723 306.012 71.5728 306.012C71.5733 306.012 71.5738 306.012 71.5742 306.012C71.5747 306.012 71.5751 306.012 71.5755 306.012C71.5759 306.012 71.5763 306.012 71.5767 306.012C71.5771 306.012 71.5774 306.012 71.5777 306.012C71.578 306.012 71.5783 306.012 71.5786 306.012C71.5789 306.012 71.5792 306.012 71.5794 306.012C71.5796 306.012 71.5798 306.012 71.58 306.012C71.5802 306.012 71.5804 306.012 71.5805 306.012C71.5807 306.012 71.5808 306.012 71.5809 306.012C71.581 306.012 71.5811 306.012 71.5812 306.012C71.5812 306.012 71.5812 306.012 71.5813 306.012C71.5813 305.762 71.5813 305.512 71.5813 305.512C71.5812 305.512 71.5812 305.512 71.5811 305.512C71.581 305.512 71.581 305.512 71.5808 305.512C71.5807 305.512 71.5806 305.512 71.5805 305.512C71.5803 305.512 71.5801 305.512 71.5799 305.512C71.5797 305.512 71.5795 305.512 71.5793 305.512C71.579 305.512 71.5788 305.512 71.5785 305.512C71.5782 305.512 71.5779 305.512 71.5776 305.512C71.5773 305.512 71.577 305.512 71.5766 305.512C71.5762 305.512 71.5759 305.512 71.5755 305.512C71.5751 305.512 71.5746 305.512 71.5742 305.512C71.5737 305.512 71.5733 305.512 71.5728 305.512C71.5723 305.512 71.5718 305.512 71.5713 305.512C71.5708 305.512 71.5702 305.512 71.5697 305.512C71.5691 305.512 71.5685 305.512 71.5679 305.512C71.5673 305.512 71.5667 305.512 71.566 305.512C71.5654 305.512 71.5647 305.512 71.5641 305.512C71.5634 305.512 71.5627 305.512 71.5619 305.512C71.5612 305.512 71.5605 305.512 71.5597 305.512C71.559 305.512 71.5582 305.512 71.5574 305.512C71.5566 305.512 71.5558 305.512 71.5549 305.512C71.5541 305.512 71.5532 305.512 71.5523 305.512C71.5515 305.512 71.5506 305.512 71.5497 305.512C71.5487 305.512 71.5478 305.512 71.5469 305.512C71.5459 305.512 71.5449 305.512 71.5439 305.512C71.5429 305.512 71.5419 305.512 71.5409 305.512C71.5399 305.512 71.5388 305.512 71.5378 305.512C71.5367 305.512 71.5356 305.512 71.5345 305.512C71.5334 305.512 71.5323 305.512 71.5311 305.512C71.53 305.512 71.5288 305.512 71.5276 305.512C71.5265 305.512 71.5253 305.512 71.524 305.512C71.5228 305.512 71.5216 305.512 71.5203 305.512C71.5191 305.512 71.5178 305.512 71.5165 305.512C71.5152 305.512 71.5139 305.512 71.5126 305.512C71.5113 305.512 71.5099 305.512 71.5086 305.512C71.5072 305.512 71.5058 305.512 71.5044 305.512C71.503 305.512 71.5016 305.512 71.5002 305.512C71.4988 305.512 71.4973 305.512 71.4958 305.512C71.4944 305.512 71.4929 305.512 71.4914 305.512C71.4899 305.512 71.4884 305.512 71.4868 305.512C71.4853 305.512 71.4837 305.512 71.4822 305.512C71.4806 305.512 71.479 305.512 71.4774 305.512C71.4758 305.512 71.4741 305.512 71.4725 305.512C71.4709 305.512 71.4692 305.512 71.4675 305.512C71.4658 305.512 71.4641 305.512 71.4624 305.512C71.4607 305.512 71.459 305.512 71.4573 305.512C71.4555 305.512 71.4537 305.512 71.452 305.512C71.4502 305.512 71.4484 305.512 71.4466 305.512C71.4448 305.512 71.4429 305.512 71.4411 305.512C71.4393 305.512 71.4374 305.512 71.4355 305.512C71.4336 305.512 71.4317 305.512 71.4298 305.512C71.4279 305.512 71.426 305.512 71.424 305.512C71.4221 305.512 71.4201 305.512 71.4182 305.512C71.4162 305.512 71.4142 305.512 71.4122 305.512C71.4102 305.512 71.4081 305.512 71.4061 305.512C71.4041 305.512 71.402 305.512 71.3999 305.512C71.3979 305.512 71.3958 305.512 71.3937 305.512C71.3916 305.512 71.3894 305.512 71.3873 305.512C71.3852 305.512 71.383 305.512 71.3809 305.512C71.3787 305.512 71.3765 305.512 71.3743 305.512C71.3721 305.512 71.3699 305.512 71.3677 305.512C71.3654 305.512 71.3632 305.512 71.3609 305.512C71.3587 305.512 71.3564 305.512 71.3541 305.512C71.3518 305.512 71.3495 305.512 71.3472 305.512C71.3449 305.512 71.3425 305.512 71.3402 305.512C71.3378 305.512 71.3355 305.512 71.3331 305.512C71.3307 305.512 71.3283 305.512 71.3259 305.512C71.3235 305.512 71.321 305.512 71.3186 305.512C71.3162 305.512 71.3137 305.512 71.3112 305.512C71.3088 305.512 71.3063 305.512 71.3038 305.512C71.3013 305.512 71.2988 305.512 71.2962 305.512C71.2937 305.512 71.2912 305.512 71.2886 305.512C71.2861 305.512 71.2835 305.512 71.2809 305.512C71.2783 305.512 71.2757 305.512 71.2731 305.512C71.2705 305.512 71.2679 305.512 71.2652 305.512C71.2626 305.512 71.2599 305.512 71.2573 305.512C71.2546 305.512 71.2519 305.512 71.2492 305.512C71.2465 305.512 71.2438 305.512 71.2411 305.512C71.2383 305.512 71.2356 305.512 71.2328 305.512C71.2301 305.512 71.2273 305.512 71.2245 305.512C71.2218 305.512 71.219 305.512 71.2162 305.512C71.2134 305.512 71.2105 305.512 71.2077 305.512C71.2049 305.512 71.202 305.512 71.1992 305.512C71.1963 305.512 71.1934 305.512 71.1905 305.512C71.1877 305.512 71.1848 305.512 71.1818 305.512C71.1789 305.512 71.176 305.512 71.1731 305.512C71.1701 305.512 71.1672 305.512 71.1642 305.512C71.1613 305.512 71.1583 305.512 71.1553 305.512C71.1523 305.512 71.1493 305.512 71.1463 305.512C71.1433 305.512 71.1402 305.512 71.1372 305.512C71.1341 305.512 71.1311 305.512 71.128 305.512C71.125 305.512 71.1219 305.512 71.1188 305.512C71.1157 305.512 71.1126 305.512 71.1095 305.512C71.1064 305.512 71.1032 305.512 71.1001 305.512C71.097 305.512 71.0938 305.512 71.0906 305.512C71.0875 305.512 71.0843 305.512 71.0811 305.512C71.0779 305.512 71.0747 305.512 71.0715 305.512C71.0683 305.512 71.0651 305.512 71.0618 305.512C71.0586 305.512 71.0554 305.512 71.0521 305.512C71.0488 305.512 71.0456 305.512 71.0423 305.512C71.039 305.512 71.0357 305.512 71.0324 305.512C71.0291 305.512 71.0258 305.512 71.0225 305.512C71.0191 305.512 71.0158 305.512 71.0124 305.512C71.0091 305.512 71.0057 305.512 71.0023 305.512C70.999 305.512 70.9956 305.512 70.9922 305.512C70.9888 305.512 70.9854 305.512 70.982 305.512C70.9786 305.512 70.9751 305.512 70.9717 305.512C70.9682 305.512 70.9648 305.512 70.9613 305.512C70.9579 305.512 70.9544 305.512 70.9509 305.512C70.9474 305.512 70.9439 305.512 70.9404 305.512C70.9369 305.512 70.9334 305.512 70.9299 305.512C70.9264 305.512 70.9228 305.512 70.9193 305.512C70.9157 305.512 70.9122 305.512 70.9086 305.512C70.9051 305.512 70.9015 305.512 70.8979 305.512C70.8943 305.512 70.8907 305.512 70.8871 305.512C70.8835 305.512 70.8799 305.512 70.8762 305.512C70.8726 305.512 70.869 305.512 70.8653 305.512C70.8617 305.512 70.858 305.512 70.8544 305.512C70.8507 305.512 70.847 305.512 70.8433 305.512C70.8396 305.512 70.8359 305.512 70.8322 305.512C70.8285 305.512 70.8248 305.512 70.8211 305.512C70.8174 305.512 70.8136 305.512 70.8099 305.512C70.8061 305.512 70.8024 305.512 70.7986 305.512C70.7949 305.512 70.7911 305.512 70.7873 305.512C70.7835 305.512 70.7797 305.512 70.7759 305.512C70.7721 305.512 70.7683 305.512 70.7645 305.512C70.7607 305.512 70.7569 305.512 70.753 305.512C70.7492 305.512 70.7453 305.512 70.7415 305.512C70.7376 305.512 70.7338 305.512 70.7299 305.512C70.726 305.512 70.7221 305.512 70.7183 305.512C70.7144 305.512 70.7105 305.512 70.7066 305.512C70.7027 305.512 70.6987 305.512 70.6948 305.512C70.6909 305.512 70.687 305.512 70.683 305.512C70.6791 305.512 70.6751 305.512 70.6712 305.512C70.6672 305.512 70.6633 305.512 70.6593 305.512C70.6553 305.512 70.6513 305.512 70.6474 305.512C70.6434 305.512 70.6394 305.512 70.6354 305.512C70.6314 305.512 70.6273 305.512 70.6233 305.512C70.6193 305.512 70.6153 305.512 70.6112 305.512C70.6072 305.512 70.6032 305.512 70.5991 305.512C70.5951 305.512 70.591 305.512 70.5869 305.512C70.5829 305.512 70.5788 305.512 70.5747 305.512C70.5706 305.512 70.5665 305.512 70.5624 305.512C70.5583 305.512 70.5542 305.512 70.5501 305.512C70.546 305.512 70.5419 305.512 70.5378 305.512C70.5337 305.512 70.5295 305.512 70.5254 305.512C70.5212 305.512 70.5171 305.512 70.5129 305.512C70.5088 305.512 70.5046 305.512 70.5005 305.512C70.4963 305.512 70.4921 305.512 70.4879 305.512C70.4838 305.512 70.4796 305.512 70.4754 305.512C70.4712 305.512 70.467 305.512 70.4628 305.512C70.4586 305.512 70.4543 305.512 70.4501 305.512C70.4459 305.512 70.4417 305.512 70.4374 305.512C70.4332 305.512 70.429 305.512 70.4247 305.512C70.4205 305.512 70.4162 305.512 70.412 305.512C70.4077 305.512 70.4034 305.512 70.3992 305.512C70.3949 305.512 70.3906 305.512 70.3863 305.512C70.3821 305.512 70.3778 305.512 70.3735 305.512C70.3692 305.512 70.3649 305.512 70.3606 305.512C70.3563 305.512 70.352 305.512 70.3476 305.512C70.3433 305.512 70.339 305.512 70.3347 305.512C70.3303 305.512 70.326 305.512 70.3217 305.512C70.3173 305.512 70.313 305.512 70.3086 305.512C70.3043 305.512 70.2999 305.512 70.2956 305.512C70.2912 305.512 70.2868 305.512 70.2825 305.512C70.2781 305.512 70.2737 305.512 70.2693 305.512C70.2649 305.512 70.2606 305.512 70.2562 305.512C70.2518 305.512 70.2474 305.512 70.243 305.512C70.2386 305.512 70.2342 305.512 70.2298 305.512C70.2253 305.512 70.2209 305.512 70.2165 305.512C70.2121 305.512 70.2077 305.512 70.2032 305.512C70.1988 305.512 70.1944 305.512 70.1899 305.512C70.1855 305.512 70.181 305.512 70.1766 305.512C70.1721 305.512 70.1677 305.512 70.1632 305.512C70.1588 305.512 70.1543 305.512 70.1498 305.512C70.1454 305.512 70.1409 305.512 70.1364 305.512C70.132 305.512 70.1275 305.512 70.123 305.512C70.1185 305.512 70.114 305.512 70.1095 305.512C70.105 305.512 70.1005 305.512 70.0961 305.512C70.0916 305.512 70.0871 305.512 70.0825 305.512C70.078 305.512 70.0735 305.512 70.069 305.512C70.0645 305.512 70.06 305.512 70.0555 305.512C70.0509 305.512 70.0464 305.512 70.0419 305.512C70.0374 305.512 70.0328 305.512 70.0283 305.512C70.0238 305.512 70.0192 305.512 70.0147 305.512C70.0102 305.512 70.0056 305.512 70.0011 305.512C69.9965 305.512 69.992 305.512 69.9874 305.512C69.9829 305.512 69.9783 305.512 69.9738 305.512V306.012C69.9783 306.012 69.9829 306.012 69.9874 306.012C69.992 306.012 69.9965 306.012 70.0011 306.012C70.0056 306.012 70.0102 306.012 70.0147 306.012C70.0192 306.012 70.0238 306.012 70.0283 306.012C70.0328 306.012 70.0374 306.012 70.0419 306.012C70.0464 306.012 70.0509 306.012 70.0555 306.012C70.06 306.012 70.0645 306.012 70.069 306.012C70.0735 306.012 70.078 306.012 70.0825 306.012C70.0871 306.012 70.0916 306.012 70.0961 306.012C70.1005 306.012 70.105 306.012 70.1095 306.012C70.114 306.012 70.1185 306.012 70.123 306.012C70.1275 306.012 70.132 306.012 70.1364 306.012C70.1409 306.012 70.1454 306.012 70.1498 306.012C70.1543 306.012 70.1588 306.012 70.1632 306.012C70.1677 306.012 70.1721 306.012 70.1766 306.012C70.181 306.012 70.1855 306.012 70.1899 306.012C70.1944 306.012 70.1988 306.012 70.2032 306.012C70.2077 306.012 70.2121 306.012 70.2165 306.012C70.2209 306.012 70.2253 306.012 70.2298 306.012C70.2342 306.012 70.2386 306.012 70.243 306.012C70.2474 306.012 70.2518 306.012 70.2562 306.012C70.2606 306.012 70.2649 306.012 70.2693 306.012C70.2737 306.012 70.2781 306.012 70.2825 306.012C70.2868 306.012 70.2912 306.012 70.2956 306.012C70.2999 306.012 70.3043 306.012 70.3086 306.012C70.313 306.012 70.3173 306.012 70.3217 306.012C70.326 306.012 70.3303 306.012 70.3347 306.012C70.339 306.012 70.3433 306.012 70.3476 306.012C70.352 306.012 70.3563 306.012 70.3606 306.012C70.3649 306.012 70.3692 306.012 70.3735 306.012C70.3778 306.012 70.3821 306.012 70.3863 306.012C70.3906 306.012 70.3949 306.012 70.3992 306.012C70.4034 306.012 70.4077 306.012 70.412 306.012C70.4162 306.012 70.4205 306.012 70.4247 306.012C70.429 306.012 70.4332 306.012 70.4374 306.012C70.4417 306.012 70.4459 306.012 70.4501 306.012C70.4543 306.012 70.4586 306.012 70.4628 306.012C70.467 306.012 70.4712 306.012 70.4754 306.012C70.4796 306.012 70.4838 306.012 70.4879 306.012C70.4921 306.012 70.4963 306.012 70.5005 306.012C70.5046 306.012 70.5088 306.012 70.5129 306.012C70.5171 306.012 70.5212 306.012 70.5254 306.012C70.5295 306.012 70.5337 306.012 70.5378 306.012C70.5419 306.012 70.546 306.012 70.5501 306.012C70.5542 306.012 70.5583 306.012 70.5624 306.012C70.5665 306.012 70.5706 306.012 70.5747 306.012C70.5788 306.012 70.5829 306.012 70.5869 306.012C70.591 306.012 70.5951 306.012 70.5991 306.012C70.6032 306.012 70.6072 306.012 70.6112 306.012C70.6153 306.012 70.6193 306.012 70.6233 306.012C70.6273 306.012 70.6314 306.012 70.6354 306.012C70.6394 306.012 70.6434 306.012 70.6474 306.012C70.6513 306.012 70.6553 306.012 70.6593 306.012C70.6633 306.012 70.6672 306.012 70.6712 306.012C70.6751 306.012 70.6791 306.012 70.683 306.012C70.687 306.012 70.6909 306.012 70.6948 306.012C70.6987 306.012 70.7027 306.012 70.7066 306.012C70.7105 306.012 70.7144 306.012 70.7183 306.012C70.7221 306.012 70.726 306.012 70.7299 306.012C70.7338 306.012 70.7376 306.012 70.7415 306.012C70.7453 306.012 70.7492 306.012 70.753 306.012C70.7569 306.012 70.7607 306.012 70.7645 306.012C70.7683 306.012 70.7721 306.012 70.7759 306.012C70.7797 306.012 70.7835 306.012 70.7873 306.012C70.7911 306.012 70.7949 306.012 70.7986 306.012C70.8024 306.012 70.8061 306.012 70.8099 306.012C70.8136 306.012 70.8174 306.012 70.8211 306.012C70.8248 306.012 70.8285 306.012 70.8322 306.012C70.8359 306.012 70.8396 306.012 70.8433 306.012C70.847 306.012 70.8507 306.012 70.8544 306.012C70.858 306.012 70.8617 306.012 70.8653 306.012C70.869 306.012 70.8726 306.012 70.8762 306.012C70.8799 306.012 70.8835 306.012 70.8871 306.012C70.8907 306.012 70.8943 306.012 70.8979 306.012C70.9015 306.012 70.9051 306.012 70.9086 306.012C70.9122 306.012 70.9157 306.012 70.9193 306.012C70.9228 306.012 70.9264 306.012 70.9299 306.012C70.9334 306.012 70.9369 306.012 70.9404 306.012C70.9439 306.012 70.9474 306.012 70.9509 306.012C70.9544 306.012 70.9579 306.012 70.9613 306.012C70.9648 306.012 70.9682 306.012 70.9717 306.012C70.9751 306.012 70.9786 306.012 70.982 306.012C70.9854 306.012 70.9888 306.012 70.9922 306.012C70.9956 306.012 70.999 306.012 71.0023 306.012C71.0057 306.012 71.0091 306.012 71.0124 306.012C71.0158 306.012 71.0191 306.012 71.0225 306.012C71.0258 306.012 71.0291 306.012 71.0324 306.012C71.0357 306.012 71.039 306.012 71.0423 306.012C71.0456 306.012 71.0488 306.012 71.0521 306.012C71.0554 306.012 71.0586 306.012 71.0618 306.012C71.0651 306.012 71.0683 306.012 71.0715 306.012C71.0747 306.012 71.0779 306.012 71.0811 306.012C71.0843 306.012 71.0875 306.012 71.0906 306.012C71.0938 306.012 71.097 306.012 71.1001 306.012C71.1032 306.012 71.1064 306.012 71.1095 306.012C71.1126 306.012 71.1157 306.012 71.1188 306.012C71.1219 306.012 71.125 306.012 71.128 306.012C71.1311 306.012 71.1341 306.012 71.1372 306.012C71.1402 306.012 71.1433 306.012 71.1463 306.012C71.1493 306.012 71.1523 306.012 71.1553 306.012C71.1583 306.012 71.1613 306.012 71.1642 306.012C71.1672 306.012 71.1701 306.012 71.1731 306.012C71.176 306.012 71.1789 306.012 71.1818 306.012C71.1848 306.012 71.1877 306.012 71.1905 306.012C71.1934 306.012 71.1963 306.012 71.1992 306.012C71.202 306.012 71.2049 306.012 71.2077 306.012C71.2105 306.012 71.2134 306.012 71.2162 306.012C71.219 306.012 71.2218 306.012 71.2245 306.012C71.2273 306.012 71.2301 306.012 71.2328 306.012C71.2356 306.012 71.2383 306.012 71.2411 306.012C71.2438 306.012 71.2465 306.012 71.2492 306.012C71.2519 306.012 71.2546 306.012 71.2573 306.012C71.2599 306.012 71.2626 306.012 71.2652 306.012C71.2679 306.012 71.2705 306.012 71.2731 306.012C71.2757 306.012 71.2783 306.012 71.2809 306.012C71.2835 306.012 71.2861 306.012 71.2886 306.012C71.2912 306.012 71.2937 306.012 71.2962 306.012C71.2988 306.012 71.3013 306.012 71.3038 306.012C71.3063 306.012 71.3088 306.012 71.3112 306.012C71.3137 306.012 71.3162 306.012 71.3186 306.012C71.321 306.012 71.3235 306.012 71.3259 306.012C71.3283 306.012 71.3307 306.012 71.3331 306.012C71.3355 306.012 71.3378 306.012 71.3402 306.012C71.3425 306.012 71.3449 306.012 71.3472 306.012C71.3495 306.012 71.3518 306.012 71.3541 306.012C71.3564 306.012 71.3587 306.012 71.3609 306.012C71.3632 306.012 71.3654 306.012 71.3677 306.012C71.3699 306.012 71.3721 306.012 71.3743 306.012C71.3765 306.012 71.3787 306.012 71.3809 306.012C71.383 306.012 71.3852 306.012 71.3873 306.012C71.3894 306.012 71.3916 306.012 71.3937 306.012C71.3958 306.012 71.3979 306.012 71.3999 306.012C71.402 306.012 71.4041 306.012 71.4061 306.012C71.4081 306.012 71.4102 306.012 71.4122 306.012C71.4142 306.012 71.4162 306.012 71.4182 306.012C71.4201 306.012 71.4221 306.012 71.424 306.012C71.426 306.012 71.4279 306.012 71.4298 306.012C71.4317 306.012 71.4336 306.012 71.4355 306.012C71.4374 306.012 71.4393 306.012 71.4411 306.012C71.4429 306.012 71.4448 306.012 71.4466 306.012C71.4484 306.012 71.4502 306.012 71.452 306.012C71.4537 306.012 71.4555 306.012 71.4573 306.012C71.459 306.012 71.4607 306.012 71.4624 306.012C71.4641 306.012 71.4658 306.012 71.4675 306.012C71.4692 306.012 71.4709 306.012 71.4725 306.012C71.4741 306.012 71.4758 306.012 71.4774 306.012C71.479 306.012 71.4806 306.012 71.4822 306.012C71.4837 306.012 71.4853 306.012 71.4868 306.012C71.4884 306.012 71.4899 306.012 71.4914 306.012C71.4929 306.012 71.4944 306.012 71.4958 306.012C71.4973 306.012 71.4988 306.012 71.5002 306.012C71.5016 306.012 71.503 306.012 71.5044 306.012C71.5058 306.012 71.5072 306.012 71.5086 306.012C71.5099 306.012 71.5113 306.012 71.5126 306.012C71.5139 306.012 71.5152 306.012 71.5165 306.012C71.5178 306.012 71.5191 306.012 71.5203 306.012C71.5216 306.012 71.5228 306.012 71.524 306.012C71.5253 306.012 71.5265 306.012 71.5276 306.012C71.5288 306.012 71.53 306.012 71.5311 306.012C71.5323 306.012 71.5334 306.012 71.5345 306.012C71.5356 306.012 71.5367 306.012 71.5378 306.012C71.5388 306.012 71.5399 306.012 71.5409 306.012C71.5419 306.012 71.5429 306.012 71.5439 306.012C71.5449 306.012 71.5459 306.012 71.5469 306.012C71.5478 306.012 71.5487 306.012 71.5497 306.012C71.5506 306.012 71.5515 306.012 71.5523 306.012C71.5532 306.012 71.5541 306.012 71.5549 306.012C71.5558 306.012 71.5566 306.012 71.5574 306.012C71.5582 306.012 71.559 306.012 71.5597 306.012C71.5605 306.012 71.5612 306.012 71.5619 306.012C71.5627 306.012 71.5634 306.012 71.5641 306.012C71.5647 306.012 71.5654 306.012 71.566 306.012C71.5667 306.012 71.5673 306.012 71.5679 306.012C71.5685 306.012 71.5691 306.012 71.5697 306.012C71.5702 306.012 71.5708 306.012 71.5713 306.012C71.5718 306.012 71.5723 306.012 71.5728 306.012C71.5733 306.012 71.5737 306.012 71.5742 306.012C71.5746 306.012 71.5751 306.012 71.5755 306.012C71.5759 306.012 71.5762 306.012 71.5766 306.012C71.577 306.012 71.5773 306.012 71.5776 306.012C71.5779 306.012 71.5782 306.012 71.5785 306.012C71.5788 306.012 71.579 306.012 71.5793 306.012C71.5795 306.012 71.5797 306.012 71.5799 306.012C71.5801 306.012 71.5803 306.012 71.5805 306.012C71.5806 306.012 71.5807 306.012 71.5808 306.012C71.581 306.012 71.581 306.012 71.5811 306.012C71.5812 306.012 71.5812 306.012 71.5813 306.012C71.5813 306.012 71.5813 305.762 71.5813 305.512C71.5812 305.512 71.5812 305.512 71.5812 305.512C71.5811 305.512 71.581 305.512 71.5809 305.512C71.5808 305.512 71.5807 305.512 71.5805 305.512C71.5804 305.512 71.5802 305.512 71.58 305.512C71.5798 305.512 71.5796 305.512 71.5794 305.512C71.5792 305.512 71.5789 305.512 71.5786 305.512C71.5783 305.512 71.578 305.512 71.5777 305.512C71.5774 305.512 71.5771 305.512 71.5767 305.512C71.5763 305.512 71.5759 305.512 71.5755 305.512C71.5751 305.512 71.5747 305.512 71.5742 305.512C71.5738 305.512 71.5733 305.512 71.5728 305.512C71.5723 305.512 71.5718 305.512 71.5712 305.512C71.5707 305.512 71.5701 305.512 71.5695 305.512C71.5689 305.512 71.5683 305.512 71.5677 305.512C71.5671 305.512 71.5664 305.512 71.5657 305.512C71.565 305.512 71.5643 305.512 71.5636 305.512C71.5629 305.512 71.5621 305.512 71.5613 305.512C71.5606 305.512 71.5598 305.512 71.559 305.512C71.5581 305.512 71.5573 305.512 71.5564 305.512C71.5556 305.512 71.5547 305.512 71.5538 305.512C71.5528 305.512 71.5519 305.512 71.5509 305.512C71.55 305.512 71.549 305.512 71.548 305.512C71.547 305.512 71.546 305.512 71.5449 305.512C71.5438 305.512 71.5428 305.512 71.5417 305.512C71.5406 305.512 71.5394 305.512 71.5383 305.512C71.5371 305.512 71.536 305.512 71.5348 305.512C71.5336 305.512 71.5324 305.512 71.5311 305.512C71.5299 305.512 71.5286 305.512 71.5273 305.512C71.526 305.512 71.5247 305.512 71.5233 305.512C71.522 305.512 71.5206 305.512 71.5192 305.512C71.5179 305.512 71.5164 305.512 71.515 305.512C71.5136 305.512 71.5121 305.512 71.5106 305.512C71.5091 305.512 71.5076 305.512 71.5061 305.512C71.5045 305.512 71.503 305.512 71.5014 305.512C71.4998 305.512 71.4982 305.512 71.4966 305.512C71.4949 305.512 71.4933 305.512 71.4916 305.512C71.4899 305.512 71.4882 305.512 71.4864 305.512C71.4847 305.512 71.4829 305.512 71.4811 305.512C71.4794 305.512 71.4775 305.512 71.4757 305.512C71.4739 305.512 71.472 305.512 71.4701 305.512C71.4682 305.512 71.4663 305.512 71.4644 305.512C71.4624 305.512 71.4605 305.512 71.4585 305.512C71.4565 305.512 71.4545 305.512 71.4524 305.512C71.4504 305.512 71.4483 305.512 71.4462 305.512C71.4442 305.512 71.442 305.512 71.4399 305.512C71.4377 305.512 71.4356 305.512 71.4334 305.512C71.4312 305.512 71.429 305.512 71.4267 305.512C71.4245 305.512 71.4222 305.512 71.4199 305.512C71.4176 305.512 71.4153 305.512 71.4129 305.512C71.4106 305.512 71.4082 305.512 71.4058 305.512C71.4034 305.512 71.401 305.512 71.3985 305.512C71.396 305.512 71.3936 305.512 71.391 305.512C71.3885 305.512 71.386 305.512 71.3834 305.512C71.3809 305.512 71.3783 305.512 71.3757 305.512C71.373 305.512 71.3704 305.512 71.3677 305.512C71.3651 305.512 71.3624 305.512 71.3596 305.512C71.3569 305.512 71.3542 305.512 71.3514 305.512C71.3486 305.512 71.3458 305.512 71.343 305.512C71.3401 305.512 71.3373 305.512 71.3344 305.512C71.3315 305.512 71.3286 305.512 71.3256 305.512C71.3227 305.512 71.3197 305.512 71.3167 305.512C71.3137 305.512 71.3107 305.512 71.3077 305.512C71.3046 305.512 71.3015 305.512 71.2984 305.512C71.2953 305.512 71.2922 305.512 71.289 305.512C71.2859 305.512 71.2827 305.512 71.2795 305.512C71.2763 305.512 71.273 305.512 71.2697 305.512C71.2665 305.512 71.2632 305.512 71.2598 305.512C71.2565 305.512 71.2532 305.512 71.2498 305.512C71.2464 305.512 71.243 305.512 71.2395 305.512C71.2361 305.512 71.2326 305.512 71.2291 305.512C71.2256 305.512 71.2221 305.512 71.2185 305.512C71.215 305.512 71.2114 305.512 71.2078 305.512C71.2042 305.512 71.2005 305.512 71.1969 305.512C71.1932 305.512 71.1895 305.512 71.1858 305.512C71.1821 305.512 71.1783 305.512 71.1745 305.512C71.1707 305.512 71.1669 305.512 71.1631 305.512C71.1592 305.512 71.1554 305.512 71.1515 305.512C71.1476 305.512 71.1437 305.512 71.1397 305.512C71.1357 305.512 71.1318 305.512 71.1277 305.512C71.1237 305.512 71.1197 305.512 71.1156 305.512C71.1115 305.512 71.1074 305.512 71.1033 305.512C71.0992 305.512 71.095 305.512 71.0908 305.512C71.0866 305.512 71.0824 305.512 71.0782 305.512C71.0739 305.512 71.0696 305.512 71.0653 305.512C71.061 305.512 71.0567 305.512 71.0523 305.512C71.0479 305.512 71.0435 305.512 71.0391 305.512C71.0347 305.512 71.0302 305.512 71.0257 305.512C71.0212 305.512 71.0167 305.512 71.0122 305.512C71.0076 305.512 71.0031 305.512 70.9984 305.512C70.9938 305.512 70.9892 305.512 70.9845 305.512C70.9799 305.512 70.9752 305.512 70.9704 305.512C70.9657 305.512 70.9609 305.512 70.9562 305.512C70.9514 305.512 70.9465 305.512 70.9417 305.512C70.9368 305.512 70.932 305.512 70.927 305.512C70.9221 305.512 70.9172 305.512 70.9122 305.512C70.9072 305.512 70.9022 305.512 70.8972 305.512C70.8922 305.512 70.8871 305.512 70.882 305.512C70.8769 305.512 70.8718 305.512 70.8666 305.512C70.8615 305.512 70.8563 305.512 70.851 305.512C70.8458 305.512 70.8406 305.512 70.8353 305.512C70.83 305.512 70.8247 305.512 70.8193 305.512C70.814 305.512 70.8086 305.512 70.8032 305.512C70.7978 305.512 70.7924 305.512 70.7869 305.512C70.7814 305.512 70.7759 305.512 70.7704 305.512C70.7648 305.512 70.7593 305.512 70.7537 305.512C70.7481 305.512 70.7424 305.512 70.7368 305.512C70.7311 305.512 70.7254 305.512 70.7197 305.512C70.714 305.512 70.7082 305.512 70.7024 305.512C70.6966 305.512 70.6908 305.512 70.685 305.512C70.6791 305.512 70.6732 305.512 70.6673 305.512C70.6614 305.512 70.6554 305.512 70.6494 305.512C70.6435 305.512 70.6374 305.512 70.6314 305.512C70.6253 305.512 70.6193 305.512 70.6132 305.512C70.607 305.512 70.6009 305.512 70.5947 305.512C70.5885 305.512 70.5823 305.512 70.5761 305.512C70.5698 305.512 70.5636 305.512 70.5573 305.512C70.5509 305.512 70.5446 305.512 70.5382 305.512C70.5319 305.512 70.5254 305.512 70.519 305.512C70.5126 305.512 70.5061 305.512 70.4996 305.512C70.4931 305.512 70.4865 305.512 70.48 305.512C70.4734 305.512 70.4668 305.512 70.4601 305.512C70.4535 305.512 70.4468 305.512 70.4401 305.512C70.4334 305.512 70.4267 305.512 70.4199 305.512C70.4131 305.512 70.4063 305.512 70.3995 305.512C70.3926 305.512 70.3858 305.512 70.3789 305.512C70.3719 305.512 70.365 305.512 70.358 305.512C70.3511 305.512 70.344 305.512 70.337 305.512C70.33 305.512 70.3229 305.512 70.3158 305.512C70.3087 305.512 70.3015 305.512 70.2943 305.512C70.2872 305.512 70.2799 305.512 70.2727 305.512C70.2654 305.512 70.2582 305.512 70.2508 305.512C70.2435 305.512 70.2362 305.512 70.2288 305.512C70.2214 305.512 70.214 305.512 70.2065 305.512C70.1991 305.512 70.1916 305.512 70.1841 305.512C70.1765 305.512 70.169 305.512 70.1614 305.512C70.1538 305.512 70.1462 305.512 70.1385 305.512C70.1309 305.512 70.1232 305.512 70.1154 305.512C70.1077 305.512 70.0999 305.512 70.0921 305.512C70.0843 305.512 70.0765 305.512 70.0686 305.512C70.0607 305.512 70.0528 305.512 70.0449 305.512C70.037 305.512 70.029 305.512 70.021 305.512C70.013 305.512 70.0049 305.512 69.9968 305.512C69.9887 305.512 69.9806 305.512 69.9725 305.512C69.9643 305.512 69.9561 305.512 69.9479 305.512C69.9397 305.512 69.9314 305.512 69.9231 305.512C69.9148 305.512 69.9065 305.512 69.8981 305.512C69.8898 305.512 69.8814 305.512 69.8729 305.512C69.8645 305.512 69.856 305.512 69.8475 305.512C69.839 305.512 69.8304 305.512 69.8219 305.512C69.8133 305.512 69.8047 305.512 69.796 305.512C69.7873 305.512 69.7787 305.512 69.7699 305.512C69.7612 305.512 69.7524 305.512 69.7436 305.512C69.7348 305.512 69.726 305.512 69.7171 305.512C69.7083 305.512 69.6993 305.512 69.6904 305.512C69.6814 305.512 69.6725 305.512 69.6634 305.512C69.6544 305.512 69.6454 305.512 69.6363 305.512C69.6272 305.512 69.6181 305.512 69.6089 305.512C69.5997 305.512 69.5905 305.512 69.5813 305.512C69.572 305.512 69.5628 305.512 69.5534 305.512C69.5441 305.512 69.5348 305.512 69.5254 305.512C69.516 305.512 69.5066 305.512 69.4971 305.512C69.4877 305.512 69.4782 305.512 69.4686 305.512C69.4591 305.512 69.4495 305.512 69.4399 305.512C69.4303 305.512 69.4206 305.512 69.4109 305.512C69.4013 305.512 69.3915 305.512 69.3818 305.512C69.372 305.512 69.3622 305.512 69.3524 305.512C69.3425 305.512 69.3327 305.512 69.3227 305.512C69.3128 305.512 69.3029 305.512 69.2929 305.512C69.2829 305.512 69.2729 305.512 69.2628 305.512C69.2527 305.512 69.2426 305.512 69.2325 305.512C69.2224 305.512 69.2122 305.512 69.202 305.512C69.1917 305.512 69.1815 305.512 69.1712 305.512C69.1609 305.512 69.1506 305.512 69.1402 305.512C69.1298 305.512 69.1194 305.512 69.109 305.512C69.0985 305.512 69.088 305.512 69.0775 305.512C69.067 305.512 69.0564 305.512 69.0458 305.512C69.0352 305.512 69.0246 305.512 69.0139 305.512C69.0032 305.512 68.9925 305.512 68.9817 305.512C68.971 305.512 68.9602 305.512 68.9493 305.512C68.9385 305.512 68.9276 305.512 68.9167 305.512C68.9058 305.512 68.8949 305.512 68.8839 305.512C68.8729 305.512 68.8618 305.512 68.8508 305.512C68.8397 305.512 68.8286 305.512 68.8174 305.512C68.8063 305.512 68.7951 305.512 68.7839 305.512C68.7726 305.512 68.7614 305.512 68.7501 305.512C68.7388 305.512 68.7274 305.512 68.716 305.512C68.7046 305.512 68.6932 305.512 68.6817 305.512C68.6703 305.512 68.6588 305.512 68.6472 305.512C68.6357 305.512 68.6241 305.512 68.6125 305.512C68.6008 305.512 68.5892 305.512 68.5775 305.512C68.5658 305.512 68.554 305.512 68.5422 305.512C68.5304 305.512 68.5186 305.512 68.5067 305.512C68.4949 305.512 68.483 305.512 68.471 305.512C68.4591 305.512 68.4471 305.512 68.4351 305.512C68.423 305.512 68.411 305.512 68.3988 305.512C68.3867 305.512 68.3746 305.512 68.3624 305.512C68.3502 305.512 68.338 305.512 68.3257 305.512C68.3134 305.512 68.3011 305.512 68.2888 305.512C68.2764 305.512 68.264 305.512 68.2516 305.512C68.2391 305.512 68.2267 305.512 68.2141 305.512C68.2016 305.512 68.1891 305.512 68.1765 305.512C68.1639 305.512 68.1512 305.512 68.1385 305.512C68.1259 305.512 68.1131 305.512 68.1004 305.512C68.0876 305.512 68.0748 305.512 68.062 305.512C68.0491 305.512 68.0362 305.512 68.0233 305.512C68.0103 305.512 67.9974 305.512 67.9844 305.512C67.9713 305.512 67.9583 305.512 67.9452 305.512C67.9321 305.512 67.919 305.512 67.9058 305.512C67.8926 305.512 67.8794 305.512 67.8661 305.512C67.8528 305.512 67.8395 305.512 67.8262 305.512C67.8128 305.512 67.7994 305.512 67.786 305.512C67.7726 305.512 67.7591 305.512 67.7456 305.512C67.7321 305.512 67.7185 305.512 67.7049 305.512C67.6913 305.512 67.6776 305.512 67.664 305.512C67.6503 305.512 67.6365 305.512 67.6228 305.512C67.609 305.512 67.5952 305.512 67.5813 305.512C67.5675 305.512 67.5536 305.512 67.5396 305.512C67.5257 305.512 67.5117 305.512 67.4977 305.512C67.4836 305.512 67.4696 305.512 67.4554 305.512C67.4413 305.512 67.4272 305.512 67.413 305.512C67.3988 305.512 67.3845 305.512 67.3702 305.512C67.3559 305.512 67.3416 305.512 67.3272 305.512C67.3129 305.512 67.2984 305.512 67.284 305.512C67.2695 305.512 67.255 305.512 67.2405 305.512C67.2259 305.512 67.2113 305.512 67.1967 305.512C67.1821 305.512 67.1674 305.512 67.1527 305.512C67.1379 305.512 67.1232 305.512 67.1084 305.512C67.0936 305.512 67.0787 305.512 67.0638 305.512C67.0489 305.512 67.034 305.512 67.019 305.512C67.004 305.512 66.989 305.512 66.9739 305.512C66.9588 305.512 66.9437 305.512 66.9286 305.512C66.9134 305.512 66.8982 305.512 66.8829 305.512C66.8677 305.512 66.8524 305.512 66.8371 305.512C66.8217 305.512 66.8064 305.512 66.7909 305.512C66.7755 305.512 66.76 305.512 66.7445 305.512C66.729 305.512 66.7134 305.512 66.6978 305.512C66.6822 305.512 66.6666 305.512 66.6509 305.512C66.6352 305.512 66.6195 305.512 66.6037 305.512C66.5879 305.512 66.5721 305.512 66.5562 305.512C66.5403 305.512 66.5244 305.512 66.5084 305.512C66.4925 305.512 66.4765 305.512 66.4604 305.512C66.4444 305.512 66.4283 305.512 66.4121 305.512C66.396 305.512 66.3798 305.512 66.3636 305.512C66.3473 305.512 66.331 305.512 66.3147 305.512C66.2984 305.512 66.282 305.512 66.2656 305.512C66.2492 305.512 66.2327 305.512 66.2162 305.512C66.1997 305.512 66.1832 305.512 66.1666 305.512C66.15 305.512 66.1333 305.512 66.1166 305.512C66.0999 305.512 66.0832 305.512 66.0664 305.512C66.0497 305.512 66.0328 305.512 66.016 305.512C65.9991 305.512 65.9822 305.512 65.9652 305.512C65.9482 305.512 65.9312 305.512 65.9142 305.512C65.8971 305.512 65.88 305.512 65.8629 305.512C65.8457 305.512 65.8285 305.512 65.8113 305.512C65.794 305.512 65.7767 305.512 65.7594 305.512C65.7421 305.512 65.7247 305.512 65.7072 305.512C65.6898 305.512 65.6723 305.512 65.6548 305.512C65.6373 305.512 65.6197 305.512 65.6021 305.512C65.5845 305.512 65.5668 305.512 65.5491 305.512C65.5314 305.512 65.5137 305.512 65.4959 305.512C65.4781 305.512 65.4602 305.512 65.4423 305.512C65.4244 305.512 65.4065 305.512 65.3885 305.512C65.3705 305.512 65.3524 305.512 65.3344 305.512C65.3163 305.512 65.2981 305.512 65.28 305.512C65.2618 305.512 65.2436 305.512 65.2253 305.512C65.207 305.512 65.1887 305.512 65.1703 305.512C65.1519 305.512 65.1335 305.512 65.1151 305.512C65.0966 305.512 65.0781 305.512 65.0595 305.512C65.041 305.512 65.0223 305.512 65.0037 305.512C64.985 305.512 64.9663 305.512 64.9476 305.512C64.9288 305.512 64.91 305.512 64.8912 305.512C64.8723 305.512 64.8534 305.512 64.8345 305.512C64.8155 305.512 64.7965 305.512 64.7775 305.512C64.7585 305.512 64.7394 305.512 64.7202 305.512C64.7011 305.512 64.6819 305.512 64.6627 305.512C64.6434 305.512 64.6242 305.512 64.6048 305.512C64.5855 305.512 64.5661 305.512 64.5467 305.512C64.5272 305.512 64.5078 305.512 64.4882 305.512C64.4687 305.512 64.4491 305.512 64.4295 305.512C64.4099 305.512 64.3902 305.512 64.3705 305.512C64.3508 305.512 64.331 305.512 64.3112 305.512C64.2914 305.512 64.2715 305.512 64.2516 305.512C64.2317 305.512 64.2117 305.512 64.1917 305.512C64.1717 305.512 64.1516 305.512 64.1315 305.512C64.1114 305.512 64.0912 305.512 64.071 305.512C64.0508 305.512 64.0305 305.512 64.0102 305.512C63.9899 305.512 63.9695 305.512 63.9491 305.512C63.9287 305.512 63.9082 305.512 63.8877 305.512C63.8672 305.512 63.8466 305.512 63.826 305.512C63.8054 305.512 63.7848 305.512 63.7641 305.512C63.7433 305.512 63.7226 305.512 63.7018 305.512C63.681 305.512 63.6601 305.512 63.6392 305.512C63.6183 305.512 63.5973 305.512 63.5763 305.512C63.5553 305.512 63.5342 305.512 63.5131 305.512C63.492 305.512 63.4708 305.512 63.4496 305.512C63.4284 305.512 63.4072 305.512 63.3858 305.512C63.3645 305.512 63.3432 305.512 63.3217 305.512C63.3003 305.512 63.2789 305.512 63.2573 305.512C63.2358 305.512 63.2143 305.512 63.1926 305.512C63.171 305.512 63.1494 305.512 63.1276 305.512C63.1059 305.512 63.0841 305.512 63.0623 305.512C63.0405 305.512 63.0186 305.512 62.9967 305.512C62.9748 305.512 62.9528 305.512 62.9308 305.512C62.9088 305.512 62.8867 305.512 62.8646 305.512C62.8424 305.512 62.8202 305.512 62.798 305.512C62.7758 305.512 62.7535 305.512 62.7312 305.512C62.7088 305.512 62.6864 305.512 62.664 305.512C62.6416 305.512 62.6191 305.512 62.5965 305.512C62.574 305.512 62.5514 305.512 62.5288 305.512C62.5061 305.512 62.4834 305.512 62.4607 305.512C62.4379 305.512 62.4151 305.512 62.3923 305.512C62.3694 305.512 62.3465 305.512 62.3236 305.512C62.3006 305.512 62.2776 305.512 62.2545 305.512C62.2315 305.512 62.2084 305.512 62.1852 305.512C62.162 305.512 62.1388 305.512 62.1155 305.512C62.0923 305.512 62.069 305.512 62.0456 305.512C62.0222 305.512 61.9988 305.512 61.9753 305.512C61.9518 305.512 61.9283 305.512 61.9047 305.512C61.8811 305.512 61.8575 305.512 61.8338 305.512C61.8101 305.512 61.7864 305.512 61.7626 305.512C61.7388 305.512 61.7149 305.512 61.691 305.512C61.6671 305.512 61.6432 305.512 61.6191 305.512C61.5951 305.512 61.5711 305.512 61.547 305.512C61.5228 305.512 61.4987 305.512 61.4745 305.512V306.012ZM71.9913 188.224C74.4033 188.458 77.8363 189.359 80.3134 191.285C81.5483 192.246 82.5382 193.455 83.054 194.957C83.5692 196.458 83.6189 198.272 82.9377 200.458L83.415 200.606C84.1229 198.335 84.0818 196.411 83.5269 194.795C82.9726 193.181 81.9132 191.896 80.6204 190.891C78.0419 188.885 74.5053 187.965 72.0394 187.727L71.9913 188.224ZM82.9377 200.458C81.2199 205.969 77.4522 209.873 74.3988 211.341C72.857 212.083 71.5811 212.167 70.8266 211.659C70.0935 211.166 69.7123 210.007 70.2169 207.895L69.7306 207.779C69.2144 209.939 69.539 211.395 70.5474 212.074C71.5344 212.738 73.0356 212.552 74.6155 211.792C77.8056 210.257 81.66 206.237 83.415 200.606L82.9377 200.458ZM70.2169 207.895C71.2333 203.642 72.2602 200.155 72.7726 196.998C73.2871 193.826 73.2901 190.953 72.2521 187.895L71.7786 188.056C72.7822 191.012 72.7852 193.798 72.279 196.918C71.7705 200.052 70.7558 203.489 69.7306 207.779L70.2169 207.895ZM48.0739 260.643C48.7317 258.305 52.3021 253.782 61.4348 255.251L61.5141 254.757C52.1659 253.254 48.3285 257.892 47.5926 260.507L48.0739 260.643ZM61.4348 255.251C67.2218 256.181 70.5998 256.796 72.535 257.558C73.4974 257.936 74.0692 258.339 74.4057 258.806C74.7394 259.269 74.8656 259.828 74.8656 260.575H75.3656C75.3656 259.774 75.2306 259.095 74.8113 258.514C74.3949 257.936 73.7221 257.487 72.7181 257.092C70.7203 256.306 67.2777 255.684 61.5141 254.757L61.4348 255.251ZM74.8656 260.575C74.8656 261.227 74.4047 261.898 73.5306 262.562C72.6658 263.218 71.4501 263.827 70.0647 264.365C67.2963 265.44 63.9063 266.209 61.4435 266.517L61.5054 267.013C64.003 266.701 67.4337 265.923 70.2457 264.831C71.6506 264.286 72.9151 263.657 73.833 262.96C74.7415 262.27 75.3656 261.47 75.3656 260.575H74.8656ZM61.4435 266.517C59.0169 266.819 55.0293 266.157 51.9531 264.977C50.4138 264.387 49.1366 263.68 48.3994 262.926C48.0324 262.551 47.8152 262.181 47.7497 261.823C47.6859 261.474 47.761 261.108 48.037 260.72L47.6294 260.43C47.2854 260.914 47.1667 261.415 47.2579 261.913C47.3475 262.403 47.634 262.859 48.042 263.276C48.855 264.107 50.2131 264.846 51.7741 265.444C54.8985 266.642 58.9716 267.329 61.5054 267.013L61.4435 266.517ZM94.288 240.556C93.9798 240.753 93.5952 240.946 93.1945 241.074C92.7918 241.203 92.3895 241.259 92.0382 241.201C91.6958 241.144 91.3963 240.978 91.1757 240.641C90.9495 240.296 90.7922 239.749 90.7922 238.91H90.2922C90.2922 239.803 90.4583 240.459 90.7575 240.915C91.0623 241.381 91.4904 241.617 91.9564 241.694C92.4135 241.77 92.9005 241.693 93.3465 241.551C93.7947 241.408 94.2184 241.194 94.5569 240.978L94.288 240.556ZM94.6451 240.881C96.2066 237.823 97.804 234.879 99.429 232.092L98.9971 231.84C97.3668 234.636 95.765 237.588 94.1998 240.653L94.6451 240.881ZM99.429 232.092C100.398 230.43 101.377 228.824 102.364 227.284L101.943 227.014C100.952 228.561 99.9695 230.173 98.9971 231.84L99.429 232.092ZM90.7922 238.91C90.7922 234.747 94.9726 231.483 99.1702 232.212L99.2559 231.72C94.7826 230.942 90.2922 234.407 90.2922 238.91H90.7922ZM69.8768 215.158C68.6236 215.685 67.0241 216.773 66.3924 218.343C66.0729 219.137 66.0051 220.047 66.3472 221.046C66.6875 222.04 67.4279 223.108 68.6987 224.241L69.0314 223.867C67.802 222.772 67.1242 221.772 66.8203 220.884C66.5182 220.001 66.5802 219.216 66.8563 218.53C67.4157 217.139 68.8708 216.123 70.0707 215.618L69.8768 215.158ZM68.6987 224.241C69.4925 224.948 70.1758 225.364 70.7617 225.522C71.3615 225.685 71.8662 225.577 72.2511 225.238C72.6208 224.911 72.8477 224.399 72.9765 223.814C73.1063 223.223 73.1431 222.528 73.1076 221.798C73.0366 220.339 72.6745 218.705 72.1416 217.429C71.8754 216.792 71.5612 216.231 71.2094 215.825C70.8615 215.424 70.4445 215.138 69.9738 215.138V215.638C70.2327 215.638 70.5237 215.797 70.8316 216.153C71.1356 216.503 71.4252 217.011 71.6802 217.622C72.1897 218.841 72.5399 220.418 72.6082 221.822C72.6424 222.524 72.6056 223.173 72.4881 223.706C72.3696 224.245 72.1756 224.638 71.9203 224.863C71.6803 225.074 71.356 225.165 70.8923 225.04C70.4148 224.911 69.8003 224.553 69.0314 223.867L68.6987 224.241ZM53.9343 230.634C51.5766 231.657 47.9594 232.694 44.7636 232.501C43.1682 232.405 41.6966 232.004 40.5378 231.16C39.3848 230.32 38.5196 229.028 38.1581 227.103L37.6667 227.195C38.0493 229.232 38.977 230.642 40.2435 231.564C41.5042 232.482 43.0787 232.901 44.7335 233C48.0378 233.2 51.7373 232.132 54.1334 231.092L53.9343 230.634ZM38.1581 227.103C37.9304 225.89 38.0155 225.043 38.2954 224.474C38.5691 223.917 39.0469 223.589 39.6997 223.447C40.362 223.303 41.1962 223.354 42.1419 223.563C43.0844 223.771 44.1197 224.133 45.1757 224.593C47.288 225.513 49.461 226.818 51.1036 228.046C51.9253 228.66 52.6078 229.249 53.0821 229.757C53.3196 230.011 53.4996 230.239 53.6189 230.435C53.7415 230.636 53.7838 230.777 53.7838 230.863H54.2838C54.2838 230.64 54.1856 230.404 54.0458 230.174C53.9025 229.939 53.6981 229.684 53.4475 229.416C52.9457 228.879 52.238 228.269 51.4029 227.645C49.7321 226.397 47.5259 225.071 45.3754 224.134C44.2999 223.666 43.2329 223.292 42.2498 223.075C41.27 222.858 40.3554 222.793 39.5935 222.959C38.8222 223.126 38.2003 223.533 37.8467 224.253C37.4993 224.96 37.4294 225.931 37.6667 227.195L38.1581 227.103ZM70.2153 305.826C73.6197 293.03 79.3485 275.518 86.3699 258.815L85.909 258.621C78.8781 275.347 73.142 292.881 69.7322 305.697L70.2153 305.826ZM86.3699 258.815C88.9691 252.631 91.745 246.56 94.6451 240.881L94.1998 240.653C91.2931 246.346 88.512 252.428 85.909 258.621L86.3699 258.815ZM264.204 227.3C269.77 234.605 275.037 244.351 281.38 261.898L281.85 261.728C275.498 244.154 270.21 234.357 264.602 226.997L264.204 227.3ZM281.38 261.898C285.692 273.825 290.498 289.352 296.234 310.161L296.716 310.028C290.979 289.213 286.168 273.672 281.85 261.728L281.38 261.898ZM296.716 210.501C298.311 204.595 302.383 195.7 309.211 189.576L308.877 189.204C301.956 195.412 297.845 204.403 296.233 210.371L296.716 210.501ZM309.211 189.576C309.753 189.09 310.313 188.621 310.889 188.173L310.583 187.778C309.996 188.234 309.428 188.71 308.877 189.204L309.211 189.576ZM281.784 261.998C290.002 254.522 306.945 229.574 309.294 189.405L308.795 189.376C306.452 229.428 289.56 254.248 281.447 261.628L281.784 261.998ZM295.269 174.163C298.79 173.669 303.569 173.659 309.002 174.58L309.086 174.087C303.607 173.159 298.777 173.166 295.2 173.668L295.269 174.163ZM309.002 174.58C315.739 175.72 323.474 178.289 331.064 183.125L331.332 182.703C323.681 177.828 315.881 175.237 309.086 174.087L309.002 174.58ZM250.862 73.402C256.289 75.5293 264.113 79.755 270.84 85.767C277.569 91.7804 283.174 99.5576 284.219 108.787L284.716 108.731C283.652 99.3313 277.95 91.4501 271.174 85.3941C264.396 79.3367 256.518 75.0821 251.044 72.9364L250.862 73.402ZM284.219 108.787C284.415 110.517 284.45 112.299 284.303 114.132L284.802 114.172C284.951 112.307 284.915 110.493 284.716 108.731L284.219 108.787ZM309.294 174.325C309.086 167.474 307.606 155.978 303.84 143.73C300.075 131.483 294.019 118.465 284.649 108.587L284.286 108.931C293.584 118.732 299.61 131.671 303.362 143.877C307.115 156.082 308.588 167.533 308.794 174.341L309.294 174.325ZM58.2837 192.252C57.8572 192.418 57.455 192.545 57.0755 192.636L57.1927 193.122C57.5963 193.025 58.0199 192.891 58.4646 192.718L58.2837 192.252ZM57.0755 192.636C55.9082 192.918 54.9589 192.863 54.1785 192.562C53.3982 192.262 52.7625 191.705 52.2387 190.942C51.1831 189.403 50.6065 187.061 50.2331 184.433C49.8599 181.807 49.6965 178.959 49.4363 176.4C49.3068 175.126 49.1534 173.926 48.9377 172.877C48.7225 171.831 48.4422 170.917 48.0511 170.222L47.6154 170.468C47.9691 171.096 48.2367 171.951 48.4479 172.978C48.6586 174.002 48.81 175.182 48.9389 176.45C49.1956 178.976 49.3635 181.867 49.738 184.503C50.1123 187.138 50.6997 189.583 51.8264 191.225C52.3936 192.052 53.1037 192.684 53.9987 193.029C54.8938 193.374 55.9498 193.422 57.1927 193.122L57.0755 192.636ZM52.5882 164.154C53.8057 165.909 55.1839 168.092 56.5003 170.466L56.9376 170.224C55.6129 167.834 54.2258 165.638 52.9991 163.869L52.5882 164.154ZM56.5003 170.466C58.8507 174.706 60.9914 179.534 61.6811 183.627C62.0259 185.673 62.0039 187.512 61.4838 188.995C60.9678 190.467 59.9573 191.602 58.2837 192.252L58.4646 192.718C60.2777 192.014 61.3924 190.767 61.9556 189.161C62.5148 187.566 62.5261 185.632 62.1742 183.544C61.4702 179.367 59.2967 174.479 56.9376 170.224L56.5003 170.466ZM57.3802 192.835C56.6928 188.972 55.6475 179.064 56.9661 170.383L56.4718 170.307C55.142 179.062 56.1952 189.029 56.8879 192.923L57.3802 192.835ZM99.4502 215.467C100.503 212.311 102.186 207.136 103.189 201.235C104.192 195.336 104.518 188.692 102.841 182.599C101.162 176.497 97.4743 170.953 90.4701 167.278C83.4755 163.607 73.1966 161.81 58.3518 163.141L58.3965 163.639C73.1895 162.313 83.3604 164.111 90.2377 167.72C97.1055 171.325 100.712 176.747 102.359 182.731C104.008 188.725 103.693 195.288 102.696 201.151C101.7 207.013 100.027 212.156 98.9759 215.309L99.4502 215.467ZM58.3518 163.141C56.556 163.302 54.6931 163.509 52.761 163.763L52.8263 164.259C54.752 164.005 56.6079 163.799 58.3965 163.639L58.3518 163.141ZM103.342 57.9293C97.5304 66.4111 95.0237 73.2578 94.1136 78.8595C93.2036 84.4611 93.8937 88.8009 94.4472 92.2472L94.9409 92.168C94.3885 88.7283 93.7109 84.4566 94.6072 78.9397C95.5034 73.4228 97.9769 66.6441 103.755 58.2119L103.342 57.9293ZM58.6239 163.401C59.1055 152.118 67.0204 122.051 94.8763 92.3787L94.5118 92.0365C66.5806 121.788 58.6114 151.967 58.1244 163.379L58.6239 163.401ZM103.748 114.302C104.845 112.847 105.453 110.934 105.726 108.753C105.999 106.572 105.938 104.104 105.679 101.525C105.162 96.3694 103.85 90.7258 102.805 85.9641L102.317 86.0712C103.365 90.8458 104.668 96.4552 105.181 101.575C105.438 104.134 105.496 106.561 105.23 108.691C104.963 110.824 104.373 112.642 103.349 114.001L103.748 114.302ZM102.805 85.9641C102.247 83.4209 101.766 81.1329 101.518 79.2947C101.393 78.3757 101.329 77.5767 101.34 76.9191C101.352 76.256 101.441 75.7631 101.604 75.4385L101.157 75.214C100.943 75.6394 100.852 76.2225 100.84 76.9104C100.828 77.6038 100.896 78.4307 101.022 79.3616C101.274 81.2232 101.759 83.5308 102.317 86.0712L102.805 85.9641ZM102.422 85.8101L99.0736 88.0606L99.3525 88.4755L102.701 86.2251L102.422 85.8101ZM25.3011 140.973C25.2806 141.005 25.2601 141.037 25.2395 141.069L25.6603 141.339C25.6807 141.307 25.7011 141.275 25.7214 141.244L25.3011 140.973ZM25.2385 141.07C23.8001 143.347 23.0315 147.298 23.6269 153.047C24.2232 158.805 26.1903 166.397 30.2637 175.986C38.4106 195.164 54.9945 222.357 85.9487 258.879L86.3301 258.556C55.3949 222.056 38.8443 194.906 30.7239 175.791C26.6637 166.233 24.714 158.69 24.1243 152.996C23.5337 147.294 24.3099 143.476 25.6612 141.337L25.2385 141.07ZM25.2395 141.069C22.021 146.083 17.5663 154.471 14.5961 163.452C11.6296 172.422 10.1255 182.038 12.8758 189.477L13.3448 189.303C10.656 182.031 12.1124 172.554 15.0708 163.609C18.0256 154.674 22.4602 146.324 25.6602 141.339L25.2395 141.069ZM61.4745 306.012H69.9738V305.512H61.4745V306.012ZM95.1147 99.1322C95.7575 97.2134 95.3868 94.9441 94.9481 92.2127L94.4544 92.292C94.8999 95.066 95.2359 97.1963 94.6406 98.9734L95.1147 99.1322ZM94.9481 92.2127L94.9409 92.168L94.4472 92.2472L94.4544 92.292L94.9481 92.2127ZM94.4472 92.2472C94.4496 92.2621 94.452 92.2772 94.4544 92.292L94.9481 92.2127C94.9457 92.1978 94.9433 92.183 94.9409 92.168L94.4472 92.2472Z" fill="black"/>
</svg>
