<svg width="123" height="123" viewBox="0 0 123 123" fill="none" xmlns="http://www.w3.org/2000/svg">
<path fill-rule="evenodd" clip-rule="evenodd" d="M25.5188 88.3996L43.7445 35.7592H57.6622L76.5506 88.3996H63.627L59.6505 75.4878H41.7562L37.7797 88.3996H25.5188ZM56.1711 65.059H44.7386L50.7034 45.1947L56.1711 65.059Z" fill="#FF9B00"/>
<path d="M81.5213 48.1744H91.4625V88.3996H81.5213V48.1744Z" fill="#FF9B00"/>
<path d="M86.4919 31.7863C84.5036 31.9518 80.5271 33.3754 80.5271 37.7456C80.5271 42.1157 84.5036 43.5393 86.4919 43.7049C88.4801 43.7049 92.4566 42.513 92.4566 37.7456C92.4566 32.9782 88.4801 31.7863 86.4919 31.7863Z" fill="#FF9B00"/>
<path fill-rule="evenodd" clip-rule="evenodd" d="M24.856 0.500008H97.4272C104.883 0.500008 121.883 8.24709 122.28 27.3168C122.678 46.3866 122.446 81.6126 122.28 96.8419C122.28 109.754 113.333 121.672 99.4155 121.672C85.4977 121.672 46.2298 122.5 25.5188 122.5C16.406 122.5 0.499958 114.323 0.499958 94.8555V25.827C0.499958 15.8949 8.55238 0.500008 24.856 0.500008ZM43.7445 35.7592L25.5188 88.3996H37.7797L41.7562 75.4878H59.6505L63.627 88.3996H76.5506L57.6622 35.7592H43.7445ZM80.5271 37.7456C80.5271 33.3754 84.5036 31.9518 86.4919 31.7863C88.4801 31.7863 92.4566 32.9782 92.4566 37.7456C92.4566 42.513 88.4801 43.7049 86.4919 43.7049C84.5036 43.5393 80.5271 42.1157 80.5271 37.7456ZM91.4625 48.1744H81.5213V88.3996H91.4625V48.1744Z" fill="#033F63"/>
<path d="M44.7386 65.059H56.1711L50.7034 45.1947L44.7386 65.059Z" fill="#033F63"/>
<path d="M122.28 96.8419L122.03 96.8392V96.8419H122.28ZM25.5188 88.3996L25.2826 88.3178L25.1677 88.6496H25.5188V88.3996ZM43.7445 35.7592V35.5092H43.5665L43.5082 35.6774L43.7445 35.7592ZM57.6622 35.7592L57.8976 35.6747L57.8381 35.5092H57.6622V35.7592ZM76.5506 88.3996V88.6496H76.9059L76.7859 88.3152L76.5506 88.3996ZM63.627 88.3996L63.3881 88.4732L63.4424 88.6496H63.627V88.3996ZM59.6505 75.4878L59.8894 75.4142L59.8351 75.2378H59.6505V75.4878ZM41.7562 75.4878V75.2378H41.5716L41.5173 75.4142L41.7562 75.4878ZM37.7797 88.3996V88.6496H37.9643L38.0187 88.4732L37.7797 88.3996ZM44.7386 65.059L44.4992 64.9871L44.4025 65.309H44.7386V65.059ZM56.1711 65.059V65.309H56.4992L56.4121 64.9927L56.1711 65.059ZM50.7034 45.1947L50.9444 45.1284L50.7138 44.2906L50.4639 45.1228L50.7034 45.1947ZM86.4919 31.7863V31.5363H86.4815L86.4712 31.5372L86.4919 31.7863ZM86.4919 43.7049L86.4712 43.954L86.4815 43.9549H86.4919V43.7049ZM81.5213 48.1744V47.9244H81.2713V48.1744H81.5213ZM91.4625 48.1744H91.7125V47.9244H91.4625V48.1744ZM91.4625 88.3996V88.6496H91.7125V88.3996H91.4625ZM81.5213 88.3996H81.2713V88.6496H81.5213V88.3996ZM24.856 0.750008H97.4272V0.250008H24.856V0.750008ZM97.4272 0.750008C101.089 0.750008 107.148 2.66098 112.341 6.95003C117.525 11.2308 121.833 17.8697 122.03 27.322L122.53 27.3116C122.33 17.6942 117.94 10.9247 112.66 6.5645C107.39 2.21258 101.221 0.250008 97.4272 0.250008V0.750008ZM122.03 27.322C122.428 46.3873 122.196 81.6096 122.03 96.8392L122.53 96.8447C122.696 81.6156 122.928 46.3859 122.53 27.3116L122.03 27.322ZM122.03 96.8419C122.03 109.651 113.163 121.422 99.4155 121.422V121.922C113.504 121.922 122.53 109.857 122.53 96.8419H122.03ZM99.4155 121.422C92.4542 121.422 79.1551 121.629 65.0109 121.836C50.8648 122.043 35.8721 122.25 25.5188 122.25V122.75C35.8765 122.75 50.8732 122.543 65.0182 122.336C79.1653 122.129 92.459 121.922 99.4155 121.922V121.422ZM25.5188 122.25C21.0261 122.25 14.8292 120.23 9.75673 115.79C4.69248 111.357 0.749958 104.513 0.749958 94.8555H0.249958C0.249958 104.665 4.26045 111.643 9.42741 116.166C14.5861 120.682 20.8986 122.75 25.5188 122.75V122.25ZM0.749958 94.8555C0.749958 94.8175 0.749958 94.7794 0.749958 94.7413C0.749958 94.7031 0.749958 94.6649 0.749958 94.6267C0.749958 94.5884 0.749958 94.5501 0.749958 94.5117C0.749958 94.4734 0.749958 94.435 0.749958 94.3965C0.749958 94.358 0.749958 94.3195 0.749958 94.2809C0.749958 94.2423 0.749958 94.2036 0.749958 94.1649C0.749958 94.1262 0.749958 94.0874 0.749958 94.0486C0.749958 94.0098 0.749958 93.9709 0.749958 93.932C0.749958 93.8931 0.749958 93.8541 0.749958 93.815C0.749958 93.776 0.749958 93.7369 0.749958 93.6977C0.749958 93.6586 0.749958 93.6194 0.749958 93.5801C0.749958 93.5408 0.749958 93.5015 0.749958 93.4621C0.749958 93.4228 0.749958 93.3833 0.749958 93.3438C0.749958 93.3044 0.749958 93.2648 0.749958 93.2252C0.749958 93.1856 0.749958 93.146 0.749958 93.1063C0.749958 93.0666 0.749958 93.0268 0.749958 92.987C0.749958 92.9472 0.749958 92.9073 0.749958 92.8674C0.749958 92.8275 0.749958 92.7875 0.749958 92.7475C0.749958 92.7075 0.749958 92.6674 0.749958 92.6273C0.749958 92.5872 0.749958 92.547 0.749958 92.5067C0.749958 92.4665 0.749958 92.4262 0.749958 92.3859C0.749958 92.3455 0.749958 92.3051 0.749958 92.2647C0.749958 92.2242 0.749958 92.1837 0.749958 92.1432C0.749958 92.1026 0.749958 92.062 0.749958 92.0214C0.749958 91.9807 0.749958 91.94 0.749958 91.8993C0.749958 91.8585 0.749958 91.8177 0.749958 91.7768C0.749958 91.736 0.749958 91.6951 0.749958 91.6541C0.749958 91.6131 0.749958 91.5721 0.749958 91.5311C0.749958 91.49 0.749958 91.4489 0.749958 91.4077C0.749958 91.3666 0.749958 91.3253 0.749958 91.2841C0.749958 91.2428 0.749958 91.2015 0.749958 91.1601C0.749958 91.1188 0.749958 91.0774 0.749958 91.0359C0.749958 90.9944 0.749958 90.9529 0.749958 90.9113C0.749958 90.8698 0.749958 90.8282 0.749958 90.7865C0.749958 90.7448 0.749958 90.7031 0.749958 90.6614C0.749958 90.6196 0.749958 90.5778 0.749958 90.5359C0.749958 90.4941 0.749958 90.4522 0.749958 90.4102C0.749958 90.3683 0.749958 90.3263 0.749958 90.2842C0.749958 90.2422 0.749958 90.2001 0.749958 90.1579C0.749958 90.1158 0.749958 90.0736 0.749958 90.0313C0.749958 89.9891 0.749958 89.9468 0.749958 89.9045C0.749958 89.8621 0.749958 89.8197 0.749958 89.7773C0.749958 89.7349 0.749958 89.6924 0.749958 89.6499C0.749958 89.6074 0.749958 89.5648 0.749958 89.5222C0.749958 89.4795 0.749958 89.4369 0.749958 89.3942C0.749958 89.3515 0.749958 89.3087 0.749958 89.2659C0.749958 89.2231 0.749958 89.1802 0.749958 89.1374C0.749958 89.0945 0.749958 89.0515 0.749958 89.0085C0.749958 88.9655 0.749958 88.9225 0.749958 88.8794C0.749958 88.8364 0.749958 88.7932 0.749958 88.7501C0.749958 88.7069 0.749958 88.6637 0.749958 88.6204C0.749958 88.5772 0.749958 88.5339 0.749958 88.4905C0.749958 88.4472 0.749958 88.4038 0.749958 88.3604C0.749958 88.3169 0.749958 88.2734 0.749958 88.2299C0.749958 88.1864 0.749958 88.1428 0.749958 88.0992C0.749958 88.0556 0.749958 88.012 0.749958 87.9683C0.749958 87.9246 0.749958 87.8808 0.749958 87.837C0.749958 87.7933 0.749958 87.7494 0.749958 87.7056C0.749958 87.6617 0.749958 87.6178 0.749958 87.5738C0.749958 87.5299 0.749958 87.4859 0.749958 87.4418C0.749958 87.3978 0.749958 87.3537 0.749958 87.3096C0.749958 87.2655 0.749958 87.2213 0.749958 87.1771C0.749958 87.1329 0.749958 87.0886 0.749958 87.0443C0.749958 87 0.749958 86.9557 0.749958 86.9113C0.749958 86.867 0.749958 86.8225 0.749958 86.7781C0.749958 86.7336 0.749958 86.6891 0.749958 86.6446C0.749958 86.6001 0.749958 86.5555 0.749958 86.5108C0.749958 86.4662 0.749958 86.4216 0.749958 86.3769C0.749958 86.3322 0.749958 86.2874 0.749958 86.2426C0.749958 86.1979 0.749958 86.153 0.749958 86.1082C0.749958 86.0633 0.749958 86.0184 0.749958 85.9735C0.749958 85.9285 0.749958 85.8836 0.749958 85.8385C0.749958 85.7935 0.749958 85.7485 0.749958 85.7034C0.749958 85.6583 0.749958 85.6131 0.749958 85.568C0.749958 85.5228 0.749958 85.4776 0.749958 85.4323C0.749958 85.3871 0.749958 85.3418 0.749958 85.2964C0.749958 85.2511 0.749958 85.2058 0.749958 85.1604C0.749958 85.1149 0.749958 85.0695 0.749958 85.024C0.749958 84.9785 0.749958 84.933 0.749958 84.8875C0.749958 84.8419 0.749958 84.7963 0.749958 84.7507C0.749958 84.7051 0.749958 84.6594 0.749958 84.6137C0.749958 84.568 0.749958 84.5223 0.749958 84.4765C0.749958 84.4307 0.749958 84.3849 0.749958 84.339C0.749958 84.2932 0.749958 84.2473 0.749958 84.2014C0.749958 84.1555 0.749958 84.1095 0.749958 84.0635C0.749958 84.0175 0.749958 83.9715 0.749958 83.9254C0.749958 83.8793 0.749958 83.8332 0.749958 83.7871C0.749958 83.741 0.749958 83.6948 0.749958 83.6486C0.749958 83.6024 0.749958 83.5561 0.749958 83.5099C0.749958 83.4636 0.749958 83.4173 0.749958 83.3709C0.749958 83.3246 0.749958 83.2782 0.749958 83.2318C0.749958 83.1854 0.749958 83.1389 0.749958 83.0924C0.749958 83.046 0.749958 82.9994 0.749958 82.9529C0.749958 82.9063 0.749958 82.8598 0.749958 82.8131C0.749958 82.7665 0.749958 82.7199 0.749958 82.6732C0.749958 82.6265 0.749958 82.5798 0.749958 82.533C0.749958 82.4863 0.749958 82.4395 0.749958 82.3927C0.749958 82.3459 0.749958 82.299 0.749958 82.2521C0.749958 82.2053 0.749958 82.1583 0.749958 82.1114C0.749958 82.0644 0.749958 82.0175 0.749958 81.9705C0.749958 81.9234 0.749958 81.8764 0.749958 81.8293C0.749958 81.7823 0.749958 81.7351 0.749958 81.688C0.749958 81.6409 0.749958 81.5937 0.749958 81.5465C0.749958 81.4993 0.749958 81.4521 0.749958 81.4048C0.749958 81.3576 0.749958 81.3103 0.749958 81.2629C0.749958 81.2156 0.749958 81.1683 0.749958 81.1209C0.749958 81.0735 0.749958 81.0261 0.749958 80.9786C0.749958 80.9312 0.749958 80.8837 0.749958 80.8362C0.749958 80.7887 0.749958 80.7412 0.749958 80.6936C0.749958 80.646 0.749958 80.5984 0.749958 80.5508C0.749958 80.5032 0.749958 80.4556 0.749958 80.4079C0.749958 80.3602 0.749958 80.3125 0.749958 80.2647C0.749958 80.217 0.749958 80.1692 0.749958 80.1214C0.749958 80.0736 0.749958 80.0258 0.749958 79.978C0.749958 79.9301 0.749958 79.8822 0.749958 79.8343C0.749958 79.7864 0.749958 79.7385 0.749958 79.6905C0.749958 79.6425 0.749958 79.5945 0.749958 79.5465C0.749958 79.4985 0.749958 79.4505 0.749958 79.4024C0.749958 79.3543 0.749958 79.3062 0.749958 79.2581C0.749958 79.2099 0.749958 79.1618 0.749958 79.1136C0.749958 79.0654 0.749958 79.0172 0.749958 78.969C0.749958 78.9207 0.749958 78.8725 0.749958 78.8242C0.749958 78.7759 0.749958 78.7276 0.749958 78.6792C0.749958 78.6309 0.749958 78.5825 0.749958 78.5341C0.749958 78.4857 0.749958 78.4373 0.749958 78.3889C0.749958 78.3404 0.749958 78.292 0.749958 78.2435C0.749958 78.195 0.749958 78.1465 0.749958 78.0979C0.749958 78.0494 0.749958 78.0008 0.749958 77.9522C0.749958 77.9036 0.749958 77.855 0.749958 77.8064C0.749958 77.7577 0.749958 77.709 0.749958 77.6604C0.749958 77.6117 0.749958 77.563 0.749958 77.5142C0.749958 77.4655 0.749958 77.4167 0.749958 77.3679C0.749958 77.3191 0.749958 77.2703 0.749958 77.2215C0.749958 77.1727 0.749958 77.1238 0.749958 77.0749C0.749958 77.026 0.749958 76.9771 0.749958 76.9282C0.749958 76.8793 0.749958 76.8303 0.749958 76.7814C0.749958 76.7324 0.749958 76.6834 0.749958 76.6344C0.749958 76.5854 0.749958 76.5363 0.749958 76.4873C0.749958 76.4382 0.749958 76.3891 0.749958 76.34C0.749958 76.2909 0.749958 76.2418 0.749958 76.1926C0.749958 76.1435 0.749958 76.0943 0.749958 76.0451C0.749958 75.9959 0.749958 75.9467 0.749958 75.8975C0.749958 75.8483 0.749958 75.799 0.749958 75.7497C0.749958 75.7005 0.749958 75.6512 0.749958 75.6019C0.749958 75.5525 0.749958 75.5032 0.749958 75.4538C0.749958 75.4045 0.749958 75.3551 0.749958 75.3057C0.749958 75.2563 0.749958 75.2069 0.749958 75.1575C0.749958 75.108 0.749958 75.0586 0.749958 75.0091C0.749958 74.9596 0.749958 74.9101 0.749958 74.8606C0.749958 74.8111 0.749958 74.7616 0.749958 74.712C0.749958 74.6625 0.749958 74.6129 0.749958 74.5633C0.749958 74.5137 0.749958 74.4641 0.749958 74.4145C0.749958 74.3649 0.749958 74.3152 0.749958 74.2656C0.749958 74.2159 0.749958 74.1662 0.749958 74.1165C0.749958 74.0668 0.749958 74.0171 0.749958 73.9674C0.749958 73.9176 0.749958 73.8679 0.749958 73.8181C0.749958 73.7684 0.749958 73.7186 0.749958 73.6688C0.749958 73.619 0.749958 73.5691 0.749958 73.5193C0.749958 73.4695 0.749958 73.4196 0.749958 73.3697C0.749958 73.3199 0.749958 73.27 0.749958 73.2201C0.749958 73.1702 0.749958 73.1203 0.749958 73.0703C0.749958 73.0204 0.749958 72.9704 0.749958 72.9205C0.749958 72.8705 0.749958 72.8205 0.749958 72.7705C0.749958 72.7205 0.749958 72.6705 0.749958 72.6205C0.749958 72.5704 0.749958 72.5204 0.749958 72.4703C0.749958 72.4203 0.749958 72.3702 0.749958 72.3201C0.749958 72.27 0.749958 72.2199 0.749958 72.1698C0.749958 72.1197 0.749958 72.0696 0.749958 72.0194C0.749958 71.9693 0.749958 71.9191 0.749958 71.8689C0.749958 71.8187 0.749958 71.7686 0.749958 71.7184C0.749958 71.6682 0.749958 71.6179 0.749958 71.5677C0.749958 71.5175 0.749958 71.4672 0.749958 71.417C0.749958 71.3667 0.749958 71.3165 0.749958 71.2662C0.749958 71.2159 0.749958 71.1656 0.749958 71.1153C0.749958 71.065 0.749958 71.0146 0.749958 70.9643C0.749958 70.914 0.749958 70.8636 0.749958 70.8133C0.749958 70.7629 0.749958 70.7126 0.749958 70.6622C0.749958 70.6118 0.749958 70.5614 0.749958 70.511C0.749958 70.4606 0.749958 70.4102 0.749958 70.3597C0.749958 70.3093 0.749958 70.2589 0.749958 70.2084C0.749958 70.158 0.749958 70.1075 0.749958 70.057C0.749958 70.0066 0.749958 69.9561 0.749958 69.9056C0.749958 69.8551 0.749958 69.8046 0.749958 69.7541C0.749958 69.7036 0.749958 69.653 0.749958 69.6025C0.749958 69.552 0.749958 69.5014 0.749958 69.4509C0.749958 69.4003 0.749958 69.3497 0.749958 69.2992C0.749958 69.2486 0.749958 69.198 0.749958 69.1474C0.749958 69.0968 0.749958 69.0462 0.749958 68.9956C0.749958 68.945 0.749958 68.8944 0.749958 68.8438C0.749958 68.7931 0.749958 68.7425 0.749958 68.6918C0.749958 68.6412 0.749958 68.5905 0.749958 68.5399C0.749958 68.4892 0.749958 68.4385 0.749958 68.3879C0.749958 68.3372 0.749958 68.2865 0.749958 68.2358C0.749958 68.1851 0.749958 68.1344 0.749958 68.0837C0.749958 68.033 0.749958 67.9823 0.749958 67.9315C0.749958 67.8808 0.749958 67.8301 0.749958 67.7793C0.749958 67.7286 0.749958 67.6779 0.749958 67.6271C0.749958 67.5763 0.749958 67.5256 0.749958 67.4748C0.749958 67.4241 0.749958 67.3733 0.749958 67.3225C0.749958 67.2717 0.749958 67.2209 0.749958 67.1702C0.749958 67.1194 0.749958 67.0686 0.749958 67.0178C0.749958 66.967 0.749958 66.9162 0.749958 66.8653C0.749958 66.8145 0.749958 66.7637 0.749958 66.7129C0.749958 66.6621 0.749958 66.6113 0.749958 66.5604C0.749958 66.5096 0.749958 66.4587 0.749958 66.4079C0.749958 66.3571 0.749958 66.3062 0.749958 66.2554C0.749958 66.2045 0.749958 66.1537 0.749958 66.1028C0.749958 66.0519 0.749958 66.0011 0.749958 65.9502C0.749958 65.8993 0.749958 65.8485 0.749958 65.7976C0.749958 65.7467 0.749958 65.6958 0.749958 65.645C0.749958 65.5941 0.749958 65.5432 0.749958 65.4923C0.749958 65.4414 0.749958 65.3905 0.749958 65.3396C0.749958 65.2887 0.749958 65.2378 0.749958 65.187C0.749958 65.1361 0.749958 65.0852 0.749958 65.0342C0.749958 64.9833 0.749958 64.9324 0.749958 64.8815C0.749958 64.8306 0.749958 64.7797 0.749958 64.7288C0.749958 64.6779 0.749958 64.627 0.749958 64.5761C0.749958 64.5252 0.749958 64.4742 0.749958 64.4233C0.749958 64.3724 0.749958 64.3215 0.749958 64.2706C0.749958 64.2196 0.749958 64.1687 0.749958 64.1178C0.749958 64.0669 0.749958 64.016 0.749958 63.965C0.749958 63.9141 0.749958 63.8632 0.749958 63.8123C0.749958 63.7614 0.749958 63.7104 0.749958 63.6595C0.749958 63.6086 0.749958 63.5577 0.749958 63.5067C0.749958 63.4558 0.749958 63.4049 0.749958 63.354C0.749958 63.3031 0.749958 63.2521 0.749958 63.2012C0.749958 63.1503 0.749958 63.0994 0.749958 63.0485C0.749958 62.9975 0.749958 62.9466 0.749958 62.8957C0.749958 62.8448 0.749958 62.7939 0.749958 62.743C0.749958 62.6921 0.749958 62.6412 0.749958 62.5902C0.749958 62.5393 0.749958 62.4884 0.749958 62.4375C0.749958 62.3866 0.749958 62.3357 0.749958 62.2848C0.749958 62.2339 0.749958 62.183 0.749958 62.1321C0.749958 62.0812 0.749958 62.0304 0.749958 61.9795C0.749958 61.9286 0.749958 61.8777 0.749958 61.8268C0.749958 61.7759 0.749958 61.7251 0.749958 61.6742C0.749958 61.6233 0.749958 61.5724 0.749958 61.5216C0.749958 61.4707 0.749958 61.4198 0.749958 61.369C0.749958 61.3181 0.749958 61.2673 0.749958 61.2164C0.749958 61.1656 0.749958 61.1147 0.749958 61.0639C0.749958 61.013 0.749958 60.9622 0.749958 60.9113C0.749958 60.8605 0.749958 60.8097 0.749958 60.7589C0.749958 60.708 0.749958 60.6572 0.749958 60.6064C0.749958 60.5556 0.749958 60.5048 0.749958 60.454C0.749958 60.4032 0.749958 60.3524 0.749958 60.3016C0.749958 60.2508 0.749958 60.2 0.749958 60.1492C0.749958 60.0985 0.749958 60.0477 0.749958 59.9969C0.749958 59.9461 0.749958 59.8954 0.749958 59.8446C0.749958 59.7939 0.749958 59.7431 0.749958 59.6924C0.749958 59.6417 0.749958 59.5909 0.749958 59.5402C0.749958 59.4895 0.749958 59.4388 0.749958 59.388C0.749958 59.3373 0.749958 59.2866 0.749958 59.2359C0.749958 59.1852 0.749958 59.1345 0.749958 59.0839C0.749958 59.0332 0.749958 58.9825 0.749958 58.9318C0.749958 58.8812 0.749958 58.8305 0.749958 58.7799C0.749958 58.7292 0.749958 58.6786 0.749958 58.628C0.749958 58.5773 0.749958 58.5267 0.749958 58.4761C0.749958 58.4255 0.749958 58.3749 0.749958 58.3243C0.749958 58.2737 0.749958 58.2231 0.749958 58.1725C0.749958 58.1219 0.749958 58.0714 0.749958 58.0208C0.749958 57.9703 0.749958 57.9197 0.749958 57.8692C0.749958 57.8186 0.749958 57.7681 0.749958 57.7176C0.749958 57.6671 0.749958 57.6166 0.749958 57.5661C0.749958 57.5156 0.749958 57.4651 0.749958 57.4146C0.749958 57.3642 0.749958 57.3137 0.749958 57.2632C0.749958 57.2128 0.749958 57.1623 0.749958 57.1119C0.749958 57.0615 0.749958 57.0111 0.749958 56.9607C0.749958 56.9102 0.749958 56.8599 0.749958 56.8095C0.749958 56.7591 0.749958 56.7087 0.749958 56.6584C0.749958 56.608 0.749958 56.5576 0.749958 56.5073C0.749958 56.457 0.749958 56.4066 0.749958 56.3563C0.749958 56.306 0.749958 56.2557 0.749958 56.2054C0.749958 56.1552 0.749958 56.1049 0.749958 56.0546C0.749958 56.0044 0.749958 55.9541 0.749958 55.9039C0.749958 55.8537 0.749958 55.8034 0.749958 55.7532C0.749958 55.703 0.749958 55.6528 0.749958 55.6027C0.749958 55.5525 0.749958 55.5023 0.749958 55.4522C0.749958 55.402 0.749958 55.3519 0.749958 55.3018C0.749958 55.2516 0.749958 55.2015 0.749958 55.1514C0.749958 55.1013 0.749958 55.0513 0.749958 55.0012C0.749958 54.9511 0.749958 54.9011 0.749958 54.8511C0.749958 54.801 0.749958 54.751 0.749958 54.701C0.749958 54.651 0.749958 54.601 0.749958 54.5511C0.749958 54.5011 0.749958 54.4511 0.749958 54.4012C0.749958 54.3513 0.749958 54.3013 0.749958 54.2514C0.749958 54.2015 0.749958 54.1516 0.749958 54.1018C0.749958 54.0519 0.749958 54.002 0.749958 53.9522C0.749958 53.9023 0.749958 53.8525 0.749958 53.8027C0.749958 53.7529 0.749958 53.7031 0.749958 53.6533C0.749958 53.6036 0.749958 53.5538 0.749958 53.5041C0.749958 53.4543 0.749958 53.4046 0.749958 53.3549C0.749958 53.3052 0.749958 53.2555 0.749958 53.2059C0.749958 53.1562 0.749958 53.1066 0.749958 53.0569C0.749958 53.0073 0.749958 52.9577 0.749958 52.9081C0.749958 52.8585 0.749958 52.8089 0.749958 52.7594C0.749958 52.7098 0.749958 52.6603 0.749958 52.6108C0.749958 52.5613 0.749958 52.5118 0.749958 52.4623C0.749958 52.4128 0.749958 52.3633 0.749958 52.3139C0.749958 52.2645 0.749958 52.215 0.749958 52.1656C0.749958 52.1162 0.749958 52.0669 0.749958 52.0175C0.749958 51.9681 0.749958 51.9188 0.749958 51.8695C0.749958 51.8202 0.749958 51.7709 0.749958 51.7216C0.749958 51.6723 0.749958 51.6231 0.749958 51.5738C0.749958 51.5246 0.749958 51.4754 0.749958 51.4262C0.749958 51.377 0.749958 51.3278 0.749958 51.2787C0.749958 51.2295 0.749958 51.1804 0.749958 51.1313C0.749958 51.0822 0.749958 51.0331 0.749958 50.984C0.749958 50.9349 0.749958 50.8859 0.749958 50.8369C0.749958 50.7879 0.749958 50.7389 0.749958 50.6899C0.749958 50.6409 0.749958 50.592 0.749958 50.543C0.749958 50.4941 0.749958 50.4452 0.749958 50.3963C0.749958 50.3474 0.749958 50.2986 0.749958 50.2497C0.749958 50.2009 0.749958 50.1521 0.749958 50.1033C0.749958 50.0545 0.749958 50.0057 0.749958 49.957C0.749958 49.9082 0.749958 49.8595 0.749958 49.8108C0.749958 49.7621 0.749958 49.7135 0.749958 49.6648C0.749958 49.6162 0.749958 49.5675 0.749958 49.5189C0.749958 49.4703 0.749958 49.4218 0.749958 49.3732C0.749958 49.3247 0.749958 49.2761 0.749958 49.2276C0.749958 49.1791 0.749958 49.1307 0.749958 49.0822C0.749958 49.0338 0.749958 48.9854 0.749958 48.937C0.749958 48.8886 0.749958 48.8402 0.749958 48.7918C0.749958 48.7435 0.749958 48.6952 0.749958 48.6469C0.749958 48.5986 0.749958 48.5503 0.749958 48.5021C0.749958 48.4538 0.749958 48.4056 0.749958 48.3574C0.749958 48.3092 0.749958 48.2611 0.749958 48.213C0.749958 48.1648 0.749958 48.1167 0.749958 48.0686C0.749958 48.0205 0.749958 47.9725 0.749958 47.9245C0.749958 47.8764 0.749958 47.8284 0.749958 47.7805C0.749958 47.7325 0.749958 47.6846 0.749958 47.6367C0.749958 47.5887 0.749958 47.5408 0.749958 47.493C0.749958 47.4451 0.749958 47.3973 0.749958 47.3495C0.749958 47.3017 0.749958 47.2539 0.749958 47.2062C0.749958 47.1584 0.749958 47.1107 0.749958 47.063C0.749958 47.0153 0.749958 46.9677 0.749958 46.9201C0.749958 46.8724 0.749958 46.8248 0.749958 46.7773C0.749958 46.7297 0.749958 46.6822 0.749958 46.6346C0.749958 46.5871 0.749958 46.5397 0.749958 46.4922C0.749958 46.4448 0.749958 46.3973 0.749958 46.3499C0.749958 46.3026 0.749958 46.2552 0.749958 46.2079C0.749958 46.1605 0.749958 46.1132 0.749958 46.066C0.749958 46.0187 0.749958 45.9715 0.749958 45.9243C0.749958 45.8771 0.749958 45.8299 0.749958 45.7827C0.749958 45.7356 0.749958 45.6885 0.749958 45.6414C0.749958 45.5943 0.749958 45.5473 0.749958 45.5003C0.749958 45.4532 0.749958 45.4063 0.749958 45.3593C0.749958 45.3124 0.749958 45.2654 0.749958 45.2186C0.749958 45.1717 0.749958 45.1248 0.749958 45.078C0.749958 45.0312 0.749958 44.9844 0.749958 44.9376C0.749958 44.8909 0.749958 44.8441 0.749958 44.7974C0.749958 44.7508 0.749958 44.7041 0.749958 44.6575C0.749958 44.6108 0.749958 44.5643 0.749958 44.5177C0.749958 44.4711 0.749958 44.4246 0.749958 44.3781C0.749958 44.3316 0.749958 44.2852 0.749958 44.2388C0.749958 44.1923 0.749958 44.146 0.749958 44.0996C0.749958 44.0533 0.749958 44.0069 0.749958 43.9607C0.749958 43.9144 0.749958 43.8681 0.749958 43.8219C0.749958 43.7757 0.749958 43.7295 0.749958 43.6834C0.749958 43.6372 0.749958 43.5911 0.749958 43.545C0.749958 43.499 0.749958 43.4529 0.749958 43.4069C0.749958 43.3609 0.749958 43.315 0.749958 43.269C0.749958 43.2231 0.749958 43.1772 0.749958 43.1314C0.749958 43.0855 0.749958 43.0397 0.749958 42.9939C0.749958 42.9481 0.749958 42.9024 0.749958 42.8567C0.749958 42.811 0.749958 42.7653 0.749958 42.7196C0.749958 42.674 0.749958 42.6284 0.749958 42.5828C0.749958 42.5373 0.749958 42.4918 0.749958 42.4463C0.749958 42.4008 0.749958 42.3553 0.749958 42.3099C0.749958 42.2645 0.749958 42.2191 0.749958 42.1738C0.749958 42.1285 0.749958 42.0832 0.749958 42.0379C0.749958 41.9927 0.749958 41.9474 0.749958 41.9023C0.749958 41.8571 0.749958 41.8119 0.749958 41.7668C0.749958 41.7217 0.749958 41.6767 0.749958 41.6316C0.749958 41.5866 0.749958 41.5416 0.749958 41.4967C0.749958 41.4517 0.749958 41.4068 0.749958 41.3619C0.749958 41.3171 0.749958 41.2723 0.749958 41.2275C0.749958 41.1827 0.749958 41.1379 0.749958 41.0932C0.749958 41.0485 0.749958 41.0038 0.749958 40.9592C0.749958 40.9146 0.749958 40.87 0.749958 40.8255C0.749958 40.7809 0.749958 40.7364 0.749958 40.6919C0.749958 40.6475 0.749958 40.6031 0.749958 40.5587C0.749958 40.5143 0.749958 40.4699 0.749958 40.4256C0.749958 40.3814 0.749958 40.3371 0.749958 40.2929C0.749958 40.2487 0.749958 40.2045 0.749958 40.1604C0.749958 40.1162 0.749958 40.0721 0.749958 40.0281C0.749958 39.984 0.749958 39.94 0.749958 39.8961C0.749958 39.8521 0.749958 39.8082 0.749958 39.7643C0.749958 39.7204 0.749958 39.6766 0.749958 39.6328C0.749958 39.589 0.749958 39.5453 0.749958 39.5016C0.749958 39.4579 0.749958 39.4142 0.749958 39.3706C0.749958 39.327 0.749958 39.2834 0.749958 39.2398C0.749958 39.1963 0.749958 39.1528 0.749958 39.1094C0.749958 39.0659 0.749958 39.0225 0.749958 38.9792C0.749958 38.9358 0.749958 38.8925 0.749958 38.8493C0.749958 38.806 0.749958 38.7628 0.749958 38.7196C0.749958 38.6764 0.749958 38.6333 0.749958 38.5902C0.749958 38.5471 0.749958 38.5041 0.749958 38.4611C0.749958 38.4181 0.749958 38.3751 0.749958 38.3322C0.749958 38.2893 0.749958 38.2465 0.749958 38.2037C0.749958 38.1609 0.749958 38.1181 0.749958 38.0754C0.749958 38.0327 0.749958 37.99 0.749958 37.9474C0.749958 37.9047 0.749958 37.8621 0.749958 37.8196C0.749958 37.7771 0.749958 37.7346 0.749958 37.6922C0.749958 37.6497 0.749958 37.6073 0.749958 37.565C0.749958 37.5226 0.749958 37.4803 0.749958 37.4381C0.749958 37.3958 0.749958 37.3536 0.749958 37.3115C0.749958 37.2693 0.749958 37.2272 0.749958 37.1851C0.749958 37.1431 0.749958 37.1011 0.749958 37.0591C0.749958 37.0172 0.749958 36.9752 0.749958 36.9334C0.749958 36.8915 0.749958 36.8497 0.749958 36.8079C0.749958 36.7661 0.749958 36.7244 0.749958 36.6828C0.749958 36.6411 0.749958 36.5995 0.749958 36.5579C0.749958 36.5163 0.749958 36.4748 0.749958 36.4333C0.749958 36.3918 0.749958 36.3504 0.749958 36.309C0.749958 36.2677 0.749958 36.2263 0.749958 36.1851C0.749958 36.1438 0.749958 36.1026 0.749958 36.0614C0.749958 36.0202 0.749958 35.9791 0.749958 35.938C0.749958 35.897 0.749958 35.8559 0.749958 35.815C0.749958 35.774 0.749958 35.7331 0.749958 35.6922C0.749958 35.6513 0.749958 35.6105 0.749958 35.5697C0.749958 35.529 0.749958 35.4883 0.749958 35.4476C0.749958 35.4069 0.749958 35.3663 0.749958 35.3258C0.749958 35.2852 0.749958 35.2447 0.749958 35.2042C0.749958 35.1638 0.749958 35.1234 0.749958 35.083C0.749958 35.0427 0.749958 35.0024 0.749958 34.9621C0.749958 34.9219 0.749958 34.8817 0.749958 34.8416C0.749958 34.8014 0.749958 34.7613 0.749958 34.7213C0.749958 34.6813 0.749958 34.6413 0.749958 34.6014C0.749958 34.5614 0.749958 34.5216 0.749958 34.4817C0.749958 34.4419 0.749958 34.4022 0.749958 34.3624C0.749958 34.3227 0.749958 34.2831 0.749958 34.2435C0.749958 34.2039 0.749958 34.1643 0.749958 34.1248C0.749958 34.0853 0.749958 34.0459 0.749958 34.0065C0.749958 33.9671 0.749958 33.9278 0.749958 33.8885C0.749958 33.8492 0.749958 33.81 0.749958 33.7709C0.749958 33.7317 0.749958 33.6926 0.749958 33.6535C0.749958 33.6145 0.749958 33.5755 0.749958 33.5365C0.749958 33.4976 0.749958 33.4587 0.749958 33.4199C0.749958 33.381 0.749958 33.3423 0.749958 33.3035C0.749958 33.2648 0.749958 33.2262 0.749958 33.1876C0.749958 33.149 0.749958 33.1104 0.749958 33.0719C0.749958 33.0334 0.749958 32.995 0.749958 32.9566C0.749958 32.9182 0.749958 32.8799 0.749958 32.8417C0.749958 32.8034 0.749958 32.7652 0.749958 32.727C0.749958 32.6889 0.749958 32.6508 0.749958 32.6128C0.749958 32.5747 0.749958 32.5368 0.749958 32.4988C0.749958 32.4609 0.749958 32.4231 0.749958 32.3853C0.749958 32.3475 0.749958 32.3097 0.749958 32.272C0.749958 32.2344 0.749958 32.1967 0.749958 32.1592C0.749958 32.1216 0.749958 32.0841 0.749958 32.0467C0.749958 32.0092 0.749958 31.9718 0.749958 31.9345C0.749958 31.8972 0.749958 31.8599 0.749958 31.8227C0.749958 31.7855 0.749958 31.7483 0.749958 31.7113C0.749958 31.6742 0.749958 31.6371 0.749958 31.6002C0.749958 31.5632 0.749958 31.5263 0.749958 31.4894C0.749958 31.4526 0.749958 31.4158 0.749958 31.3791C0.749958 31.3424 0.749958 31.3057 0.749958 31.2691C0.749958 31.2325 0.749958 31.1959 0.749958 31.1595C0.749958 31.123 0.749958 31.0866 0.749958 31.0502C0.749958 31.0138 0.749958 30.9775 0.749958 30.9413C0.749958 30.9051 0.749958 30.8689 0.749958 30.8328C0.749958 30.7967 0.749958 30.7606 0.749958 30.7246C0.749958 30.6887 0.749958 30.6527 0.749958 30.6169C0.749958 30.581 0.749958 30.5452 0.749958 30.5095C0.749958 30.4737 0.749958 30.4381 0.749958 30.4025C0.749958 30.3668 0.749958 30.3313 0.749958 30.2958C0.749958 30.2603 0.749958 30.2249 0.749958 30.1896C0.749958 30.1542 0.749958 30.1189 0.749958 30.0837C0.749958 30.0485 0.749958 30.0133 0.749958 29.9782C0.749958 29.9431 0.749958 29.908 0.749958 29.8731C0.749958 29.8381 0.749958 29.8032 0.749958 29.7684C0.749958 29.7335 0.749958 29.6987 0.749958 29.664C0.749958 29.6293 0.749958 29.5947 0.749958 29.5601C0.749958 29.5255 0.749958 29.491 0.749958 29.4565C0.749958 29.4221 0.749958 29.3877 0.749958 29.3534C0.749958 29.319 0.749958 29.2848 0.749958 29.2506C0.749958 29.2164 0.749958 29.1823 0.749958 29.1482C0.749958 29.1142 0.749958 29.0802 0.749958 29.0463C0.749958 29.0123 0.749958 28.9785 0.749958 28.9447C0.749958 28.9109 0.749958 28.8772 0.749958 28.8435C0.749958 28.8099 0.749958 28.7763 0.749958 28.7427C0.749958 28.7092 0.749958 28.6758 0.749958 28.6424C0.749958 28.609 0.749958 28.5757 0.749958 28.5424C0.749958 28.5092 0.749958 28.476 0.749958 28.4429C0.749958 28.4098 0.749958 28.3767 0.749958 28.3437C0.749958 28.3107 0.749958 28.2778 0.749958 28.245C0.749958 28.2121 0.749958 28.1794 0.749958 28.1467C0.749958 28.114 0.749958 28.0813 0.749958 28.0488C0.749958 28.0162 0.749958 27.9837 0.749958 27.9513C0.749958 27.9188 0.749958 27.8865 0.749958 27.8542C0.749958 27.8219 0.749958 27.7897 0.749958 27.7575C0.749958 27.7254 0.749958 27.6933 0.749958 27.6613C0.749958 27.6293 0.749958 27.5973 0.749958 27.5655C0.749958 27.5336 0.749958 27.5018 0.749958 27.4701C0.749958 27.4383 0.749958 27.4067 0.749958 27.3751C0.749958 27.3435 0.749958 27.312 0.749958 27.2806C0.749958 27.2491 0.749958 27.2177 0.749958 27.1864C0.749958 27.1551 0.749958 27.1239 0.749958 27.0927C0.749958 27.0616 0.749958 27.0305 0.749958 26.9995C0.749958 26.9685 0.749958 26.9375 0.749958 26.9067C0.749958 26.8758 0.749958 26.845 0.749958 26.8143C0.749958 26.7835 0.749958 26.7529 0.749958 26.7223C0.749958 26.6917 0.749958 26.6612 0.749958 26.6308C0.749958 26.6004 0.749958 26.57 0.749958 26.5397C0.749958 26.5094 0.749958 26.4792 0.749958 26.4491C0.749958 26.4189 0.749958 26.3889 0.749958 26.3589C0.749958 26.3289 0.749958 26.2989 0.749958 26.2691C0.749958 26.2393 0.749958 26.2095 0.749958 26.1798C0.749958 26.1501 0.749958 26.1205 0.749958 26.0909C0.749958 26.0614 0.749958 26.0319 0.749958 26.0025C0.749958 25.9731 0.749958 25.9438 0.749958 25.9145C0.749958 25.8853 0.749958 25.8561 0.749958 25.827H0.249958C0.249958 25.8561 0.249958 25.8853 0.249958 25.9145C0.249958 25.9438 0.249958 25.9731 0.249958 26.0025C0.249958 26.0319 0.249958 26.0614 0.249958 26.0909C0.249958 26.1205 0.249958 26.1501 0.249958 26.1798C0.249958 26.2095 0.249958 26.2393 0.249958 26.2691C0.249958 26.2989 0.249958 26.3289 0.249958 26.3589C0.249958 26.3889 0.249958 26.4189 0.249958 26.4491C0.249958 26.4792 0.249958 26.5094 0.249958 26.5397C0.249958 26.57 0.249958 26.6004 0.249958 26.6308C0.249958 26.6612 0.249958 26.6917 0.249958 26.7223C0.249958 26.7529 0.249958 26.7835 0.249958 26.8143C0.249958 26.845 0.249958 26.8758 0.249958 26.9067C0.249958 26.9375 0.249958 26.9685 0.249958 26.9995C0.249958 27.0305 0.249958 27.0616 0.249958 27.0927C0.249958 27.1239 0.249958 27.1551 0.249958 27.1864C0.249958 27.2177 0.249958 27.2491 0.249958 27.2806C0.249958 27.312 0.249958 27.3435 0.249958 27.3751C0.249958 27.4067 0.249958 27.4383 0.249958 27.4701C0.249958 27.5018 0.249958 27.5336 0.249958 27.5655C0.249958 27.5973 0.249958 27.6293 0.249958 27.6613C0.249958 27.6933 0.249958 27.7254 0.249958 27.7575C0.249958 27.7897 0.249958 27.8219 0.249958 27.8542C0.249958 27.8865 0.249958 27.9188 0.249958 27.9513C0.249958 27.9837 0.249958 28.0162 0.249958 28.0488C0.249958 28.0813 0.249958 28.114 0.249958 28.1467C0.249958 28.1794 0.249958 28.2121 0.249958 28.245C0.249958 28.2778 0.249958 28.3107 0.249958 28.3437C0.249958 28.3767 0.249958 28.4098 0.249958 28.4429C0.249958 28.476 0.249958 28.5092 0.249958 28.5424C0.249958 28.5757 0.249958 28.609 0.249958 28.6424C0.249958 28.6758 0.249958 28.7092 0.249958 28.7427C0.249958 28.7763 0.249958 28.8099 0.249958 28.8435C0.249958 28.8772 0.249958 28.9109 0.249958 28.9447C0.249958 28.9785 0.249958 29.0123 0.249958 29.0463C0.249958 29.0802 0.249958 29.1142 0.249958 29.1482C0.249958 29.1823 0.249958 29.2164 0.249958 29.2506C0.249958 29.2848 0.249958 29.319 0.249958 29.3534C0.249958 29.3877 0.249958 29.4221 0.249958 29.4565C0.249958 29.491 0.249958 29.5255 0.249958 29.5601C0.249958 29.5947 0.249958 29.6293 0.249958 29.664C0.249958 29.6987 0.249958 29.7335 0.249958 29.7684C0.249958 29.8032 0.249958 29.8381 0.249958 29.8731C0.249958 29.908 0.249958 29.9431 0.249958 29.9782C0.249958 30.0133 0.249958 30.0485 0.249958 30.0837C0.249958 30.1189 0.249958 30.1542 0.249958 30.1896C0.249958 30.2249 0.249958 30.2603 0.249958 30.2958C0.249958 30.3313 0.249958 30.3668 0.249958 30.4025C0.249958 30.4381 0.249958 30.4737 0.249958 30.5095C0.249958 30.5452 0.249958 30.581 0.249958 30.6169C0.249958 30.6527 0.249958 30.6887 0.249958 30.7246C0.249958 30.7606 0.249958 30.7967 0.249958 30.8328C0.249958 30.8689 0.249958 30.9051 0.249958 30.9413C0.249958 30.9775 0.249958 31.0138 0.249958 31.0502C0.249958 31.0866 0.249958 31.123 0.249958 31.1595C0.249958 31.1959 0.249958 31.2325 0.249958 31.2691C0.249958 31.3057 0.249958 31.3424 0.249958 31.3791C0.249958 31.4158 0.249958 31.4526 0.249958 31.4894C0.249958 31.5263 0.249958 31.5632 0.249958 31.6002C0.249958 31.6371 0.249958 31.6742 0.249958 31.7113C0.249958 31.7483 0.249958 31.7855 0.249958 31.8227C0.249958 31.8599 0.249958 31.8972 0.249958 31.9345C0.249958 31.9718 0.249958 32.0092 0.249958 32.0467C0.249958 32.0841 0.249958 32.1216 0.249958 32.1592C0.249958 32.1967 0.249958 32.2344 0.249958 32.272C0.249958 32.3097 0.249958 32.3475 0.249958 32.3853C0.249958 32.4231 0.249958 32.4609 0.249958 32.4988C0.249958 32.5368 0.249958 32.5747 0.249958 32.6128C0.249958 32.6508 0.249958 32.6889 0.249958 32.727C0.249958 32.7652 0.249958 32.8034 0.249958 32.8417C0.249958 32.8799 0.249958 32.9182 0.249958 32.9566C0.249958 32.995 0.249958 33.0334 0.249958 33.0719C0.249958 33.1104 0.249958 33.149 0.249958 33.1876C0.249958 33.2262 0.249958 33.2648 0.249958 33.3035C0.249958 33.3423 0.249958 33.381 0.249958 33.4199C0.249958 33.4587 0.249958 33.4976 0.249958 33.5365C0.249958 33.5755 0.249958 33.6145 0.249958 33.6535C0.249958 33.6926 0.249958 33.7317 0.249958 33.7709C0.249958 33.81 0.249958 33.8492 0.249958 33.8885C0.249958 33.9278 0.249958 33.9671 0.249958 34.0065C0.249958 34.0459 0.249958 34.0853 0.249958 34.1248C0.249958 34.1643 0.249958 34.2039 0.249958 34.2435C0.249958 34.2831 0.249958 34.3227 0.249958 34.3624C0.249958 34.4022 0.249958 34.4419 0.249958 34.4817C0.249958 34.5216 0.249958 34.5614 0.249958 34.6014C0.249958 34.6413 0.249958 34.6813 0.249958 34.7213C0.249958 34.7613 0.249958 34.8014 0.249958 34.8416C0.249958 34.8817 0.249958 34.9219 0.249958 34.9621C0.249958 35.0024 0.249958 35.0427 0.249958 35.083C0.249958 35.1234 0.249958 35.1638 0.249958 35.2042C0.249958 35.2447 0.249958 35.2852 0.249958 35.3258C0.249958 35.3663 0.249958 35.4069 0.249958 35.4476C0.249958 35.4883 0.249958 35.529 0.249958 35.5697C0.249958 35.6105 0.249958 35.6513 0.249958 35.6922C0.249958 35.7331 0.249958 35.774 0.249958 35.815C0.249958 35.8559 0.249958 35.897 0.249958 35.938C0.249958 35.9791 0.249958 36.0202 0.249958 36.0614C0.249958 36.1026 0.249958 36.1438 0.249958 36.1851C0.249958 36.2263 0.249958 36.2677 0.249958 36.309C0.249958 36.3504 0.249958 36.3918 0.249958 36.4333C0.249958 36.4748 0.249958 36.5163 0.249958 36.5579C0.249958 36.5995 0.249958 36.6411 0.249958 36.6828C0.249958 36.7244 0.249958 36.7661 0.249958 36.8079C0.249958 36.8497 0.249958 36.8915 0.249958 36.9334C0.249958 36.9752 0.249958 37.0172 0.249958 37.0591C0.249958 37.1011 0.249958 37.1431 0.249958 37.1851C0.249958 37.2272 0.249958 37.2693 0.249958 37.3115C0.249958 37.3536 0.249958 37.3958 0.249958 37.4381C0.249958 37.4803 0.249958 37.5226 0.249958 37.565C0.249958 37.6073 0.249958 37.6497 0.249958 37.6922C0.249958 37.7346 0.249958 37.7771 0.249958 37.8196C0.249958 37.8621 0.249958 37.9047 0.249958 37.9474C0.249958 37.99 0.249958 38.0327 0.249958 38.0754C0.249958 38.1181 0.249958 38.1609 0.249958 38.2037C0.249958 38.2465 0.249958 38.2893 0.249958 38.3322C0.249958 38.3751 0.249958 38.4181 0.249958 38.4611C0.249958 38.5041 0.249958 38.5471 0.249958 38.5902C0.249958 38.6333 0.249958 38.6764 0.249958 38.7196C0.249958 38.7628 0.249958 38.806 0.249958 38.8493C0.249958 38.8925 0.249958 38.9358 0.249958 38.9792C0.249958 39.0225 0.249958 39.0659 0.249958 39.1094C0.249958 39.1528 0.249958 39.1963 0.249958 39.2398C0.249958 39.2834 0.249958 39.327 0.249958 39.3706C0.249958 39.4142 0.249958 39.4579 0.249958 39.5016C0.249958 39.5453 0.249958 39.589 0.249958 39.6328C0.249958 39.6766 0.249958 39.7204 0.249958 39.7643C0.249958 39.8082 0.249958 39.8521 0.249958 39.8961C0.249958 39.94 0.249958 39.984 0.249958 40.0281C0.249958 40.0721 0.249958 40.1162 0.249958 40.1604C0.249958 40.2045 0.249958 40.2487 0.249958 40.2929C0.249958 40.3371 0.249958 40.3814 0.249958 40.4256C0.249958 40.4699 0.249958 40.5143 0.249958 40.5587C0.249958 40.6031 0.249958 40.6475 0.249958 40.6919C0.249958 40.7364 0.249958 40.7809 0.249958 40.8255C0.249958 40.87 0.249958 40.9146 0.249958 40.9592C0.249958 41.0038 0.249958 41.0485 0.249958 41.0932C0.249958 41.1379 0.249958 41.1827 0.249958 41.2275C0.249958 41.2723 0.249958 41.3171 0.249958 41.3619C0.249958 41.4068 0.249958 41.4517 0.249958 41.4967C0.249958 41.5416 0.249958 41.5866 0.249958 41.6316C0.249958 41.6767 0.249958 41.7217 0.249958 41.7668C0.249958 41.8119 0.249958 41.8571 0.249958 41.9023C0.249958 41.9474 0.249958 41.9927 0.249958 42.0379C0.249958 42.0832 0.249958 42.1285 0.249958 42.1738C0.249958 42.2191 0.249958 42.2645 0.249958 42.3099C0.249958 42.3553 0.249958 42.4008 0.249958 42.4463C0.249958 42.4918 0.249958 42.5373 0.249958 42.5828C0.249958 42.6284 0.249958 42.674 0.249958 42.7196C0.249958 42.7653 0.249958 42.811 0.249958 42.8567C0.249958 42.9024 0.249958 42.9481 0.249958 42.9939C0.249958 43.0397 0.249958 43.0855 0.249958 43.1314C0.249958 43.1772 0.249958 43.2231 0.249958 43.269C0.249958 43.315 0.249958 43.3609 0.249958 43.4069C0.249958 43.4529 0.249958 43.499 0.249958 43.545C0.249958 43.5911 0.249958 43.6372 0.249958 43.6834C0.249958 43.7295 0.249958 43.7757 0.249958 43.8219C0.249958 43.8681 0.249958 43.9144 0.249958 43.9607C0.249958 44.0069 0.249958 44.0533 0.249958 44.0996C0.249958 44.146 0.249958 44.1923 0.249958 44.2388C0.249958 44.2852 0.249958 44.3316 0.249958 44.3781C0.249958 44.4246 0.249958 44.4711 0.249958 44.5177C0.249958 44.5643 0.249958 44.6108 0.249958 44.6575C0.249958 44.7041 0.249958 44.7508 0.249958 44.7974C0.249958 44.8441 0.249958 44.8909 0.249958 44.9376C0.249958 44.9844 0.249958 45.0312 0.249958 45.078C0.249958 45.1248 0.249958 45.1717 0.249958 45.2186C0.249958 45.2654 0.249958 45.3124 0.249958 45.3593C0.249958 45.4063 0.249958 45.4532 0.249958 45.5003C0.249958 45.5473 0.249958 45.5943 0.249958 45.6414C0.249958 45.6885 0.249958 45.7356 0.249958 45.7827C0.249958 45.8299 0.249958 45.8771 0.249958 45.9243C0.249958 45.9715 0.249958 46.0187 0.249958 46.066C0.249958 46.1132 0.249958 46.1605 0.249958 46.2079C0.249958 46.2552 0.249958 46.3026 0.249958 46.3499C0.249958 46.3973 0.249958 46.4448 0.249958 46.4922C0.249958 46.5397 0.249958 46.5871 0.249958 46.6346C0.249958 46.6822 0.249958 46.7297 0.249958 46.7773C0.249958 46.8248 0.249958 46.8724 0.249958 46.9201C0.249958 46.9677 0.249958 47.0153 0.249958 47.063C0.249958 47.1107 0.249958 47.1584 0.249958 47.2062C0.249958 47.2539 0.249958 47.3017 0.249958 47.3495C0.249958 47.3973 0.249958 47.4451 0.249958 47.493C0.249958 47.5408 0.249958 47.5887 0.249958 47.6367C0.249958 47.6846 0.249958 47.7325 0.249958 47.7805C0.249958 47.8284 0.249958 47.8764 0.249958 47.9245C0.249958 47.9725 0.249958 48.0205 0.249958 48.0686C0.249958 48.1167 0.249958 48.1648 0.249958 48.213C0.249958 48.2611 0.249958 48.3092 0.249958 48.3574C0.249958 48.4056 0.249958 48.4538 0.249958 48.5021C0.249958 48.5503 0.249958 48.5986 0.249958 48.6469C0.249958 48.6952 0.249958 48.7435 0.249958 48.7918C0.249958 48.8402 0.249958 48.8886 0.249958 48.937C0.249958 48.9854 0.249958 49.0338 0.249958 49.0822C0.249958 49.1307 0.249958 49.1791 0.249958 49.2276C0.249958 49.2761 0.249958 49.3247 0.249958 49.3732C0.249958 49.4218 0.249958 49.4703 0.249958 49.5189C0.249958 49.5675 0.249958 49.6162 0.249958 49.6648C0.249958 49.7135 0.249958 49.7621 0.249958 49.8108C0.249958 49.8595 0.249958 49.9082 0.249958 49.957C0.249958 50.0057 0.249958 50.0545 0.249958 50.1033C0.249958 50.1521 0.249958 50.2009 0.249958 50.2497C0.249958 50.2986 0.249958 50.3474 0.249958 50.3963C0.249958 50.4452 0.249958 50.4941 0.249958 50.543C0.249958 50.592 0.249958 50.6409 0.249958 50.6899C0.249958 50.7389 0.249958 50.7879 0.249958 50.8369C0.249958 50.8859 0.249958 50.9349 0.249958 50.984C0.249958 51.0331 0.249958 51.0822 0.249958 51.1313C0.249958 51.1804 0.249958 51.2295 0.249958 51.2787C0.249958 51.3278 0.249958 51.377 0.249958 51.4262C0.249958 51.4754 0.249958 51.5246 0.249958 51.5738C0.249958 51.6231 0.249958 51.6723 0.249958 51.7216C0.249958 51.7709 0.249958 51.8202 0.249958 51.8695C0.249958 51.9188 0.249958 51.9681 0.249958 52.0175C0.249958 52.0669 0.249958 52.1162 0.249958 52.1656C0.249958 52.215 0.249958 52.2645 0.249958 52.3139C0.249958 52.3633 0.249958 52.4128 0.249958 52.4623C0.249958 52.5118 0.249958 52.5613 0.249958 52.6108C0.249958 52.6603 0.249958 52.7098 0.249958 52.7594C0.249958 52.8089 0.249958 52.8585 0.249958 52.9081C0.249958 52.9577 0.249958 53.0073 0.249958 53.0569C0.249958 53.1066 0.249958 53.1562 0.249958 53.2059C0.249958 53.2555 0.249958 53.3052 0.249958 53.3549C0.249958 53.4046 0.249958 53.4543 0.249958 53.5041C0.249958 53.5538 0.249958 53.6036 0.249958 53.6533C0.249958 53.7031 0.249958 53.7529 0.249958 53.8027C0.249958 53.8525 0.249958 53.9023 0.249958 53.9522C0.249958 54.002 0.249958 54.0519 0.249958 54.1018C0.249958 54.1516 0.249958 54.2015 0.249958 54.2514C0.249958 54.3013 0.249958 54.3513 0.249958 54.4012C0.249958 54.4511 0.249958 54.5011 0.249958 54.5511C0.249958 54.601 0.249958 54.651 0.249958 54.701C0.249958 54.751 0.249958 54.801 0.249958 54.8511C0.249958 54.9011 0.249958 54.9511 0.249958 55.0012C0.249958 55.0513 0.249958 55.1013 0.249958 55.1514C0.249958 55.2015 0.249958 55.2516 0.249958 55.3018C0.249958 55.3519 0.249958 55.402 0.249958 55.4522C0.249958 55.5023 0.249958 55.5525 0.249958 55.6027C0.249958 55.6528 0.249958 55.703 0.249958 55.7532C0.249958 55.8034 0.249958 55.8537 0.249958 55.9039C0.249958 55.9541 0.249958 56.0044 0.249958 56.0546C0.249958 56.1049 0.249958 56.1552 0.249958 56.2054C0.249958 56.2557 0.249958 56.306 0.249958 56.3563C0.249958 56.4066 0.249958 56.457 0.249958 56.5073C0.249958 56.5576 0.249958 56.608 0.249958 56.6584C0.249958 56.7087 0.249958 56.7591 0.249958 56.8095C0.249958 56.8599 0.249958 56.9102 0.249958 56.9607C0.249958 57.0111 0.249958 57.0615 0.249958 57.1119C0.249958 57.1623 0.249958 57.2128 0.249958 57.2632C0.249958 57.3137 0.249958 57.3642 0.249958 57.4146C0.249958 57.4651 0.249958 57.5156 0.249958 57.5661C0.249958 57.6166 0.249958 57.6671 0.249958 57.7176C0.249958 57.7681 0.249958 57.8186 0.249958 57.8692C0.249958 57.9197 0.249958 57.9703 0.249958 58.0208C0.249958 58.0714 0.249958 58.1219 0.249958 58.1725C0.249958 58.2231 0.249958 58.2737 0.249958 58.3243C0.249958 58.3749 0.249958 58.4255 0.249958 58.4761C0.249958 58.5267 0.249958 58.5773 0.249958 58.628C0.249958 58.6786 0.249958 58.7292 0.249958 58.7799C0.249958 58.8305 0.249958 58.8812 0.249958 58.9318C0.249958 58.9825 0.249958 59.0332 0.249958 59.0839C0.249958 59.1345 0.249958 59.1852 0.249958 59.2359C0.249958 59.2866 0.249958 59.3373 0.249958 59.388C0.249958 59.4388 0.249958 59.4895 0.249958 59.5402C0.249958 59.5909 0.249958 59.6417 0.249958 59.6924C0.249958 59.7431 0.249958 59.7939 0.249958 59.8446C0.249958 59.8954 0.249958 59.9461 0.249958 59.9969C0.249958 60.0477 0.249958 60.0985 0.249958 60.1492C0.249958 60.2 0.249958 60.2508 0.249958 60.3016C0.249958 60.3524 0.249958 60.4032 0.249958 60.454C0.249958 60.5048 0.249958 60.5556 0.249958 60.6064C0.249958 60.6572 0.249958 60.708 0.249958 60.7589C0.249958 60.8097 0.249958 60.8605 0.249958 60.9113C0.249958 60.9622 0.249958 61.013 0.249958 61.0639C0.249958 61.1147 0.249958 61.1656 0.249958 61.2164C0.249958 61.2673 0.249958 61.3181 0.249958 61.369C0.249958 61.4198 0.249958 61.4707 0.249958 61.5216C0.249958 61.5724 0.249958 61.6233 0.249958 61.6742C0.249958 61.7251 0.249958 61.7759 0.249958 61.8268C0.249958 61.8777 0.249958 61.9286 0.249958 61.9795C0.249958 62.0304 0.249958 62.0812 0.249958 62.1321C0.249958 62.183 0.249958 62.2339 0.249958 62.2848C0.249958 62.3357 0.249958 62.3866 0.249958 62.4375C0.249958 62.4884 0.249958 62.5393 0.249958 62.5902C0.249958 62.6412 0.249958 62.6921 0.249958 62.743C0.249958 62.7939 0.249958 62.8448 0.249958 62.8957C0.249958 62.9466 0.249958 62.9975 0.249958 63.0485C0.249958 63.0994 0.249958 63.1503 0.249958 63.2012C0.249958 63.2521 0.249958 63.3031 0.249958 63.354C0.249958 63.4049 0.249958 63.4558 0.249958 63.5067C0.249958 63.5577 0.249958 63.6086 0.249958 63.6595C0.249958 63.7104 0.249958 63.7614 0.249958 63.8123C0.249958 63.8632 0.249958 63.9141 0.249958 63.965C0.249958 64.016 0.249958 64.0669 0.249958 64.1178C0.249958 64.1687 0.249958 64.2196 0.249958 64.2706C0.249958 64.3215 0.249958 64.3724 0.249958 64.4233C0.249958 64.4742 0.249958 64.5252 0.249958 64.5761C0.249958 64.627 0.249958 64.6779 0.249958 64.7288C0.249958 64.7797 0.249958 64.8306 0.249958 64.8815C0.249958 64.9324 0.249958 64.9833 0.249958 65.0342C0.249958 65.0852 0.249958 65.1361 0.249958 65.187C0.249958 65.2378 0.249958 65.2887 0.249958 65.3396C0.249958 65.3905 0.249958 65.4414 0.249958 65.4923C0.249958 65.5432 0.249958 65.5941 0.249958 65.645C0.249958 65.6958 0.249958 65.7467 0.249958 65.7976C0.249958 65.8485 0.249958 65.8993 0.249958 65.9502C0.249958 66.0011 0.249958 66.0519 0.249958 66.1028C0.249958 66.1537 0.249958 66.2045 0.249958 66.2554C0.249958 66.3062 0.249958 66.3571 0.249958 66.4079C0.249958 66.4587 0.249958 66.5096 0.249958 66.5604C0.249958 66.6113 0.249958 66.6621 0.249958 66.7129C0.249958 66.7637 0.249958 66.8145 0.249958 66.8653C0.249958 66.9162 0.249958 66.967 0.249958 67.0178C0.249958 67.0686 0.249958 67.1194 0.249958 67.1702C0.249958 67.2209 0.249958 67.2717 0.249958 67.3225C0.249958 67.3733 0.249958 67.4241 0.249958 67.4748C0.249958 67.5256 0.249958 67.5763 0.249958 67.6271C0.249958 67.6779 0.249958 67.7286 0.249958 67.7793C0.249958 67.8301 0.249958 67.8808 0.249958 67.9315C0.249958 67.9823 0.249958 68.033 0.249958 68.0837C0.249958 68.1344 0.249958 68.1851 0.249958 68.2358C0.249958 68.2865 0.249958 68.3372 0.249958 68.3879C0.249958 68.4385 0.249958 68.4892 0.249958 68.5399C0.249958 68.5905 0.249958 68.6412 0.249958 68.6918C0.249958 68.7425 0.249958 68.7931 0.249958 68.8438C0.249958 68.8944 0.249958 68.945 0.249958 68.9956C0.249958 69.0462 0.249958 69.0968 0.249958 69.1474C0.249958 69.198 0.249958 69.2486 0.249958 69.2992C0.249958 69.3497 0.249958 69.4003 0.249958 69.4509C0.249958 69.5014 0.249958 69.552 0.249958 69.6025C0.249958 69.653 0.249958 69.7036 0.249958 69.7541C0.249958 69.8046 0.249958 69.8551 0.249958 69.9056C0.249958 69.9561 0.249958 70.0066 0.249958 70.057C0.249958 70.1075 0.249958 70.158 0.249958 70.2084C0.249958 70.2589 0.249958 70.3093 0.249958 70.3597C0.249958 70.4102 0.249958 70.4606 0.249958 70.511C0.249958 70.5614 0.249958 70.6118 0.249958 70.6622C0.249958 70.7126 0.249958 70.7629 0.249958 70.8133C0.249958 70.8636 0.249958 70.914 0.249958 70.9643C0.249958 71.0146 0.249958 71.065 0.249958 71.1153C0.249958 71.1656 0.249958 71.2159 0.249958 71.2662C0.249958 71.3165 0.249958 71.3667 0.249958 71.417C0.249958 71.4672 0.249958 71.5175 0.249958 71.5677C0.249958 71.6179 0.249958 71.6682 0.249958 71.7184C0.249958 71.7686 0.249958 71.8187 0.249958 71.8689C0.249958 71.9191 0.249958 71.9693 0.249958 72.0194C0.249958 72.0696 0.249958 72.1197 0.249958 72.1698C0.249958 72.2199 0.249958 72.27 0.249958 72.3201C0.249958 72.3702 0.249958 72.4203 0.249958 72.4703C0.249958 72.5204 0.249958 72.5704 0.249958 72.6205C0.249958 72.6705 0.249958 72.7205 0.249958 72.7705C0.249958 72.8205 0.249958 72.8705 0.249958 72.9205C0.249958 72.9704 0.249958 73.0204 0.249958 73.0703C0.249958 73.1203 0.249958 73.1702 0.249958 73.2201C0.249958 73.27 0.249958 73.3199 0.249958 73.3697C0.249958 73.4196 0.249958 73.4695 0.249958 73.5193C0.249958 73.5691 0.249958 73.619 0.249958 73.6688C0.249958 73.7186 0.249958 73.7684 0.249958 73.8181C0.249958 73.8679 0.249958 73.9176 0.249958 73.9674C0.249958 74.0171 0.249958 74.0668 0.249958 74.1165C0.249958 74.1662 0.249958 74.2159 0.249958 74.2656C0.249958 74.3152 0.249958 74.3649 0.249958 74.4145C0.249958 74.4641 0.249958 74.5137 0.249958 74.5633C0.249958 74.6129 0.249958 74.6625 0.249958 74.712C0.249958 74.7616 0.249958 74.8111 0.249958 74.8606C0.249958 74.9101 0.249958 74.9596 0.249958 75.0091C0.249958 75.0586 0.249958 75.108 0.249958 75.1575C0.249958 75.2069 0.249958 75.2563 0.249958 75.3057C0.249958 75.3551 0.249958 75.4045 0.249958 75.4538C0.249958 75.5032 0.249958 75.5525 0.249958 75.6019C0.249958 75.6512 0.249958 75.7005 0.249958 75.7497C0.249958 75.799 0.249958 75.8483 0.249958 75.8975C0.249958 75.9467 0.249958 75.9959 0.249958 76.0451C0.249958 76.0943 0.249958 76.1435 0.249958 76.1926C0.249958 76.2418 0.249958 76.2909 0.249958 76.34C0.249958 76.3891 0.249958 76.4382 0.249958 76.4873C0.249958 76.5363 0.249958 76.5854 0.249958 76.6344C0.249958 76.6834 0.249958 76.7324 0.249958 76.7814C0.249958 76.8303 0.249958 76.8793 0.249958 76.9282C0.249958 76.9771 0.249958 77.026 0.249958 77.0749C0.249958 77.1238 0.249958 77.1727 0.249958 77.2215C0.249958 77.2703 0.249958 77.3191 0.249958 77.3679C0.249958 77.4167 0.249958 77.4655 0.249958 77.5142C0.249958 77.563 0.249958 77.6117 0.249958 77.6604C0.249958 77.709 0.249958 77.7577 0.249958 77.8064C0.249958 77.855 0.249958 77.9036 0.249958 77.9522C0.249958 78.0008 0.249958 78.0494 0.249958 78.0979C0.249958 78.1465 0.249958 78.195 0.249958 78.2435C0.249958 78.292 0.249958 78.3404 0.249958 78.3889C0.249958 78.4373 0.249958 78.4857 0.249958 78.5341C0.249958 78.5825 0.249958 78.6309 0.249958 78.6792C0.249958 78.7276 0.249958 78.7759 0.249958 78.8242C0.249958 78.8725 0.249958 78.9207 0.249958 78.969C0.249958 79.0172 0.249958 79.0654 0.249958 79.1136C0.249958 79.1618 0.249958 79.2099 0.249958 79.2581C0.249958 79.3062 0.249958 79.3543 0.249958 79.4024C0.249958 79.4505 0.249958 79.4985 0.249958 79.5465C0.249958 79.5945 0.249958 79.6425 0.249958 79.6905C0.249958 79.7385 0.249958 79.7864 0.249958 79.8343C0.249958 79.8822 0.249958 79.9301 0.249958 79.978C0.249958 80.0258 0.249958 80.0736 0.249958 80.1214C0.249958 80.1692 0.249958 80.217 0.249958 80.2647C0.249958 80.3125 0.249958 80.3602 0.249958 80.4079C0.249958 80.4556 0.249958 80.5032 0.249958 80.5508C0.249958 80.5984 0.249958 80.646 0.249958 80.6936C0.249958 80.7412 0.249958 80.7887 0.249958 80.8362C0.249958 80.8837 0.249958 80.9312 0.249958 80.9786C0.249958 81.0261 0.249958 81.0735 0.249958 81.1209C0.249958 81.1683 0.249958 81.2156 0.249958 81.2629C0.249958 81.3103 0.249958 81.3576 0.249958 81.4048C0.249958 81.4521 0.249958 81.4993 0.249958 81.5465C0.249958 81.5937 0.249958 81.6409 0.249958 81.688C0.249958 81.7351 0.249958 81.7823 0.249958 81.8293C0.249958 81.8764 0.249958 81.9234 0.249958 81.9705C0.249958 82.0175 0.249958 82.0644 0.249958 82.1114C0.249958 82.1583 0.249958 82.2053 0.249958 82.2521C0.249958 82.299 0.249958 82.3459 0.249958 82.3927C0.249958 82.4395 0.249958 82.4863 0.249958 82.533C0.249958 82.5798 0.249958 82.6265 0.249958 82.6732C0.249958 82.7199 0.249958 82.7665 0.249958 82.8131C0.249958 82.8598 0.249958 82.9063 0.249958 82.9529C0.249958 82.9994 0.249958 83.046 0.249958 83.0924C0.249958 83.1389 0.249958 83.1854 0.249958 83.2318C0.249958 83.2782 0.249958 83.3246 0.249958 83.3709C0.249958 83.4173 0.249958 83.4636 0.249958 83.5099C0.249958 83.5561 0.249958 83.6024 0.249958 83.6486C0.249958 83.6948 0.249958 83.741 0.249958 83.7871C0.249958 83.8332 0.249958 83.8793 0.249958 83.9254C0.249958 83.9715 0.249958 84.0175 0.249958 84.0635C0.249958 84.1095 0.249958 84.1555 0.249958 84.2014C0.249958 84.2473 0.249958 84.2932 0.249958 84.339C0.249958 84.3849 0.249958 84.4307 0.249958 84.4765C0.249958 84.5223 0.249958 84.568 0.249958 84.6137C0.249958 84.6594 0.249958 84.7051 0.249958 84.7507C0.249958 84.7963 0.249958 84.8419 0.249958 84.8875C0.249958 84.933 0.249958 84.9785 0.249958 85.024C0.249958 85.0695 0.249958 85.1149 0.249958 85.1604C0.249958 85.2058 0.249958 85.2511 0.249958 85.2964C0.249958 85.3418 0.249958 85.3871 0.249958 85.4323C0.249958 85.4776 0.249958 85.5228 0.249958 85.568C0.249958 85.6131 0.249958 85.6583 0.249958 85.7034C0.249958 85.7485 0.249958 85.7935 0.249958 85.8385C0.249958 85.8836 0.249958 85.9285 0.249958 85.9735C0.249958 86.0184 0.249958 86.0633 0.249958 86.1082C0.249958 86.153 0.249958 86.1979 0.249958 86.2426C0.249958 86.2874 0.249958 86.3322 0.249958 86.3769C0.249958 86.4216 0.249958 86.4662 0.249958 86.5108C0.249958 86.5555 0.249958 86.6001 0.249958 86.6446C0.249958 86.6891 0.249958 86.7336 0.249958 86.7781C0.249958 86.8225 0.249958 86.867 0.249958 86.9113C0.249958 86.9557 0.249958 87 0.249958 87.0443C0.249958 87.0886 0.249958 87.1329 0.249958 87.1771C0.249958 87.2213 0.249958 87.2655 0.249958 87.3096C0.249958 87.3537 0.249958 87.3978 0.249958 87.4418C0.249958 87.4859 0.249958 87.5299 0.249958 87.5738C0.249958 87.6178 0.249958 87.6617 0.249958 87.7056C0.249958 87.7494 0.249958 87.7933 0.249958 87.837C0.249958 87.8808 0.249958 87.9246 0.249958 87.9683C0.249958 88.012 0.249958 88.0556 0.249958 88.0992C0.249958 88.1428 0.249958 88.1864 0.249958 88.2299C0.249958 88.2734 0.249958 88.3169 0.249958 88.3604C0.249958 88.4038 0.249958 88.4472 0.249958 88.4905C0.249958 88.5339 0.249958 88.5772 0.249958 88.6204C0.249958 88.6637 0.249958 88.7069 0.249958 88.7501C0.249958 88.7932 0.249958 88.8364 0.249958 88.8794C0.249958 88.9225 0.249958 88.9655 0.249958 89.0085C0.249958 89.0515 0.249958 89.0945 0.249958 89.1374C0.249958 89.1802 0.249958 89.2231 0.249958 89.2659C0.249958 89.3087 0.249958 89.3515 0.249958 89.3942C0.249958 89.4369 0.249958 89.4795 0.249958 89.5222C0.249958 89.5648 0.249958 89.6074 0.249958 89.6499C0.249958 89.6924 0.249958 89.7349 0.249958 89.7773C0.249958 89.8197 0.249958 89.8621 0.249958 89.9045C0.249958 89.9468 0.249958 89.9891 0.249958 90.0313C0.249958 90.0736 0.249958 90.1158 0.249958 90.1579C0.249958 90.2001 0.249958 90.2422 0.249958 90.2842C0.249958 90.3263 0.249958 90.3683 0.249958 90.4102C0.249958 90.4522 0.249958 90.4941 0.249958 90.5359C0.249958 90.5778 0.249958 90.6196 0.249958 90.6614C0.249958 90.7031 0.249958 90.7448 0.249958 90.7865C0.249958 90.8282 0.249958 90.8698 0.249958 90.9113C0.249958 90.9529 0.249958 90.9944 0.249958 91.0359C0.249958 91.0774 0.249958 91.1188 0.249958 91.1601C0.249958 91.2015 0.249958 91.2428 0.249958 91.2841C0.249958 91.3253 0.249958 91.3666 0.249958 91.4077C0.249958 91.4489 0.249958 91.49 0.249958 91.5311C0.249958 91.5721 0.249958 91.6131 0.249958 91.6541C0.249958 91.6951 0.249958 91.736 0.249958 91.7768C0.249958 91.8177 0.249958 91.8585 0.249958 91.8993C0.249958 91.94 0.249958 91.9807 0.249958 92.0214C0.249958 92.062 0.249958 92.1026 0.249958 92.1432C0.249958 92.1837 0.249958 92.2242 0.249958 92.2647C0.249958 92.3051 0.249958 92.3455 0.249958 92.3859C0.249958 92.4262 0.249958 92.4665 0.249958 92.5067C0.249958 92.547 0.249958 92.5872 0.249958 92.6273C0.249958 92.6674 0.249958 92.7075 0.249958 92.7475C0.249958 92.7875 0.249958 92.8275 0.249958 92.8674C0.249958 92.9073 0.249958 92.9472 0.249958 92.987C0.249958 93.0268 0.249958 93.0666 0.249958 93.1063C0.249958 93.146 0.249958 93.1856 0.249958 93.2252C0.249958 93.2648 0.249958 93.3044 0.249958 93.3438C0.249958 93.3833 0.249958 93.4228 0.249958 93.4621C0.249958 93.5015 0.249958 93.5408 0.249958 93.5801C0.249958 93.6194 0.249958 93.6586 0.249958 93.6977C0.249958 93.7369 0.249958 93.776 0.249958 93.815C0.249958 93.8541 0.249958 93.8931 0.249958 93.932C0.249958 93.9709 0.249958 94.0098 0.249958 94.0486C0.249958 94.0874 0.249958 94.1262 0.249958 94.1649C0.249958 94.2036 0.249958 94.2423 0.249958 94.2809C0.249958 94.3195 0.249958 94.358 0.249958 94.3965C0.249958 94.435 0.249958 94.4734 0.249958 94.5117C0.249958 94.5501 0.249958 94.5884 0.249958 94.6267C0.249958 94.6649 0.249958 94.7031 0.249958 94.7413C0.249958 94.7794 0.249958 94.8175 0.249958 94.8555H0.749958ZM0.749958 25.827C0.749958 20.9194 2.74268 14.6421 6.75974 9.59463C10.7714 4.55388 16.7924 0.750008 24.856 0.750008V0.250008C16.616 0.250008 10.459 4.14356 6.36851 9.28327C2.28345 14.4162 0.249958 20.8025 0.249958 25.827H0.749958ZM0.749958 94.8555V25.827H0.249958V94.8555H0.749958ZM25.755 88.4814L43.9807 35.841L43.5082 35.6774L25.2826 88.3178L25.755 88.4814ZM43.7445 36.0092H57.6622V35.5092H43.7445V36.0092ZM57.4269 35.8436L76.3153 88.484L76.7859 88.3152L57.8976 35.6747L57.4269 35.8436ZM76.5506 88.1496H63.627V88.6496H76.5506V88.1496ZM63.8659 88.326L59.8894 75.4142L59.4116 75.5614L63.3881 88.4732L63.8659 88.326ZM59.6505 75.2378H41.7562V75.7378H59.6505V75.2378ZM41.5173 75.4142L37.5408 88.326L38.0187 88.4732L41.9952 75.5614L41.5173 75.4142ZM37.7797 88.1496H25.5188V88.6496H37.7797V88.1496ZM44.7386 65.309H56.1711V64.809H44.7386V65.309ZM56.4121 64.9927L50.9444 45.1284L50.4623 45.2611L55.93 65.1254L56.4121 64.9927ZM50.4639 45.1228L44.4992 64.9871L44.978 65.1309L50.9428 45.2666L50.4639 45.1228ZM86.4712 31.5372C85.441 31.6229 83.9025 32.0322 82.6149 32.9885C81.3172 33.9522 80.2771 35.4714 80.2771 37.7456H80.7771C80.7771 35.6496 81.7253 34.2719 82.913 33.3899C84.1106 32.5005 85.5545 32.1152 86.5126 32.0354L86.4712 31.5372ZM80.2771 37.7456C80.2771 40.0198 81.3172 41.539 82.6149 42.5027C83.9025 43.459 85.441 43.8683 86.4712 43.954L86.5126 43.4557C85.5545 43.376 84.1106 42.9907 82.913 42.1013C81.7253 41.2192 80.7771 39.8415 80.7771 37.7456H80.2771ZM86.4919 43.9549C87.526 43.9549 89.0716 43.647 90.3659 42.716C91.6729 41.7758 92.7066 40.2109 92.7066 37.7456H92.2066C92.2066 40.0477 91.2522 41.4625 90.0739 42.3101C88.8828 43.1668 87.4461 43.4549 86.4919 43.4549V43.9549ZM92.7066 37.7456C92.7066 35.2803 91.6729 33.7154 90.3659 32.7752C89.0716 31.8442 87.526 31.5363 86.4919 31.5363V32.0363C87.4461 32.0363 88.8828 32.3243 90.0739 33.1811C91.2522 34.0287 92.2066 35.4434 92.2066 37.7456H92.7066ZM81.5213 48.4244H91.4625V47.9244H81.5213V48.4244ZM91.2125 48.1744V88.3996H91.7125V48.1744H91.2125ZM91.4625 88.1496H81.5213V88.6496H91.4625V88.1496ZM81.7713 88.3996V48.1744H81.2713V88.3996H81.7713Z" fill="black"/>
</svg>
