<svg width="123" height="123" viewBox="0 0 123 123" fill="none" xmlns="http://www.w3.org/2000/svg">
<path fill-rule="evenodd" clip-rule="evenodd" d="M24.8561 0.5H97.4273C104.883 0.5 121.883 8.24708 122.28 27.3168C122.678 46.3866 122.446 81.6126 122.28 96.8419C122.28 109.754 113.333 121.672 99.4155 121.672C85.4978 121.672 46.2298 122.5 25.5188 122.5C16.406 122.5 0.5 114.323 0.5 94.8555V25.827C0.5 15.8948 8.55242 0.5 24.8561 0.5ZM90.9655 30.7931C90.9655 39.5334 83.5095 45.1947 80.0301 45.1947H75.5565C86.4919 45.1947 90.9655 53.637 90.9655 60.5896C90.9655 67.5421 86.6907 75.4878 75.5565 75.4878C64.4223 75.4878 61.1417 65.5556 61.1417 60.3412V75.4878V92.3725C61.1417 99.325 54.6799 105.284 47.721 105.284C37.7797 105.284 32.4206 100.897 30.8208 92.3725C29.3297 84.4267 36.2885 75.4878 44.2415 75.4878C39.768 75.4878 30.8208 70.919 30.8208 60.5896C30.8208 50.2601 39.2709 45.1947 43.2474 45.1947C38.7738 45.1947 30.8208 41.1225 30.8208 30.7931C30.8208 20.4636 39.2709 15.8948 44.2415 15.8948H61.1417H80.0301C84.0066 15.8948 90.9655 22.0528 90.9655 30.7931Z" fill="#033F63"/>
<path d="M61.1417 45.1947H43.2474C39.2709 45.1947 30.8208 50.2601 30.8208 60.5896C30.8208 70.919 39.768 75.4878 44.2415 75.4878H61.1417V60.3412V45.1947Z" fill="#A25AFF"/>
<path d="M61.1417 45.1947V15.8948H44.2415C39.2709 15.8948 30.8208 20.4636 30.8208 30.7931C30.8208 41.1225 38.7738 45.1947 43.2474 45.1947H61.1417Z" fill="#F44E1E"/>
<path d="M61.1417 75.4878H44.2415C36.2885 75.4878 29.3297 84.4267 30.8208 92.3725C32.4206 100.897 37.7797 105.284 47.721 105.284C54.6799 105.284 61.1417 99.325 61.1417 92.3725V75.4878Z" fill="#0BCF81"/>
<path d="M75.5565 45.1947C72.5741 45.1947 61.1417 48.224 61.1417 60.3412C61.1417 65.5556 64.4223 75.4878 75.5565 75.4878C86.6907 75.4878 90.9655 67.5421 90.9655 60.5896C90.9655 53.637 86.4919 45.1947 75.5565 45.1947Z" fill="#1BBBFF"/>
<path d="M61.1417 15.8948V45.1947H75.5565H80.0301C83.5095 45.1947 90.9655 39.5334 90.9655 30.7931C90.9655 22.0528 84.0066 15.8948 80.0301 15.8948H61.1417Z" fill="#FF7463"/>
<path d="M75.5565 45.1947H61.1417V60.3412C61.1417 48.224 72.5741 45.1947 75.5565 45.1947Z" fill="#033F63"/>
<path d="M122.28 96.8419L122.03 96.8392V96.8419H122.28ZM30.8208 92.3725L31.0666 92.3263L30.8208 92.3725ZM24.8561 0.75H97.4273V0.25H24.8561V0.75ZM97.4273 0.75C101.089 0.75 107.148 2.66097 112.342 6.95002C117.525 11.2308 121.833 17.8697 122.03 27.322L122.53 27.3116C122.33 17.6942 117.94 10.9247 112.66 6.5645C107.39 2.21257 101.222 0.25 97.4273 0.25V0.75ZM122.03 27.322C122.428 46.3873 122.196 81.6096 122.03 96.8392L122.53 96.8447C122.696 81.6156 122.928 46.3859 122.53 27.3116L122.03 27.322ZM122.03 96.8419C122.03 109.651 113.163 121.422 99.4155 121.422V121.922C113.504 121.922 122.53 109.857 122.53 96.8419H122.03ZM99.4155 121.422C92.4543 121.422 79.1551 121.629 65.011 121.836C50.8649 122.043 35.8721 122.25 25.5188 122.25V122.75C35.8765 122.75 50.8732 122.543 65.0183 122.336C79.1653 122.129 92.459 121.922 99.4155 121.922V121.422ZM25.5188 122.25C21.0262 122.25 14.8293 120.23 9.75677 115.79C4.69252 111.357 0.75 104.513 0.75 94.8555H0.25C0.25 104.665 4.26049 111.643 9.42745 116.166C14.5862 120.681 20.8987 122.75 25.5188 122.75V122.25ZM0.75 94.8555C0.75 94.8175 0.75 94.7794 0.75 94.7413C0.75 94.7031 0.75 94.6649 0.75 94.6267C0.75 94.5884 0.75 94.5501 0.75 94.5117C0.75 94.4734 0.75 94.435 0.75 94.3965C0.75 94.358 0.75 94.3195 0.75 94.2809C0.75 94.2423 0.75 94.2036 0.75 94.1649C0.75 94.1262 0.75 94.0874 0.75 94.0486C0.75 94.0098 0.75 93.9709 0.75 93.932C0.75 93.8931 0.75 93.8541 0.75 93.815C0.75 93.776 0.75 93.7369 0.75 93.6977C0.75 93.6586 0.75 93.6194 0.75 93.5801C0.75 93.5408 0.75 93.5015 0.75 93.4621C0.75 93.4228 0.75 93.3833 0.75 93.3438C0.75 93.3044 0.75 93.2648 0.75 93.2252C0.75 93.1856 0.75 93.146 0.75 93.1063C0.75 93.0666 0.75 93.0268 0.75 92.987C0.75 92.9472 0.75 92.9073 0.75 92.8674C0.75 92.8275 0.75 92.7875 0.75 92.7475C0.75 92.7075 0.75 92.6674 0.75 92.6273C0.75 92.5871 0.75 92.547 0.75 92.5067C0.75 92.4665 0.75 92.4262 0.75 92.3859C0.75 92.3455 0.75 92.3051 0.75 92.2647C0.75 92.2242 0.75 92.1837 0.75 92.1432C0.75 92.1026 0.75 92.062 0.75 92.0214C0.75 91.9807 0.75 91.94 0.75 91.8993C0.75 91.8585 0.75 91.8177 0.75 91.7768C0.75 91.736 0.75 91.6951 0.75 91.6541C0.75 91.6131 0.75 91.5721 0.75 91.5311C0.75 91.49 0.75 91.4489 0.75 91.4077C0.75 91.3666 0.75 91.3253 0.75 91.2841C0.75 91.2428 0.75 91.2015 0.75 91.1601C0.75 91.1188 0.75 91.0773 0.75 91.0359C0.75 90.9944 0.75 90.9529 0.75 90.9113C0.75 90.8698 0.75 90.8282 0.75 90.7865C0.75 90.7448 0.75 90.7031 0.75 90.6614C0.75 90.6196 0.75 90.5778 0.75 90.5359C0.75 90.4941 0.75 90.4522 0.75 90.4102C0.75 90.3683 0.75 90.3263 0.75 90.2842C0.75 90.2422 0.75 90.2001 0.75 90.1579C0.75 90.1158 0.75 90.0736 0.75 90.0313C0.75 89.9891 0.75 89.9468 0.75 89.9045C0.75 89.8621 0.75 89.8197 0.75 89.7773C0.75 89.7349 0.75 89.6924 0.75 89.6499C0.75 89.6073 0.75 89.5648 0.75 89.5222C0.75 89.4795 0.75 89.4369 0.75 89.3942C0.75 89.3514 0.75 89.3087 0.75 89.2659C0.75 89.2231 0.75 89.1802 0.75 89.1373C0.75 89.0944 0.75 89.0515 0.75 89.0085C0.75 88.9655 0.75 88.9225 0.75 88.8794C0.75 88.8363 0.75 88.7932 0.75 88.7501C0.75 88.7069 0.75 88.6637 0.75 88.6204C0.75 88.5772 0.75 88.5339 0.75 88.4905C0.75 88.4472 0.75 88.4038 0.75 88.3603C0.75 88.3169 0.75 88.2734 0.75 88.2299C0.75 88.1864 0.75 88.1428 0.75 88.0992C0.75 88.0556 0.75 88.0119 0.75 87.9682C0.75 87.9246 0.75 87.8808 0.75 87.837C0.75 87.7932 0.75 87.7494 0.75 87.7056C0.75 87.6617 0.75 87.6178 0.75 87.5738C0.75 87.5299 0.75 87.4859 0.75 87.4418C0.75 87.3978 0.75 87.3537 0.75 87.3096C0.75 87.2654 0.75 87.2213 0.75 87.1771C0.75 87.1329 0.75 87.0886 0.75 87.0443C0.75 87 0.75 86.9557 0.75 86.9113C0.75 86.8669 0.75 86.8225 0.75 86.7781C0.75 86.7336 0.75 86.6891 0.75 86.6446C0.75 86.6 0.75 86.5555 0.75 86.5108C0.75 86.4662 0.75 86.4216 0.75 86.3769C0.75 86.3322 0.75 86.2874 0.75 86.2426C0.75 86.1979 0.75 86.153 0.75 86.1082C0.75 86.0633 0.75 86.0184 0.75 85.9735C0.75 85.9285 0.75 85.8836 0.75 85.8385C0.75 85.7935 0.75 85.7485 0.75 85.7034C0.75 85.6583 0.75 85.6131 0.75 85.568C0.75 85.5228 0.75 85.4776 0.75 85.4323C0.75 85.3871 0.75 85.3418 0.75 85.2964C0.75 85.2511 0.75 85.2057 0.75 85.1603C0.75 85.1149 0.75 85.0695 0.75 85.024C0.75 84.9785 0.75 84.933 0.75 84.8875C0.75 84.8419 0.75 84.7963 0.75 84.7507C0.75 84.7051 0.75 84.6594 0.75 84.6137C0.75 84.568 0.75 84.5222 0.75 84.4765C0.75 84.4307 0.75 84.3849 0.75 84.339C0.75 84.2932 0.75 84.2473 0.75 84.2014C0.75 84.1554 0.75 84.1095 0.75 84.0635C0.75 84.0175 0.75 83.9715 0.75 83.9254C0.75 83.8793 0.75 83.8332 0.75 83.7871C0.75 83.741 0.75 83.6948 0.75 83.6486C0.75 83.6024 0.75 83.5561 0.75 83.5099C0.75 83.4636 0.75 83.4173 0.75 83.3709C0.75 83.3246 0.75 83.2782 0.75 83.2318C0.75 83.1854 0.75 83.1389 0.75 83.0924C0.75 83.046 0.75 82.9994 0.75 82.9529C0.75 82.9063 0.75 82.8597 0.75 82.8131C0.75 82.7665 0.75 82.7199 0.75 82.6732C0.75 82.6265 0.75 82.5798 0.75 82.533C0.75 82.4863 0.75 82.4395 0.75 82.3927C0.75 82.3459 0.75 82.299 0.75 82.2521C0.75 82.2052 0.75 82.1583 0.75 82.1114C0.75 82.0644 0.75 82.0175 0.75 81.9704C0.75 81.9234 0.75 81.8764 0.75 81.8293C0.75 81.7822 0.75 81.7351 0.75 81.688C0.75 81.6409 0.75 81.5937 0.75 81.5465C0.75 81.4993 0.75 81.4521 0.75 81.4048C0.75 81.3575 0.75 81.3102 0.75 81.2629C0.75 81.2156 0.75 81.1683 0.75 81.1209C0.75 81.0735 0.75 81.0261 0.75 80.9786C0.75 80.9312 0.75 80.8837 0.75 80.8362C0.75 80.7887 0.75 80.7412 0.75 80.6936C0.75 80.646 0.75 80.5984 0.75 80.5508C0.75 80.5032 0.75 80.4555 0.75 80.4079C0.75 80.3602 0.75 80.3125 0.75 80.2647C0.75 80.217 0.75 80.1692 0.75 80.1214C0.75 80.0736 0.75 80.0258 0.75 79.978C0.75 79.9301 0.75 79.8822 0.75 79.8343C0.75 79.7864 0.75 79.7385 0.75 79.6905C0.75 79.6425 0.75 79.5945 0.75 79.5465C0.75 79.4985 0.75 79.4504 0.75 79.4024C0.75 79.3543 0.75 79.3062 0.75 79.2581C0.75 79.2099 0.75 79.1618 0.75 79.1136C0.75 79.0654 0.75 79.0172 0.75 78.969C0.75 78.9207 0.75 78.8725 0.75 78.8242C0.75 78.7759 0.75 78.7276 0.75 78.6792C0.75 78.6309 0.75 78.5825 0.75 78.5341C0.75 78.4857 0.75 78.4373 0.75 78.3889C0.75 78.3404 0.75 78.292 0.75 78.2435C0.75 78.195 0.75 78.1465 0.75 78.0979C0.75 78.0494 0.75 78.0008 0.75 77.9522C0.75 77.9036 0.75 77.855 0.75 77.8064C0.75 77.7577 0.75 77.709 0.75 77.6603C0.75 77.6117 0.75 77.5629 0.75 77.5142C0.75 77.4655 0.75 77.4167 0.75 77.3679C0.75 77.3191 0.75 77.2703 0.75 77.2215C0.75 77.1726 0.75 77.1238 0.75 77.0749C0.75 77.026 0.75 76.9771 0.75 76.9282C0.75 76.8793 0.75 76.8303 0.75 76.7814C0.75 76.7324 0.75 76.6834 0.75 76.6344C0.75 76.5854 0.75 76.5363 0.75 76.4873C0.75 76.4382 0.75 76.3891 0.75 76.34C0.75 76.2909 0.75 76.2418 0.75 76.1926C0.75 76.1435 0.75 76.0943 0.75 76.0451C0.75 75.9959 0.75 75.9467 0.75 75.8975C0.75 75.8483 0.75 75.799 0.75 75.7497C0.75 75.7005 0.75 75.6512 0.75 75.6019C0.75 75.5525 0.75 75.5032 0.75 75.4538C0.75 75.4045 0.75 75.3551 0.75 75.3057C0.75 75.2563 0.75 75.2069 0.75 75.1575C0.75 75.108 0.75 75.0586 0.75 75.0091C0.75 74.9596 0.75 74.9101 0.75 74.8606C0.75 74.8111 0.75 74.7616 0.75 74.712C0.75 74.6625 0.75 74.6129 0.75 74.5633C0.75 74.5137 0.75 74.4641 0.75 74.4145C0.75 74.3649 0.75 74.3152 0.75 74.2656C0.75 74.2159 0.75 74.1662 0.75 74.1165C0.75 74.0668 0.75 74.0171 0.75 73.9674C0.75 73.9176 0.75 73.8679 0.75 73.8181C0.75 73.7683 0.75 73.7186 0.75 73.6688C0.75 73.619 0.75 73.5691 0.75 73.5193C0.75 73.4695 0.75 73.4196 0.75 73.3697C0.75 73.3199 0.75 73.27 0.75 73.2201C0.75 73.1702 0.75 73.1203 0.75 73.0703C0.75 73.0204 0.75 72.9704 0.75 72.9205C0.75 72.8705 0.75 72.8205 0.75 72.7705C0.75 72.7205 0.75 72.6705 0.75 72.6205C0.75 72.5704 0.75 72.5204 0.75 72.4703C0.75 72.4203 0.75 72.3702 0.75 72.3201C0.75 72.27 0.75 72.2199 0.75 72.1698C0.75 72.1197 0.75 72.0695 0.75 72.0194C0.75 71.9693 0.75 71.9191 0.75 71.8689C0.75 71.8187 0.75 71.7686 0.75 71.7184C0.75 71.6681 0.75 71.6179 0.75 71.5677C0.75 71.5175 0.75 71.4672 0.75 71.417C0.75 71.3667 0.75 71.3164 0.75 71.2662C0.75 71.2159 0.75 71.1656 0.75 71.1153C0.75 71.065 0.75 71.0146 0.75 70.9643C0.75 70.914 0.75 70.8636 0.75 70.8133C0.75 70.7629 0.75 70.7125 0.75 70.6622C0.75 70.6118 0.75 70.5614 0.75 70.511C0.75 70.4606 0.75 70.4102 0.75 70.3597C0.75 70.3093 0.75 70.2589 0.75 70.2084C0.75 70.158 0.75 70.1075 0.75 70.057C0.75 70.0066 0.75 69.9561 0.75 69.9056C0.75 69.8551 0.75 69.8046 0.75 69.7541C0.75 69.7035 0.75 69.653 0.75 69.6025C0.75 69.552 0.75 69.5014 0.75 69.4509C0.75 69.4003 0.75 69.3497 0.75 69.2992C0.75 69.2486 0.75 69.198 0.75 69.1474C0.75 69.0968 0.75 69.0462 0.75 68.9956C0.75 68.945 0.75 68.8944 0.75 68.8437C0.75 68.7931 0.75 68.7425 0.75 68.6918C0.75 68.6412 0.75 68.5905 0.75 68.5399C0.75 68.4892 0.75 68.4385 0.75 68.3878C0.75 68.3372 0.75 68.2865 0.75 68.2358C0.75 68.1851 0.75 68.1344 0.75 68.0837C0.75 68.033 0.75 67.9823 0.75 67.9315C0.75 67.8808 0.75 67.8301 0.75 67.7793C0.75 67.7286 0.75 67.6778 0.75 67.6271C0.75 67.5763 0.75 67.5256 0.75 67.4748C0.75 67.4241 0.75 67.3733 0.75 67.3225C0.75 67.2717 0.75 67.2209 0.75 67.1702C0.75 67.1194 0.75 67.0686 0.75 67.0178C0.75 66.967 0.75 66.9162 0.75 66.8653C0.75 66.8145 0.75 66.7637 0.75 66.7129C0.75 66.6621 0.75 66.6112 0.75 66.5604C0.75 66.5096 0.75 66.4587 0.75 66.4079C0.75 66.3571 0.75 66.3062 0.75 66.2554C0.75 66.2045 0.75 66.1536 0.75 66.1028C0.75 66.0519 0.75 66.0011 0.75 65.9502C0.75 65.8993 0.75 65.8485 0.75 65.7976C0.75 65.7467 0.75 65.6958 0.75 65.645C0.75 65.5941 0.75 65.5432 0.75 65.4923C0.75 65.4414 0.75 65.3905 0.75 65.3396C0.75 65.2887 0.75 65.2378 0.75 65.1869C0.75 65.136 0.75 65.0851 0.75 65.0342C0.75 64.9833 0.75 64.9324 0.75 64.8815C0.75 64.8306 0.75 64.7797 0.75 64.7288C0.75 64.6779 0.75 64.627 0.75 64.5761C0.75 64.5251 0.75 64.4742 0.75 64.4233C0.75 64.3724 0.75 64.3215 0.75 64.2706C0.75 64.2196 0.75 64.1687 0.75 64.1178C0.75 64.0669 0.75 64.016 0.75 63.965C0.75 63.9141 0.75 63.8632 0.75 63.8123C0.75 63.7613 0.75 63.7104 0.75 63.6595C0.75 63.6086 0.75 63.5577 0.75 63.5067C0.75 63.4558 0.75 63.4049 0.75 63.354C0.75 63.3031 0.75 63.2521 0.75 63.2012C0.75 63.1503 0.75 63.0994 0.75 63.0485C0.75 62.9975 0.75 62.9466 0.75 62.8957C0.75 62.8448 0.75 62.7939 0.75 62.743C0.75 62.6921 0.75 62.6412 0.75 62.5902C0.75 62.5393 0.75 62.4884 0.75 62.4375C0.75 62.3866 0.75 62.3357 0.75 62.2848C0.75 62.2339 0.75 62.183 0.75 62.1321C0.75 62.0812 0.75 62.0303 0.75 61.9795C0.75 61.9286 0.75 61.8777 0.75 61.8268C0.75 61.7759 0.75 61.725 0.75 61.6742C0.75 61.6233 0.75 61.5724 0.75 61.5216C0.75 61.4707 0.75 61.4198 0.75 61.369C0.75 61.3181 0.75 61.2672 0.75 61.2164C0.75 61.1655 0.75 61.1147 0.75 61.0639C0.75 61.013 0.75 60.9622 0.75 60.9113C0.75 60.8605 0.75 60.8097 0.75 60.7589C0.75 60.708 0.75 60.6572 0.75 60.6064C0.75 60.5556 0.75 60.5048 0.75 60.454C0.75 60.4032 0.75 60.3524 0.75 60.3016C0.75 60.2508 0.75 60.2 0.75 60.1492C0.75 60.0984 0.75 60.0477 0.75 59.9969C0.75 59.9461 0.75 59.8954 0.75 59.8446C0.75 59.7939 0.75 59.7431 0.75 59.6924C0.75 59.6416 0.75 59.5909 0.75 59.5402C0.75 59.4895 0.75 59.4387 0.75 59.388C0.75 59.3373 0.75 59.2866 0.75 59.2359C0.75 59.1852 0.75 59.1345 0.75 59.0839C0.75 59.0332 0.75 58.9825 0.75 58.9318C0.75 58.8812 0.75 58.8305 0.75 58.7799C0.75 58.7292 0.75 58.6786 0.75 58.628C0.75 58.5773 0.75 58.5267 0.75 58.4761C0.75 58.4255 0.75 58.3749 0.75 58.3243C0.75 58.2737 0.75 58.2231 0.75 58.1725C0.75 58.1219 0.75 58.0714 0.75 58.0208C0.75 57.9703 0.75 57.9197 0.75 57.8692C0.75 57.8186 0.75 57.7681 0.75 57.7176C0.75 57.6671 0.75 57.6166 0.75 57.5661C0.75 57.5156 0.75 57.4651 0.75 57.4146C0.75 57.3641 0.75 57.3137 0.75 57.2632C0.75 57.2128 0.75 57.1623 0.75 57.1119C0.75 57.0615 0.75 57.0111 0.75 56.9606C0.75 56.9102 0.75 56.8598 0.75 56.8095C0.75 56.7591 0.75 56.7087 0.75 56.6583C0.75 56.608 0.75 56.5576 0.75 56.5073C0.75 56.457 0.75 56.4066 0.75 56.3563C0.75 56.306 0.75 56.2557 0.75 56.2054C0.75 56.1552 0.75 56.1049 0.75 56.0546C0.75 56.0044 0.75 55.9541 0.75 55.9039C0.75 55.8536 0.75 55.8034 0.75 55.7532C0.75 55.703 0.75 55.6528 0.75 55.6026C0.75 55.5525 0.75 55.5023 0.75 55.4522C0.75 55.402 0.75 55.3519 0.75 55.3018C0.75 55.2516 0.75 55.2015 0.75 55.1514C0.75 55.1013 0.75 55.0513 0.75 55.0012C0.75 54.9511 0.75 54.9011 0.75 54.8511C0.75 54.801 0.75 54.751 0.75 54.701C0.75 54.651 0.75 54.601 0.75 54.551C0.75 54.5011 0.75 54.4511 0.75 54.4012C0.75 54.3512 0.75 54.3013 0.75 54.2514C0.75 54.2015 0.75 54.1516 0.75 54.1017C0.75 54.0519 0.75 54.002 0.75 53.9522C0.75 53.9023 0.75 53.8525 0.75 53.8027C0.75 53.7529 0.75 53.7031 0.75 53.6533C0.75 53.6036 0.75 53.5538 0.75 53.5041C0.75 53.4543 0.75 53.4046 0.75 53.3549C0.75 53.3052 0.75 53.2555 0.75 53.2059C0.75 53.1562 0.75 53.1066 0.75 53.0569C0.75 53.0073 0.75 52.9577 0.75 52.9081C0.75 52.8585 0.75 52.8089 0.75 52.7594C0.75 52.7098 0.75 52.6603 0.75 52.6108C0.75 52.5612 0.75 52.5117 0.75 52.4623C0.75 52.4128 0.75 52.3633 0.75 52.3139C0.75 52.2645 0.75 52.215 0.75 52.1656C0.75 52.1162 0.75 52.0669 0.75 52.0175C0.75 51.9681 0.75 51.9188 0.75 51.8695C0.75 51.8202 0.75 51.7709 0.75 51.7216C0.75 51.6723 0.75 51.623 0.75 51.5738C0.75 51.5246 0.75 51.4754 0.75 51.4262C0.75 51.377 0.75 51.3278 0.75 51.2786C0.75 51.2295 0.75 51.1804 0.75 51.1313C0.75 51.0822 0.75 51.0331 0.75 50.984C0.75 50.9349 0.75 50.8859 0.75 50.8369C0.75 50.7879 0.75 50.7389 0.75 50.6899C0.75 50.6409 0.75 50.592 0.75 50.543C0.75 50.4941 0.75 50.4452 0.75 50.3963C0.75 50.3474 0.75 50.2986 0.75 50.2497C0.75 50.2009 0.75 50.1521 0.75 50.1033C0.75 50.0545 0.75 50.0057 0.75 49.957C0.75 49.9082 0.75 49.8595 0.75 49.8108C0.75 49.7621 0.75 49.7134 0.75 49.6648C0.75 49.6161 0.75 49.5675 0.75 49.5189C0.75 49.4703 0.75 49.4218 0.75 49.3732C0.75 49.3247 0.75 49.2761 0.75 49.2276C0.75 49.1791 0.75 49.1307 0.75 49.0822C0.75 49.0338 0.75 48.9853 0.75 48.9369C0.75 48.8885 0.75 48.8402 0.75 48.7918C0.75 48.7435 0.75 48.6952 0.75 48.6469C0.75 48.5986 0.75 48.5503 0.75 48.5021C0.75 48.4538 0.75 48.4056 0.75 48.3574C0.75 48.3092 0.75 48.2611 0.75 48.2129C0.75 48.1648 0.75 48.1167 0.75 48.0686C0.75 48.0205 0.75 47.9725 0.75 47.9245C0.75 47.8764 0.75 47.8284 0.75 47.7805C0.75 47.7325 0.75 47.6846 0.75 47.6366C0.75 47.5887 0.75 47.5408 0.75 47.493C0.75 47.4451 0.75 47.3973 0.75 47.3495C0.75 47.3017 0.75 47.2539 0.75 47.2062C0.75 47.1584 0.75 47.1107 0.75 47.063C0.75 47.0153 0.75 46.9677 0.75 46.9201C0.75 46.8724 0.75 46.8248 0.75 46.7773C0.75 46.7297 0.75 46.6821 0.75 46.6346C0.75 46.5871 0.75 46.5396 0.75 46.4922C0.75 46.4447 0.75 46.3973 0.75 46.3499C0.75 46.3025 0.75 46.2552 0.75 46.2079C0.75 46.1605 0.75 46.1132 0.75 46.066C0.75 46.0187 0.75 45.9715 0.75 45.9243C0.75 45.8771 0.75 45.8299 0.75 45.7827C0.75 45.7356 0.75 45.6885 0.75 45.6414C0.75 45.5943 0.75 45.5473 0.75 45.5003C0.75 45.4532 0.75 45.4063 0.75 45.3593C0.75 45.3124 0.75 45.2654 0.75 45.2185C0.75 45.1717 0.75 45.1248 0.75 45.078C0.75 45.0312 0.75 44.9844 0.75 44.9376C0.75 44.8909 0.75 44.8441 0.75 44.7974C0.75 44.7507 0.75 44.7041 0.75 44.6575C0.75 44.6108 0.75 44.5642 0.75 44.5177C0.75 44.4711 0.75 44.4246 0.75 44.3781C0.75 44.3316 0.75 44.2852 0.75 44.2388C0.75 44.1923 0.75 44.146 0.75 44.0996C0.75 44.0532 0.75 44.0069 0.75 43.9606C0.75 43.9144 0.75 43.8681 0.75 43.8219C0.75 43.7757 0.75 43.7295 0.75 43.6834C0.75 43.6372 0.75 43.5911 0.75 43.545C0.75 43.499 0.75 43.4529 0.75 43.4069C0.75 43.3609 0.75 43.315 0.75 43.269C0.75 43.2231 0.75 43.1772 0.75 43.1314C0.75 43.0855 0.75 43.0397 0.75 42.9939C0.75 42.9481 0.75 42.9024 0.75 42.8567C0.75 42.8109 0.75 42.7653 0.75 42.7196C0.75 42.674 0.75 42.6284 0.75 42.5828C0.75 42.5373 0.75 42.4918 0.75 42.4463C0.75 42.4008 0.75 42.3553 0.75 42.3099C0.75 42.2645 0.75 42.2191 0.75 42.1738C0.75 42.1285 0.75 42.0832 0.75 42.0379C0.75 41.9927 0.75 41.9474 0.75 41.9022C0.75 41.8571 0.75 41.8119 0.75 41.7668C0.75 41.7217 0.75 41.6767 0.75 41.6316C0.75 41.5866 0.75 41.5416 0.75 41.4967C0.75 41.4517 0.75 41.4068 0.75 41.3619C0.75 41.3171 0.75 41.2722 0.75 41.2275C0.75 41.1827 0.75 41.1379 0.75 41.0932C0.75 41.0485 0.75 41.0038 0.75 40.9592C0.75 40.9146 0.75 40.87 0.75 40.8255C0.75 40.7809 0.75 40.7364 0.75 40.6919C0.75 40.6475 0.75 40.603 0.75 40.5587C0.75 40.5143 0.75 40.4699 0.75 40.4256C0.75 40.3813 0.75 40.3371 0.75 40.2929C0.75 40.2487 0.75 40.2045 0.75 40.1603C0.75 40.1162 0.75 40.0721 0.75 40.0281C0.75 39.984 0.75 39.94 0.75 39.8961C0.75 39.8521 0.75 39.8082 0.75 39.7643C0.75 39.7204 0.75 39.6766 0.75 39.6328C0.75 39.589 0.75 39.5453 0.75 39.5015C0.75 39.4578 0.75 39.4142 0.75 39.3706C0.75 39.3269 0.75 39.2834 0.75 39.2398C0.75 39.1963 0.75 39.1528 0.75 39.1094C0.75 39.0659 0.75 39.0225 0.75 38.9792C0.75 38.9358 0.75 38.8925 0.75 38.8493C0.75 38.806 0.75 38.7628 0.75 38.7196C0.75 38.6764 0.75 38.6333 0.75 38.5902C0.75 38.5471 0.75 38.5041 0.75 38.4611C0.75 38.4181 0.75 38.3751 0.75 38.3322C0.75 38.2893 0.75 38.2465 0.75 38.2037C0.75 38.1609 0.75 38.1181 0.75 38.0754C0.75 38.0326 0.75 37.99 0.75 37.9473C0.75 37.9047 0.75 37.8621 0.75 37.8196C0.75 37.7771 0.75 37.7346 0.75 37.6921C0.75 37.6497 0.75 37.6073 0.75 37.565C0.75 37.5226 0.75 37.4803 0.75 37.4381C0.75 37.3958 0.75 37.3536 0.75 37.3115C0.75 37.2693 0.75 37.2272 0.75 37.1851C0.75 37.1431 0.75 37.1011 0.75 37.0591C0.75 37.0171 0.75 36.9752 0.75 36.9334C0.75 36.8915 0.75 36.8497 0.75 36.8079C0.75 36.7661 0.75 36.7244 0.75 36.6827C0.75 36.6411 0.75 36.5995 0.75 36.5579C0.75 36.5163 0.75 36.4748 0.75 36.4333C0.75 36.3918 0.75 36.3504 0.75 36.309C0.75 36.2677 0.75 36.2263 0.75 36.1851C0.75 36.1438 0.75 36.1026 0.75 36.0614C0.75 36.0202 0.75 35.9791 0.75 35.938C0.75 35.8969 0.75 35.8559 0.75 35.815C0.75 35.774 0.75 35.7331 0.75 35.6922C0.75 35.6513 0.75 35.6105 0.75 35.5697C0.75 35.529 0.75 35.4883 0.75 35.4476C0.75 35.4069 0.75 35.3663 0.75 35.3258C0.75 35.2852 0.75 35.2447 0.75 35.2042C0.75 35.1638 0.75 35.1234 0.75 35.083C0.75 35.0427 0.75 35.0024 0.75 34.9621C0.75 34.9219 0.75 34.8817 0.75 34.8416C0.75 34.8014 0.75 34.7613 0.75 34.7213C0.75 34.6813 0.75 34.6413 0.75 34.6014C0.75 34.5614 0.75 34.5216 0.75 34.4817C0.75 34.4419 0.75 34.4021 0.75 34.3624C0.75 34.3227 0.75 34.2831 0.75 34.2435C0.75 34.2039 0.75 34.1643 0.75 34.1248C0.75 34.0853 0.75 34.0459 0.75 34.0065C0.75 33.9671 0.75 33.9278 0.75 33.8885C0.75 33.8492 0.75 33.81 0.75 33.7708C0.75 33.7317 0.75 33.6926 0.75 33.6535C0.75 33.6145 0.75 33.5755 0.75 33.5365C0.75 33.4976 0.75 33.4587 0.75 33.4199C0.75 33.381 0.75 33.3423 0.75 33.3035C0.75 33.2648 0.75 33.2262 0.75 33.1876C0.75 33.1489 0.75 33.1104 0.75 33.0719C0.75 33.0334 0.75 32.995 0.75 32.9566C0.75 32.9182 0.75 32.8799 0.75 32.8416C0.75 32.8034 0.75 32.7652 0.75 32.727C0.75 32.6889 0.75 32.6508 0.75 32.6128C0.75 32.5747 0.75 32.5368 0.75 32.4988C0.75 32.4609 0.75 32.4231 0.75 32.3853C0.75 32.3475 0.75 32.3097 0.75 32.272C0.75 32.2344 0.75 32.1967 0.75 32.1592C0.75 32.1216 0.75 32.0841 0.75 32.0467C0.75 32.0092 0.75 31.9718 0.75 31.9345C0.75 31.8972 0.75 31.8599 0.75 31.8227C0.75 31.7855 0.75 31.7483 0.75 31.7112C0.75 31.6742 0.75 31.6371 0.75 31.6002C0.75 31.5632 0.75 31.5263 0.75 31.4894C0.75 31.4526 0.75 31.4158 0.75 31.3791C0.75 31.3424 0.75 31.3057 0.75 31.2691C0.75 31.2325 0.75 31.1959 0.75 31.1595C0.75 31.123 0.75 31.0866 0.75 31.0502C0.75 31.0138 0.75 30.9775 0.75 30.9413C0.75 30.9051 0.75 30.8689 0.75 30.8328C0.75 30.7967 0.75 30.7606 0.75 30.7246C0.75 30.6887 0.75 30.6527 0.75 30.6169C0.75 30.581 0.75 30.5452 0.75 30.5095C0.75 30.4737 0.75 30.4381 0.75 30.4025C0.75 30.3668 0.75 30.3313 0.75 30.2958C0.75 30.2603 0.75 30.2249 0.75 30.1896C0.75 30.1542 0.75 30.1189 0.75 30.0837C0.75 30.0484 0.75 30.0133 0.75 29.9782C0.75 29.9431 0.75 29.908 0.75 29.8731C0.75 29.8381 0.75 29.8032 0.75 29.7683C0.75 29.7335 0.75 29.6987 0.75 29.664C0.75 29.6293 0.75 29.5947 0.75 29.5601C0.75 29.5255 0.75 29.491 0.75 29.4565C0.75 29.4221 0.75 29.3877 0.75 29.3534C0.75 29.319 0.75 29.2848 0.75 29.2506C0.75 29.2164 0.75 29.1823 0.75 29.1482C0.75 29.1142 0.75 29.0802 0.75 29.0462C0.75 29.0123 0.75 28.9785 0.75 28.9447C0.75 28.9109 0.75 28.8772 0.75 28.8435C0.75 28.8098 0.75 28.7763 0.75 28.7427C0.75 28.7092 0.75 28.6758 0.75 28.6424C0.75 28.609 0.75 28.5757 0.75 28.5424C0.75 28.5092 0.75 28.476 0.75 28.4429C0.75 28.4097 0.75 28.3767 0.75 28.3437C0.75 28.3107 0.75 28.2778 0.75 28.245C0.75 28.2121 0.75 28.1794 0.75 28.1467C0.75 28.114 0.75 28.0813 0.75 28.0488C0.75 28.0162 0.75 27.9837 0.75 27.9513C0.75 27.9188 0.75 27.8865 0.75 27.8542C0.75 27.8219 0.75 27.7897 0.75 27.7575C0.75 27.7254 0.75 27.6933 0.75 27.6613C0.75 27.6293 0.75 27.5973 0.75 27.5655C0.75 27.5336 0.75 27.5018 0.75 27.4701C0.75 27.4383 0.75 27.4067 0.75 27.3751C0.75 27.3435 0.75 27.312 0.75 27.2806C0.75 27.2491 0.75 27.2177 0.75 27.1864C0.75 27.1551 0.75 27.1239 0.75 27.0927C0.75 27.0616 0.75 27.0305 0.75 26.9995C0.75 26.9685 0.75 26.9375 0.75 26.9067C0.75 26.8758 0.75 26.845 0.75 26.8143C0.75 26.7835 0.75 26.7529 0.75 26.7223C0.75 26.6917 0.75 26.6612 0.75 26.6308C0.75 26.6003 0.75 26.57 0.75 26.5397C0.75 26.5094 0.75 26.4792 0.75 26.4491C0.75 26.4189 0.75 26.3888 0.75 26.3589C0.75 26.3289 0.75 26.2989 0.75 26.2691C0.75 26.2393 0.75 26.2095 0.75 26.1798C0.75 26.1501 0.75 26.1205 0.75 26.0909C0.75 26.0614 0.75 26.0319 0.75 26.0025C0.75 25.9731 0.75 25.9438 0.75 25.9145C0.75 25.8853 0.75 25.8561 0.75 25.827H0.25C0.25 25.8561 0.25 25.8853 0.25 25.9145C0.25 25.9438 0.25 25.9731 0.25 26.0025C0.25 26.0319 0.25 26.0614 0.25 26.0909C0.25 26.1205 0.25 26.1501 0.25 26.1798C0.25 26.2095 0.25 26.2393 0.25 26.2691C0.25 26.2989 0.25 26.3289 0.25 26.3589C0.25 26.3888 0.25 26.4189 0.25 26.4491C0.25 26.4792 0.25 26.5094 0.25 26.5397C0.25 26.57 0.25 26.6003 0.25 26.6308C0.25 26.6612 0.25 26.6917 0.25 26.7223C0.25 26.7529 0.25 26.7835 0.25 26.8143C0.25 26.845 0.25 26.8758 0.25 26.9067C0.25 26.9375 0.25 26.9685 0.25 26.9995C0.25 27.0305 0.25 27.0616 0.25 27.0927C0.25 27.1239 0.25 27.1551 0.25 27.1864C0.25 27.2177 0.25 27.2491 0.25 27.2806C0.25 27.312 0.25 27.3435 0.25 27.3751C0.25 27.4067 0.25 27.4383 0.25 27.4701C0.25 27.5018 0.25 27.5336 0.25 27.5655C0.25 27.5973 0.25 27.6293 0.25 27.6613C0.25 27.6933 0.25 27.7254 0.25 27.7575C0.25 27.7897 0.25 27.8219 0.25 27.8542C0.25 27.8865 0.25 27.9188 0.25 27.9513C0.25 27.9837 0.25 28.0162 0.25 28.0488C0.25 28.0813 0.25 28.114 0.25 28.1467C0.25 28.1794 0.25 28.2121 0.25 28.245C0.25 28.2778 0.25 28.3107 0.25 28.3437C0.25 28.3767 0.25 28.4097 0.25 28.4429C0.25 28.476 0.25 28.5092 0.25 28.5424C0.25 28.5757 0.25 28.609 0.25 28.6424C0.25 28.6758 0.25 28.7092 0.25 28.7427C0.25 28.7763 0.25 28.8098 0.25 28.8435C0.25 28.8772 0.25 28.9109 0.25 28.9447C0.25 28.9785 0.25 29.0123 0.25 29.0462C0.25 29.0802 0.25 29.1142 0.25 29.1482C0.25 29.1823 0.25 29.2164 0.25 29.2506C0.25 29.2848 0.25 29.319 0.25 29.3534C0.25 29.3877 0.25 29.4221 0.25 29.4565C0.25 29.491 0.25 29.5255 0.25 29.5601C0.25 29.5947 0.25 29.6293 0.25 29.664C0.25 29.6987 0.25 29.7335 0.25 29.7683C0.25 29.8032 0.25 29.8381 0.25 29.8731C0.25 29.908 0.25 29.9431 0.25 29.9782C0.25 30.0133 0.25 30.0484 0.25 30.0837C0.25 30.1189 0.25 30.1542 0.25 30.1896C0.25 30.2249 0.25 30.2603 0.25 30.2958C0.25 30.3313 0.25 30.3668 0.25 30.4025C0.25 30.4381 0.25 30.4737 0.25 30.5095C0.25 30.5452 0.25 30.581 0.25 30.6169C0.25 30.6527 0.25 30.6887 0.25 30.7246C0.25 30.7606 0.25 30.7967 0.25 30.8328C0.25 30.8689 0.25 30.9051 0.25 30.9413C0.25 30.9775 0.25 31.0138 0.25 31.0502C0.25 31.0866 0.25 31.123 0.25 31.1595C0.25 31.1959 0.25 31.2325 0.25 31.2691C0.25 31.3057 0.25 31.3424 0.25 31.3791C0.25 31.4158 0.25 31.4526 0.25 31.4894C0.25 31.5263 0.25 31.5632 0.25 31.6002C0.25 31.6371 0.25 31.6742 0.25 31.7112C0.25 31.7483 0.25 31.7855 0.25 31.8227C0.25 31.8599 0.25 31.8972 0.25 31.9345C0.25 31.9718 0.25 32.0092 0.25 32.0467C0.25 32.0841 0.25 32.1216 0.25 32.1592C0.25 32.1967 0.25 32.2344 0.25 32.272C0.25 32.3097 0.25 32.3475 0.25 32.3853C0.25 32.4231 0.25 32.4609 0.25 32.4988C0.25 32.5368 0.25 32.5747 0.25 32.6128C0.25 32.6508 0.25 32.6889 0.25 32.727C0.25 32.7652 0.25 32.8034 0.25 32.8416C0.25 32.8799 0.25 32.9182 0.25 32.9566C0.25 32.995 0.25 33.0334 0.25 33.0719C0.25 33.1104 0.25 33.1489 0.25 33.1876C0.25 33.2262 0.25 33.2648 0.25 33.3035C0.25 33.3423 0.25 33.381 0.25 33.4199C0.25 33.4587 0.25 33.4976 0.25 33.5365C0.25 33.5755 0.25 33.6145 0.25 33.6535C0.25 33.6926 0.25 33.7317 0.25 33.7708C0.25 33.81 0.25 33.8492 0.25 33.8885C0.25 33.9278 0.25 33.9671 0.25 34.0065C0.25 34.0459 0.25 34.0853 0.25 34.1248C0.25 34.1643 0.25 34.2039 0.25 34.2435C0.25 34.2831 0.25 34.3227 0.25 34.3624C0.25 34.4021 0.25 34.4419 0.25 34.4817C0.25 34.5216 0.25 34.5614 0.25 34.6014C0.25 34.6413 0.25 34.6813 0.25 34.7213C0.25 34.7613 0.25 34.8014 0.25 34.8416C0.25 34.8817 0.25 34.9219 0.25 34.9621C0.25 35.0024 0.25 35.0427 0.25 35.083C0.25 35.1234 0.25 35.1638 0.25 35.2042C0.25 35.2447 0.25 35.2852 0.25 35.3258C0.25 35.3663 0.25 35.4069 0.25 35.4476C0.25 35.4883 0.25 35.529 0.25 35.5697C0.25 35.6105 0.25 35.6513 0.25 35.6922C0.25 35.7331 0.25 35.774 0.25 35.815C0.25 35.8559 0.25 35.8969 0.25 35.938C0.25 35.9791 0.25 36.0202 0.25 36.0614C0.25 36.1026 0.25 36.1438 0.25 36.1851C0.25 36.2263 0.25 36.2677 0.25 36.309C0.25 36.3504 0.25 36.3918 0.25 36.4333C0.25 36.4748 0.25 36.5163 0.25 36.5579C0.25 36.5995 0.25 36.6411 0.25 36.6827C0.25 36.7244 0.25 36.7661 0.25 36.8079C0.25 36.8497 0.25 36.8915 0.25 36.9334C0.25 36.9752 0.25 37.0171 0.25 37.0591C0.25 37.1011 0.25 37.1431 0.25 37.1851C0.25 37.2272 0.25 37.2693 0.25 37.3115C0.25 37.3536 0.25 37.3958 0.25 37.4381C0.25 37.4803 0.25 37.5226 0.25 37.565C0.25 37.6073 0.25 37.6497 0.25 37.6921C0.25 37.7346 0.25 37.7771 0.25 37.8196C0.25 37.8621 0.25 37.9047 0.25 37.9473C0.25 37.99 0.25 38.0326 0.25 38.0754C0.25 38.1181 0.25 38.1609 0.25 38.2037C0.25 38.2465 0.25 38.2893 0.25 38.3322C0.25 38.3751 0.25 38.4181 0.25 38.4611C0.25 38.5041 0.25 38.5471 0.25 38.5902C0.25 38.6333 0.25 38.6764 0.25 38.7196C0.25 38.7628 0.25 38.806 0.25 38.8493C0.25 38.8925 0.25 38.9358 0.25 38.9792C0.25 39.0225 0.25 39.0659 0.25 39.1094C0.25 39.1528 0.25 39.1963 0.25 39.2398C0.25 39.2834 0.25 39.3269 0.25 39.3706C0.25 39.4142 0.25 39.4578 0.25 39.5015C0.25 39.5453 0.25 39.589 0.25 39.6328C0.25 39.6766 0.25 39.7204 0.25 39.7643C0.25 39.8082 0.25 39.8521 0.25 39.8961C0.25 39.94 0.25 39.984 0.25 40.0281C0.25 40.0721 0.25 40.1162 0.25 40.1603C0.25 40.2045 0.25 40.2487 0.25 40.2929C0.25 40.3371 0.25 40.3813 0.25 40.4256C0.25 40.4699 0.25 40.5143 0.25 40.5587C0.25 40.603 0.25 40.6475 0.25 40.6919C0.25 40.7364 0.25 40.7809 0.25 40.8255C0.25 40.87 0.25 40.9146 0.25 40.9592C0.25 41.0038 0.25 41.0485 0.25 41.0932C0.25 41.1379 0.25 41.1827 0.25 41.2275C0.25 41.2722 0.25 41.3171 0.25 41.3619C0.25 41.4068 0.25 41.4517 0.25 41.4967C0.25 41.5416 0.25 41.5866 0.25 41.6316C0.25 41.6767 0.25 41.7217 0.25 41.7668C0.25 41.8119 0.25 41.8571 0.25 41.9022C0.25 41.9474 0.25 41.9927 0.25 42.0379C0.25 42.0832 0.25 42.1285 0.25 42.1738C0.25 42.2191 0.25 42.2645 0.25 42.3099C0.25 42.3553 0.25 42.4008 0.25 42.4463C0.25 42.4918 0.25 42.5373 0.25 42.5828C0.25 42.6284 0.25 42.674 0.25 42.7196C0.25 42.7653 0.25 42.8109 0.25 42.8567C0.25 42.9024 0.25 42.9481 0.25 42.9939C0.25 43.0397 0.25 43.0855 0.25 43.1314C0.25 43.1772 0.25 43.2231 0.25 43.269C0.25 43.315 0.25 43.3609 0.25 43.4069C0.25 43.4529 0.25 43.499 0.25 43.545C0.25 43.5911 0.25 43.6372 0.25 43.6834C0.25 43.7295 0.25 43.7757 0.25 43.8219C0.25 43.8681 0.25 43.9144 0.25 43.9606C0.25 44.0069 0.25 44.0532 0.25 44.0996C0.25 44.146 0.25 44.1923 0.25 44.2388C0.25 44.2852 0.25 44.3316 0.25 44.3781C0.25 44.4246 0.25 44.4711 0.25 44.5177C0.25 44.5642 0.25 44.6108 0.25 44.6575C0.25 44.7041 0.25 44.7507 0.25 44.7974C0.25 44.8441 0.25 44.8909 0.25 44.9376C0.25 44.9844 0.25 45.0312 0.25 45.078C0.25 45.1248 0.25 45.1717 0.25 45.2185C0.25 45.2654 0.25 45.3124 0.25 45.3593C0.25 45.4063 0.25 45.4532 0.25 45.5003C0.25 45.5473 0.25 45.5943 0.25 45.6414C0.25 45.6885 0.25 45.7356 0.25 45.7827C0.25 45.8299 0.25 45.8771 0.25 45.9243C0.25 45.9715 0.25 46.0187 0.25 46.066C0.25 46.1132 0.25 46.1605 0.25 46.2079C0.25 46.2552 0.25 46.3025 0.25 46.3499C0.25 46.3973 0.25 46.4447 0.25 46.4922C0.25 46.5396 0.25 46.5871 0.25 46.6346C0.25 46.6821 0.25 46.7297 0.25 46.7773C0.25 46.8248 0.25 46.8724 0.25 46.9201C0.25 46.9677 0.25 47.0153 0.25 47.063C0.25 47.1107 0.25 47.1584 0.25 47.2062C0.25 47.2539 0.25 47.3017 0.25 47.3495C0.25 47.3973 0.25 47.4451 0.25 47.493C0.25 47.5408 0.25 47.5887 0.25 47.6366C0.25 47.6846 0.25 47.7325 0.25 47.7805C0.25 47.8284 0.25 47.8764 0.25 47.9245C0.25 47.9725 0.25 48.0205 0.25 48.0686C0.25 48.1167 0.25 48.1648 0.25 48.2129C0.25 48.2611 0.25 48.3092 0.25 48.3574C0.25 48.4056 0.25 48.4538 0.25 48.5021C0.25 48.5503 0.25 48.5986 0.25 48.6469C0.25 48.6952 0.25 48.7435 0.25 48.7918C0.25 48.8402 0.25 48.8885 0.25 48.9369C0.25 48.9853 0.25 49.0338 0.25 49.0822C0.25 49.1307 0.25 49.1791 0.25 49.2276C0.25 49.2761 0.25 49.3247 0.25 49.3732C0.25 49.4218 0.25 49.4703 0.25 49.5189C0.25 49.5675 0.25 49.6161 0.25 49.6648C0.25 49.7134 0.25 49.7621 0.25 49.8108C0.25 49.8595 0.25 49.9082 0.25 49.957C0.25 50.0057 0.25 50.0545 0.25 50.1033C0.25 50.1521 0.25 50.2009 0.25 50.2497C0.25 50.2986 0.25 50.3474 0.25 50.3963C0.25 50.4452 0.25 50.4941 0.25 50.543C0.25 50.592 0.25 50.6409 0.25 50.6899C0.25 50.7389 0.25 50.7879 0.25 50.8369C0.25 50.8859 0.25 50.9349 0.25 50.984C0.25 51.0331 0.25 51.0822 0.25 51.1313C0.25 51.1804 0.25 51.2295 0.25 51.2786C0.25 51.3278 0.25 51.377 0.25 51.4262C0.25 51.4754 0.25 51.5246 0.25 51.5738C0.25 51.623 0.25 51.6723 0.25 51.7216C0.25 51.7709 0.25 51.8202 0.25 51.8695C0.25 51.9188 0.25 51.9681 0.25 52.0175C0.25 52.0669 0.25 52.1162 0.25 52.1656C0.25 52.215 0.25 52.2645 0.25 52.3139C0.25 52.3633 0.25 52.4128 0.25 52.4623C0.25 52.5117 0.25 52.5612 0.25 52.6108C0.25 52.6603 0.25 52.7098 0.25 52.7594C0.25 52.8089 0.25 52.8585 0.25 52.9081C0.25 52.9577 0.25 53.0073 0.25 53.0569C0.25 53.1066 0.25 53.1562 0.25 53.2059C0.25 53.2555 0.25 53.3052 0.25 53.3549C0.25 53.4046 0.25 53.4543 0.25 53.5041C0.25 53.5538 0.25 53.6036 0.25 53.6533C0.25 53.7031 0.25 53.7529 0.25 53.8027C0.25 53.8525 0.25 53.9023 0.25 53.9522C0.25 54.002 0.25 54.0519 0.25 54.1017C0.25 54.1516 0.25 54.2015 0.25 54.2514C0.25 54.3013 0.25 54.3512 0.25 54.4012C0.25 54.4511 0.25 54.5011 0.25 54.551C0.25 54.601 0.25 54.651 0.25 54.701C0.25 54.751 0.25 54.801 0.25 54.8511C0.25 54.9011 0.25 54.9511 0.25 55.0012C0.25 55.0513 0.25 55.1013 0.25 55.1514C0.25 55.2015 0.25 55.2516 0.25 55.3018C0.25 55.3519 0.25 55.402 0.25 55.4522C0.25 55.5023 0.25 55.5525 0.25 55.6026C0.25 55.6528 0.25 55.703 0.25 55.7532C0.25 55.8034 0.25 55.8536 0.25 55.9039C0.25 55.9541 0.25 56.0044 0.25 56.0546C0.25 56.1049 0.25 56.1552 0.25 56.2054C0.25 56.2557 0.25 56.306 0.25 56.3563C0.25 56.4066 0.25 56.457 0.25 56.5073C0.25 56.5576 0.25 56.608 0.25 56.6583C0.25 56.7087 0.25 56.7591 0.25 56.8095C0.25 56.8598 0.25 56.9102 0.25 56.9606C0.25 57.0111 0.25 57.0615 0.25 57.1119C0.25 57.1623 0.25 57.2128 0.25 57.2632C0.25 57.3137 0.25 57.3641 0.25 57.4146C0.25 57.4651 0.25 57.5156 0.25 57.5661C0.25 57.6166 0.25 57.6671 0.25 57.7176C0.25 57.7681 0.25 57.8186 0.25 57.8692C0.25 57.9197 0.25 57.9703 0.25 58.0208C0.25 58.0714 0.25 58.1219 0.25 58.1725C0.25 58.2231 0.25 58.2737 0.25 58.3243C0.25 58.3749 0.25 58.4255 0.25 58.4761C0.25 58.5267 0.25 58.5773 0.25 58.628C0.25 58.6786 0.25 58.7292 0.25 58.7799C0.25 58.8305 0.25 58.8812 0.25 58.9318C0.25 58.9825 0.25 59.0332 0.25 59.0839C0.25 59.1345 0.25 59.1852 0.25 59.2359C0.25 59.2866 0.25 59.3373 0.25 59.388C0.25 59.4387 0.25 59.4895 0.25 59.5402C0.25 59.5909 0.25 59.6416 0.25 59.6924C0.25 59.7431 0.25 59.7939 0.25 59.8446C0.25 59.8954 0.25 59.9461 0.25 59.9969C0.25 60.0477 0.25 60.0984 0.25 60.1492C0.25 60.2 0.25 60.2508 0.25 60.3016C0.25 60.3524 0.25 60.4032 0.25 60.454C0.25 60.5048 0.25 60.5556 0.25 60.6064C0.25 60.6572 0.25 60.708 0.25 60.7589C0.25 60.8097 0.25 60.8605 0.25 60.9113C0.25 60.9622 0.25 61.013 0.25 61.0639C0.25 61.1147 0.25 61.1655 0.25 61.2164C0.25 61.2672 0.25 61.3181 0.25 61.369C0.25 61.4198 0.25 61.4707 0.25 61.5216C0.25 61.5724 0.25 61.6233 0.25 61.6742C0.25 61.725 0.25 61.7759 0.25 61.8268C0.25 61.8777 0.25 61.9286 0.25 61.9795C0.25 62.0303 0.25 62.0812 0.25 62.1321C0.25 62.183 0.25 62.2339 0.25 62.2848C0.25 62.3357 0.25 62.3866 0.25 62.4375C0.25 62.4884 0.25 62.5393 0.25 62.5902C0.25 62.6412 0.25 62.6921 0.25 62.743C0.25 62.7939 0.25 62.8448 0.25 62.8957C0.25 62.9466 0.25 62.9975 0.25 63.0485C0.25 63.0994 0.25 63.1503 0.25 63.2012C0.25 63.2521 0.25 63.3031 0.25 63.354C0.25 63.4049 0.25 63.4558 0.25 63.5067C0.25 63.5577 0.25 63.6086 0.25 63.6595C0.25 63.7104 0.25 63.7613 0.25 63.8123C0.25 63.8632 0.25 63.9141 0.25 63.965C0.25 64.016 0.25 64.0669 0.25 64.1178C0.25 64.1687 0.25 64.2196 0.25 64.2706C0.25 64.3215 0.25 64.3724 0.25 64.4233C0.25 64.4742 0.25 64.5251 0.25 64.5761C0.25 64.627 0.25 64.6779 0.25 64.7288C0.25 64.7797 0.25 64.8306 0.25 64.8815C0.25 64.9324 0.25 64.9833 0.25 65.0342C0.25 65.0851 0.25 65.136 0.25 65.1869C0.25 65.2378 0.25 65.2887 0.25 65.3396C0.25 65.3905 0.25 65.4414 0.25 65.4923C0.25 65.5432 0.25 65.5941 0.25 65.645C0.25 65.6958 0.25 65.7467 0.25 65.7976C0.25 65.8485 0.25 65.8993 0.25 65.9502C0.25 66.0011 0.25 66.0519 0.25 66.1028C0.25 66.1536 0.25 66.2045 0.25 66.2554C0.25 66.3062 0.25 66.3571 0.25 66.4079C0.25 66.4587 0.25 66.5096 0.25 66.5604C0.25 66.6112 0.25 66.6621 0.25 66.7129C0.25 66.7637 0.25 66.8145 0.25 66.8653C0.25 66.9162 0.25 66.967 0.25 67.0178C0.25 67.0686 0.25 67.1194 0.25 67.1702C0.25 67.2209 0.25 67.2717 0.25 67.3225C0.25 67.3733 0.25 67.4241 0.25 67.4748C0.25 67.5256 0.25 67.5763 0.25 67.6271C0.25 67.6778 0.25 67.7286 0.25 67.7793C0.25 67.8301 0.25 67.8808 0.25 67.9315C0.25 67.9823 0.25 68.033 0.25 68.0837C0.25 68.1344 0.25 68.1851 0.25 68.2358C0.25 68.2865 0.25 68.3372 0.25 68.3878C0.25 68.4385 0.25 68.4892 0.25 68.5399C0.25 68.5905 0.25 68.6412 0.25 68.6918C0.25 68.7425 0.25 68.7931 0.25 68.8437C0.25 68.8944 0.25 68.945 0.25 68.9956C0.25 69.0462 0.25 69.0968 0.25 69.1474C0.25 69.198 0.25 69.2486 0.25 69.2992C0.25 69.3497 0.25 69.4003 0.25 69.4509C0.25 69.5014 0.25 69.552 0.25 69.6025C0.25 69.653 0.25 69.7035 0.25 69.7541C0.25 69.8046 0.25 69.8551 0.25 69.9056C0.25 69.9561 0.25 70.0066 0.25 70.057C0.25 70.1075 0.25 70.158 0.25 70.2084C0.25 70.2589 0.25 70.3093 0.25 70.3597C0.25 70.4102 0.25 70.4606 0.25 70.511C0.25 70.5614 0.25 70.6118 0.25 70.6622C0.25 70.7125 0.25 70.7629 0.25 70.8133C0.25 70.8636 0.25 70.914 0.25 70.9643C0.25 71.0146 0.25 71.065 0.25 71.1153C0.25 71.1656 0.25 71.2159 0.25 71.2662C0.25 71.3164 0.25 71.3667 0.25 71.417C0.25 71.4672 0.25 71.5175 0.25 71.5677C0.25 71.6179 0.25 71.6681 0.25 71.7184C0.25 71.7686 0.25 71.8187 0.25 71.8689C0.25 71.9191 0.25 71.9693 0.25 72.0194C0.25 72.0695 0.25 72.1197 0.25 72.1698C0.25 72.2199 0.25 72.27 0.25 72.3201C0.25 72.3702 0.25 72.4203 0.25 72.4703C0.25 72.5204 0.25 72.5704 0.25 72.6205C0.25 72.6705 0.25 72.7205 0.25 72.7705C0.25 72.8205 0.25 72.8705 0.25 72.9205C0.25 72.9704 0.25 73.0204 0.25 73.0703C0.25 73.1203 0.25 73.1702 0.25 73.2201C0.25 73.27 0.25 73.3199 0.25 73.3697C0.25 73.4196 0.25 73.4695 0.25 73.5193C0.25 73.5691 0.25 73.619 0.25 73.6688C0.25 73.7186 0.25 73.7683 0.25 73.8181C0.25 73.8679 0.25 73.9176 0.25 73.9674C0.25 74.0171 0.25 74.0668 0.25 74.1165C0.25 74.1662 0.25 74.2159 0.25 74.2656C0.25 74.3152 0.25 74.3649 0.25 74.4145C0.25 74.4641 0.25 74.5137 0.25 74.5633C0.25 74.6129 0.25 74.6625 0.25 74.712C0.25 74.7616 0.25 74.8111 0.25 74.8606C0.25 74.9101 0.25 74.9596 0.25 75.0091C0.25 75.0586 0.25 75.108 0.25 75.1575C0.25 75.2069 0.25 75.2563 0.25 75.3057C0.25 75.3551 0.25 75.4045 0.25 75.4538C0.25 75.5032 0.25 75.5525 0.25 75.6019C0.25 75.6512 0.25 75.7005 0.25 75.7497C0.25 75.799 0.25 75.8483 0.25 75.8975C0.25 75.9467 0.25 75.9959 0.25 76.0451C0.25 76.0943 0.25 76.1435 0.25 76.1926C0.25 76.2418 0.25 76.2909 0.25 76.34C0.25 76.3891 0.25 76.4382 0.25 76.4873C0.25 76.5363 0.25 76.5854 0.25 76.6344C0.25 76.6834 0.25 76.7324 0.25 76.7814C0.25 76.8303 0.25 76.8793 0.25 76.9282C0.25 76.9771 0.25 77.026 0.25 77.0749C0.25 77.1238 0.25 77.1726 0.25 77.2215C0.25 77.2703 0.25 77.3191 0.25 77.3679C0.25 77.4167 0.25 77.4655 0.25 77.5142C0.25 77.5629 0.25 77.6117 0.25 77.6603C0.25 77.709 0.25 77.7577 0.25 77.8064C0.25 77.855 0.25 77.9036 0.25 77.9522C0.25 78.0008 0.25 78.0494 0.25 78.0979C0.25 78.1465 0.25 78.195 0.25 78.2435C0.25 78.292 0.25 78.3404 0.25 78.3889C0.25 78.4373 0.25 78.4857 0.25 78.5341C0.25 78.5825 0.25 78.6309 0.25 78.6792C0.25 78.7276 0.25 78.7759 0.25 78.8242C0.25 78.8725 0.25 78.9207 0.25 78.969C0.25 79.0172 0.25 79.0654 0.25 79.1136C0.25 79.1618 0.25 79.2099 0.25 79.2581C0.25 79.3062 0.25 79.3543 0.25 79.4024C0.25 79.4504 0.25 79.4985 0.25 79.5465C0.25 79.5945 0.25 79.6425 0.25 79.6905C0.25 79.7385 0.25 79.7864 0.25 79.8343C0.25 79.8822 0.25 79.9301 0.25 79.978C0.25 80.0258 0.25 80.0736 0.25 80.1214C0.25 80.1692 0.25 80.217 0.25 80.2647C0.25 80.3125 0.25 80.3602 0.25 80.4079C0.25 80.4555 0.25 80.5032 0.25 80.5508C0.25 80.5984 0.25 80.646 0.25 80.6936C0.25 80.7412 0.25 80.7887 0.25 80.8362C0.25 80.8837 0.25 80.9312 0.25 80.9786C0.25 81.0261 0.25 81.0735 0.25 81.1209C0.25 81.1683 0.25 81.2156 0.25 81.2629C0.25 81.3102 0.25 81.3575 0.25 81.4048C0.25 81.4521 0.25 81.4993 0.25 81.5465C0.25 81.5937 0.25 81.6409 0.25 81.688C0.25 81.7351 0.25 81.7822 0.25 81.8293C0.25 81.8764 0.25 81.9234 0.25 81.9704C0.25 82.0175 0.25 82.0644 0.25 82.1114C0.25 82.1583 0.25 82.2052 0.25 82.2521C0.25 82.299 0.25 82.3459 0.25 82.3927C0.25 82.4395 0.25 82.4863 0.25 82.533C0.25 82.5798 0.25 82.6265 0.25 82.6732C0.25 82.7199 0.25 82.7665 0.25 82.8131C0.25 82.8597 0.25 82.9063 0.25 82.9529C0.25 82.9994 0.25 83.046 0.25 83.0924C0.25 83.1389 0.25 83.1854 0.25 83.2318C0.25 83.2782 0.25 83.3246 0.25 83.3709C0.25 83.4173 0.25 83.4636 0.25 83.5099C0.25 83.5561 0.25 83.6024 0.25 83.6486C0.25 83.6948 0.25 83.741 0.25 83.7871C0.25 83.8332 0.25 83.8793 0.25 83.9254C0.25 83.9715 0.25 84.0175 0.25 84.0635C0.25 84.1095 0.25 84.1554 0.25 84.2014C0.25 84.2473 0.25 84.2932 0.25 84.339C0.25 84.3849 0.25 84.4307 0.25 84.4765C0.25 84.5222 0.25 84.568 0.25 84.6137C0.25 84.6594 0.25 84.7051 0.25 84.7507C0.25 84.7963 0.25 84.8419 0.25 84.8875C0.25 84.933 0.25 84.9785 0.25 85.024C0.25 85.0695 0.25 85.1149 0.25 85.1603C0.25 85.2057 0.25 85.2511 0.25 85.2964C0.25 85.3418 0.25 85.3871 0.25 85.4323C0.25 85.4776 0.25 85.5228 0.25 85.568C0.25 85.6131 0.25 85.6583 0.25 85.7034C0.25 85.7485 0.25 85.7935 0.25 85.8385C0.25 85.8836 0.25 85.9285 0.25 85.9735C0.25 86.0184 0.25 86.0633 0.25 86.1082C0.25 86.153 0.25 86.1979 0.25 86.2426C0.25 86.2874 0.25 86.3322 0.25 86.3769C0.25 86.4216 0.25 86.4662 0.25 86.5108C0.25 86.5555 0.25 86.6 0.25 86.6446C0.25 86.6891 0.25 86.7336 0.25 86.7781C0.25 86.8225 0.25 86.8669 0.25 86.9113C0.25 86.9557 0.25 87 0.25 87.0443C0.25 87.0886 0.25 87.1329 0.25 87.1771C0.25 87.2213 0.25 87.2654 0.25 87.3096C0.25 87.3537 0.25 87.3978 0.25 87.4418C0.25 87.4859 0.25 87.5299 0.25 87.5738C0.25 87.6178 0.25 87.6617 0.25 87.7056C0.25 87.7494 0.25 87.7932 0.25 87.837C0.25 87.8808 0.25 87.9246 0.25 87.9682C0.25 88.0119 0.25 88.0556 0.25 88.0992C0.25 88.1428 0.25 88.1864 0.25 88.2299C0.25 88.2734 0.25 88.3169 0.25 88.3603C0.25 88.4038 0.25 88.4472 0.25 88.4905C0.25 88.5339 0.25 88.5772 0.25 88.6204C0.25 88.6637 0.25 88.7069 0.25 88.7501C0.25 88.7932 0.25 88.8363 0.25 88.8794C0.25 88.9225 0.25 88.9655 0.25 89.0085C0.25 89.0515 0.25 89.0944 0.25 89.1373C0.25 89.1802 0.25 89.2231 0.25 89.2659C0.25 89.3087 0.25 89.3514 0.25 89.3942C0.25 89.4369 0.25 89.4795 0.25 89.5222C0.25 89.5648 0.25 89.6073 0.25 89.6499C0.25 89.6924 0.25 89.7349 0.25 89.7773C0.25 89.8197 0.25 89.8621 0.25 89.9045C0.25 89.9468 0.25 89.9891 0.25 90.0313C0.25 90.0736 0.25 90.1158 0.25 90.1579C0.25 90.2001 0.25 90.2422 0.25 90.2842C0.25 90.3263 0.25 90.3683 0.25 90.4102C0.25 90.4522 0.25 90.4941 0.25 90.5359C0.25 90.5778 0.25 90.6196 0.25 90.6614C0.25 90.7031 0.25 90.7448 0.25 90.7865C0.25 90.8282 0.25 90.8698 0.25 90.9113C0.25 90.9529 0.25 90.9944 0.25 91.0359C0.25 91.0773 0.25 91.1188 0.25 91.1601C0.25 91.2015 0.25 91.2428 0.25 91.2841C0.25 91.3253 0.25 91.3666 0.25 91.4077C0.25 91.4489 0.25 91.49 0.25 91.5311C0.25 91.5721 0.25 91.6131 0.25 91.6541C0.25 91.6951 0.25 91.736 0.25 91.7768C0.25 91.8177 0.25 91.8585 0.25 91.8993C0.25 91.94 0.25 91.9807 0.25 92.0214C0.25 92.062 0.25 92.1026 0.25 92.1432C0.25 92.1837 0.25 92.2242 0.25 92.2647C0.25 92.3051 0.25 92.3455 0.25 92.3859C0.25 92.4262 0.25 92.4665 0.25 92.5067C0.25 92.547 0.25 92.5871 0.25 92.6273C0.25 92.6674 0.25 92.7075 0.25 92.7475C0.25 92.7875 0.25 92.8275 0.25 92.8674C0.25 92.9073 0.25 92.9472 0.25 92.987C0.25 93.0268 0.25 93.0666 0.25 93.1063C0.25 93.146 0.25 93.1856 0.25 93.2252C0.25 93.2648 0.25 93.3044 0.25 93.3438C0.25 93.3833 0.25 93.4228 0.25 93.4621C0.25 93.5015 0.25 93.5408 0.25 93.5801C0.25 93.6194 0.25 93.6586 0.25 93.6977C0.25 93.7369 0.25 93.776 0.25 93.815C0.25 93.8541 0.25 93.8931 0.25 93.932C0.25 93.9709 0.25 94.0098 0.25 94.0486C0.25 94.0874 0.25 94.1262 0.25 94.1649C0.25 94.2036 0.25 94.2423 0.25 94.2809C0.25 94.3195 0.25 94.358 0.25 94.3965C0.25 94.435 0.25 94.4734 0.25 94.5117C0.25 94.5501 0.25 94.5884 0.25 94.6267C0.25 94.6649 0.25 94.7031 0.25 94.7413C0.25 94.7794 0.25 94.8175 0.25 94.8555H0.75ZM0.75 25.827C0.75 20.9194 2.74272 14.6421 6.75978 9.59462C10.7715 4.55387 16.7925 0.75 24.8561 0.75V0.25C16.616 0.25 10.459 4.14355 6.36856 9.28326C2.28349 14.4162 0.25 20.8025 0.25 25.827H0.75ZM60.8917 15.8948V45.1947H61.3917V15.8948H60.8917ZM80.0301 45.4447C80.9595 45.4447 82.1212 45.0698 83.329 44.3915C84.5417 43.7105 85.8205 42.7128 86.9868 41.4404C89.3196 38.8957 91.2155 35.2372 91.2155 30.7931H90.7155C90.7155 35.0892 88.8834 38.6316 86.6183 41.1026C85.4857 42.3381 84.2481 43.302 83.0842 43.9556C81.9154 44.6119 80.8404 44.9447 80.0301 44.9447V45.4447ZM91.2155 30.7931C91.2155 26.3552 89.4488 22.5748 87.1795 19.9045C86.0447 18.5692 84.7811 17.5075 83.5432 16.7782C82.3087 16.0508 81.0839 15.6448 80.0301 15.6448V16.1448C80.9645 16.1448 82.1008 16.5086 83.2894 17.209C84.4747 17.9074 85.6964 18.9314 86.7985 20.2282C89.0026 22.8219 90.7155 26.4906 90.7155 30.7931H91.2155ZM80.0301 15.6448H61.1417V16.1448H80.0301V15.6448ZM61.1417 15.6448H44.2415V16.1448H61.1417V15.6448ZM44.2415 15.6448C39.161 15.6448 30.5708 20.299 30.5708 30.7931H31.0708C31.0708 20.6283 39.3808 16.1448 44.2415 16.1448V15.6448ZM30.5708 30.7931C30.5708 41.2831 38.6594 45.4447 43.2474 45.4447V44.9447C38.8883 44.9447 31.0708 40.9619 31.0708 30.7931H30.5708ZM43.2474 45.4447H61.1417V44.9447H43.2474V45.4447ZM61.1417 75.2378H44.2415V75.7378H61.1417V75.2378ZM44.2415 75.2378C42.0733 75.2378 38.7748 74.1232 36.0177 71.7236C33.2699 69.3321 31.0708 65.6738 31.0708 60.5896H30.5708C30.5708 65.8347 32.8454 69.6255 35.6895 72.1008C38.5243 74.568 41.9362 75.7378 44.2415 75.7378V75.2378ZM31.0708 60.5896C31.0708 55.4989 33.1512 51.7127 35.7179 49.1971C38.2951 46.6714 41.3422 45.4447 43.2474 45.4447V44.9447C41.1761 44.9447 38.0099 46.2508 35.368 48.84C32.7155 51.4395 30.5708 55.3508 30.5708 60.5896H31.0708ZM60.8917 75.4878V92.3725H61.3917V75.4878H60.8917ZM60.8917 92.3725C60.8917 99.1748 54.5543 105.034 47.721 105.034V105.534C54.8055 105.534 61.3917 99.4752 61.3917 92.3725H60.8917ZM47.721 105.034C42.7851 105.034 39.0208 103.945 36.2963 101.828C33.5743 99.7122 31.8584 96.5457 31.0666 92.3263L30.5751 92.4186C31.3831 96.7235 33.1466 100.013 35.9894 102.222C38.8297 104.43 42.7156 105.534 47.721 105.534V105.034ZM31.0666 92.3263C30.3369 88.4385 31.6735 84.2889 34.1859 81.1054C36.6985 77.9216 40.3598 75.7378 44.2415 75.7378V75.2378C40.1703 75.2378 36.3757 77.5235 33.7934 80.7956C31.2109 84.068 29.8136 88.3606 30.5751 92.4186L31.0666 92.3263ZM61.1417 45.4447H75.5565V44.9447H61.1417V45.4447ZM75.5565 45.4447H80.0301V44.9447H75.5565V45.4447ZM60.8917 45.1947V60.3412H61.3917V45.1947H60.8917ZM60.8917 60.3412V75.4878H61.3917V60.3412H60.8917ZM75.5565 44.9447C74.0135 44.9447 70.3596 45.7181 67.0869 48.0195C63.8 50.3308 60.8917 54.1891 60.8917 60.3412H61.3917C61.3917 54.3762 64.1996 50.6611 67.3745 48.4285C70.5636 46.186 74.1171 45.4447 75.5565 45.4447V44.9447ZM60.8917 60.3412C60.8917 62.9907 61.7229 66.83 63.9695 70.014C66.2244 73.2098 69.9017 75.7378 75.5565 75.7378V75.2378C70.0771 75.2378 66.547 72.7997 64.378 69.7258C62.2008 66.6401 61.3917 62.9061 61.3917 60.3412H60.8917ZM75.5565 75.7378C81.1888 75.7378 85.113 73.7252 87.6257 70.8091C90.1327 67.8995 91.2155 64.1132 91.2155 60.5896H90.7155C90.7155 64.0184 89.6608 67.6812 87.2469 70.4827C84.8387 73.2775 81.0585 75.2378 75.5565 75.2378V75.7378ZM91.2155 60.5896C91.2155 57.0642 90.0821 53.1561 87.5537 50.1248C85.0193 47.0863 81.0959 44.9447 75.5565 44.9447V45.4447C80.9526 45.4447 84.7335 47.5243 87.1698 50.4451C89.612 53.3731 90.7155 57.1624 90.7155 60.5896H91.2155ZM0.75 94.8555V25.827H0.25V94.8555H0.75Z" fill="black"/>
</svg>
