<svg width="123" height="123" viewBox="0 0 123 123" fill="none" xmlns="http://www.w3.org/2000/svg">
<path fill-rule="evenodd" clip-rule="evenodd" d="M24.8561 0.5H97.4273C104.883 0.5 121.883 8.24708 122.28 27.3168C122.678 46.3866 122.446 81.6126 122.28 96.8419C122.28 109.754 113.333 121.672 99.4155 121.672C85.4978 121.672 46.2298 122.5 25.5188 122.5C16.406 122.5 0.5 114.323 0.5 94.8555V25.827C0.5 15.8948 8.55242 0.5 24.8561 0.5ZM44.7386 32.2829H33.3062V86.4132H44.7386V32.2829ZM79.036 44.2015V27.3168H90.9655V83.9301C89.4743 85.4199 84.5037 87.4064 77.0477 87.4064H70.0888C63.627 86.9098 52.6916 82.4403 52.6916 66.0522C52.6916 51.154 64.1241 44.2015 71.083 44.2015H79.036Z" fill="#033F63"/>
<path d="M79.036 54.6303V77.4742H72.5741C68.1006 77.4742 64.6211 72.0115 64.6211 66.0522C64.6211 60.0929 68.1006 55.1269 72.5741 54.6303H79.036Z" fill="#033F63"/>
<path fill-rule="evenodd" clip-rule="evenodd" d="M79.036 27.3168V44.2015H71.083C64.1241 44.2015 52.6916 51.154 52.6916 66.0522C52.6916 82.4403 63.627 86.9098 70.0888 87.4064H77.0477C84.5037 87.4064 89.4743 85.4199 90.9655 83.9301V27.3168H79.036ZM79.036 77.4742V54.6303H72.5741C68.1006 55.1269 64.6211 60.0929 64.6211 66.0522C64.6211 72.0115 68.1006 77.4742 72.5741 77.4742H79.036Z" fill="#FF3463"/>
<path d="M33.3062 32.2829H44.7386V86.4132H33.3062V32.2829Z" fill="#FF3463"/>
<path d="M122.28 96.8419L122.03 96.8392V96.8419H122.28ZM33.3062 32.2829V32.0329H33.0562V32.2829H33.3062ZM44.7386 32.2829H44.9886V32.0329H44.7386V32.2829ZM44.7386 86.4132V86.6632H44.9886V86.4132H44.7386ZM33.3062 86.4132H33.0562V86.6632H33.3062V86.4132ZM79.036 27.3168V27.0668H78.786V27.3168H79.036ZM79.036 44.2015V44.4515H79.286V44.2015H79.036ZM70.0888 87.4064L70.0697 87.6556L70.0792 87.6564H70.0888V87.4064ZM90.9655 83.9301L91.1422 84.107L91.2155 84.0337V83.9301H90.9655ZM90.9655 27.3168H91.2155V27.0668H90.9655V27.3168ZM79.036 54.6303H79.286V54.3803H79.036V54.6303ZM79.036 77.4742V77.7242H79.286V77.4742H79.036ZM72.5741 54.6303V54.3803H72.5603L72.5466 54.3818L72.5741 54.6303ZM24.8561 0.75H97.4273V0.25H24.8561V0.75ZM97.4273 0.75C101.089 0.75 107.148 2.66097 112.342 6.95002C117.525 11.2308 121.833 17.8697 122.031 27.322L122.53 27.3116C122.33 17.6942 117.94 10.9247 112.66 6.5645C107.39 2.21257 101.222 0.25 97.4273 0.25V0.75ZM122.031 27.322C122.428 46.3873 122.196 81.6096 122.03 96.8392L122.53 96.8447C122.696 81.6156 122.928 46.3859 122.53 27.3116L122.031 27.322ZM122.03 96.8419C122.03 109.651 113.163 121.422 99.4155 121.422V121.922C113.504 121.922 122.53 109.857 122.53 96.8419H122.03ZM99.4155 121.422C92.4543 121.422 79.1552 121.629 65.011 121.836C50.8649 122.043 35.8721 122.25 25.5188 122.25V122.75C35.8765 122.75 50.8732 122.543 65.0183 122.336C79.1653 122.129 92.459 121.922 99.4155 121.922V121.422ZM25.5188 122.25C21.0262 122.25 14.8293 120.23 9.75677 115.79C4.69252 111.357 0.75 104.513 0.75 94.8555H0.25C0.25 104.665 4.26049 111.643 9.42745 116.166C14.5862 120.681 20.8987 122.75 25.5188 122.75V122.25ZM0.75 94.8555C0.75 94.8175 0.75 94.7794 0.75 94.7413C0.75 94.7031 0.75 94.6649 0.75 94.6267C0.75 94.5884 0.75 94.5501 0.75 94.5117C0.75 94.4734 0.75 94.435 0.75 94.3965C0.75 94.358 0.75 94.3195 0.75 94.2809C0.75 94.2423 0.75 94.2036 0.75 94.1649C0.75 94.1262 0.75 94.0874 0.75 94.0486C0.75 94.0098 0.75 93.9709 0.75 93.932C0.75 93.8931 0.75 93.8541 0.75 93.815C0.75 93.776 0.75 93.7369 0.75 93.6977C0.75 93.6586 0.75 93.6194 0.75 93.5801C0.75 93.5408 0.75 93.5015 0.75 93.4621C0.75 93.4228 0.75 93.3833 0.75 93.3438C0.75 93.3044 0.75 93.2648 0.75 93.2252C0.75 93.1856 0.75 93.146 0.75 93.1063C0.75 93.0666 0.75 93.0268 0.75 92.987C0.75 92.9472 0.75 92.9073 0.75 92.8674C0.75 92.8275 0.75 92.7875 0.75 92.7475C0.75 92.7075 0.75 92.6674 0.75 92.6273C0.75 92.5871 0.75 92.547 0.75 92.5067C0.75 92.4665 0.75 92.4262 0.75 92.3859C0.75 92.3455 0.75 92.3051 0.75 92.2647C0.75 92.2242 0.75 92.1837 0.75 92.1432C0.75 92.1026 0.75 92.062 0.75 92.0214C0.75 91.9807 0.75 91.94 0.75 91.8993C0.75 91.8585 0.75 91.8177 0.75 91.7768C0.75 91.736 0.75 91.6951 0.75 91.6541C0.75 91.6131 0.75 91.5721 0.75 91.5311C0.75 91.49 0.75 91.4489 0.75 91.4077C0.75 91.3666 0.75 91.3253 0.75 91.2841C0.75 91.2428 0.75 91.2015 0.75 91.1601C0.75 91.1188 0.75 91.0773 0.75 91.0359C0.75 90.9944 0.75 90.9529 0.75 90.9113C0.75 90.8698 0.75 90.8282 0.75 90.7865C0.75 90.7448 0.75 90.7031 0.75 90.6614C0.75 90.6196 0.75 90.5778 0.75 90.5359C0.75 90.4941 0.75 90.4522 0.75 90.4102C0.75 90.3683 0.75 90.3263 0.75 90.2842C0.75 90.2422 0.75 90.2001 0.75 90.1579C0.75 90.1158 0.75 90.0736 0.75 90.0313C0.75 89.9891 0.75 89.9468 0.75 89.9045C0.75 89.8621 0.75 89.8197 0.75 89.7773C0.75 89.7349 0.75 89.6924 0.75 89.6499C0.75 89.6073 0.75 89.5648 0.75 89.5222C0.75 89.4795 0.75 89.4369 0.75 89.3942C0.75 89.3514 0.75 89.3087 0.75 89.2659C0.75 89.2231 0.75 89.1802 0.75 89.1373C0.75 89.0944 0.75 89.0515 0.75 89.0085C0.75 88.9655 0.75 88.9225 0.75 88.8794C0.75 88.8363 0.75 88.7932 0.75 88.7501C0.75 88.7069 0.75 88.6637 0.75 88.6204C0.75 88.5772 0.75 88.5339 0.75 88.4905C0.75 88.4472 0.75 88.4038 0.75 88.3603C0.75 88.3169 0.75 88.2734 0.75 88.2299C0.75 88.1864 0.75 88.1428 0.75 88.0992C0.75 88.0556 0.75 88.0119 0.75 87.9682C0.75 87.9246 0.75 87.8808 0.75 87.837C0.75 87.7932 0.75 87.7494 0.75 87.7056C0.75 87.6617 0.75 87.6178 0.75 87.5738C0.75 87.5299 0.75 87.4859 0.75 87.4418C0.75 87.3978 0.75 87.3537 0.75 87.3096C0.75 87.2654 0.75 87.2213 0.75 87.1771C0.75 87.1329 0.75 87.0886 0.75 87.0443C0.75 87 0.75 86.9557 0.75 86.9113C0.75 86.8669 0.75 86.8225 0.75 86.7781C0.75 86.7336 0.75 86.6891 0.75 86.6446C0.75 86.6 0.75 86.5555 0.75 86.5108C0.75 86.4662 0.75 86.4216 0.75 86.3769C0.75 86.3322 0.75 86.2874 0.75 86.2426C0.75 86.1979 0.75 86.153 0.75 86.1082C0.75 86.0633 0.75 86.0184 0.75 85.9735C0.75 85.9285 0.75 85.8836 0.75 85.8385C0.75 85.7935 0.75 85.7485 0.75 85.7034C0.75 85.6583 0.75 85.6131 0.75 85.568C0.75 85.5228 0.75 85.4776 0.75 85.4323C0.75 85.3871 0.75 85.3418 0.75 85.2964C0.75 85.2511 0.75 85.2057 0.75 85.1603C0.75 85.1149 0.75 85.0695 0.75 85.024C0.75 84.9785 0.75 84.933 0.75 84.8875C0.75 84.8419 0.75 84.7963 0.75 84.7507C0.75 84.7051 0.75 84.6594 0.75 84.6137C0.75 84.568 0.75 84.5222 0.75 84.4765C0.75 84.4307 0.75 84.3849 0.75 84.339C0.75 84.2932 0.75 84.2473 0.75 84.2014C0.75 84.1554 0.75 84.1095 0.75 84.0635C0.75 84.0175 0.75 83.9715 0.75 83.9254C0.75 83.8793 0.75 83.8332 0.75 83.7871C0.75 83.741 0.75 83.6948 0.75 83.6486C0.75 83.6024 0.75 83.5561 0.75 83.5099C0.75 83.4636 0.75 83.4173 0.75 83.3709C0.75 83.3246 0.75 83.2782 0.75 83.2318C0.75 83.1854 0.75 83.1389 0.75 83.0924C0.75 83.046 0.75 82.9994 0.75 82.9529C0.75 82.9063 0.75 82.8597 0.75 82.8131C0.75 82.7665 0.75 82.7199 0.75 82.6732C0.75 82.6265 0.75 82.5798 0.75 82.533C0.75 82.4863 0.75 82.4395 0.75 82.3927C0.75 82.3459 0.75 82.299 0.75 82.2521C0.75 82.2052 0.75 82.1583 0.75 82.1114C0.75 82.0644 0.75 82.0175 0.75 81.9704C0.75 81.9234 0.75 81.8764 0.75 81.8293C0.75 81.7822 0.75 81.7351 0.75 81.688C0.75 81.6409 0.75 81.5937 0.75 81.5465C0.75 81.4993 0.75 81.4521 0.75 81.4048C0.75 81.3575 0.75 81.3102 0.75 81.2629C0.75 81.2156 0.75 81.1683 0.75 81.1209C0.75 81.0735 0.75 81.0261 0.75 80.9786C0.75 80.9312 0.75 80.8837 0.75 80.8362C0.75 80.7887 0.75 80.7412 0.75 80.6936C0.75 80.646 0.75 80.5984 0.75 80.5508C0.75 80.5032 0.75 80.4555 0.75 80.4079C0.75 80.3602 0.75 80.3125 0.75 80.2647C0.75 80.217 0.75 80.1692 0.75 80.1214C0.75 80.0736 0.75 80.0258 0.75 79.978C0.75 79.9301 0.75 79.8822 0.75 79.8343C0.75 79.7864 0.75 79.7385 0.75 79.6905C0.75 79.6425 0.75 79.5945 0.75 79.5465C0.75 79.4985 0.75 79.4504 0.75 79.4024C0.75 79.3543 0.75 79.3062 0.75 79.2581C0.75 79.2099 0.75 79.1618 0.75 79.1136C0.75 79.0654 0.75 79.0172 0.75 78.969C0.75 78.9207 0.75 78.8725 0.75 78.8242C0.75 78.7759 0.75 78.7276 0.75 78.6792C0.75 78.6309 0.75 78.5825 0.75 78.5341C0.75 78.4857 0.75 78.4373 0.75 78.3889C0.75 78.3404 0.75 78.292 0.75 78.2435C0.75 78.195 0.75 78.1465 0.75 78.0979C0.75 78.0494 0.75 78.0008 0.75 77.9522C0.75 77.9036 0.75 77.855 0.75 77.8064C0.75 77.7577 0.75 77.709 0.75 77.6603C0.75 77.6117 0.75 77.5629 0.75 77.5142C0.75 77.4655 0.75 77.4167 0.75 77.3679C0.75 77.3191 0.75 77.2703 0.75 77.2215C0.75 77.1726 0.75 77.1238 0.75 77.0749C0.75 77.026 0.75 76.9771 0.75 76.9282C0.75 76.8793 0.75 76.8303 0.75 76.7814C0.75 76.7324 0.75 76.6834 0.75 76.6344C0.75 76.5854 0.75 76.5363 0.75 76.4873C0.75 76.4382 0.75 76.3891 0.75 76.34C0.75 76.2909 0.75 76.2418 0.75 76.1926C0.75 76.1435 0.75 76.0943 0.75 76.0451C0.75 75.9959 0.75 75.9467 0.75 75.8975C0.75 75.8483 0.75 75.799 0.75 75.7497C0.75 75.7005 0.75 75.6512 0.75 75.6019C0.75 75.5525 0.75 75.5032 0.75 75.4538C0.75 75.4045 0.75 75.3551 0.75 75.3057C0.75 75.2563 0.75 75.2069 0.75 75.1575C0.75 75.108 0.75 75.0586 0.75 75.0091C0.75 74.9596 0.75 74.9101 0.75 74.8606C0.75 74.8111 0.75 74.7616 0.75 74.712C0.75 74.6625 0.75 74.6129 0.75 74.5633C0.75 74.5137 0.75 74.4641 0.75 74.4145C0.75 74.3649 0.75 74.3152 0.75 74.2656C0.75 74.2159 0.75 74.1662 0.75 74.1165C0.75 74.0668 0.75 74.0171 0.75 73.9674C0.75 73.9176 0.75 73.8679 0.75 73.8181C0.75 73.7683 0.75 73.7186 0.75 73.6688C0.75 73.619 0.75 73.5691 0.75 73.5193C0.75 73.4695 0.75 73.4196 0.75 73.3697C0.75 73.3199 0.75 73.27 0.75 73.2201C0.75 73.1702 0.75 73.1203 0.75 73.0703C0.75 73.0204 0.75 72.9704 0.75 72.9205C0.75 72.8705 0.75 72.8205 0.75 72.7705C0.75 72.7205 0.75 72.6705 0.75 72.6205C0.75 72.5704 0.75 72.5204 0.75 72.4703C0.75 72.4203 0.75 72.3702 0.75 72.3201C0.75 72.27 0.75 72.2199 0.75 72.1698C0.75 72.1197 0.75 72.0695 0.75 72.0194C0.75 71.9693 0.75 71.9191 0.75 71.8689C0.75 71.8187 0.75 71.7686 0.75 71.7184C0.75 71.6681 0.75 71.6179 0.75 71.5677C0.75 71.5175 0.75 71.4672 0.75 71.417C0.75 71.3667 0.75 71.3164 0.75 71.2662C0.75 71.2159 0.75 71.1656 0.75 71.1153C0.75 71.065 0.75 71.0146 0.75 70.9643C0.75 70.914 0.75 70.8636 0.75 70.8133C0.75 70.7629 0.75 70.7125 0.75 70.6622C0.75 70.6118 0.75 70.5614 0.75 70.511C0.75 70.4606 0.75 70.4102 0.75 70.3597C0.75 70.3093 0.75 70.2589 0.75 70.2084C0.75 70.158 0.75 70.1075 0.75 70.057C0.75 70.0066 0.75 69.9561 0.75 69.9056C0.75 69.8551 0.75 69.8046 0.75 69.7541C0.75 69.7035 0.75 69.653 0.75 69.6025C0.75 69.552 0.75 69.5014 0.75 69.4509C0.75 69.4003 0.75 69.3497 0.75 69.2992C0.75 69.2486 0.75 69.198 0.75 69.1474C0.75 69.0968 0.75 69.0462 0.75 68.9956C0.75 68.945 0.75 68.8944 0.75 68.8437C0.75 68.7931 0.75 68.7425 0.75 68.6918C0.75 68.6412 0.75 68.5905 0.75 68.5399C0.75 68.4892 0.75 68.4385 0.75 68.3878C0.75 68.3372 0.75 68.2865 0.75 68.2358C0.75 68.1851 0.75 68.1344 0.75 68.0837C0.75 68.033 0.75 67.9823 0.75 67.9315C0.75 67.8808 0.75 67.8301 0.75 67.7793C0.75 67.7286 0.75 67.6778 0.75 67.6271C0.75 67.5763 0.75 67.5256 0.75 67.4748C0.75 67.4241 0.75 67.3733 0.75 67.3225C0.75 67.2717 0.75 67.2209 0.75 67.1702C0.75 67.1194 0.75 67.0686 0.75 67.0178C0.75 66.967 0.75 66.9162 0.75 66.8653C0.75 66.8145 0.75 66.7637 0.75 66.7129C0.75 66.6621 0.75 66.6112 0.75 66.5604C0.75 66.5096 0.75 66.4587 0.75 66.4079C0.75 66.3571 0.75 66.3062 0.75 66.2554C0.75 66.2045 0.75 66.1536 0.75 66.1028C0.75 66.0519 0.75 66.0011 0.75 65.9502C0.75 65.8993 0.75 65.8485 0.75 65.7976C0.75 65.7467 0.75 65.6958 0.75 65.645C0.75 65.5941 0.75 65.5432 0.75 65.4923C0.75 65.4414 0.75 65.3905 0.75 65.3396C0.75 65.2887 0.75 65.2378 0.75 65.1869C0.75 65.136 0.75 65.0851 0.75 65.0342C0.75 64.9833 0.75 64.9324 0.75 64.8815C0.75 64.8306 0.75 64.7797 0.75 64.7288C0.75 64.6779 0.75 64.627 0.75 64.5761C0.75 64.5251 0.75 64.4742 0.75 64.4233C0.75 64.3724 0.75 64.3215 0.75 64.2706C0.75 64.2196 0.75 64.1687 0.75 64.1178C0.75 64.0669 0.75 64.016 0.75 63.965C0.75 63.9141 0.75 63.8632 0.75 63.8123C0.75 63.7613 0.75 63.7104 0.75 63.6595C0.75 63.6086 0.75 63.5577 0.75 63.5067C0.75 63.4558 0.75 63.4049 0.75 63.354C0.75 63.3031 0.75 63.2521 0.75 63.2012C0.75 63.1503 0.75 63.0994 0.75 63.0485C0.75 62.9975 0.75 62.9466 0.75 62.8957C0.75 62.8448 0.75 62.7939 0.75 62.743C0.75 62.6921 0.75 62.6412 0.75 62.5902C0.75 62.5393 0.75 62.4884 0.75 62.4375C0.75 62.3866 0.75 62.3357 0.75 62.2848C0.75 62.2339 0.75 62.183 0.75 62.1321C0.75 62.0812 0.75 62.0303 0.75 61.9795C0.75 61.9286 0.75 61.8777 0.75 61.8268C0.75 61.7759 0.75 61.725 0.75 61.6742C0.75 61.6233 0.75 61.5724 0.75 61.5216C0.75 61.4707 0.75 61.4198 0.75 61.369C0.75 61.3181 0.75 61.2672 0.75 61.2164C0.75 61.1655 0.75 61.1147 0.75 61.0639C0.75 61.013 0.75 60.9622 0.75 60.9113C0.75 60.8605 0.75 60.8097 0.75 60.7589C0.75 60.708 0.75 60.6572 0.75 60.6064C0.75 60.5556 0.75 60.5048 0.75 60.454C0.75 60.4032 0.75 60.3524 0.75 60.3016C0.75 60.2508 0.75 60.2 0.75 60.1492C0.75 60.0984 0.75 60.0477 0.75 59.9969C0.75 59.9461 0.75 59.8954 0.75 59.8446C0.75 59.7939 0.75 59.7431 0.75 59.6924C0.75 59.6416 0.75 59.5909 0.75 59.5402C0.75 59.4895 0.75 59.4387 0.75 59.388C0.75 59.3373 0.75 59.2866 0.75 59.2359C0.75 59.1852 0.75 59.1345 0.75 59.0839C0.75 59.0332 0.75 58.9825 0.75 58.9318C0.75 58.8812 0.75 58.8305 0.75 58.7799C0.75 58.7292 0.75 58.6786 0.75 58.628C0.75 58.5773 0.75 58.5267 0.75 58.4761C0.75 58.4255 0.75 58.3749 0.75 58.3243C0.75 58.2737 0.75 58.2231 0.75 58.1725C0.75 58.1219 0.75 58.0714 0.75 58.0208C0.75 57.9703 0.75 57.9197 0.75 57.8692C0.75 57.8186 0.75 57.7681 0.75 57.7176C0.75 57.6671 0.75 57.6166 0.75 57.5661C0.75 57.5156 0.75 57.4651 0.75 57.4146C0.75 57.3641 0.75 57.3137 0.75 57.2632C0.75 57.2128 0.75 57.1623 0.75 57.1119C0.75 57.0615 0.75 57.0111 0.75 56.9606C0.75 56.9102 0.75 56.8598 0.75 56.8095C0.75 56.7591 0.75 56.7087 0.75 56.6583C0.75 56.608 0.75 56.5576 0.75 56.5073C0.75 56.457 0.75 56.4066 0.75 56.3563C0.75 56.306 0.75 56.2557 0.75 56.2054C0.75 56.1552 0.75 56.1049 0.75 56.0546C0.75 56.0044 0.75 55.9541 0.75 55.9039C0.75 55.8536 0.75 55.8034 0.75 55.7532C0.75 55.703 0.75 55.6528 0.75 55.6026C0.75 55.5525 0.75 55.5023 0.75 55.4522C0.75 55.402 0.75 55.3519 0.75 55.3018C0.75 55.2516 0.75 55.2015 0.75 55.1514C0.75 55.1013 0.75 55.0513 0.75 55.0012C0.75 54.9511 0.75 54.9011 0.75 54.8511C0.75 54.801 0.75 54.751 0.75 54.701C0.75 54.651 0.75 54.601 0.75 54.551C0.75 54.5011 0.75 54.4511 0.75 54.4012C0.75 54.3512 0.75 54.3013 0.75 54.2514C0.75 54.2015 0.75 54.1516 0.75 54.1017C0.75 54.0519 0.75 54.002 0.75 53.9522C0.75 53.9023 0.75 53.8525 0.75 53.8027C0.75 53.7529 0.75 53.7031 0.75 53.6533C0.75 53.6036 0.75 53.5538 0.75 53.5041C0.75 53.4543 0.75 53.4046 0.75 53.3549C0.75 53.3052 0.75 53.2555 0.75 53.2059C0.75 53.1562 0.75 53.1066 0.75 53.0569C0.75 53.0073 0.75 52.9577 0.75 52.9081C0.75 52.8585 0.75 52.8089 0.75 52.7594C0.75 52.7098 0.75 52.6603 0.75 52.6108C0.75 52.5612 0.75 52.5117 0.75 52.4623C0.75 52.4128 0.75 52.3633 0.75 52.3139C0.75 52.2645 0.75 52.215 0.75 52.1656C0.75 52.1162 0.75 52.0669 0.75 52.0175C0.75 51.9681 0.75 51.9188 0.75 51.8695C0.75 51.8202 0.75 51.7709 0.75 51.7216C0.75 51.6723 0.75 51.623 0.75 51.5738C0.75 51.5246 0.75 51.4754 0.75 51.4262C0.75 51.377 0.75 51.3278 0.75 51.2786C0.75 51.2295 0.75 51.1804 0.75 51.1313C0.75 51.0822 0.75 51.0331 0.75 50.984C0.75 50.9349 0.75 50.8859 0.75 50.8369C0.75 50.7879 0.75 50.7389 0.75 50.6899C0.75 50.6409 0.75 50.592 0.75 50.543C0.75 50.4941 0.75 50.4452 0.75 50.3963C0.75 50.3474 0.75 50.2986 0.75 50.2497C0.75 50.2009 0.75 50.1521 0.75 50.1033C0.75 50.0545 0.75 50.0057 0.75 49.957C0.75 49.9082 0.75 49.8595 0.75 49.8108C0.75 49.7621 0.75 49.7134 0.75 49.6648C0.75 49.6161 0.75 49.5675 0.75 49.5189C0.75 49.4703 0.75 49.4218 0.75 49.3732C0.75 49.3247 0.75 49.2761 0.75 49.2276C0.75 49.1791 0.75 49.1307 0.75 49.0822C0.75 49.0338 0.75 48.9853 0.75 48.9369C0.75 48.8885 0.75 48.8402 0.75 48.7918C0.75 48.7435 0.75 48.6952 0.75 48.6469C0.75 48.5986 0.75 48.5503 0.75 48.5021C0.75 48.4538 0.75 48.4056 0.75 48.3574C0.75 48.3092 0.75 48.2611 0.75 48.2129C0.75 48.1648 0.75 48.1167 0.75 48.0686C0.75 48.0205 0.75 47.9725 0.75 47.9245C0.75 47.8764 0.75 47.8284 0.75 47.7805C0.75 47.7325 0.75 47.6846 0.75 47.6366C0.75 47.5887 0.75 47.5408 0.75 47.493C0.75 47.4451 0.75 47.3973 0.75 47.3495C0.75 47.3017 0.75 47.2539 0.75 47.2062C0.75 47.1584 0.75 47.1107 0.75 47.063C0.75 47.0153 0.75 46.9677 0.75 46.9201C0.75 46.8724 0.75 46.8248 0.75 46.7773C0.75 46.7297 0.75 46.6821 0.75 46.6346C0.75 46.5871 0.75 46.5396 0.75 46.4922C0.75 46.4447 0.75 46.3973 0.75 46.3499C0.75 46.3025 0.75 46.2552 0.75 46.2079C0.75 46.1605 0.75 46.1132 0.75 46.066C0.75 46.0187 0.75 45.9715 0.75 45.9243C0.75 45.8771 0.75 45.8299 0.75 45.7827C0.75 45.7356 0.75 45.6885 0.75 45.6414C0.75 45.5943 0.75 45.5473 0.75 45.5003C0.75 45.4532 0.75 45.4063 0.75 45.3593C0.75 45.3124 0.75 45.2654 0.75 45.2185C0.75 45.1717 0.75 45.1248 0.75 45.078C0.75 45.0312 0.75 44.9844 0.75 44.9376C0.75 44.8909 0.75 44.8441 0.75 44.7974C0.75 44.7507 0.75 44.7041 0.75 44.6575C0.75 44.6108 0.75 44.5642 0.75 44.5177C0.75 44.4711 0.75 44.4246 0.75 44.3781C0.75 44.3316 0.75 44.2852 0.75 44.2388C0.75 44.1923 0.75 44.146 0.75 44.0996C0.75 44.0532 0.75 44.0069 0.75 43.9606C0.75 43.9144 0.75 43.8681 0.75 43.8219C0.75 43.7757 0.75 43.7295 0.75 43.6834C0.75 43.6372 0.75 43.5911 0.75 43.545C0.75 43.499 0.75 43.4529 0.75 43.4069C0.75 43.3609 0.75 43.315 0.75 43.269C0.75 43.2231 0.75 43.1772 0.75 43.1314C0.75 43.0855 0.75 43.0397 0.75 42.9939C0.75 42.9481 0.75 42.9024 0.75 42.8567C0.75 42.8109 0.75 42.7653 0.75 42.7196C0.75 42.674 0.75 42.6284 0.75 42.5828C0.75 42.5373 0.75 42.4918 0.75 42.4463C0.75 42.4008 0.75 42.3553 0.75 42.3099C0.75 42.2645 0.75 42.2191 0.75 42.1738C0.75 42.1285 0.75 42.0832 0.75 42.0379C0.75 41.9927 0.75 41.9474 0.75 41.9022C0.75 41.8571 0.75 41.8119 0.75 41.7668C0.75 41.7217 0.75 41.6767 0.75 41.6316C0.75 41.5866 0.75 41.5416 0.75 41.4967C0.75 41.4517 0.75 41.4068 0.75 41.3619C0.75 41.3171 0.75 41.2722 0.75 41.2275C0.75 41.1827 0.75 41.1379 0.75 41.0932C0.75 41.0485 0.75 41.0038 0.75 40.9592C0.75 40.9146 0.75 40.87 0.75 40.8255C0.75 40.7809 0.75 40.7364 0.75 40.6919C0.75 40.6475 0.75 40.603 0.75 40.5587C0.75 40.5143 0.75 40.4699 0.75 40.4256C0.75 40.3813 0.75 40.3371 0.75 40.2929C0.75 40.2487 0.75 40.2045 0.75 40.1603C0.75 40.1162 0.75 40.0721 0.75 40.0281C0.75 39.984 0.75 39.94 0.75 39.8961C0.75 39.8521 0.75 39.8082 0.75 39.7643C0.75 39.7204 0.75 39.6766 0.75 39.6328C0.75 39.589 0.75 39.5453 0.75 39.5015C0.75 39.4578 0.75 39.4142 0.75 39.3706C0.75 39.3269 0.75 39.2834 0.75 39.2398C0.75 39.1963 0.75 39.1528 0.75 39.1094C0.75 39.0659 0.75 39.0225 0.75 38.9792C0.75 38.9358 0.75 38.8925 0.75 38.8493C0.75 38.806 0.75 38.7628 0.75 38.7196C0.75 38.6764 0.75 38.6333 0.75 38.5902C0.75 38.5471 0.75 38.5041 0.75 38.4611C0.75 38.4181 0.75 38.3751 0.75 38.3322C0.75 38.2893 0.75 38.2465 0.75 38.2037C0.75 38.1609 0.75 38.1181 0.75 38.0754C0.75 38.0326 0.75 37.99 0.75 37.9473C0.75 37.9047 0.75 37.8621 0.75 37.8196C0.75 37.7771 0.75 37.7346 0.75 37.6921C0.75 37.6497 0.75 37.6073 0.75 37.565C0.75 37.5226 0.75 37.4803 0.75 37.4381C0.75 37.3958 0.75 37.3536 0.75 37.3115C0.75 37.2693 0.75 37.2272 0.75 37.1851C0.75 37.1431 0.75 37.1011 0.75 37.0591C0.75 37.0171 0.75 36.9752 0.75 36.9334C0.75 36.8915 0.75 36.8497 0.75 36.8079C0.75 36.7661 0.75 36.7244 0.75 36.6827C0.75 36.6411 0.75 36.5995 0.75 36.5579C0.75 36.5163 0.75 36.4748 0.75 36.4333C0.75 36.3918 0.75 36.3504 0.75 36.309C0.75 36.2677 0.75 36.2263 0.75 36.1851C0.75 36.1438 0.75 36.1026 0.75 36.0614C0.75 36.0202 0.75 35.9791 0.75 35.938C0.75 35.8969 0.75 35.8559 0.75 35.815C0.75 35.774 0.75 35.7331 0.75 35.6922C0.75 35.6513 0.75 35.6105 0.75 35.5697C0.75 35.529 0.75 35.4883 0.75 35.4476C0.75 35.4069 0.75 35.3663 0.75 35.3258C0.75 35.2852 0.75 35.2447 0.75 35.2042C0.75 35.1638 0.75 35.1234 0.75 35.083C0.75 35.0427 0.75 35.0024 0.75 34.9621C0.75 34.9219 0.75 34.8817 0.75 34.8416C0.75 34.8014 0.75 34.7613 0.75 34.7213C0.75 34.6813 0.75 34.6413 0.75 34.6014C0.75 34.5614 0.75 34.5216 0.75 34.4817C0.75 34.4419 0.75 34.4021 0.75 34.3624C0.75 34.3227 0.75 34.2831 0.75 34.2435C0.75 34.2039 0.75 34.1643 0.75 34.1248C0.75 34.0853 0.75 34.0459 0.75 34.0065C0.75 33.9671 0.75 33.9278 0.75 33.8885C0.75 33.8492 0.75 33.81 0.75 33.7708C0.75 33.7317 0.75 33.6926 0.75 33.6535C0.75 33.6145 0.75 33.5755 0.75 33.5365C0.75 33.4976 0.75 33.4587 0.75 33.4199C0.75 33.381 0.75 33.3423 0.75 33.3035C0.75 33.2648 0.75 33.2262 0.75 33.1876C0.75 33.1489 0.75 33.1104 0.75 33.0719C0.75 33.0334 0.75 32.995 0.75 32.9566C0.75 32.9182 0.75 32.8799 0.75 32.8416C0.75 32.8034 0.75 32.7652 0.75 32.727C0.75 32.6889 0.75 32.6508 0.75 32.6128C0.75 32.5747 0.75 32.5368 0.75 32.4988C0.75 32.4609 0.75 32.4231 0.75 32.3853C0.75 32.3475 0.75 32.3097 0.75 32.272C0.75 32.2344 0.75 32.1967 0.75 32.1592C0.75 32.1216 0.75 32.0841 0.75 32.0467C0.75 32.0092 0.75 31.9718 0.75 31.9345C0.75 31.8972 0.75 31.8599 0.75 31.8227C0.75 31.7855 0.75 31.7483 0.75 31.7112C0.75 31.6742 0.75 31.6371 0.75 31.6002C0.75 31.5632 0.75 31.5263 0.75 31.4894C0.75 31.4526 0.75 31.4158 0.75 31.3791C0.75 31.3424 0.75 31.3057 0.75 31.2691C0.75 31.2325 0.75 31.1959 0.75 31.1595C0.75 31.123 0.75 31.0866 0.75 31.0502C0.75 31.0138 0.75 30.9775 0.75 30.9413C0.75 30.9051 0.75 30.8689 0.75 30.8328C0.75 30.7967 0.75 30.7606 0.75 30.7246C0.75 30.6887 0.75 30.6527 0.75 30.6169C0.75 30.581 0.75 30.5452 0.75 30.5095C0.75 30.4737 0.75 30.4381 0.75 30.4025C0.75 30.3668 0.75 30.3313 0.75 30.2958C0.75 30.2603 0.75 30.2249 0.75 30.1896C0.75 30.1542 0.75 30.1189 0.75 30.0837C0.75 30.0484 0.75 30.0133 0.75 29.9782C0.75 29.9431 0.75 29.908 0.75 29.8731C0.75 29.8381 0.75 29.8032 0.75 29.7683C0.75 29.7335 0.75 29.6987 0.75 29.664C0.75 29.6293 0.75 29.5947 0.75 29.5601C0.75 29.5255 0.75 29.491 0.75 29.4565C0.75 29.4221 0.75 29.3877 0.75 29.3534C0.75 29.319 0.75 29.2848 0.75 29.2506C0.75 29.2164 0.75 29.1823 0.75 29.1482C0.75 29.1142 0.75 29.0802 0.75 29.0462C0.75 29.0123 0.75 28.9785 0.75 28.9447C0.75 28.9109 0.75 28.8772 0.75 28.8435C0.75 28.8098 0.75 28.7763 0.75 28.7427C0.75 28.7092 0.75 28.6758 0.75 28.6424C0.75 28.609 0.75 28.5757 0.75 28.5424C0.75 28.5092 0.75 28.476 0.75 28.4429C0.75 28.4097 0.75 28.3767 0.75 28.3437C0.75 28.3107 0.75 28.2778 0.75 28.245C0.75 28.2121 0.75 28.1794 0.75 28.1467C0.75 28.114 0.75 28.0813 0.75 28.0488C0.75 28.0162 0.75 27.9837 0.75 27.9513C0.75 27.9188 0.75 27.8865 0.75 27.8542C0.75 27.8219 0.75 27.7897 0.75 27.7575C0.75 27.7254 0.75 27.6933 0.75 27.6613C0.75 27.6293 0.75 27.5973 0.75 27.5655C0.75 27.5336 0.75 27.5018 0.75 27.4701C0.75 27.4383 0.75 27.4067 0.75 27.3751C0.75 27.3435 0.75 27.312 0.75 27.2806C0.75 27.2491 0.75 27.2177 0.75 27.1864C0.75 27.1551 0.75 27.1239 0.75 27.0927C0.75 27.0616 0.75 27.0305 0.75 26.9995C0.75 26.9685 0.75 26.9375 0.75 26.9067C0.75 26.8758 0.75 26.845 0.75 26.8143C0.75 26.7835 0.75 26.7529 0.75 26.7223C0.75 26.6917 0.75 26.6612 0.75 26.6308C0.75 26.6003 0.75 26.57 0.75 26.5397C0.75 26.5094 0.75 26.4792 0.75 26.4491C0.75 26.4189 0.75 26.3888 0.75 26.3589C0.75 26.3289 0.75 26.2989 0.75 26.2691C0.75 26.2393 0.75 26.2095 0.75 26.1798C0.75 26.1501 0.75 26.1205 0.75 26.0909C0.75 26.0614 0.75 26.0319 0.75 26.0025C0.75 25.9731 0.75 25.9438 0.75 25.9145C0.75 25.8853 0.75 25.8561 0.75 25.827H0.25C0.25 25.8561 0.25 25.8853 0.25 25.9145C0.25 25.9438 0.25 25.9731 0.25 26.0025C0.25 26.0319 0.25 26.0614 0.25 26.0909C0.25 26.1205 0.25 26.1501 0.25 26.1798C0.25 26.2095 0.25 26.2393 0.25 26.2691C0.25 26.2989 0.25 26.3289 0.25 26.3589C0.25 26.3888 0.25 26.4189 0.25 26.4491C0.25 26.4792 0.25 26.5094 0.25 26.5397C0.25 26.57 0.25 26.6003 0.25 26.6308C0.25 26.6612 0.25 26.6917 0.25 26.7223C0.25 26.7529 0.25 26.7835 0.25 26.8143C0.25 26.845 0.25 26.8758 0.25 26.9067C0.25 26.9375 0.25 26.9685 0.25 26.9995C0.25 27.0305 0.25 27.0616 0.25 27.0927C0.25 27.1239 0.25 27.1551 0.25 27.1864C0.25 27.2177 0.25 27.2491 0.25 27.2806C0.25 27.312 0.25 27.3435 0.25 27.3751C0.25 27.4067 0.25 27.4383 0.25 27.4701C0.25 27.5018 0.25 27.5336 0.25 27.5655C0.25 27.5973 0.25 27.6293 0.25 27.6613C0.25 27.6933 0.25 27.7254 0.25 27.7575C0.25 27.7897 0.25 27.8219 0.25 27.8542C0.25 27.8865 0.25 27.9188 0.25 27.9513C0.25 27.9837 0.25 28.0162 0.25 28.0488C0.25 28.0813 0.25 28.114 0.25 28.1467C0.25 28.1794 0.25 28.2121 0.25 28.245C0.25 28.2778 0.25 28.3107 0.25 28.3437C0.25 28.3767 0.25 28.4097 0.25 28.4429C0.25 28.476 0.25 28.5092 0.25 28.5424C0.25 28.5757 0.25 28.609 0.25 28.6424C0.25 28.6758 0.25 28.7092 0.25 28.7427C0.25 28.7763 0.25 28.8098 0.25 28.8435C0.25 28.8772 0.25 28.9109 0.25 28.9447C0.25 28.9785 0.25 29.0123 0.25 29.0462C0.25 29.0802 0.25 29.1142 0.25 29.1482C0.25 29.1823 0.25 29.2164 0.25 29.2506C0.25 29.2848 0.25 29.319 0.25 29.3534C0.25 29.3877 0.25 29.4221 0.25 29.4565C0.25 29.491 0.25 29.5255 0.25 29.5601C0.25 29.5947 0.25 29.6293 0.25 29.664C0.25 29.6987 0.25 29.7335 0.25 29.7683C0.25 29.8032 0.25 29.8381 0.25 29.8731C0.25 29.908 0.25 29.9431 0.25 29.9782C0.25 30.0133 0.25 30.0484 0.25 30.0837C0.25 30.1189 0.25 30.1542 0.25 30.1896C0.25 30.2249 0.25 30.2603 0.25 30.2958C0.25 30.3313 0.25 30.3668 0.25 30.4025C0.25 30.4381 0.25 30.4737 0.25 30.5095C0.25 30.5452 0.25 30.581 0.25 30.6169C0.25 30.6527 0.25 30.6887 0.25 30.7246C0.25 30.7606 0.25 30.7967 0.25 30.8328C0.25 30.8689 0.25 30.9051 0.25 30.9413C0.25 30.9775 0.25 31.0138 0.25 31.0502C0.25 31.0866 0.25 31.123 0.25 31.1595C0.25 31.1959 0.25 31.2325 0.25 31.2691C0.25 31.3057 0.25 31.3424 0.25 31.3791C0.25 31.4158 0.25 31.4526 0.25 31.4894C0.25 31.5263 0.25 31.5632 0.25 31.6002C0.25 31.6371 0.25 31.6742 0.25 31.7112C0.25 31.7483 0.25 31.7855 0.25 31.8227C0.25 31.8599 0.25 31.8972 0.25 31.9345C0.25 31.9718 0.25 32.0092 0.25 32.0467C0.25 32.0841 0.25 32.1216 0.25 32.1592C0.25 32.1967 0.25 32.2344 0.25 32.272C0.25 32.3097 0.25 32.3475 0.25 32.3853C0.25 32.4231 0.25 32.4609 0.25 32.4988C0.25 32.5368 0.25 32.5747 0.25 32.6128C0.25 32.6508 0.25 32.6889 0.25 32.727C0.25 32.7652 0.25 32.8034 0.25 32.8416C0.25 32.8799 0.25 32.9182 0.25 32.9566C0.25 32.995 0.25 33.0334 0.25 33.0719C0.25 33.1104 0.25 33.1489 0.25 33.1876C0.25 33.2262 0.25 33.2648 0.25 33.3035C0.25 33.3423 0.25 33.381 0.25 33.4199C0.25 33.4587 0.25 33.4976 0.25 33.5365C0.25 33.5755 0.25 33.6145 0.25 33.6535C0.25 33.6926 0.25 33.7317 0.25 33.7708C0.25 33.81 0.25 33.8492 0.25 33.8885C0.25 33.9278 0.25 33.9671 0.25 34.0065C0.25 34.0459 0.25 34.0853 0.25 34.1248C0.25 34.1643 0.25 34.2039 0.25 34.2435C0.25 34.2831 0.25 34.3227 0.25 34.3624C0.25 34.4021 0.25 34.4419 0.25 34.4817C0.25 34.5216 0.25 34.5614 0.25 34.6014C0.25 34.6413 0.25 34.6813 0.25 34.7213C0.25 34.7613 0.25 34.8014 0.25 34.8416C0.25 34.8817 0.25 34.9219 0.25 34.9621C0.25 35.0024 0.25 35.0427 0.25 35.083C0.25 35.1234 0.25 35.1638 0.25 35.2042C0.25 35.2447 0.25 35.2852 0.25 35.3258C0.25 35.3663 0.25 35.4069 0.25 35.4476C0.25 35.4883 0.25 35.529 0.25 35.5697C0.25 35.6105 0.25 35.6513 0.25 35.6922C0.25 35.7331 0.25 35.774 0.25 35.815C0.25 35.8559 0.25 35.8969 0.25 35.938C0.25 35.9791 0.25 36.0202 0.25 36.0614C0.25 36.1026 0.25 36.1438 0.25 36.1851C0.25 36.2263 0.25 36.2677 0.25 36.309C0.25 36.3504 0.25 36.3918 0.25 36.4333C0.25 36.4748 0.25 36.5163 0.25 36.5579C0.25 36.5995 0.25 36.6411 0.25 36.6827C0.25 36.7244 0.25 36.7661 0.25 36.8079C0.25 36.8497 0.25 36.8915 0.25 36.9334C0.25 36.9752 0.25 37.0171 0.25 37.0591C0.25 37.1011 0.25 37.1431 0.25 37.1851C0.25 37.2272 0.25 37.2693 0.25 37.3115C0.25 37.3536 0.25 37.3958 0.25 37.4381C0.25 37.4803 0.25 37.5226 0.25 37.565C0.25 37.6073 0.25 37.6497 0.25 37.6921C0.25 37.7346 0.25 37.7771 0.25 37.8196C0.25 37.8621 0.25 37.9047 0.25 37.9473C0.25 37.99 0.25 38.0326 0.25 38.0754C0.25 38.1181 0.25 38.1609 0.25 38.2037C0.25 38.2465 0.25 38.2893 0.25 38.3322C0.25 38.3751 0.25 38.4181 0.25 38.4611C0.25 38.5041 0.25 38.5471 0.25 38.5902C0.25 38.6333 0.25 38.6764 0.25 38.7196C0.25 38.7628 0.25 38.806 0.25 38.8493C0.25 38.8925 0.25 38.9358 0.25 38.9792C0.25 39.0225 0.25 39.0659 0.25 39.1094C0.25 39.1528 0.25 39.1963 0.25 39.2398C0.25 39.2834 0.25 39.3269 0.25 39.3706C0.25 39.4142 0.25 39.4578 0.25 39.5015C0.25 39.5453 0.25 39.589 0.25 39.6328C0.25 39.6766 0.25 39.7204 0.25 39.7643C0.25 39.8082 0.25 39.8521 0.25 39.8961C0.25 39.94 0.25 39.984 0.25 40.0281C0.25 40.0721 0.25 40.1162 0.25 40.1603C0.25 40.2045 0.25 40.2487 0.25 40.2929C0.25 40.3371 0.25 40.3813 0.25 40.4256C0.25 40.4699 0.25 40.5143 0.25 40.5587C0.25 40.603 0.25 40.6475 0.25 40.6919C0.25 40.7364 0.25 40.7809 0.25 40.8255C0.25 40.87 0.25 40.9146 0.25 40.9592C0.25 41.0038 0.25 41.0485 0.25 41.0932C0.25 41.1379 0.25 41.1827 0.25 41.2275C0.25 41.2722 0.25 41.3171 0.25 41.3619C0.25 41.4068 0.25 41.4517 0.25 41.4967C0.25 41.5416 0.25 41.5866 0.25 41.6316C0.25 41.6767 0.25 41.7217 0.25 41.7668C0.25 41.8119 0.25 41.8571 0.25 41.9022C0.25 41.9474 0.25 41.9927 0.25 42.0379C0.25 42.0832 0.25 42.1285 0.25 42.1738C0.25 42.2191 0.25 42.2645 0.25 42.3099C0.25 42.3553 0.25 42.4008 0.25 42.4463C0.25 42.4918 0.25 42.5373 0.25 42.5828C0.25 42.6284 0.25 42.674 0.25 42.7196C0.25 42.7653 0.25 42.8109 0.25 42.8567C0.25 42.9024 0.25 42.9481 0.25 42.9939C0.25 43.0397 0.25 43.0855 0.25 43.1314C0.25 43.1772 0.25 43.2231 0.25 43.269C0.25 43.315 0.25 43.3609 0.25 43.4069C0.25 43.4529 0.25 43.499 0.25 43.545C0.25 43.5911 0.25 43.6372 0.25 43.6834C0.25 43.7295 0.25 43.7757 0.25 43.8219C0.25 43.8681 0.25 43.9144 0.25 43.9606C0.25 44.0069 0.25 44.0532 0.25 44.0996C0.25 44.146 0.25 44.1923 0.25 44.2388C0.25 44.2852 0.25 44.3316 0.25 44.3781C0.25 44.4246 0.25 44.4711 0.25 44.5177C0.25 44.5642 0.25 44.6108 0.25 44.6575C0.25 44.7041 0.25 44.7507 0.25 44.7974C0.25 44.8441 0.25 44.8909 0.25 44.9376C0.25 44.9844 0.25 45.0312 0.25 45.078C0.25 45.1248 0.25 45.1717 0.25 45.2185C0.25 45.2654 0.25 45.3124 0.25 45.3593C0.25 45.4063 0.25 45.4532 0.25 45.5003C0.25 45.5473 0.25 45.5943 0.25 45.6414C0.25 45.6885 0.25 45.7356 0.25 45.7827C0.25 45.8299 0.25 45.8771 0.25 45.9243C0.25 45.9715 0.25 46.0187 0.25 46.066C0.25 46.1132 0.25 46.1605 0.25 46.2079C0.25 46.2552 0.25 46.3025 0.25 46.3499C0.25 46.3973 0.25 46.4447 0.25 46.4922C0.25 46.5396 0.25 46.5871 0.25 46.6346C0.25 46.6821 0.25 46.7297 0.25 46.7773C0.25 46.8248 0.25 46.8724 0.25 46.9201C0.25 46.9677 0.25 47.0153 0.25 47.063C0.25 47.1107 0.25 47.1584 0.25 47.2062C0.25 47.2539 0.25 47.3017 0.25 47.3495C0.25 47.3973 0.25 47.4451 0.25 47.493C0.25 47.5408 0.25 47.5887 0.25 47.6366C0.25 47.6846 0.25 47.7325 0.25 47.7805C0.25 47.8284 0.25 47.8764 0.25 47.9245C0.25 47.9725 0.25 48.0205 0.25 48.0686C0.25 48.1167 0.25 48.1648 0.25 48.2129C0.25 48.2611 0.25 48.3092 0.25 48.3574C0.25 48.4056 0.25 48.4538 0.25 48.5021C0.25 48.5503 0.25 48.5986 0.25 48.6469C0.25 48.6952 0.25 48.7435 0.25 48.7918C0.25 48.8402 0.25 48.8885 0.25 48.9369C0.25 48.9853 0.25 49.0338 0.25 49.0822C0.25 49.1307 0.25 49.1791 0.25 49.2276C0.25 49.2761 0.25 49.3247 0.25 49.3732C0.25 49.4218 0.25 49.4703 0.25 49.5189C0.25 49.5675 0.25 49.6161 0.25 49.6648C0.25 49.7134 0.25 49.7621 0.25 49.8108C0.25 49.8595 0.25 49.9082 0.25 49.957C0.25 50.0057 0.25 50.0545 0.25 50.1033C0.25 50.1521 0.25 50.2009 0.25 50.2497C0.25 50.2986 0.25 50.3474 0.25 50.3963C0.25 50.4452 0.25 50.4941 0.25 50.543C0.25 50.592 0.25 50.6409 0.25 50.6899C0.25 50.7389 0.25 50.7879 0.25 50.8369C0.25 50.8859 0.25 50.9349 0.25 50.984C0.25 51.0331 0.25 51.0822 0.25 51.1313C0.25 51.1804 0.25 51.2295 0.25 51.2786C0.25 51.3278 0.25 51.377 0.25 51.4262C0.25 51.4754 0.25 51.5246 0.25 51.5738C0.25 51.623 0.25 51.6723 0.25 51.7216C0.25 51.7709 0.25 51.8202 0.25 51.8695C0.25 51.9188 0.25 51.9681 0.25 52.0175C0.25 52.0669 0.25 52.1162 0.25 52.1656C0.25 52.215 0.25 52.2645 0.25 52.3139C0.25 52.3633 0.25 52.4128 0.25 52.4623C0.25 52.5117 0.25 52.5612 0.25 52.6108C0.25 52.6603 0.25 52.7098 0.25 52.7594C0.25 52.8089 0.25 52.8585 0.25 52.9081C0.25 52.9577 0.25 53.0073 0.25 53.0569C0.25 53.1066 0.25 53.1562 0.25 53.2059C0.25 53.2555 0.25 53.3052 0.25 53.3549C0.25 53.4046 0.25 53.4543 0.25 53.5041C0.25 53.5538 0.25 53.6036 0.25 53.6533C0.25 53.7031 0.25 53.7529 0.25 53.8027C0.25 53.8525 0.25 53.9023 0.25 53.9522C0.25 54.002 0.25 54.0519 0.25 54.1017C0.25 54.1516 0.25 54.2015 0.25 54.2514C0.25 54.3013 0.25 54.3512 0.25 54.4012C0.25 54.4511 0.25 54.5011 0.25 54.551C0.25 54.601 0.25 54.651 0.25 54.701C0.25 54.751 0.25 54.801 0.25 54.8511C0.25 54.9011 0.25 54.9511 0.25 55.0012C0.25 55.0513 0.25 55.1013 0.25 55.1514C0.25 55.2015 0.25 55.2516 0.25 55.3018C0.25 55.3519 0.25 55.402 0.25 55.4522C0.25 55.5023 0.25 55.5525 0.25 55.6026C0.25 55.6528 0.25 55.703 0.25 55.7532C0.25 55.8034 0.25 55.8536 0.25 55.9039C0.25 55.9541 0.25 56.0044 0.25 56.0546C0.25 56.1049 0.25 56.1552 0.25 56.2054C0.25 56.2557 0.25 56.306 0.25 56.3563C0.25 56.4066 0.25 56.457 0.25 56.5073C0.25 56.5576 0.25 56.608 0.25 56.6583C0.25 56.7087 0.25 56.7591 0.25 56.8095C0.25 56.8598 0.25 56.9102 0.25 56.9606C0.25 57.0111 0.25 57.0615 0.25 57.1119C0.25 57.1623 0.25 57.2128 0.25 57.2632C0.25 57.3137 0.25 57.3641 0.25 57.4146C0.25 57.4651 0.25 57.5156 0.25 57.5661C0.25 57.6166 0.25 57.6671 0.25 57.7176C0.25 57.7681 0.25 57.8186 0.25 57.8692C0.25 57.9197 0.25 57.9703 0.25 58.0208C0.25 58.0714 0.25 58.1219 0.25 58.1725C0.25 58.2231 0.25 58.2737 0.25 58.3243C0.25 58.3749 0.25 58.4255 0.25 58.4761C0.25 58.5267 0.25 58.5773 0.25 58.628C0.25 58.6786 0.25 58.7292 0.25 58.7799C0.25 58.8305 0.25 58.8812 0.25 58.9318C0.25 58.9825 0.25 59.0332 0.25 59.0839C0.25 59.1345 0.25 59.1852 0.25 59.2359C0.25 59.2866 0.25 59.3373 0.25 59.388C0.25 59.4387 0.25 59.4895 0.25 59.5402C0.25 59.5909 0.25 59.6416 0.25 59.6924C0.25 59.7431 0.25 59.7939 0.25 59.8446C0.25 59.8954 0.25 59.9461 0.25 59.9969C0.25 60.0477 0.25 60.0984 0.25 60.1492C0.25 60.2 0.25 60.2508 0.25 60.3016C0.25 60.3524 0.25 60.4032 0.25 60.454C0.25 60.5048 0.25 60.5556 0.25 60.6064C0.25 60.6572 0.25 60.708 0.25 60.7589C0.25 60.8097 0.25 60.8605 0.25 60.9113C0.25 60.9622 0.25 61.013 0.25 61.0639C0.25 61.1147 0.25 61.1655 0.25 61.2164C0.25 61.2672 0.25 61.3181 0.25 61.369C0.25 61.4198 0.25 61.4707 0.25 61.5216C0.25 61.5724 0.25 61.6233 0.25 61.6742C0.25 61.725 0.25 61.7759 0.25 61.8268C0.25 61.8777 0.25 61.9286 0.25 61.9795C0.25 62.0303 0.25 62.0812 0.25 62.1321C0.25 62.183 0.25 62.2339 0.25 62.2848C0.25 62.3357 0.25 62.3866 0.25 62.4375C0.25 62.4884 0.25 62.5393 0.25 62.5902C0.25 62.6412 0.25 62.6921 0.25 62.743C0.25 62.7939 0.25 62.8448 0.25 62.8957C0.25 62.9466 0.25 62.9975 0.25 63.0485C0.25 63.0994 0.25 63.1503 0.25 63.2012C0.25 63.2521 0.25 63.3031 0.25 63.354C0.25 63.4049 0.25 63.4558 0.25 63.5067C0.25 63.5577 0.25 63.6086 0.25 63.6595C0.25 63.7104 0.25 63.7613 0.25 63.8123C0.25 63.8632 0.25 63.9141 0.25 63.965C0.25 64.016 0.25 64.0669 0.25 64.1178C0.25 64.1687 0.25 64.2196 0.25 64.2706C0.25 64.3215 0.25 64.3724 0.25 64.4233C0.25 64.4742 0.25 64.5251 0.25 64.5761C0.25 64.627 0.25 64.6779 0.25 64.7288C0.25 64.7797 0.25 64.8306 0.25 64.8815C0.25 64.9324 0.25 64.9833 0.25 65.0342C0.25 65.0851 0.25 65.136 0.25 65.1869C0.25 65.2378 0.25 65.2887 0.25 65.3396C0.25 65.3905 0.25 65.4414 0.25 65.4923C0.25 65.5432 0.25 65.5941 0.25 65.645C0.25 65.6958 0.25 65.7467 0.25 65.7976C0.25 65.8485 0.25 65.8993 0.25 65.9502C0.25 66.0011 0.25 66.0519 0.25 66.1028C0.25 66.1536 0.25 66.2045 0.25 66.2554C0.25 66.3062 0.25 66.3571 0.25 66.4079C0.25 66.4587 0.25 66.5096 0.25 66.5604C0.25 66.6112 0.25 66.6621 0.25 66.7129C0.25 66.7637 0.25 66.8145 0.25 66.8653C0.25 66.9162 0.25 66.967 0.25 67.0178C0.25 67.0686 0.25 67.1194 0.25 67.1702C0.25 67.2209 0.25 67.2717 0.25 67.3225C0.25 67.3733 0.25 67.4241 0.25 67.4748C0.25 67.5256 0.25 67.5763 0.25 67.6271C0.25 67.6778 0.25 67.7286 0.25 67.7793C0.25 67.8301 0.25 67.8808 0.25 67.9315C0.25 67.9823 0.25 68.033 0.25 68.0837C0.25 68.1344 0.25 68.1851 0.25 68.2358C0.25 68.2865 0.25 68.3372 0.25 68.3878C0.25 68.4385 0.25 68.4892 0.25 68.5399C0.25 68.5905 0.25 68.6412 0.25 68.6918C0.25 68.7425 0.25 68.7931 0.25 68.8437C0.25 68.8944 0.25 68.945 0.25 68.9956C0.25 69.0462 0.25 69.0968 0.25 69.1474C0.25 69.198 0.25 69.2486 0.25 69.2992C0.25 69.3497 0.25 69.4003 0.25 69.4509C0.25 69.5014 0.25 69.552 0.25 69.6025C0.25 69.653 0.25 69.7035 0.25 69.7541C0.25 69.8046 0.25 69.8551 0.25 69.9056C0.25 69.9561 0.25 70.0066 0.25 70.057C0.25 70.1075 0.25 70.158 0.25 70.2084C0.25 70.2589 0.25 70.3093 0.25 70.3597C0.25 70.4102 0.25 70.4606 0.25 70.511C0.25 70.5614 0.25 70.6118 0.25 70.6622C0.25 70.7125 0.25 70.7629 0.25 70.8133C0.25 70.8636 0.25 70.914 0.25 70.9643C0.25 71.0146 0.25 71.065 0.25 71.1153C0.25 71.1656 0.25 71.2159 0.25 71.2662C0.25 71.3164 0.25 71.3667 0.25 71.417C0.25 71.4672 0.25 71.5175 0.25 71.5677C0.25 71.6179 0.25 71.6681 0.25 71.7184C0.25 71.7686 0.25 71.8187 0.25 71.8689C0.25 71.9191 0.25 71.9693 0.25 72.0194C0.25 72.0695 0.25 72.1197 0.25 72.1698C0.25 72.2199 0.25 72.27 0.25 72.3201C0.25 72.3702 0.25 72.4203 0.25 72.4703C0.25 72.5204 0.25 72.5704 0.25 72.6205C0.25 72.6705 0.25 72.7205 0.25 72.7705C0.25 72.8205 0.25 72.8705 0.25 72.9205C0.25 72.9704 0.25 73.0204 0.25 73.0703C0.25 73.1203 0.25 73.1702 0.25 73.2201C0.25 73.27 0.25 73.3199 0.25 73.3697C0.25 73.4196 0.25 73.4695 0.25 73.5193C0.25 73.5691 0.25 73.619 0.25 73.6688C0.25 73.7186 0.25 73.7683 0.25 73.8181C0.25 73.8679 0.25 73.9176 0.25 73.9674C0.25 74.0171 0.25 74.0668 0.25 74.1165C0.25 74.1662 0.25 74.2159 0.25 74.2656C0.25 74.3152 0.25 74.3649 0.25 74.4145C0.25 74.4641 0.25 74.5137 0.25 74.5633C0.25 74.6129 0.25 74.6625 0.25 74.712C0.25 74.7616 0.25 74.8111 0.25 74.8606C0.25 74.9101 0.25 74.9596 0.25 75.0091C0.25 75.0586 0.25 75.108 0.25 75.1575C0.25 75.2069 0.25 75.2563 0.25 75.3057C0.25 75.3551 0.25 75.4045 0.25 75.4538C0.25 75.5032 0.25 75.5525 0.25 75.6019C0.25 75.6512 0.25 75.7005 0.25 75.7497C0.25 75.799 0.25 75.8483 0.25 75.8975C0.25 75.9467 0.25 75.9959 0.25 76.0451C0.25 76.0943 0.25 76.1435 0.25 76.1926C0.25 76.2418 0.25 76.2909 0.25 76.34C0.25 76.3891 0.25 76.4382 0.25 76.4873C0.25 76.5363 0.25 76.5854 0.25 76.6344C0.25 76.6834 0.25 76.7324 0.25 76.7814C0.25 76.8303 0.25 76.8793 0.25 76.9282C0.25 76.9771 0.25 77.026 0.25 77.0749C0.25 77.1238 0.25 77.1726 0.25 77.2215C0.25 77.2703 0.25 77.3191 0.25 77.3679C0.25 77.4167 0.25 77.4655 0.25 77.5142C0.25 77.5629 0.25 77.6117 0.25 77.6603C0.25 77.709 0.25 77.7577 0.25 77.8064C0.25 77.855 0.25 77.9036 0.25 77.9522C0.25 78.0008 0.25 78.0494 0.25 78.0979C0.25 78.1465 0.25 78.195 0.25 78.2435C0.25 78.292 0.25 78.3404 0.25 78.3889C0.25 78.4373 0.25 78.4857 0.25 78.5341C0.25 78.5825 0.25 78.6309 0.25 78.6792C0.25 78.7276 0.25 78.7759 0.25 78.8242C0.25 78.8725 0.25 78.9207 0.25 78.969C0.25 79.0172 0.25 79.0654 0.25 79.1136C0.25 79.1618 0.25 79.2099 0.25 79.2581C0.25 79.3062 0.25 79.3543 0.25 79.4024C0.25 79.4504 0.25 79.4985 0.25 79.5465C0.25 79.5945 0.25 79.6425 0.25 79.6905C0.25 79.7385 0.25 79.7864 0.25 79.8343C0.25 79.8822 0.25 79.9301 0.25 79.978C0.25 80.0258 0.25 80.0736 0.25 80.1214C0.25 80.1692 0.25 80.217 0.25 80.2647C0.25 80.3125 0.25 80.3602 0.25 80.4079C0.25 80.4555 0.25 80.5032 0.25 80.5508C0.25 80.5984 0.25 80.646 0.25 80.6936C0.25 80.7412 0.25 80.7887 0.25 80.8362C0.25 80.8837 0.25 80.9312 0.25 80.9786C0.25 81.0261 0.25 81.0735 0.25 81.1209C0.25 81.1683 0.25 81.2156 0.25 81.2629C0.25 81.3102 0.25 81.3575 0.25 81.4048C0.25 81.4521 0.25 81.4993 0.25 81.5465C0.25 81.5937 0.25 81.6409 0.25 81.688C0.25 81.7351 0.25 81.7822 0.25 81.8293C0.25 81.8764 0.25 81.9234 0.25 81.9704C0.25 82.0175 0.25 82.0644 0.25 82.1114C0.25 82.1583 0.25 82.2052 0.25 82.2521C0.25 82.299 0.25 82.3459 0.25 82.3927C0.25 82.4395 0.25 82.4863 0.25 82.533C0.25 82.5798 0.25 82.6265 0.25 82.6732C0.25 82.7199 0.25 82.7665 0.25 82.8131C0.25 82.8597 0.25 82.9063 0.25 82.9529C0.25 82.9994 0.25 83.046 0.25 83.0924C0.25 83.1389 0.25 83.1854 0.25 83.2318C0.25 83.2782 0.25 83.3246 0.25 83.3709C0.25 83.4173 0.25 83.4636 0.25 83.5099C0.25 83.5561 0.25 83.6024 0.25 83.6486C0.25 83.6948 0.25 83.741 0.25 83.7871C0.25 83.8332 0.25 83.8793 0.25 83.9254C0.25 83.9715 0.25 84.0175 0.25 84.0635C0.25 84.1095 0.25 84.1554 0.25 84.2014C0.25 84.2473 0.25 84.2932 0.25 84.339C0.25 84.3849 0.25 84.4307 0.25 84.4765C0.25 84.5222 0.25 84.568 0.25 84.6137C0.25 84.6594 0.25 84.7051 0.25 84.7507C0.25 84.7963 0.25 84.8419 0.25 84.8875C0.25 84.933 0.25 84.9785 0.25 85.024C0.25 85.0695 0.25 85.1149 0.25 85.1603C0.25 85.2057 0.25 85.2511 0.25 85.2964C0.25 85.3418 0.25 85.3871 0.25 85.4323C0.25 85.4776 0.25 85.5228 0.25 85.568C0.25 85.6131 0.25 85.6583 0.25 85.7034C0.25 85.7485 0.25 85.7935 0.25 85.8385C0.25 85.8836 0.25 85.9285 0.25 85.9735C0.25 86.0184 0.25 86.0633 0.25 86.1082C0.25 86.153 0.25 86.1979 0.25 86.2426C0.25 86.2874 0.25 86.3322 0.25 86.3769C0.25 86.4216 0.25 86.4662 0.25 86.5108C0.25 86.5555 0.25 86.6 0.25 86.6446C0.25 86.6891 0.25 86.7336 0.25 86.7781C0.25 86.8225 0.25 86.8669 0.25 86.9113C0.25 86.9557 0.25 87 0.25 87.0443C0.25 87.0886 0.25 87.1329 0.25 87.1771C0.25 87.2213 0.25 87.2654 0.25 87.3096C0.25 87.3537 0.25 87.3978 0.25 87.4418C0.25 87.4859 0.25 87.5299 0.25 87.5738C0.25 87.6178 0.25 87.6617 0.25 87.7056C0.25 87.7494 0.25 87.7932 0.25 87.837C0.25 87.8808 0.25 87.9246 0.25 87.9682C0.25 88.0119 0.25 88.0556 0.25 88.0992C0.25 88.1428 0.25 88.1864 0.25 88.2299C0.25 88.2734 0.25 88.3169 0.25 88.3603C0.25 88.4038 0.25 88.4472 0.25 88.4905C0.25 88.5339 0.25 88.5772 0.25 88.6204C0.25 88.6637 0.25 88.7069 0.25 88.7501C0.25 88.7932 0.25 88.8363 0.25 88.8794C0.25 88.9225 0.25 88.9655 0.25 89.0085C0.25 89.0515 0.25 89.0944 0.25 89.1373C0.25 89.1802 0.25 89.2231 0.25 89.2659C0.25 89.3087 0.25 89.3514 0.25 89.3942C0.25 89.4369 0.25 89.4795 0.25 89.5222C0.25 89.5648 0.25 89.6073 0.25 89.6499C0.25 89.6924 0.25 89.7349 0.25 89.7773C0.25 89.8197 0.25 89.8621 0.25 89.9045C0.25 89.9468 0.25 89.9891 0.25 90.0313C0.25 90.0736 0.25 90.1158 0.25 90.1579C0.25 90.2001 0.25 90.2422 0.25 90.2842C0.25 90.3263 0.25 90.3683 0.25 90.4102C0.25 90.4522 0.25 90.4941 0.25 90.5359C0.25 90.5778 0.25 90.6196 0.25 90.6614C0.25 90.7031 0.25 90.7448 0.25 90.7865C0.25 90.8282 0.25 90.8698 0.25 90.9113C0.25 90.9529 0.25 90.9944 0.25 91.0359C0.25 91.0773 0.25 91.1188 0.25 91.1601C0.25 91.2015 0.25 91.2428 0.25 91.2841C0.25 91.3253 0.25 91.3666 0.25 91.4077C0.25 91.4489 0.25 91.49 0.25 91.5311C0.25 91.5721 0.25 91.6131 0.25 91.6541C0.25 91.6951 0.25 91.736 0.25 91.7768C0.25 91.8177 0.25 91.8585 0.25 91.8993C0.25 91.94 0.25 91.9807 0.25 92.0214C0.25 92.062 0.25 92.1026 0.25 92.1432C0.25 92.1837 0.25 92.2242 0.25 92.2647C0.25 92.3051 0.25 92.3455 0.25 92.3859C0.25 92.4262 0.25 92.4665 0.25 92.5067C0.25 92.547 0.25 92.5871 0.25 92.6273C0.25 92.6674 0.25 92.7075 0.25 92.7475C0.25 92.7875 0.25 92.8275 0.25 92.8674C0.25 92.9073 0.25 92.9472 0.25 92.987C0.25 93.0268 0.25 93.0666 0.25 93.1063C0.25 93.146 0.25 93.1856 0.25 93.2252C0.25 93.2648 0.25 93.3044 0.25 93.3438C0.25 93.3833 0.25 93.4228 0.25 93.4621C0.25 93.5015 0.25 93.5408 0.25 93.5801C0.25 93.6194 0.25 93.6586 0.25 93.6977C0.25 93.7369 0.25 93.776 0.25 93.815C0.25 93.8541 0.25 93.8931 0.25 93.932C0.25 93.9709 0.25 94.0098 0.25 94.0486C0.25 94.0874 0.25 94.1262 0.25 94.1649C0.25 94.2036 0.25 94.2423 0.25 94.2809C0.25 94.3195 0.25 94.358 0.25 94.3965C0.25 94.435 0.25 94.4734 0.25 94.5117C0.25 94.5501 0.25 94.5884 0.25 94.6267C0.25 94.6649 0.25 94.7031 0.25 94.7413C0.25 94.7794 0.25 94.8175 0.25 94.8555H0.75ZM0.75 25.827C0.75 20.9194 2.74272 14.6421 6.75978 9.59462C10.7715 4.55387 16.7925 0.75 24.8561 0.75V0.25C16.616 0.25 10.459 4.14355 6.36856 9.28326C2.28349 14.4162 0.25 20.8025 0.25 25.827H0.75ZM0.75 94.8555V25.827H0.25V94.8555H0.75ZM33.3062 32.5329H44.7386V32.0329H33.3062V32.5329ZM44.4886 32.2829V86.4132H44.9886V32.2829H44.4886ZM44.7386 86.1632H33.3062V86.6632H44.7386V86.1632ZM33.5562 86.4132V32.2829H33.0562V86.4132H33.5562ZM78.786 27.3168V44.2015H79.286V27.3168H78.786ZM79.036 43.9515H71.083V44.4515H79.036V43.9515ZM71.083 43.9515C63.9943 43.9515 52.4416 51.0078 52.4416 66.0522H52.9416C52.9416 51.3002 64.2539 44.4515 71.083 44.4515V43.9515ZM52.4416 66.0522C52.4416 74.3073 55.1986 79.5921 58.7986 82.8734C62.3912 86.1478 66.7982 87.4042 70.0697 87.6556L70.108 87.1571C66.9177 86.9119 62.626 85.6853 59.1354 82.5038C55.6523 79.3292 52.9416 74.1852 52.9416 66.0522H52.4416ZM70.0888 87.6564H77.0477V87.1564H70.0888V87.6564ZM77.0477 87.6564C80.7973 87.6564 83.9275 87.1569 86.3128 86.4671C88.6881 85.7801 90.352 84.8964 91.1422 84.107L90.7888 83.7533C90.0877 84.4537 88.5207 85.3081 86.1739 85.9868C83.8371 86.6626 80.754 87.1564 77.0477 87.1564V87.6564ZM91.2155 83.9301C91.2155 83.9272 91.2155 83.9242 91.2155 83.921C91.2155 83.9178 91.2155 83.9145 91.2155 83.9111C91.2155 83.9076 91.2155 83.904 91.2155 83.9003C91.2155 83.8966 91.2155 83.8928 91.2155 83.8888C91.2155 83.8848 91.2155 83.8807 91.2155 83.8765C91.2155 83.8722 91.2155 83.8679 91.2155 83.8634C91.2155 83.8589 91.2155 83.8542 91.2155 83.8495C91.2155 83.8447 91.2155 83.8398 91.2155 83.8348C91.2155 83.8298 91.2155 83.8246 91.2155 83.8193C91.2155 83.814 91.2155 83.8086 91.2155 83.8031C91.2155 83.7975 91.2155 83.7918 91.2155 83.786C91.2155 83.7802 91.2155 83.7743 91.2155 83.7682C91.2155 83.7622 91.2155 83.756 91.2155 83.7496C91.2155 83.7433 91.2155 83.7369 91.2155 83.7303C91.2155 83.7237 91.2155 83.717 91.2155 83.7102C91.2155 83.7033 91.2155 83.6964 91.2155 83.6893C91.2155 83.6822 91.2155 83.6749 91.2155 83.6676C91.2155 83.6603 91.2155 83.6528 91.2155 83.6452C91.2155 83.6376 91.2155 83.6299 91.2155 83.622C91.2155 83.6141 91.2155 83.6062 91.2155 83.5981C91.2155 83.59 91.2155 83.5817 91.2155 83.5734C91.2155 83.565 91.2155 83.5565 91.2155 83.5479C91.2155 83.5393 91.2155 83.5306 91.2155 83.5217C91.2155 83.5128 91.2155 83.5039 91.2155 83.4948C91.2155 83.4856 91.2155 83.4764 91.2155 83.4671C91.2155 83.4577 91.2155 83.4482 91.2155 83.4386C91.2155 83.429 91.2155 83.4193 91.2155 83.4094C91.2155 83.3996 91.2155 83.3896 91.2155 83.3795C91.2155 83.3694 91.2155 83.3592 91.2155 83.3489C91.2155 83.3385 91.2155 83.3281 91.2155 83.3175C91.2155 83.3069 91.2155 83.2962 91.2155 83.2854C91.2155 83.2745 91.2155 83.2636 91.2155 83.2525C91.2155 83.2414 91.2155 83.2302 91.2155 83.2189C91.2155 83.2076 91.2155 83.1962 91.2155 83.1846C91.2155 83.1731 91.2155 83.1614 91.2155 83.1496C91.2155 83.1378 91.2155 83.1259 91.2155 83.1138C91.2155 83.1018 91.2155 83.0897 91.2155 83.0774C91.2155 83.0651 91.2155 83.0527 91.2155 83.0402C91.2155 83.0277 91.2155 83.0151 91.2155 83.0023C91.2155 82.9896 91.2155 82.9767 91.2155 82.9637C91.2155 82.9507 91.2155 82.9376 91.2155 82.9244C91.2155 82.9112 91.2155 82.8978 91.2155 82.8844C91.2155 82.8709 91.2155 82.8573 91.2155 82.8437C91.2155 82.83 91.2155 82.8161 91.2155 82.8022C91.2155 82.7883 91.2155 82.7743 91.2155 82.7601C91.2155 82.7459 91.2155 82.7317 91.2155 82.7173C91.2155 82.7029 91.2155 82.6884 91.2155 82.6738C91.2155 82.6592 91.2155 82.6444 91.2155 82.6296C91.2155 82.6147 91.2155 82.5998 91.2155 82.5847C91.2155 82.5696 91.2155 82.5544 91.2155 82.5391C91.2155 82.5238 91.2155 82.5084 91.2155 82.4928C91.2155 82.4773 91.2155 82.4617 91.2155 82.4459C91.2155 82.4301 91.2155 82.4143 91.2155 82.3983C91.2155 82.3823 91.2155 82.3662 91.2155 82.35C91.2155 82.3337 91.2155 82.3174 91.2155 82.301C91.2155 82.2845 91.2155 82.268 91.2155 82.2513C91.2155 82.2347 91.2155 82.2179 91.2155 82.201C91.2155 82.1841 91.2155 82.1671 91.2155 82.15C91.2155 82.1329 91.2155 82.1157 91.2155 82.0984C91.2155 82.081 91.2155 82.0636 91.2155 82.0461C91.2155 82.0285 91.2155 82.0108 91.2155 81.9931C91.2155 81.9753 91.2155 81.9574 91.2155 81.9394C91.2155 81.9215 91.2155 81.9034 91.2155 81.8852C91.2155 81.8669 91.2155 81.8486 91.2155 81.8302C91.2155 81.8118 91.2155 81.7933 91.2155 81.7746C91.2155 81.756 91.2155 81.7372 91.2155 81.7184C91.2155 81.6995 91.2155 81.6805 91.2155 81.6615C91.2155 81.6424 91.2155 81.6232 91.2155 81.6039C91.2155 81.5847 91.2155 81.5653 91.2155 81.5458C91.2155 81.5263 91.2155 81.5067 91.2155 81.4869C91.2155 81.4672 91.2155 81.4474 91.2155 81.4275C91.2155 81.4076 91.2155 81.3875 91.2155 81.3674C91.2155 81.3473 91.2155 81.327 91.2155 81.3067C91.2155 81.2863 91.2155 81.2659 91.2155 81.2453C91.2155 81.2248 91.2155 81.2041 91.2155 81.1833C91.2155 81.1626 91.2155 81.1417 91.2155 81.1208C91.2155 81.0998 91.2155 81.0787 91.2155 81.0575C91.2155 81.0363 91.2155 81.0151 91.2155 80.9937C91.2155 80.9723 91.2155 80.9508 91.2155 80.9292C91.2155 80.9076 91.2155 80.8859 91.2155 80.8641C91.2155 80.8423 91.2155 80.8204 91.2155 80.7984C91.2155 80.7764 91.2155 80.7543 91.2155 80.7321C91.2155 80.7099 91.2155 80.6876 91.2155 80.6652C91.2155 80.6428 91.2155 80.6203 91.2155 80.5977C91.2155 80.5751 91.2155 80.5524 91.2155 80.5296C91.2155 80.5068 91.2155 80.4839 91.2155 80.4609C91.2155 80.4379 91.2155 80.4147 91.2155 80.3915C91.2155 80.3683 91.2155 80.345 91.2155 80.3216C91.2155 80.2982 91.2155 80.2747 91.2155 80.2511C91.2155 80.2275 91.2155 80.2038 91.2155 80.18C91.2155 80.1562 91.2155 80.1323 91.2155 80.1083C91.2155 80.0843 91.2155 80.0602 91.2155 80.036C91.2155 80.0118 91.2155 79.9875 91.2155 79.9632C91.2155 79.9388 91.2155 79.9143 91.2155 79.8897C91.2155 79.8651 91.2155 79.8405 91.2155 79.8157C91.2155 79.7909 91.2155 79.7661 91.2155 79.7411C91.2155 79.7161 91.2155 79.6911 91.2155 79.6659C91.2155 79.6407 91.2155 79.6155 91.2155 79.5901C91.2155 79.5648 91.2155 79.5394 91.2155 79.5138C91.2155 79.4883 91.2155 79.4627 91.2155 79.4369C91.2155 79.4112 91.2155 79.3854 91.2155 79.3595C91.2155 79.3336 91.2155 79.3076 91.2155 79.2815C91.2155 79.2554 91.2155 79.2292 91.2155 79.2029C91.2155 79.1766 91.2155 79.1502 91.2155 79.1237C91.2155 79.0973 91.2155 79.0707 91.2155 79.044C91.2155 79.0174 91.2155 78.9906 91.2155 78.9638C91.2155 78.9369 91.2155 78.91 91.2155 78.883C91.2155 78.856 91.2155 78.8288 91.2155 78.8016C91.2155 78.7744 91.2155 78.7471 91.2155 78.7197C91.2155 78.6923 91.2155 78.6649 91.2155 78.6373C91.2155 78.6097 91.2155 78.5821 91.2155 78.5543C91.2155 78.5266 91.2155 78.4987 91.2155 78.4708C91.2155 78.4429 91.2155 78.4148 91.2155 78.3867C91.2155 78.3586 91.2155 78.3304 91.2155 78.3021C91.2155 78.2738 91.2155 78.2455 91.2155 78.217C91.2155 78.1885 91.2155 78.16 91.2155 78.1313C91.2155 78.1027 91.2155 78.074 91.2155 78.0452C91.2155 78.0163 91.2155 77.9874 91.2155 77.9584C91.2155 77.9295 91.2155 77.9004 91.2155 77.8712C91.2155 77.842 91.2155 77.8128 91.2155 77.7835C91.2155 77.7541 91.2155 77.7247 91.2155 77.6952C91.2155 77.6657 91.2155 77.6361 91.2155 77.6064C91.2155 77.5767 91.2155 77.5469 91.2155 77.5171C91.2155 77.4872 91.2155 77.4573 91.2155 77.4273C91.2155 77.3973 91.2155 77.3671 91.2155 77.337C91.2155 77.3068 91.2155 77.2765 91.2155 77.2461C91.2155 77.2158 91.2155 77.1853 91.2155 77.1548C91.2155 77.1243 91.2155 77.0937 91.2155 77.063C91.2155 77.0323 91.2155 77.0015 91.2155 76.9706C91.2155 76.9398 91.2155 76.9088 91.2155 76.8778C91.2155 76.8468 91.2155 76.8157 91.2155 76.7845C91.2155 76.7533 91.2155 76.722 91.2155 76.6907C91.2155 76.6593 91.2155 76.6279 91.2155 76.5964C91.2155 76.5648 91.2155 76.5332 91.2155 76.5016C91.2155 76.4699 91.2155 76.4381 91.2155 76.4063C91.2155 76.3745 91.2155 76.3425 91.2155 76.3105C91.2155 76.2785 91.2155 76.2464 91.2155 76.2143C91.2155 76.1821 91.2155 76.1499 91.2155 76.1176C91.2155 76.0853 91.2155 76.0528 91.2155 76.0204C91.2155 75.9879 91.2155 75.9553 91.2155 75.9227C91.2155 75.8901 91.2155 75.8574 91.2155 75.8246C91.2155 75.7918 91.2155 75.7589 91.2155 75.726C91.2155 75.693 91.2155 75.66 91.2155 75.6269C91.2155 75.5938 91.2155 75.5606 91.2155 75.5274C91.2155 75.4941 91.2155 75.4608 91.2155 75.4274C91.2155 75.394 91.2155 75.3605 91.2155 75.3269C91.2155 75.2933 91.2155 75.2597 91.2155 75.226C91.2155 75.1923 91.2155 75.1585 91.2155 75.1246C91.2155 75.0908 91.2155 75.0568 91.2155 75.0228C91.2155 74.9888 91.2155 74.9547 91.2155 74.9205C91.2155 74.8864 91.2155 74.8521 91.2155 74.8178C91.2155 74.7835 91.2155 74.7491 91.2155 74.7147C91.2155 74.6802 91.2155 74.6457 91.2155 74.6111C91.2155 74.5765 91.2155 74.5418 91.2155 74.507C91.2155 74.4723 91.2155 74.4375 91.2155 74.4026C91.2155 74.3677 91.2155 74.3327 91.2155 74.2976C91.2155 74.2626 91.2155 74.2275 91.2155 74.1923C91.2155 74.1571 91.2155 74.1219 91.2155 74.0865C91.2155 74.0512 91.2155 74.0158 91.2155 73.9803C91.2155 73.9448 91.2155 73.9093 91.2155 73.8737C91.2155 73.8381 91.2155 73.8024 91.2155 73.7666C91.2155 73.7309 91.2155 73.6951 91.2155 73.6592C91.2155 73.6233 91.2155 73.5873 91.2155 73.5513C91.2155 73.5152 91.2155 73.4791 91.2155 73.443C91.2155 73.4068 91.2155 73.3706 91.2155 73.3342C91.2155 73.2979 91.2155 73.2616 91.2155 73.2251C91.2155 73.1887 91.2155 73.1522 91.2155 73.1156C91.2155 73.079 91.2155 73.0423 91.2155 73.0056C91.2155 72.9689 91.2155 72.9321 91.2155 72.8953C91.2155 72.8584 91.2155 72.8215 91.2155 72.7845C91.2155 72.7475 91.2155 72.7105 91.2155 72.6734C91.2155 72.6363 91.2155 72.5991 91.2155 72.5618C91.2155 72.5246 91.2155 72.4873 91.2155 72.4499C91.2155 72.4125 91.2155 72.375 91.2155 72.3375C91.2155 72.3 91.2155 72.2625 91.2155 72.2248C91.2155 72.1872 91.2155 72.1495 91.2155 72.1117C91.2155 72.0739 91.2155 72.0361 91.2155 71.9982C91.2155 71.9603 91.2155 71.9223 91.2155 71.8843C91.2155 71.8463 91.2155 71.8082 91.2155 71.7701C91.2155 71.7319 91.2155 71.6937 91.2155 71.6554C91.2155 71.6171 91.2155 71.5788 91.2155 71.5404C91.2155 71.502 91.2155 71.4635 91.2155 71.425C91.2155 71.3865 91.2155 71.3479 91.2155 71.3092C91.2155 71.2706 91.2155 71.2319 91.2155 71.1931C91.2155 71.1543 91.2155 71.1155 91.2155 71.0766C91.2155 71.0377 91.2155 70.9988 91.2155 70.9598C91.2155 70.9207 91.2155 70.8817 91.2155 70.8425C91.2155 70.8034 91.2155 70.7642 91.2155 70.725C91.2155 70.6857 91.2155 70.6464 91.2155 70.607C91.2155 70.5676 91.2155 70.5282 91.2155 70.4887C91.2155 70.4492 91.2155 70.4097 91.2155 70.3701C91.2155 70.3305 91.2155 70.2908 91.2155 70.2511C91.2155 70.2114 91.2155 70.1716 91.2155 70.1318C91.2155 70.0919 91.2155 70.052 91.2155 70.0121C91.2155 69.9721 91.2155 69.9321 91.2155 69.892C91.2155 69.852 91.2155 69.8119 91.2155 69.7717C91.2155 69.7315 91.2155 69.6913 91.2155 69.651C91.2155 69.6107 91.2155 69.5703 91.2155 69.5299C91.2155 69.4895 91.2155 69.4491 91.2155 69.4086C91.2155 69.3681 91.2155 69.3275 91.2155 69.2869C91.2155 69.2462 91.2155 69.2056 91.2155 69.1648C91.2155 69.1241 91.2155 69.0833 91.2155 69.0425C91.2155 69.0016 91.2155 68.9607 91.2155 68.9198C91.2155 68.8789 91.2155 68.8379 91.2155 68.7968C91.2155 68.7557 91.2155 68.7146 91.2155 68.6735C91.2155 68.6323 91.2155 68.5911 91.2155 68.5498C91.2155 68.5086 91.2155 68.4673 91.2155 68.4259C91.2155 68.3845 91.2155 68.3431 91.2155 68.3016C91.2155 68.2602 91.2155 68.2186 91.2155 68.1771C91.2155 68.1355 91.2155 68.0939 91.2155 68.0522C91.2155 68.0105 91.2155 67.9688 91.2155 67.927C91.2155 67.8852 91.2155 67.8434 91.2155 67.8015C91.2155 67.7596 91.2155 67.7177 91.2155 67.6757C91.2155 67.6338 91.2155 67.5917 91.2155 67.5497C91.2155 67.5076 91.2155 67.4655 91.2155 67.4233C91.2155 67.3811 91.2155 67.3389 91.2155 67.2966C91.2155 67.2543 91.2155 67.212 91.2155 67.1697C91.2155 67.1273 91.2155 67.0849 91.2155 67.0424C91.2155 66.9999 91.2155 66.9574 91.2155 66.9149C91.2155 66.8723 91.2155 66.8297 91.2155 66.7871C91.2155 66.7444 91.2155 66.7017 91.2155 66.659C91.2155 66.6162 91.2155 66.5734 91.2155 66.5306C91.2155 66.4878 91.2155 66.4449 91.2155 66.4019C91.2155 66.359 91.2155 66.316 91.2155 66.273C91.2155 66.23 91.2155 66.1869 91.2155 66.1438C91.2155 66.1007 91.2155 66.0576 91.2155 66.0144C91.2155 65.9712 91.2155 65.9279 91.2155 65.8846C91.2155 65.8413 91.2155 65.798 91.2155 65.7546C91.2155 65.7113 91.2155 65.6678 91.2155 65.6244C91.2155 65.5809 91.2155 65.5374 91.2155 65.4939C91.2155 65.4503 91.2155 65.4067 91.2155 65.3631C91.2155 65.3195 91.2155 65.2758 91.2155 65.2321C91.2155 65.1884 91.2155 65.1446 91.2155 65.1008C91.2155 65.057 91.2155 65.0132 91.2155 64.9693C91.2155 64.9254 91.2155 64.8815 91.2155 64.8375C91.2155 64.7935 91.2155 64.7495 91.2155 64.7055C91.2155 64.6614 91.2155 64.6173 91.2155 64.5732C91.2155 64.5291 91.2155 64.4849 91.2155 64.4407C91.2155 64.3965 91.2155 64.3523 91.2155 64.308C91.2155 64.2637 91.2155 64.2194 91.2155 64.175C91.2155 64.1306 91.2155 64.0862 91.2155 64.0418C91.2155 63.9973 91.2155 63.9529 91.2155 63.9084C91.2155 63.8638 91.2155 63.8193 91.2155 63.7747C91.2155 63.7301 91.2155 63.6855 91.2155 63.6408C91.2155 63.5961 91.2155 63.5514 91.2155 63.5067C91.2155 63.4619 91.2155 63.4171 91.2155 63.3723C91.2155 63.3275 91.2155 63.2827 91.2155 63.2378C91.2155 63.1929 91.2155 63.148 91.2155 63.103C91.2155 63.058 91.2155 63.013 91.2155 62.968C91.2155 62.923 91.2155 62.8779 91.2155 62.8328C91.2155 62.7877 91.2155 62.7426 91.2155 62.6974C91.2155 62.6522 91.2155 62.607 91.2155 62.5618C91.2155 62.5165 91.2155 62.4713 91.2155 62.426C91.2155 62.3807 91.2155 62.3353 91.2155 62.2899C91.2155 62.2446 91.2155 62.1992 91.2155 62.1537C91.2155 62.1083 91.2155 62.0628 91.2155 62.0173C91.2155 61.9718 91.2155 61.9263 91.2155 61.8807C91.2155 61.8351 91.2155 61.7895 91.2155 61.7439C91.2155 61.6982 91.2155 61.6526 91.2155 61.6069C91.2155 61.5612 91.2155 61.5154 91.2155 61.4697C91.2155 61.4239 91.2155 61.3781 91.2155 61.3323C91.2155 61.2865 91.2155 61.2406 91.2155 61.1948C91.2155 61.1489 91.2155 61.103 91.2155 61.057C91.2155 61.0111 91.2155 60.9651 91.2155 60.9191C91.2155 60.8731 91.2155 60.8271 91.2155 60.781C91.2155 60.735 91.2155 60.6889 91.2155 60.6428C91.2155 60.5966 91.2155 60.5505 91.2155 60.5043C91.2155 60.4581 91.2155 60.4119 91.2155 60.3657C91.2155 60.3195 91.2155 60.2732 91.2155 60.2269C91.2155 60.1807 91.2155 60.1343 91.2155 60.088C91.2155 60.0417 91.2155 59.9953 91.2155 59.9489C91.2155 59.9025 91.2155 59.8561 91.2155 59.8096C91.2155 59.7632 91.2155 59.7167 91.2155 59.6702C91.2155 59.6237 91.2155 59.5772 91.2155 59.5307C91.2155 59.4841 91.2155 59.4375 91.2155 59.3909C91.2155 59.3443 91.2155 59.2977 91.2155 59.2511C91.2155 59.2044 91.2155 59.1577 91.2155 59.111C91.2155 59.0644 91.2155 59.0176 91.2155 58.9709C91.2155 58.9241 91.2155 58.8774 91.2155 58.8306C91.2155 58.7838 91.2155 58.737 91.2155 58.6901C91.2155 58.6433 91.2155 58.5964 91.2155 58.5495C91.2155 58.5027 91.2155 58.4557 91.2155 58.4088C91.2155 58.3619 91.2155 58.3149 91.2155 58.268C91.2155 58.221 91.2155 58.174 91.2155 58.127C91.2155 58.08 91.2155 58.0329 91.2155 57.9859C91.2155 57.9388 91.2155 57.8917 91.2155 57.8446C91.2155 57.7975 91.2155 57.7504 91.2155 57.7033C91.2155 57.6561 91.2155 57.609 91.2155 57.5618C91.2155 57.5146 91.2155 57.4674 91.2155 57.4202C91.2155 57.3729 91.2155 57.3257 91.2155 57.2784C91.2155 57.2312 91.2155 57.1839 91.2155 57.1366C91.2155 57.0893 91.2155 57.042 91.2155 56.9947C91.2155 56.9473 91.2155 56.9 91.2155 56.8526C91.2155 56.8052 91.2155 56.7578 91.2155 56.7104C91.2155 56.663 91.2155 56.6156 91.2155 56.5682C91.2155 56.5207 91.2155 56.4733 91.2155 56.4258C91.2155 56.3783 91.2155 56.3308 91.2155 56.2833C91.2155 56.2358 91.2155 56.1883 91.2155 56.1407C91.2155 56.0932 91.2155 56.0457 91.2155 55.9981C91.2155 55.9505 91.2155 55.9029 91.2155 55.8553C91.2155 55.8077 91.2155 55.7601 91.2155 55.7125C91.2155 55.6648 91.2155 55.6172 91.2155 55.5695C91.2155 55.5219 91.2155 55.4742 91.2155 55.4265C91.2155 55.3788 91.2155 55.3311 91.2155 55.2834C91.2155 55.2357 91.2155 55.188 91.2155 55.1402C91.2155 55.0925 91.2155 55.0447 91.2155 54.9969C91.2155 54.9492 91.2155 54.9014 91.2155 54.8536C91.2155 54.8058 91.2155 54.758 91.2155 54.7102C91.2155 54.6624 91.2155 54.6145 91.2155 54.5667C91.2155 54.5189 91.2155 54.471 91.2155 54.4231C91.2155 54.3753 91.2155 54.3274 91.2155 54.2795C91.2155 54.2316 91.2155 54.1837 91.2155 54.1358C91.2155 54.0879 91.2155 54.04 91.2155 53.9921C91.2155 53.9441 91.2155 53.8962 91.2155 53.8483C91.2155 53.8003 91.2155 53.7524 91.2155 53.7044C91.2155 53.6564 91.2155 53.6085 91.2155 53.5605C91.2155 53.5125 91.2155 53.4645 91.2155 53.4165C91.2155 53.3685 91.2155 53.3205 91.2155 53.2725C91.2155 53.2245 91.2155 53.1764 91.2155 53.1284C91.2155 53.0804 91.2155 53.0323 91.2155 52.9843C91.2155 52.9362 91.2155 52.8882 91.2155 52.8401C91.2155 52.792 91.2155 52.744 91.2155 52.6959C91.2155 52.6478 91.2155 52.5998 91.2155 52.5517C91.2155 52.5036 91.2155 52.4555 91.2155 52.4074C91.2155 52.3593 91.2155 52.3112 91.2155 52.2631C91.2155 52.215 91.2155 52.1669 91.2155 52.1187C91.2155 52.0706 91.2155 52.0225 91.2155 51.9744C91.2155 51.9262 91.2155 51.8781 91.2155 51.83C91.2155 51.7818 91.2155 51.7337 91.2155 51.6855C91.2155 51.6374 91.2155 51.5892 91.2155 51.5411C91.2155 51.4929 91.2155 51.4448 91.2155 51.3966C91.2155 51.3485 91.2155 51.3003 91.2155 51.2522C91.2155 51.204 91.2155 51.1558 91.2155 51.1077C91.2155 51.0595 91.2155 51.0113 91.2155 50.9632C91.2155 50.915 91.2155 50.8668 91.2155 50.8186C91.2155 50.7705 91.2155 50.7223 91.2155 50.6741C91.2155 50.6259 91.2155 50.5778 91.2155 50.5296C91.2155 50.4814 91.2155 50.4332 91.2155 50.385C91.2155 50.3369 91.2155 50.2887 91.2155 50.2405C91.2155 50.1923 91.2155 50.1442 91.2155 50.096C91.2155 50.0478 91.2155 49.9996 91.2155 49.9515C91.2155 49.9033 91.2155 49.8551 91.2155 49.8069C91.2155 49.7588 91.2155 49.7106 91.2155 49.6624C91.2155 49.6143 91.2155 49.5661 91.2155 49.5179C91.2155 49.4698 91.2155 49.4216 91.2155 49.3734C91.2155 49.3253 91.2155 49.2771 91.2155 49.229C91.2155 49.1808 91.2155 49.1327 91.2155 49.0845C91.2155 49.0364 91.2155 48.9882 91.2155 48.9401C91.2155 48.892 91.2155 48.8438 91.2155 48.7957C91.2155 48.7476 91.2155 48.6994 91.2155 48.6513C91.2155 48.6032 91.2155 48.5551 91.2155 48.507C91.2155 48.4589 91.2155 48.4107 91.2155 48.3626C91.2155 48.3145 91.2155 48.2664 91.2155 48.2184C91.2155 48.1703 91.2155 48.1222 91.2155 48.0741C91.2155 48.026 91.2155 47.978 91.2155 47.9299C91.2155 47.8818 91.2155 47.8338 91.2155 47.7857C91.2155 47.7377 91.2155 47.6896 91.2155 47.6416C91.2155 47.5935 91.2155 47.5455 91.2155 47.4975C91.2155 47.4495 91.2155 47.4015 91.2155 47.3535C91.2155 47.3054 91.2155 47.2575 91.2155 47.2095C91.2155 47.1615 91.2155 47.1135 91.2155 47.0655C91.2155 47.0176 91.2155 46.9696 91.2155 46.9216C91.2155 46.8737 91.2155 46.8257 91.2155 46.7778C91.2155 46.7299 91.2155 46.682 91.2155 46.634C91.2155 46.5861 91.2155 46.5382 91.2155 46.4903C91.2155 46.4424 91.2155 46.3946 91.2155 46.3467C91.2155 46.2988 91.2155 46.251 91.2155 46.2031C91.2155 46.1553 91.2155 46.1074 91.2155 46.0596C91.2155 46.0118 91.2155 45.964 91.2155 45.9162C91.2155 45.8684 91.2155 45.8206 91.2155 45.7728C91.2155 45.725 91.2155 45.6773 91.2155 45.6295C91.2155 45.5818 91.2155 45.534 91.2155 45.4863C91.2155 45.4386 91.2155 45.3909 91.2155 45.3432C91.2155 45.2955 91.2155 45.2478 91.2155 45.2001C91.2155 45.1525 91.2155 45.1048 91.2155 45.0572C91.2155 45.0095 91.2155 44.9619 91.2155 44.9143C91.2155 44.8667 91.2155 44.8191 91.2155 44.7715C91.2155 44.7239 91.2155 44.6764 91.2155 44.6288C91.2155 44.5813 91.2155 44.5337 91.2155 44.4862C91.2155 44.4387 91.2155 44.3912 91.2155 44.3437C91.2155 44.2962 91.2155 44.2488 91.2155 44.2013C91.2155 44.1539 91.2155 44.1064 91.2155 44.059C91.2155 44.0116 91.2155 43.9642 91.2155 43.9168C91.2155 43.8694 91.2155 43.8221 91.2155 43.7747C91.2155 43.7274 91.2155 43.68 91.2155 43.6327C91.2155 43.5854 91.2155 43.5381 91.2155 43.4909C91.2155 43.4436 91.2155 43.3963 91.2155 43.3491C91.2155 43.3019 91.2155 43.2547 91.2155 43.2075C91.2155 43.1603 91.2155 43.1131 91.2155 43.066C91.2155 43.0188 91.2155 42.9717 91.2155 42.9246C91.2155 42.8774 91.2155 42.8303 91.2155 42.7833C91.2155 42.7362 91.2155 42.6892 91.2155 42.6421C91.2155 42.5951 91.2155 42.5481 91.2155 42.5011C91.2155 42.4541 91.2155 42.4072 91.2155 42.3602C91.2155 42.3133 91.2155 42.2663 91.2155 42.2194C91.2155 42.1726 91.2155 42.1257 91.2155 42.0788C91.2155 42.032 91.2155 41.9851 91.2155 41.9383C91.2155 41.8915 91.2155 41.8447 91.2155 41.798C91.2155 41.7512 91.2155 41.7045 91.2155 41.6578C91.2155 41.6111 91.2155 41.5644 91.2155 41.5177C91.2155 41.4711 91.2155 41.4244 91.2155 41.3778C91.2155 41.3312 91.2155 41.2846 91.2155 41.238C91.2155 41.1915 91.2155 41.1449 91.2155 41.0984C91.2155 41.0519 91.2155 41.0054 91.2155 40.959C91.2155 40.9125 91.2155 40.8661 91.2155 40.8197C91.2155 40.7733 91.2155 40.7269 91.2155 40.6805C91.2155 40.6342 91.2155 40.5878 91.2155 40.5415C91.2155 40.4952 91.2155 40.449 91.2155 40.4027C91.2155 40.3565 91.2155 40.3103 91.2155 40.2641C91.2155 40.2179 91.2155 40.1717 91.2155 40.1256C91.2155 40.0794 91.2155 40.0333 91.2155 39.9873C91.2155 39.9412 91.2155 39.8951 91.2155 39.8491C91.2155 39.8031 91.2155 39.7571 91.2155 39.7112C91.2155 39.6652 91.2155 39.6193 91.2155 39.5734C91.2155 39.5275 91.2155 39.4816 91.2155 39.4358C91.2155 39.3899 91.2155 39.3441 91.2155 39.2983C91.2155 39.2526 91.2155 39.2068 91.2155 39.1611C91.2155 39.1154 91.2155 39.0697 91.2155 39.024C91.2155 38.9784 91.2155 38.9328 91.2155 38.8872C91.2155 38.8416 91.2155 38.796 91.2155 38.7505C91.2155 38.705 91.2155 38.6595 91.2155 38.614C91.2155 38.5686 91.2155 38.5231 91.2155 38.4778C91.2155 38.4324 91.2155 38.387 91.2155 38.3417C91.2155 38.2963 91.2155 38.2511 91.2155 38.2058C91.2155 38.1605 91.2155 38.1153 91.2155 38.0701C91.2155 38.0249 91.2155 37.9798 91.2155 37.9347C91.2155 37.8895 91.2155 37.8444 91.2155 37.7994C91.2155 37.7543 91.2155 37.7093 91.2155 37.6643C91.2155 37.6194 91.2155 37.5744 91.2155 37.5295C91.2155 37.4846 91.2155 37.4397 91.2155 37.3949C91.2155 37.35 91.2155 37.3052 91.2155 37.2605C91.2155 37.2157 91.2155 37.171 91.2155 37.1263C91.2155 37.0816 91.2155 37.037 91.2155 36.9923C91.2155 36.9477 91.2155 36.9031 91.2155 36.8586C91.2155 36.8141 91.2155 36.7696 91.2155 36.7251C91.2155 36.6806 91.2155 36.6362 91.2155 36.5918C91.2155 36.5474 91.2155 36.5031 91.2155 36.4588C91.2155 36.4145 91.2155 36.3702 91.2155 36.326C91.2155 36.2817 91.2155 36.2376 91.2155 36.1934C91.2155 36.1493 91.2155 36.1051 91.2155 36.0611C91.2155 36.017 91.2155 35.973 91.2155 35.929C91.2155 35.885 91.2155 35.841 91.2155 35.7971C91.2155 35.7532 91.2155 35.7094 91.2155 35.6655C91.2155 35.6217 91.2155 35.5779 91.2155 35.5342C91.2155 35.4905 91.2155 35.4468 91.2155 35.4031C91.2155 35.3594 91.2155 35.3158 91.2155 35.2723C91.2155 35.2287 91.2155 35.1852 91.2155 35.1417C91.2155 35.0982 91.2155 35.0547 91.2155 35.0113C91.2155 34.9679 91.2155 34.9246 91.2155 34.8813C91.2155 34.838 91.2155 34.7947 91.2155 34.7515C91.2155 34.7082 91.2155 34.6651 91.2155 34.6219C91.2155 34.5788 91.2155 34.5357 91.2155 34.4927C91.2155 34.4496 91.2155 34.4066 91.2155 34.3637C91.2155 34.3207 91.2155 34.2778 91.2155 34.2349C91.2155 34.1921 91.2155 34.1492 91.2155 34.1065C91.2155 34.0637 91.2155 34.021 91.2155 33.9783C91.2155 33.9356 91.2155 33.893 91.2155 33.8504C91.2155 33.8078 91.2155 33.7653 91.2155 33.7228C91.2155 33.6803 91.2155 33.6379 91.2155 33.5955C91.2155 33.5531 91.2155 33.5107 91.2155 33.4684C91.2155 33.4261 91.2155 33.3839 91.2155 33.3417C91.2155 33.2995 91.2155 33.2573 91.2155 33.2152C91.2155 33.1731 91.2155 33.1311 91.2155 33.089C91.2155 33.047 91.2155 33.0051 91.2155 32.9632C91.2155 32.9213 91.2155 32.8794 91.2155 32.8376C91.2155 32.7958 91.2155 32.754 91.2155 32.7123C91.2155 32.6706 91.2155 32.629 91.2155 32.5874C91.2155 32.5458 91.2155 32.5042 91.2155 32.4627C91.2155 32.4212 91.2155 32.3798 91.2155 32.3384C91.2155 32.297 91.2155 32.2556 91.2155 32.2143C91.2155 32.173 91.2155 32.1318 91.2155 32.0906C91.2155 32.0494 91.2155 32.0083 91.2155 31.9672C91.2155 31.9261 91.2155 31.8851 91.2155 31.8441C91.2155 31.8031 91.2155 31.7622 91.2155 31.7213C91.2155 31.6805 91.2155 31.6396 91.2155 31.5989C91.2155 31.5581 91.2155 31.5174 91.2155 31.4768C91.2155 31.4361 91.2155 31.3955 91.2155 31.355C91.2155 31.3144 91.2155 31.2739 91.2155 31.2335C91.2155 31.1931 91.2155 31.1527 91.2155 31.1124C91.2155 31.072 91.2155 31.0318 91.2155 30.9916C91.2155 30.9513 91.2155 30.9112 91.2155 30.8711C91.2155 30.831 91.2155 30.791 91.2155 30.751C91.2155 30.711 91.2155 30.6711 91.2155 30.6312C91.2155 30.5913 91.2155 30.5515 91.2155 30.5117C91.2155 30.472 91.2155 30.4323 91.2155 30.3927C91.2155 30.353 91.2155 30.3134 91.2155 30.2739C91.2155 30.2344 91.2155 30.1949 91.2155 30.1555C91.2155 30.1161 91.2155 30.0768 91.2155 30.0375C91.2155 29.9982 91.2155 29.959 91.2155 29.9198C91.2155 29.8806 91.2155 29.8415 91.2155 29.8025C91.2155 29.7634 91.2155 29.7244 91.2155 29.6855C91.2155 29.6466 91.2155 29.6077 91.2155 29.5689C91.2155 29.5301 91.2155 29.4914 91.2155 29.4527C91.2155 29.414 91.2155 29.3754 91.2155 29.3368C91.2155 29.2983 91.2155 29.2598 91.2155 29.2213C91.2155 29.1829 91.2155 29.1445 91.2155 29.1062C91.2155 29.0679 91.2155 29.0296 91.2155 28.9914C91.2155 28.9533 91.2155 28.9151 91.2155 28.8771C91.2155 28.839 91.2155 28.801 91.2155 28.7631C91.2155 28.7251 91.2155 28.6873 91.2155 28.6495C91.2155 28.6117 91.2155 28.5739 91.2155 28.5362C91.2155 28.4986 91.2155 28.461 91.2155 28.4234C91.2155 28.3859 91.2155 28.3484 91.2155 28.311C91.2155 28.2735 91.2155 28.2362 91.2155 28.1989C91.2155 28.1616 91.2155 28.1244 91.2155 28.0872C91.2155 28.0501 91.2155 28.013 91.2155 27.976C91.2155 27.9389 91.2155 27.902 91.2155 27.8651C91.2155 27.8282 91.2155 27.7914 91.2155 27.7546C91.2155 27.7179 91.2155 27.6812 91.2155 27.6446C91.2155 27.608 91.2155 27.5714 91.2155 27.5349C91.2155 27.4984 91.2155 27.462 91.2155 27.4257C91.2155 27.3893 91.2155 27.353 91.2155 27.3168H90.7155C90.7155 27.353 90.7155 27.3893 90.7155 27.4257C90.7155 27.462 90.7155 27.4984 90.7155 27.5349C90.7155 27.5714 90.7155 27.608 90.7155 27.6446C90.7155 27.6812 90.7155 27.7179 90.7155 27.7546C90.7155 27.7914 90.7155 27.8282 90.7155 27.8651C90.7155 27.902 90.7155 27.9389 90.7155 27.976C90.7155 28.013 90.7155 28.0501 90.7155 28.0872C90.7155 28.1244 90.7155 28.1616 90.7155 28.1989C90.7155 28.2362 90.7155 28.2735 90.7155 28.311C90.7155 28.3484 90.7155 28.3859 90.7155 28.4234C90.7155 28.461 90.7155 28.4986 90.7155 28.5362C90.7155 28.5739 90.7155 28.6117 90.7155 28.6495C90.7155 28.6873 90.7155 28.7251 90.7155 28.7631C90.7155 28.801 90.7155 28.839 90.7155 28.8771C90.7155 28.9151 90.7155 28.9533 90.7155 28.9914C90.7155 29.0296 90.7155 29.0679 90.7155 29.1062C90.7155 29.1445 90.7155 29.1829 90.7155 29.2213C90.7155 29.2598 90.7155 29.2983 90.7155 29.3368C90.7155 29.3754 90.7155 29.414 90.7155 29.4527C90.7155 29.4914 90.7155 29.5301 90.7155 29.5689C90.7155 29.6077 90.7155 29.6466 90.7155 29.6855C90.7155 29.7244 90.7155 29.7634 90.7155 29.8025C90.7155 29.8415 90.7155 29.8806 90.7155 29.9198C90.7155 29.959 90.7155 29.9982 90.7155 30.0375C90.7155 30.0768 90.7155 30.1161 90.7155 30.1555C90.7155 30.1949 90.7155 30.2344 90.7155 30.2739C90.7155 30.3134 90.7155 30.353 90.7155 30.3927C90.7155 30.4323 90.7155 30.472 90.7155 30.5117C90.7155 30.5515 90.7155 30.5913 90.7155 30.6312C90.7155 30.6711 90.7155 30.711 90.7155 30.751C90.7155 30.791 90.7155 30.831 90.7155 30.8711C90.7155 30.9112 90.7155 30.9513 90.7155 30.9916C90.7155 31.0318 90.7155 31.072 90.7155 31.1124C90.7155 31.1527 90.7155 31.1931 90.7155 31.2335C90.7155 31.2739 90.7155 31.3144 90.7155 31.355C90.7155 31.3955 90.7155 31.4361 90.7155 31.4768C90.7155 31.5174 90.7155 31.5581 90.7155 31.5989C90.7155 31.6396 90.7155 31.6805 90.7155 31.7213C90.7155 31.7622 90.7155 31.8031 90.7155 31.8441C90.7155 31.8851 90.7155 31.9261 90.7155 31.9672C90.7155 32.0083 90.7155 32.0494 90.7155 32.0906C90.7155 32.1318 90.7155 32.173 90.7155 32.2143C90.7155 32.2556 90.7155 32.297 90.7155 32.3384C90.7155 32.3798 90.7155 32.4212 90.7155 32.4627C90.7155 32.5042 90.7155 32.5458 90.7155 32.5874C90.7155 32.629 90.7155 32.6706 90.7155 32.7123C90.7155 32.754 90.7155 32.7958 90.7155 32.8376C90.7155 32.8794 90.7155 32.9213 90.7155 32.9632C90.7155 33.0051 90.7155 33.047 90.7155 33.089C90.7155 33.1311 90.7155 33.1731 90.7155 33.2152C90.7155 33.2573 90.7155 33.2995 90.7155 33.3417C90.7155 33.3839 90.7155 33.4261 90.7155 33.4684C90.7155 33.5107 90.7155 33.5531 90.7155 33.5955C90.7155 33.6379 90.7155 33.6803 90.7155 33.7228C90.7155 33.7653 90.7155 33.8078 90.7155 33.8504C90.7155 33.893 90.7155 33.9356 90.7155 33.9783C90.7155 34.021 90.7155 34.0637 90.7155 34.1065C90.7155 34.1492 90.7155 34.1921 90.7155 34.2349C90.7155 34.2778 90.7155 34.3207 90.7155 34.3637C90.7155 34.4066 90.7155 34.4496 90.7155 34.4927C90.7155 34.5357 90.7155 34.5788 90.7155 34.6219C90.7155 34.6651 90.7155 34.7082 90.7155 34.7515C90.7155 34.7947 90.7155 34.838 90.7155 34.8813C90.7155 34.9246 90.7155 34.9679 90.7155 35.0113C90.7155 35.0547 90.7155 35.0982 90.7155 35.1417C90.7155 35.1852 90.7155 35.2287 90.7155 35.2723C90.7155 35.3158 90.7155 35.3594 90.7155 35.4031C90.7155 35.4468 90.7155 35.4905 90.7155 35.5342C90.7155 35.5779 90.7155 35.6217 90.7155 35.6655C90.7155 35.7094 90.7155 35.7532 90.7155 35.7971C90.7155 35.841 90.7155 35.885 90.7155 35.929C90.7155 35.973 90.7155 36.017 90.7155 36.0611C90.7155 36.1051 90.7155 36.1493 90.7155 36.1934C90.7155 36.2376 90.7155 36.2817 90.7155 36.326C90.7155 36.3702 90.7155 36.4145 90.7155 36.4588C90.7155 36.5031 90.7155 36.5474 90.7155 36.5918C90.7155 36.6362 90.7155 36.6806 90.7155 36.7251C90.7155 36.7696 90.7155 36.8141 90.7155 36.8586C90.7155 36.9031 90.7155 36.9477 90.7155 36.9923C90.7155 37.037 90.7155 37.0816 90.7155 37.1263C90.7155 37.171 90.7155 37.2157 90.7155 37.2605C90.7155 37.3052 90.7155 37.35 90.7155 37.3949C90.7155 37.4397 90.7155 37.4846 90.7155 37.5295C90.7155 37.5744 90.7155 37.6194 90.7155 37.6643C90.7155 37.7093 90.7155 37.7543 90.7155 37.7994C90.7155 37.8444 90.7155 37.8895 90.7155 37.9347C90.7155 37.9798 90.7155 38.0249 90.7155 38.0701C90.7155 38.1153 90.7155 38.1605 90.7155 38.2058C90.7155 38.2511 90.7155 38.2963 90.7155 38.3417C90.7155 38.387 90.7155 38.4324 90.7155 38.4778C90.7155 38.5231 90.7155 38.5686 90.7155 38.614C90.7155 38.6595 90.7155 38.705 90.7155 38.7505C90.7155 38.796 90.7155 38.8416 90.7155 38.8872C90.7155 38.9328 90.7155 38.9784 90.7155 39.024C90.7155 39.0697 90.7155 39.1154 90.7155 39.1611C90.7155 39.2068 90.7155 39.2526 90.7155 39.2983C90.7155 39.3441 90.7155 39.3899 90.7155 39.4358C90.7155 39.4816 90.7155 39.5275 90.7155 39.5734C90.7155 39.6193 90.7155 39.6652 90.7155 39.7112C90.7155 39.7571 90.7155 39.8031 90.7155 39.8491C90.7155 39.8951 90.7155 39.9412 90.7155 39.9873C90.7155 40.0333 90.7155 40.0794 90.7155 40.1256C90.7155 40.1717 90.7155 40.2179 90.7155 40.2641C90.7155 40.3103 90.7155 40.3565 90.7155 40.4027C90.7155 40.449 90.7155 40.4952 90.7155 40.5415C90.7155 40.5878 90.7155 40.6342 90.7155 40.6805C90.7155 40.7269 90.7155 40.7733 90.7155 40.8197C90.7155 40.8661 90.7155 40.9125 90.7155 40.959C90.7155 41.0054 90.7155 41.0519 90.7155 41.0984C90.7155 41.1449 90.7155 41.1915 90.7155 41.238C90.7155 41.2846 90.7155 41.3312 90.7155 41.3778C90.7155 41.4244 90.7155 41.4711 90.7155 41.5177C90.7155 41.5644 90.7155 41.6111 90.7155 41.6578C90.7155 41.7045 90.7155 41.7512 90.7155 41.798C90.7155 41.8447 90.7155 41.8915 90.7155 41.9383C90.7155 41.9851 90.7155 42.032 90.7155 42.0788C90.7155 42.1257 90.7155 42.1726 90.7155 42.2194C90.7155 42.2663 90.7155 42.3133 90.7155 42.3602C90.7155 42.4072 90.7155 42.4541 90.7155 42.5011C90.7155 42.5481 90.7155 42.5951 90.7155 42.6421C90.7155 42.6892 90.7155 42.7362 90.7155 42.7833C90.7155 42.8303 90.7155 42.8774 90.7155 42.9246C90.7155 42.9717 90.7155 43.0188 90.7155 43.066C90.7155 43.1131 90.7155 43.1603 90.7155 43.2075C90.7155 43.2547 90.7155 43.3019 90.7155 43.3491C90.7155 43.3963 90.7155 43.4436 90.7155 43.4909C90.7155 43.5381 90.7155 43.5854 90.7155 43.6327C90.7155 43.68 90.7155 43.7274 90.7155 43.7747C90.7155 43.8221 90.7155 43.8694 90.7155 43.9168C90.7155 43.9642 90.7155 44.0116 90.7155 44.059C90.7155 44.1064 90.7155 44.1539 90.7155 44.2013C90.7155 44.2488 90.7155 44.2962 90.7155 44.3437C90.7155 44.3912 90.7155 44.4387 90.7155 44.4862C90.7155 44.5337 90.7155 44.5813 90.7155 44.6288C90.7155 44.6764 90.7155 44.7239 90.7155 44.7715C90.7155 44.8191 90.7155 44.8667 90.7155 44.9143C90.7155 44.9619 90.7155 45.0095 90.7155 45.0572C90.7155 45.1048 90.7155 45.1525 90.7155 45.2001C90.7155 45.2478 90.7155 45.2955 90.7155 45.3432C90.7155 45.3909 90.7155 45.4386 90.7155 45.4863C90.7155 45.534 90.7155 45.5818 90.7155 45.6295C90.7155 45.6773 90.7155 45.725 90.7155 45.7728C90.7155 45.8206 90.7155 45.8684 90.7155 45.9162C90.7155 45.964 90.7155 46.0118 90.7155 46.0596C90.7155 46.1074 90.7155 46.1553 90.7155 46.2031C90.7155 46.251 90.7155 46.2988 90.7155 46.3467C90.7155 46.3946 90.7155 46.4424 90.7155 46.4903C90.7155 46.5382 90.7155 46.5861 90.7155 46.634C90.7155 46.682 90.7155 46.7299 90.7155 46.7778C90.7155 46.8257 90.7155 46.8737 90.7155 46.9216C90.7155 46.9696 90.7155 47.0176 90.7155 47.0655C90.7155 47.1135 90.7155 47.1615 90.7155 47.2095C90.7155 47.2575 90.7155 47.3054 90.7155 47.3535C90.7155 47.4015 90.7155 47.4495 90.7155 47.4975C90.7155 47.5455 90.7155 47.5935 90.7155 47.6416C90.7155 47.6896 90.7155 47.7377 90.7155 47.7857C90.7155 47.8338 90.7155 47.8818 90.7155 47.9299C90.7155 47.978 90.7155 48.026 90.7155 48.0741C90.7155 48.1222 90.7155 48.1703 90.7155 48.2184C90.7155 48.2664 90.7155 48.3145 90.7155 48.3626C90.7155 48.4107 90.7155 48.4589 90.7155 48.507C90.7155 48.5551 90.7155 48.6032 90.7155 48.6513C90.7155 48.6994 90.7155 48.7476 90.7155 48.7957C90.7155 48.8438 90.7155 48.892 90.7155 48.9401C90.7155 48.9882 90.7155 49.0364 90.7155 49.0845C90.7155 49.1327 90.7155 49.1808 90.7155 49.229C90.7155 49.2771 90.7155 49.3253 90.7155 49.3734C90.7155 49.4216 90.7155 49.4698 90.7155 49.5179C90.7155 49.5661 90.7155 49.6143 90.7155 49.6624C90.7155 49.7106 90.7155 49.7588 90.7155 49.8069C90.7155 49.8551 90.7155 49.9033 90.7155 49.9515C90.7155 49.9996 90.7155 50.0478 90.7155 50.096C90.7155 50.1442 90.7155 50.1923 90.7155 50.2405C90.7155 50.2887 90.7155 50.3369 90.7155 50.385C90.7155 50.4332 90.7155 50.4814 90.7155 50.5296C90.7155 50.5778 90.7155 50.6259 90.7155 50.6741C90.7155 50.7223 90.7155 50.7705 90.7155 50.8186C90.7155 50.8668 90.7155 50.915 90.7155 50.9632C90.7155 51.0113 90.7155 51.0595 90.7155 51.1077C90.7155 51.1558 90.7155 51.204 90.7155 51.2522C90.7155 51.3003 90.7155 51.3485 90.7155 51.3966C90.7155 51.4448 90.7155 51.4929 90.7155 51.5411C90.7155 51.5892 90.7155 51.6374 90.7155 51.6855C90.7155 51.7337 90.7155 51.7818 90.7155 51.83C90.7155 51.8781 90.7155 51.9262 90.7155 51.9744C90.7155 52.0225 90.7155 52.0706 90.7155 52.1187C90.7155 52.1669 90.7155 52.215 90.7155 52.2631C90.7155 52.3112 90.7155 52.3593 90.7155 52.4074C90.7155 52.4555 90.7155 52.5036 90.7155 52.5517C90.7155 52.5998 90.7155 52.6478 90.7155 52.6959C90.7155 52.744 90.7155 52.792 90.7155 52.8401C90.7155 52.8882 90.7155 52.9362 90.7155 52.9843C90.7155 53.0323 90.7155 53.0804 90.7155 53.1284C90.7155 53.1764 90.7155 53.2245 90.7155 53.2725C90.7155 53.3205 90.7155 53.3685 90.7155 53.4165C90.7155 53.4645 90.7155 53.5125 90.7155 53.5605C90.7155 53.6085 90.7155 53.6564 90.7155 53.7044C90.7155 53.7524 90.7155 53.8003 90.7155 53.8483C90.7155 53.8962 90.7155 53.9441 90.7155 53.9921C90.7155 54.04 90.7155 54.0879 90.7155 54.1358C90.7155 54.1837 90.7155 54.2316 90.7155 54.2795C90.7155 54.3274 90.7155 54.3753 90.7155 54.4231C90.7155 54.471 90.7155 54.5189 90.7155 54.5667C90.7155 54.6145 90.7155 54.6624 90.7155 54.7102C90.7155 54.758 90.7155 54.8058 90.7155 54.8536C90.7155 54.9014 90.7155 54.9492 90.7155 54.9969C90.7155 55.0447 90.7155 55.0925 90.7155 55.1402C90.7155 55.188 90.7155 55.2357 90.7155 55.2834C90.7155 55.3311 90.7155 55.3788 90.7155 55.4265C90.7155 55.4742 90.7155 55.5219 90.7155 55.5695C90.7155 55.6172 90.7155 55.6648 90.7155 55.7125C90.7155 55.7601 90.7155 55.8077 90.7155 55.8553C90.7155 55.9029 90.7155 55.9505 90.7155 55.9981C90.7155 56.0457 90.7155 56.0932 90.7155 56.1407C90.7155 56.1883 90.7155 56.2358 90.7155 56.2833C90.7155 56.3308 90.7155 56.3783 90.7155 56.4258C90.7155 56.4733 90.7155 56.5207 90.7155 56.5682C90.7155 56.6156 90.7155 56.663 90.7155 56.7104C90.7155 56.7578 90.7155 56.8052 90.7155 56.8526C90.7155 56.9 90.7155 56.9473 90.7155 56.9947C90.7155 57.042 90.7155 57.0893 90.7155 57.1366C90.7155 57.1839 90.7155 57.2312 90.7155 57.2784C90.7155 57.3257 90.7155 57.3729 90.7155 57.4202C90.7155 57.4674 90.7155 57.5146 90.7155 57.5618C90.7155 57.609 90.7155 57.6561 90.7155 57.7033C90.7155 57.7504 90.7155 57.7975 90.7155 57.8446C90.7155 57.8917 90.7155 57.9388 90.7155 57.9859C90.7155 58.0329 90.7155 58.08 90.7155 58.127C90.7155 58.174 90.7155 58.221 90.7155 58.268C90.7155 58.3149 90.7155 58.3619 90.7155 58.4088C90.7155 58.4557 90.7155 58.5027 90.7155 58.5495C90.7155 58.5964 90.7155 58.6433 90.7155 58.6901C90.7155 58.737 90.7155 58.7838 90.7155 58.8306C90.7155 58.8774 90.7155 58.9241 90.7155 58.9709C90.7155 59.0176 90.7155 59.0644 90.7155 59.111C90.7155 59.1577 90.7155 59.2044 90.7155 59.2511C90.7155 59.2977 90.7155 59.3443 90.7155 59.3909C90.7155 59.4375 90.7155 59.4841 90.7155 59.5307C90.7155 59.5772 90.7155 59.6237 90.7155 59.6702C90.7155 59.7167 90.7155 59.7632 90.7155 59.8096C90.7155 59.8561 90.7155 59.9025 90.7155 59.9489C90.7155 59.9953 90.7155 60.0417 90.7155 60.088C90.7155 60.1343 90.7155 60.1807 90.7155 60.2269C90.7155 60.2732 90.7155 60.3195 90.7155 60.3657C90.7155 60.4119 90.7155 60.4581 90.7155 60.5043C90.7155 60.5505 90.7155 60.5966 90.7155 60.6428C90.7155 60.6889 90.7155 60.735 90.7155 60.781C90.7155 60.8271 90.7155 60.8731 90.7155 60.9191C90.7155 60.9651 90.7155 61.0111 90.7155 61.057C90.7155 61.103 90.7155 61.1489 90.7155 61.1948C90.7155 61.2406 90.7155 61.2865 90.7155 61.3323C90.7155 61.3781 90.7155 61.4239 90.7155 61.4697C90.7155 61.5154 90.7155 61.5612 90.7155 61.6069C90.7155 61.6526 90.7155 61.6982 90.7155 61.7439C90.7155 61.7895 90.7155 61.8351 90.7155 61.8807C90.7155 61.9263 90.7155 61.9718 90.7155 62.0173C90.7155 62.0628 90.7155 62.1083 90.7155 62.1537C90.7155 62.1992 90.7155 62.2446 90.7155 62.2899C90.7155 62.3353 90.7155 62.3807 90.7155 62.426C90.7155 62.4713 90.7155 62.5165 90.7155 62.5618C90.7155 62.607 90.7155 62.6522 90.7155 62.6974C90.7155 62.7426 90.7155 62.7877 90.7155 62.8328C90.7155 62.8779 90.7155 62.923 90.7155 62.968C90.7155 63.013 90.7155 63.058 90.7155 63.103C90.7155 63.148 90.7155 63.1929 90.7155 63.2378C90.7155 63.2827 90.7155 63.3275 90.7155 63.3723C90.7155 63.4171 90.7155 63.4619 90.7155 63.5067C90.7155 63.5514 90.7155 63.5961 90.7155 63.6408C90.7155 63.6855 90.7155 63.7301 90.7155 63.7747C90.7155 63.8193 90.7155 63.8638 90.7155 63.9084C90.7155 63.9529 90.7155 63.9973 90.7155 64.0418C90.7155 64.0862 90.7155 64.1306 90.7155 64.175C90.7155 64.2194 90.7155 64.2637 90.7155 64.308C90.7155 64.3523 90.7155 64.3965 90.7155 64.4407C90.7155 64.4849 90.7155 64.5291 90.7155 64.5732C90.7155 64.6173 90.7155 64.6614 90.7155 64.7055C90.7155 64.7495 90.7155 64.7935 90.7155 64.8375C90.7155 64.8815 90.7155 64.9254 90.7155 64.9693C90.7155 65.0132 90.7155 65.057 90.7155 65.1008C90.7155 65.1446 90.7155 65.1884 90.7155 65.2321C90.7155 65.2758 90.7155 65.3195 90.7155 65.3631C90.7155 65.4067 90.7155 65.4503 90.7155 65.4939C90.7155 65.5374 90.7155 65.5809 90.7155 65.6244C90.7155 65.6678 90.7155 65.7113 90.7155 65.7546C90.7155 65.798 90.7155 65.8413 90.7155 65.8846C90.7155 65.9279 90.7155 65.9712 90.7155 66.0144C90.7155 66.0576 90.7155 66.1007 90.7155 66.1438C90.7155 66.1869 90.7155 66.23 90.7155 66.273C90.7155 66.316 90.7155 66.359 90.7155 66.4019C90.7155 66.4449 90.7155 66.4878 90.7155 66.5306C90.7155 66.5734 90.7155 66.6162 90.7155 66.659C90.7155 66.7017 90.7155 66.7444 90.7155 66.7871C90.7155 66.8297 90.7155 66.8723 90.7155 66.9149C90.7155 66.9574 90.7155 66.9999 90.7155 67.0424C90.7155 67.0849 90.7155 67.1273 90.7155 67.1697C90.7155 67.212 90.7155 67.2543 90.7155 67.2966C90.7155 67.3389 90.7155 67.3811 90.7155 67.4233C90.7155 67.4655 90.7155 67.5076 90.7155 67.5497C90.7155 67.5917 90.7155 67.6338 90.7155 67.6757C90.7155 67.7177 90.7155 67.7596 90.7155 67.8015C90.7155 67.8434 90.7155 67.8852 90.7155 67.927C90.7155 67.9688 90.7155 68.0105 90.7155 68.0522C90.7155 68.0939 90.7155 68.1355 90.7155 68.1771C90.7155 68.2186 90.7155 68.2602 90.7155 68.3016C90.7155 68.3431 90.7155 68.3845 90.7155 68.4259C90.7155 68.4673 90.7155 68.5086 90.7155 68.5498C90.7155 68.5911 90.7155 68.6323 90.7155 68.6735C90.7155 68.7146 90.7155 68.7557 90.7155 68.7968C90.7155 68.8379 90.7155 68.8789 90.7155 68.9198C90.7155 68.9607 90.7155 69.0016 90.7155 69.0425C90.7155 69.0833 90.7155 69.1241 90.7155 69.1648C90.7155 69.2056 90.7155 69.2462 90.7155 69.2869C90.7155 69.3275 90.7155 69.3681 90.7155 69.4086C90.7155 69.4491 90.7155 69.4895 90.7155 69.5299C90.7155 69.5703 90.7155 69.6107 90.7155 69.651C90.7155 69.6913 90.7155 69.7315 90.7155 69.7717C90.7155 69.8119 90.7155 69.852 90.7155 69.892C90.7155 69.9321 90.7155 69.9721 90.7155 70.0121C90.7155 70.052 90.7155 70.0919 90.7155 70.1318C90.7155 70.1716 90.7155 70.2114 90.7155 70.2511C90.7155 70.2908 90.7155 70.3305 90.7155 70.3701C90.7155 70.4097 90.7155 70.4492 90.7155 70.4887C90.7155 70.5282 90.7155 70.5676 90.7155 70.607C90.7155 70.6464 90.7155 70.6857 90.7155 70.725C90.7155 70.7642 90.7155 70.8034 90.7155 70.8425C90.7155 70.8817 90.7155 70.9207 90.7155 70.9598C90.7155 70.9988 90.7155 71.0377 90.7155 71.0766C90.7155 71.1155 90.7155 71.1543 90.7155 71.1931C90.7155 71.2319 90.7155 71.2706 90.7155 71.3092C90.7155 71.3479 90.7155 71.3865 90.7155 71.425C90.7155 71.4635 90.7155 71.502 90.7155 71.5404C90.7155 71.5788 90.7155 71.6171 90.7155 71.6554C90.7155 71.6937 90.7155 71.7319 90.7155 71.7701C90.7155 71.8082 90.7155 71.8463 90.7155 71.8843C90.7155 71.9223 90.7155 71.9603 90.7155 71.9982C90.7155 72.0361 90.7155 72.0739 90.7155 72.1117C90.7155 72.1495 90.7155 72.1872 90.7155 72.2248C90.7155 72.2625 90.7155 72.3 90.7155 72.3375C90.7155 72.375 90.7155 72.4125 90.7155 72.4499C90.7155 72.4873 90.7155 72.5246 90.7155 72.5618C90.7155 72.5991 90.7155 72.6363 90.7155 72.6734C90.7155 72.7105 90.7155 72.7475 90.7155 72.7845C90.7155 72.8215 90.7155 72.8584 90.7155 72.8953C90.7155 72.9321 90.7155 72.9689 90.7155 73.0056C90.7155 73.0423 90.7155 73.079 90.7155 73.1156C90.7155 73.1522 90.7155 73.1887 90.7155 73.2251C90.7155 73.2616 90.7155 73.2979 90.7155 73.3342C90.7155 73.3706 90.7155 73.4068 90.7155 73.443C90.7155 73.4791 90.7155 73.5152 90.7155 73.5513C90.7155 73.5873 90.7155 73.6233 90.7155 73.6592C90.7155 73.6951 90.7155 73.7309 90.7155 73.7666C90.7155 73.8024 90.7155 73.8381 90.7155 73.8737C90.7155 73.9093 90.7155 73.9448 90.7155 73.9803C90.7155 74.0158 90.7155 74.0512 90.7155 74.0865C90.7155 74.1219 90.7155 74.1571 90.7155 74.1923C90.7155 74.2275 90.7155 74.2626 90.7155 74.2976C90.7155 74.3327 90.7155 74.3677 90.7155 74.4026C90.7155 74.4375 90.7155 74.4723 90.7155 74.507C90.7155 74.5418 90.7155 74.5765 90.7155 74.6111C90.7155 74.6457 90.7155 74.6802 90.7155 74.7147C90.7155 74.7491 90.7155 74.7835 90.7155 74.8178C90.7155 74.8521 90.7155 74.8864 90.7155 74.9205C90.7155 74.9547 90.7155 74.9888 90.7155 75.0228C90.7155 75.0568 90.7155 75.0908 90.7155 75.1246C90.7155 75.1585 90.7155 75.1923 90.7155 75.226C90.7155 75.2597 90.7155 75.2933 90.7155 75.3269C90.7155 75.3605 90.7155 75.394 90.7155 75.4274C90.7155 75.4608 90.7155 75.4941 90.7155 75.5274C90.7155 75.5606 90.7155 75.5938 90.7155 75.6269C90.7155 75.66 90.7155 75.693 90.7155 75.726C90.7155 75.7589 90.7155 75.7918 90.7155 75.8246C90.7155 75.8574 90.7155 75.8901 90.7155 75.9227C90.7155 75.9553 90.7155 75.9879 90.7155 76.0204C90.7155 76.0528 90.7155 76.0853 90.7155 76.1176C90.7155 76.1499 90.7155 76.1821 90.7155 76.2143C90.7155 76.2464 90.7155 76.2785 90.7155 76.3105C90.7155 76.3425 90.7155 76.3745 90.7155 76.4063C90.7155 76.4381 90.7155 76.4699 90.7155 76.5016C90.7155 76.5332 90.7155 76.5648 90.7155 76.5964C90.7155 76.6279 90.7155 76.6593 90.7155 76.6907C90.7155 76.722 90.7155 76.7533 90.7155 76.7845C90.7155 76.8157 90.7155 76.8468 90.7155 76.8778C90.7155 76.9088 90.7155 76.9398 90.7155 76.9706C90.7155 77.0015 90.7155 77.0323 90.7155 77.063C90.7155 77.0937 90.7155 77.1243 90.7155 77.1548C90.7155 77.1853 90.7155 77.2158 90.7155 77.2461C90.7155 77.2765 90.7155 77.3068 90.7155 77.337C90.7155 77.3671 90.7155 77.3973 90.7155 77.4273C90.7155 77.4573 90.7155 77.4872 90.7155 77.5171C90.7155 77.5469 90.7155 77.5767 90.7155 77.6064C90.7155 77.6361 90.7155 77.6657 90.7155 77.6952C90.7155 77.7247 90.7155 77.7541 90.7155 77.7835C90.7155 77.8128 90.7155 77.842 90.7155 77.8712C90.7155 77.9004 90.7155 77.9295 90.7155 77.9584C90.7155 77.9874 90.7155 78.0163 90.7155 78.0452C90.7155 78.074 90.7155 78.1027 90.7155 78.1313C90.7155 78.16 90.7155 78.1885 90.7155 78.217C90.7155 78.2455 90.7155 78.2738 90.7155 78.3021C90.7155 78.3304 90.7155 78.3586 90.7155 78.3867C90.7155 78.4148 90.7155 78.4429 90.7155 78.4708C90.7155 78.4987 90.7155 78.5266 90.7155 78.5543C90.7155 78.5821 90.7155 78.6097 90.7155 78.6373C90.7155 78.6649 90.7155 78.6923 90.7155 78.7197C90.7155 78.7471 90.7155 78.7744 90.7155 78.8016C90.7155 78.8288 90.7155 78.856 90.7155 78.883C90.7155 78.91 90.7155 78.9369 90.7155 78.9638C90.7155 78.9906 90.7155 79.0174 90.7155 79.044C90.7155 79.0707 90.7155 79.0973 90.7155 79.1237C90.7155 79.1502 90.7155 79.1766 90.7155 79.2029C90.7155 79.2292 90.7155 79.2554 90.7155 79.2815C90.7155 79.3076 90.7155 79.3336 90.7155 79.3595C90.7155 79.3854 90.7155 79.4112 90.7155 79.4369C90.7155 79.4627 90.7155 79.4883 90.7155 79.5138C90.7155 79.5394 90.7155 79.5648 90.7155 79.5901C90.7155 79.6155 90.7155 79.6407 90.7155 79.6659C90.7155 79.6911 90.7155 79.7161 90.7155 79.7411C90.7155 79.7661 90.7155 79.7909 90.7155 79.8157C90.7155 79.8405 90.7155 79.8651 90.7155 79.8897C90.7155 79.9143 90.7155 79.9388 90.7155 79.9632C90.7155 79.9875 90.7155 80.0118 90.7155 80.036C90.7155 80.0602 90.7155 80.0843 90.7155 80.1083C90.7155 80.1323 90.7155 80.1562 90.7155 80.18C90.7155 80.2038 90.7155 80.2275 90.7155 80.2511C90.7155 80.2747 90.7155 80.2982 90.7155 80.3216C90.7155 80.345 90.7155 80.3683 90.7155 80.3915C90.7155 80.4147 90.7155 80.4379 90.7155 80.4609C90.7155 80.4839 90.7155 80.5068 90.7155 80.5296C90.7155 80.5524 90.7155 80.5751 90.7155 80.5977C90.7155 80.6203 90.7155 80.6428 90.7155 80.6652C90.7155 80.6876 90.7155 80.7099 90.7155 80.7321C90.7155 80.7543 90.7155 80.7764 90.7155 80.7984C90.7155 80.8204 90.7155 80.8423 90.7155 80.8641C90.7155 80.8859 90.7155 80.9076 90.7155 80.9292C90.7155 80.9508 90.7155 80.9723 90.7155 80.9937C90.7155 81.0151 90.7155 81.0363 90.7155 81.0575C90.7155 81.0787 90.7155 81.0998 90.7155 81.1208C90.7155 81.1417 90.7155 81.1626 90.7155 81.1833C90.7155 81.2041 90.7155 81.2248 90.7155 81.2453C90.7155 81.2659 90.7155 81.2863 90.7155 81.3067C90.7155 81.327 90.7155 81.3473 90.7155 81.3674C90.7155 81.3875 90.7155 81.4076 90.7155 81.4275C90.7155 81.4474 90.7155 81.4672 90.7155 81.4869C90.7155 81.5067 90.7155 81.5263 90.7155 81.5458C90.7155 81.5653 90.7155 81.5847 90.7155 81.6039C90.7155 81.6232 90.7155 81.6424 90.7155 81.6615C90.7155 81.6805 90.7155 81.6995 90.7155 81.7184C90.7155 81.7372 90.7155 81.756 90.7155 81.7746C90.7155 81.7933 90.7155 81.8118 90.7155 81.8302C90.7155 81.8486 90.7155 81.8669 90.7155 81.8852C90.7155 81.9034 90.7155 81.9215 90.7155 81.9394C90.7155 81.9574 90.7155 81.9753 90.7155 81.9931C90.7155 82.0108 90.7155 82.0285 90.7155 82.0461C90.7155 82.0636 90.7155 82.081 90.7155 82.0984C90.7155 82.1157 90.7155 82.1329 90.7155 82.15C90.7155 82.1671 90.7155 82.1841 90.7155 82.201C90.7155 82.2179 90.7155 82.2347 90.7155 82.2513C90.7155 82.268 90.7155 82.2845 90.7155 82.301C90.7155 82.3174 90.7155 82.3337 90.7155 82.35C90.7155 82.3662 90.7155 82.3823 90.7155 82.3983C90.7155 82.4143 90.7155 82.4301 90.7155 82.4459C90.7155 82.4617 90.7155 82.4773 90.7155 82.4928C90.7155 82.5084 90.7155 82.5238 90.7155 82.5391C90.7155 82.5544 90.7155 82.5696 90.7155 82.5847C90.7155 82.5998 90.7155 82.6147 90.7155 82.6296C90.7155 82.6444 90.7155 82.6592 90.7155 82.6738C90.7155 82.6884 90.7155 82.7029 90.7155 82.7173C90.7155 82.7317 90.7155 82.7459 90.7155 82.7601C90.7155 82.7743 90.7155 82.7883 90.7155 82.8022C90.7155 82.8161 90.7155 82.83 90.7155 82.8437C90.7155 82.8573 90.7155 82.8709 90.7155 82.8844C90.7155 82.8978 90.7155 82.9112 90.7155 82.9244C90.7155 82.9376 90.7155 82.9507 90.7155 82.9637C90.7155 82.9767 90.7155 82.9896 90.7155 83.0023C90.7155 83.0151 90.7155 83.0277 90.7155 83.0402C90.7155 83.0527 90.7155 83.0651 90.7155 83.0774C90.7155 83.0897 90.7155 83.1018 90.7155 83.1138C90.7155 83.1259 90.7155 83.1378 90.7155 83.1496C90.7155 83.1614 90.7155 83.1731 90.7155 83.1846C90.7155 83.1962 90.7155 83.2076 90.7155 83.2189C90.7155 83.2302 90.7155 83.2414 90.7155 83.2525C90.7155 83.2636 90.7155 83.2745 90.7155 83.2854C90.7155 83.2962 90.7155 83.3069 90.7155 83.3175C90.7155 83.3281 90.7155 83.3385 90.7155 83.3489C90.7155 83.3592 90.7155 83.3694 90.7155 83.3795C90.7155 83.3896 90.7155 83.3996 90.7155 83.4094C90.7155 83.4193 90.7155 83.429 90.7155 83.4386C90.7155 83.4482 90.7155 83.4577 90.7155 83.4671C90.7155 83.4764 90.7155 83.4856 90.7155 83.4948C90.7155 83.5039 90.7155 83.5128 90.7155 83.5217C90.7155 83.5306 90.7155 83.5393 90.7155 83.5479C90.7155 83.5565 90.7155 83.565 90.7155 83.5734C90.7155 83.5817 90.7155 83.59 90.7155 83.5981C90.7155 83.6062 90.7155 83.6141 90.7155 83.622C90.7155 83.6299 90.7155 83.6376 90.7155 83.6452C90.7155 83.6528 90.7155 83.6603 90.7155 83.6676C90.7155 83.6749 90.7155 83.6822 90.7155 83.6893C90.7155 83.6964 90.7155 83.7033 90.7155 83.7102C90.7155 83.717 90.7155 83.7237 90.7155 83.7303C90.7155 83.7369 90.7155 83.7433 90.7155 83.7496C90.7155 83.756 90.7155 83.7622 90.7155 83.7682C90.7155 83.7743 90.7155 83.7802 90.7155 83.786C90.7155 83.7918 90.7155 83.7975 90.7155 83.8031C90.7155 83.8086 90.7155 83.814 90.7155 83.8193C90.7155 83.8246 90.7155 83.8298 90.7155 83.8348C90.7155 83.8398 90.7155 83.8447 90.7155 83.8495C90.7155 83.8542 90.7155 83.8589 90.7155 83.8634C90.7155 83.8679 90.7155 83.8722 90.7155 83.8765C90.7155 83.8807 90.7155 83.8848 90.7155 83.8888C90.7155 83.8928 90.7155 83.8966 90.7155 83.9003C90.7155 83.904 90.7155 83.9076 90.7155 83.9111C90.7155 83.9145 90.7155 83.9178 90.7155 83.921C90.7155 83.9242 90.7155 83.9272 90.7155 83.9301H91.2155ZM90.9655 27.0668H79.036V27.5668H90.9655V27.0668ZM78.786 54.6303V77.4742H79.286V54.6303H78.786ZM79.036 77.2242H72.5741V77.7242H79.036V77.2242ZM72.5741 77.2242C70.4472 77.2242 68.527 75.9255 67.1271 73.8578C65.7284 71.7921 64.8711 68.9863 64.8711 66.0522H64.3711C64.3711 69.0775 65.2536 71.9827 66.713 74.1381C68.1712 76.2916 70.2275 77.7242 72.5741 77.7242V77.2242ZM64.8711 66.0522C64.8711 60.1627 68.3048 55.3557 72.6017 54.8787L72.5466 54.3818C67.8963 54.898 64.3711 60.0232 64.3711 66.0522H64.8711ZM72.5741 54.8803H79.036V54.3803H72.5741V54.8803ZM90.7155 27.3168V83.9301H91.2155V27.3168H90.7155Z" fill="black"/>
</svg>
