<svg width="48" height="47" viewBox="0 0 48 47" fill="none" xmlns="http://www.w3.org/2000/svg">
<path fill-rule="evenodd" clip-rule="evenodd" d="M24.5515 0.4375C10.5515 0.4375 0.246826 10.75 0.246826 23.75C0.246826 36.75 10.5515 46.5621 24.5515 46.5625C38.5515 46.5629 47.756 37.25 47.7532 23.75C47.7504 10.25 38.5515 0.4375 24.5515 0.4375ZM10.5515 15.25C10.5515 10.05 14.8849 9.25 17.5515 9.25H31.5515C36.3515 9.25 38.5515 12.75 38.5515 15.25V32.25C38.5515 35.45 35.5515 36.75 33.5515 36.75H17.5515C13.1515 36.75 10.5515 35.75 10.5515 32.25V15.25Z" fill="#033F63"/>
<path fill-rule="evenodd" clip-rule="evenodd" d="M17.5515 9.25C14.8849 9.25 10.5515 10.05 10.5515 15.25V32.25C10.5515 35.75 13.1515 36.75 17.5515 36.75H33.5515C35.5515 36.75 38.5515 35.45 38.5515 32.25V15.25C38.5515 12.75 36.3515 9.25 31.5515 9.25H17.5515ZM13.5515 15.25V31.25C13.5515 34.2473 16.0515 34.2473 17.5515 34.2473C22.5515 34.2473 31.3515 34.25 32.5515 34.25C34.0515 34.25 35.5515 33.75 35.5515 31.25V15.25C35.5515 14.25 34.2853 12.25 31.5515 12.25H17.5515C15.0515 12.25 13.5515 13.75 13.5515 15.25Z" fill="white"/>
<path fill-rule="evenodd" clip-rule="evenodd" d="M13.5515 31.25V15.25C13.5515 13.75 15.0515 12.25 17.5515 12.25H31.5515C34.2853 12.25 35.5515 14.25 35.5515 15.25V31.25C35.5515 33.75 34.0515 34.25 32.5515 34.25C31.3515 34.25 22.5515 34.2473 17.5515 34.2473C16.0515 34.2473 13.5515 34.2473 13.5515 31.25ZM16.5515 23.75C16.5515 17.75 20.0515 15.25 24.5515 15.25C29.0515 15.25 32.5515 17.75 32.5515 23.75C32.5515 28.25 29.0515 30.75 24.5515 30.75C20.0515 30.75 16.5515 28.25 16.5515 23.75ZM31.0515 15.25C31.0515 14.45 31.5515 13.75 32.5515 13.75C33.5515 13.75 34.0515 14.4628 34.0515 15.25C34.0515 16.0372 33.5515 16.75 32.5515 16.75C31.5515 16.75 31.0515 16.05 31.0515 15.25Z" fill="#033F63"/>
<path fill-rule="evenodd" clip-rule="evenodd" d="M24.5515 15.25C20.0515 15.25 16.5515 17.75 16.5515 23.75C16.5515 28.25 20.0515 30.75 24.5515 30.75C29.0515 30.75 32.5515 28.25 32.5515 23.75C32.5515 17.75 29.0515 15.25 24.5515 15.25ZM19.5515 23.25C19.5515 19.4979 22.5515 18.25 24.5515 18.25C26.5515 18.25 29.5515 19.75 29.5515 23.25C29.5515 26.75 26.313 27.75 24.5515 27.75C21.5515 27.75 19.5515 25.75 19.5515 23.25Z" fill="white"/>
<path d="M24.5515 18.25C22.5515 18.25 19.5515 19.4979 19.5515 23.25C19.5515 25.75 21.5515 27.75 24.5515 27.75C26.313 27.75 29.5515 26.75 29.5515 23.25C29.5515 19.75 26.5515 18.25 24.5515 18.25Z" fill="#033F63"/>
<path d="M32.5515 13.75C31.5515 13.75 31.0515 14.45 31.0515 15.25C31.0515 16.05 31.5515 16.75 32.5515 16.75C33.5515 16.75 34.0515 16.0372 34.0515 15.25C34.0515 14.4628 33.5515 13.75 32.5515 13.75Z" fill="white"/>
</svg>
