<svg width="47" height="47" viewBox="0 0 47 47" fill="none" xmlns="http://www.w3.org/2000/svg">
<path d="M0.0235543 24.2121C-0.67898 7.28877 14.5 1.04192e-05 23.3373 0C33.4371 0 47.4743 8.62923 46.9877 24.2121C46.501 39.795 32.5113 47 23.3373 47C20.139 47 0.865205 44.4866 0.0235543 24.2121Z" fill="#033F63"/>
<path d="M12.5735 15.7032H8.14777C6.55105 15.7032 6.9618 17.0511 7.36677 17.725C8.37918 19.7174 10.6991 24.2122 11.8793 26.2515C13.3545 28.8007 15.3504 30.9104 17.6934 32.4047C19.5678 33.6002 22.9869 33.9577 24.4622 33.987C25.0985 34.0456 26.3713 33.8112 26.3713 32.4047C26.3713 30.2951 27.1523 29.6797 27.5862 29.6797C28.0201 29.6797 28.0201 29.3281 30.1028 31.7894C31.7689 33.7584 32.8797 34.0749 33.2268 33.987H38.6939C39.0699 33.987 39.8567 33.7408 39.9955 32.7563C40.1691 31.5257 35.2227 26.691 34.702 26.2515C34.2855 25.8999 34.5285 25.226 34.702 24.933C36.2062 22.9698 39.336 18.6919 39.822 17.2855C40.3079 15.879 39.2145 15.5274 38.6071 15.5274H33.8343C33.3714 15.4102 32.359 15.4044 32.0119 16.3185C30.1028 20.8895 27.7597 24.3177 26.9787 24.1419C26.3539 24.0012 26.1977 23.2628 26.1977 22.9112V16.4943C26.1977 15.5802 25.5614 15.1172 25.2432 15H19.1687C18.3877 15 17.4331 16.2746 17.867 16.3185C19.2554 16.4592 19.7183 17.4906 19.7761 17.9887V22.1201C19.7761 22.4717 19.8629 24.054 18.8215 24.1419C17.7802 24.2298 14.6562 18.4282 14.2223 17.1097C13.8752 16.0548 12.9785 15.7325 12.5735 15.7032Z" fill="white"/>
</svg>
